%FSLAX46Y46*%
G04 Gerber Fmt 4.6, Leading zero omitted, Abs format (unit mm)*
G04 Created by KiCad (PCBNEW (2014-08-29 BZR 5106)-product) date Mon 08 Sep 2014 09:09:13 PM PDT*
%MOMM*%
G01*
G04 APERTURE LIST*
%ADD10C,0.100000*%
%ADD11C,0.600000*%
%ADD12C,0.200000*%
%ADD13C,1.524000*%
%ADD14C,0.254000*%
G04 APERTURE END LIST*
D10*
D11*
X143947143Y-103861905D02*
X143947143Y-98861905D01*
X145137619Y-98861905D01*
X145851905Y-99100000D01*
X146328096Y-99576190D01*
X146566191Y-100052381D01*
X146804286Y-101004762D01*
X146804286Y-101719048D01*
X146566191Y-102671429D01*
X146328096Y-103147619D01*
X145851905Y-103623810D01*
X145137619Y-103861905D01*
X143947143Y-103861905D01*
X148947143Y-103861905D02*
X148947143Y-98861905D01*
X152280476Y-101480952D02*
X152280476Y-103861905D01*
X150613809Y-98861905D02*
X152280476Y-101480952D01*
X153947143Y-98861905D01*
D12*
X135890000Y-89662000D02*
X135890000Y-113538000D01*
X131572096Y-114054000D02*
X131476858Y-114006381D01*
X131334001Y-114006381D01*
X131191143Y-114054000D01*
X131095905Y-114149238D01*
X131048286Y-114244476D01*
X131000667Y-114434952D01*
X131000667Y-114577810D01*
X131048286Y-114768286D01*
X131095905Y-114863524D01*
X131191143Y-114958762D01*
X131334001Y-115006381D01*
X131429239Y-115006381D01*
X131572096Y-114958762D01*
X131619715Y-114911143D01*
X131619715Y-114577810D01*
X131429239Y-114577810D01*
X132048286Y-115006381D02*
X132048286Y-114006381D01*
X132619715Y-115006381D01*
X132619715Y-114006381D01*
X133095905Y-115006381D02*
X133095905Y-114006381D01*
X133334000Y-114006381D01*
X133476858Y-114054000D01*
X133572096Y-114149238D01*
X133619715Y-114244476D01*
X133667334Y-114434952D01*
X133667334Y-114577810D01*
X133619715Y-114768286D01*
X133572096Y-114863524D01*
X133476858Y-114958762D01*
X133334000Y-115006381D01*
X133095905Y-115006381D01*
X135382000Y-114554000D02*
X134112000Y-114554000D01*
X135128000Y-114808000D02*
X135636000Y-114554000D01*
X135636000Y-114554000D02*
X135128000Y-114300000D01*
X135636000Y-88392000D02*
X136144000Y-88646000D01*
X135636000Y-88900000D02*
X136144000Y-88646000D01*
X134620000Y-88646000D02*
X136144000Y-88646000D01*
X131365810Y-88098381D02*
X131984858Y-88098381D01*
X131651524Y-88479333D01*
X131794382Y-88479333D01*
X131889620Y-88526952D01*
X131937239Y-88574571D01*
X131984858Y-88669810D01*
X131984858Y-88907905D01*
X131937239Y-89003143D01*
X131889620Y-89050762D01*
X131794382Y-89098381D01*
X131508667Y-89098381D01*
X131413429Y-89050762D01*
X131365810Y-89003143D01*
X132413429Y-89003143D02*
X132461048Y-89050762D01*
X132413429Y-89098381D01*
X132365810Y-89050762D01*
X132413429Y-89003143D01*
X132413429Y-89098381D01*
X132794381Y-88098381D02*
X133413429Y-88098381D01*
X133080095Y-88479333D01*
X133222953Y-88479333D01*
X133318191Y-88526952D01*
X133365810Y-88574571D01*
X133413429Y-88669810D01*
X133413429Y-88907905D01*
X133365810Y-89003143D01*
X133318191Y-89050762D01*
X133222953Y-89098381D01*
X132937238Y-89098381D01*
X132842000Y-89050762D01*
X132794381Y-89003143D01*
X133699143Y-88098381D02*
X134032476Y-89098381D01*
X134365810Y-88098381D01*
D10*
G36*
X153097294Y-107466788D02*
X153094678Y-107576890D01*
X153059814Y-107671789D01*
X152989477Y-107759807D01*
X152980515Y-107768412D01*
X152955687Y-107785687D01*
X152899147Y-107821131D01*
X152813076Y-107873462D01*
X152699656Y-107941399D01*
X152561066Y-108023660D01*
X152399488Y-108118964D01*
X152217102Y-108226030D01*
X152016090Y-108343576D01*
X151798632Y-108470321D01*
X151566908Y-108604982D01*
X151323101Y-108746280D01*
X151069389Y-108892932D01*
X150924846Y-108976314D01*
X150664920Y-109126182D01*
X150412507Y-109271781D01*
X150169896Y-109411789D01*
X149939377Y-109544880D01*
X149723241Y-109669731D01*
X149523776Y-109785017D01*
X149343272Y-109889415D01*
X149184020Y-109981600D01*
X149048309Y-110060248D01*
X148938429Y-110124036D01*
X148856670Y-110171638D01*
X148805321Y-110201732D01*
X148791637Y-110209877D01*
X148725527Y-110248700D01*
X148671954Y-110278106D01*
X148639776Y-110293305D01*
X148635329Y-110294386D01*
X148612575Y-110284778D01*
X148564850Y-110259198D01*
X148500442Y-110222191D01*
X148463000Y-110199875D01*
X148428825Y-110179697D01*
X148362724Y-110141102D01*
X148266616Y-110085200D01*
X148142423Y-110013103D01*
X147992065Y-109925922D01*
X147817462Y-109824769D01*
X147620534Y-109710756D01*
X147403203Y-109584993D01*
X147167388Y-109448592D01*
X146915011Y-109302665D01*
X146647991Y-109148322D01*
X146368249Y-108986675D01*
X146077705Y-108818836D01*
X145778280Y-108645917D01*
X145571308Y-108526417D01*
X145150771Y-108283602D01*
X144762827Y-108059532D01*
X144406201Y-107853459D01*
X144079618Y-107664637D01*
X143781802Y-107492319D01*
X143511477Y-107335758D01*
X143267370Y-107194208D01*
X143048203Y-107066921D01*
X142852702Y-106953151D01*
X142679591Y-106852150D01*
X142527596Y-106763173D01*
X142395439Y-106685471D01*
X142281847Y-106618299D01*
X142185544Y-106560910D01*
X142105254Y-106512556D01*
X142039702Y-106472491D01*
X141987612Y-106439968D01*
X141947710Y-106414240D01*
X141918720Y-106394561D01*
X141899366Y-106380183D01*
X141888373Y-106370359D01*
X141887316Y-106369174D01*
X141865459Y-106347753D01*
X141844611Y-106347852D01*
X141811185Y-106371284D01*
X141799393Y-106380900D01*
X141652141Y-106477263D01*
X141482084Y-106545287D01*
X141463858Y-106548963D01*
X141463858Y-105552304D01*
X141447373Y-105452692D01*
X141425587Y-105405057D01*
X141379280Y-105352086D01*
X141310321Y-105303143D01*
X141234211Y-105267317D01*
X141167414Y-105253693D01*
X141120457Y-105262155D01*
X141059386Y-105283440D01*
X141035521Y-105294156D01*
X140952090Y-105352672D01*
X140898100Y-105428125D01*
X140871982Y-105513679D01*
X140872165Y-105602497D01*
X140897078Y-105687743D01*
X140945150Y-105762579D01*
X141014810Y-105820170D01*
X141104488Y-105853678D01*
X141165385Y-105859385D01*
X141263047Y-105844934D01*
X141322631Y-105815357D01*
X141399239Y-105742596D01*
X141447064Y-105651926D01*
X141463858Y-105552304D01*
X141463858Y-106548963D01*
X141295283Y-106582971D01*
X141165385Y-106590250D01*
X140968976Y-106575061D01*
X140792881Y-106528089D01*
X140631993Y-106447227D01*
X140481203Y-106330366D01*
X140440325Y-106291137D01*
X140309133Y-106134539D01*
X140213947Y-105963788D01*
X140155377Y-105780475D01*
X140134029Y-105586188D01*
X140136566Y-105497923D01*
X140166918Y-105299498D01*
X140230137Y-105120450D01*
X140328133Y-104956597D01*
X140446379Y-104819929D01*
X140597269Y-104695844D01*
X140767153Y-104605442D01*
X140953685Y-104549671D01*
X141154519Y-104529479D01*
X141165385Y-104529420D01*
X141367237Y-104547408D01*
X141554367Y-104601530D01*
X141726083Y-104691500D01*
X141881694Y-104817034D01*
X141894491Y-104829671D01*
X142021962Y-104983825D01*
X142116327Y-105155560D01*
X142175827Y-105340399D01*
X142198701Y-105533862D01*
X142197786Y-105601590D01*
X142191154Y-105741923D01*
X142265793Y-105771736D01*
X142302016Y-105789410D01*
X142366595Y-105824249D01*
X142454366Y-105873330D01*
X142560167Y-105933731D01*
X142678834Y-106002530D01*
X142805203Y-106076805D01*
X142812870Y-106081344D01*
X142907706Y-106137249D01*
X143028959Y-106208302D01*
X143174531Y-106293293D01*
X143342327Y-106391013D01*
X143530250Y-106500254D01*
X143736204Y-106619807D01*
X143958093Y-106748464D01*
X144193821Y-106885014D01*
X144441291Y-107028251D01*
X144698407Y-107176965D01*
X144963073Y-107329947D01*
X145233193Y-107485989D01*
X145506670Y-107643881D01*
X145781408Y-107802416D01*
X146055311Y-107960384D01*
X146326283Y-108116577D01*
X146592227Y-108269786D01*
X146851047Y-108418802D01*
X147100647Y-108562417D01*
X147338930Y-108699421D01*
X147563802Y-108828607D01*
X147773164Y-108948765D01*
X147964921Y-109058686D01*
X148136977Y-109157162D01*
X148287235Y-109242984D01*
X148413599Y-109314944D01*
X148513973Y-109371832D01*
X148586261Y-109412441D01*
X148628366Y-109435560D01*
X148638846Y-109440699D01*
X148657992Y-109431036D01*
X148708806Y-109403013D01*
X148789143Y-109357857D01*
X148896859Y-109296797D01*
X149029809Y-109221060D01*
X149185848Y-109131875D01*
X149362832Y-109030470D01*
X149558616Y-108918072D01*
X149771056Y-108795909D01*
X149998006Y-108665210D01*
X150237322Y-108527203D01*
X150486860Y-108383116D01*
X150592693Y-108321951D01*
X150846707Y-108175137D01*
X151091935Y-108033456D01*
X151326175Y-107898176D01*
X151547229Y-107770566D01*
X151752899Y-107651892D01*
X151940986Y-107543422D01*
X152109289Y-107446423D01*
X152255611Y-107362164D01*
X152377753Y-107291912D01*
X152473516Y-107236934D01*
X152540700Y-107198498D01*
X152577106Y-107177872D01*
X152582460Y-107174943D01*
X152661435Y-107151023D01*
X152756469Y-107146453D01*
X152850083Y-107160529D01*
X152918508Y-107188457D01*
X153012414Y-107266141D01*
X153072111Y-107362450D01*
X153097294Y-107466788D01*
X153097294Y-107466788D01*
X153097294Y-107466788D01*
G37*
X153097294Y-107466788D02*
X153094678Y-107576890D01*
X153059814Y-107671789D01*
X152989477Y-107759807D01*
X152980515Y-107768412D01*
X152955687Y-107785687D01*
X152899147Y-107821131D01*
X152813076Y-107873462D01*
X152699656Y-107941399D01*
X152561066Y-108023660D01*
X152399488Y-108118964D01*
X152217102Y-108226030D01*
X152016090Y-108343576D01*
X151798632Y-108470321D01*
X151566908Y-108604982D01*
X151323101Y-108746280D01*
X151069389Y-108892932D01*
X150924846Y-108976314D01*
X150664920Y-109126182D01*
X150412507Y-109271781D01*
X150169896Y-109411789D01*
X149939377Y-109544880D01*
X149723241Y-109669731D01*
X149523776Y-109785017D01*
X149343272Y-109889415D01*
X149184020Y-109981600D01*
X149048309Y-110060248D01*
X148938429Y-110124036D01*
X148856670Y-110171638D01*
X148805321Y-110201732D01*
X148791637Y-110209877D01*
X148725527Y-110248700D01*
X148671954Y-110278106D01*
X148639776Y-110293305D01*
X148635329Y-110294386D01*
X148612575Y-110284778D01*
X148564850Y-110259198D01*
X148500442Y-110222191D01*
X148463000Y-110199875D01*
X148428825Y-110179697D01*
X148362724Y-110141102D01*
X148266616Y-110085200D01*
X148142423Y-110013103D01*
X147992065Y-109925922D01*
X147817462Y-109824769D01*
X147620534Y-109710756D01*
X147403203Y-109584993D01*
X147167388Y-109448592D01*
X146915011Y-109302665D01*
X146647991Y-109148322D01*
X146368249Y-108986675D01*
X146077705Y-108818836D01*
X145778280Y-108645917D01*
X145571308Y-108526417D01*
X145150771Y-108283602D01*
X144762827Y-108059532D01*
X144406201Y-107853459D01*
X144079618Y-107664637D01*
X143781802Y-107492319D01*
X143511477Y-107335758D01*
X143267370Y-107194208D01*
X143048203Y-107066921D01*
X142852702Y-106953151D01*
X142679591Y-106852150D01*
X142527596Y-106763173D01*
X142395439Y-106685471D01*
X142281847Y-106618299D01*
X142185544Y-106560910D01*
X142105254Y-106512556D01*
X142039702Y-106472491D01*
X141987612Y-106439968D01*
X141947710Y-106414240D01*
X141918720Y-106394561D01*
X141899366Y-106380183D01*
X141888373Y-106370359D01*
X141887316Y-106369174D01*
X141865459Y-106347753D01*
X141844611Y-106347852D01*
X141811185Y-106371284D01*
X141799393Y-106380900D01*
X141652141Y-106477263D01*
X141482084Y-106545287D01*
X141463858Y-106548963D01*
X141463858Y-105552304D01*
X141447373Y-105452692D01*
X141425587Y-105405057D01*
X141379280Y-105352086D01*
X141310321Y-105303143D01*
X141234211Y-105267317D01*
X141167414Y-105253693D01*
X141120457Y-105262155D01*
X141059386Y-105283440D01*
X141035521Y-105294156D01*
X140952090Y-105352672D01*
X140898100Y-105428125D01*
X140871982Y-105513679D01*
X140872165Y-105602497D01*
X140897078Y-105687743D01*
X140945150Y-105762579D01*
X141014810Y-105820170D01*
X141104488Y-105853678D01*
X141165385Y-105859385D01*
X141263047Y-105844934D01*
X141322631Y-105815357D01*
X141399239Y-105742596D01*
X141447064Y-105651926D01*
X141463858Y-105552304D01*
X141463858Y-106548963D01*
X141295283Y-106582971D01*
X141165385Y-106590250D01*
X140968976Y-106575061D01*
X140792881Y-106528089D01*
X140631993Y-106447227D01*
X140481203Y-106330366D01*
X140440325Y-106291137D01*
X140309133Y-106134539D01*
X140213947Y-105963788D01*
X140155377Y-105780475D01*
X140134029Y-105586188D01*
X140136566Y-105497923D01*
X140166918Y-105299498D01*
X140230137Y-105120450D01*
X140328133Y-104956597D01*
X140446379Y-104819929D01*
X140597269Y-104695844D01*
X140767153Y-104605442D01*
X140953685Y-104549671D01*
X141154519Y-104529479D01*
X141165385Y-104529420D01*
X141367237Y-104547408D01*
X141554367Y-104601530D01*
X141726083Y-104691500D01*
X141881694Y-104817034D01*
X141894491Y-104829671D01*
X142021962Y-104983825D01*
X142116327Y-105155560D01*
X142175827Y-105340399D01*
X142198701Y-105533862D01*
X142197786Y-105601590D01*
X142191154Y-105741923D01*
X142265793Y-105771736D01*
X142302016Y-105789410D01*
X142366595Y-105824249D01*
X142454366Y-105873330D01*
X142560167Y-105933731D01*
X142678834Y-106002530D01*
X142805203Y-106076805D01*
X142812870Y-106081344D01*
X142907706Y-106137249D01*
X143028959Y-106208302D01*
X143174531Y-106293293D01*
X143342327Y-106391013D01*
X143530250Y-106500254D01*
X143736204Y-106619807D01*
X143958093Y-106748464D01*
X144193821Y-106885014D01*
X144441291Y-107028251D01*
X144698407Y-107176965D01*
X144963073Y-107329947D01*
X145233193Y-107485989D01*
X145506670Y-107643881D01*
X145781408Y-107802416D01*
X146055311Y-107960384D01*
X146326283Y-108116577D01*
X146592227Y-108269786D01*
X146851047Y-108418802D01*
X147100647Y-108562417D01*
X147338930Y-108699421D01*
X147563802Y-108828607D01*
X147773164Y-108948765D01*
X147964921Y-109058686D01*
X148136977Y-109157162D01*
X148287235Y-109242984D01*
X148413599Y-109314944D01*
X148513973Y-109371832D01*
X148586261Y-109412441D01*
X148628366Y-109435560D01*
X148638846Y-109440699D01*
X148657992Y-109431036D01*
X148708806Y-109403013D01*
X148789143Y-109357857D01*
X148896859Y-109296797D01*
X149029809Y-109221060D01*
X149185848Y-109131875D01*
X149362832Y-109030470D01*
X149558616Y-108918072D01*
X149771056Y-108795909D01*
X149998006Y-108665210D01*
X150237322Y-108527203D01*
X150486860Y-108383116D01*
X150592693Y-108321951D01*
X150846707Y-108175137D01*
X151091935Y-108033456D01*
X151326175Y-107898176D01*
X151547229Y-107770566D01*
X151752899Y-107651892D01*
X151940986Y-107543422D01*
X152109289Y-107446423D01*
X152255611Y-107362164D01*
X152377753Y-107291912D01*
X152473516Y-107236934D01*
X152540700Y-107198498D01*
X152577106Y-107177872D01*
X152582460Y-107174943D01*
X152661435Y-107151023D01*
X152756469Y-107146453D01*
X152850083Y-107160529D01*
X152918508Y-107188457D01*
X153012414Y-107266141D01*
X153072111Y-107362450D01*
X153097294Y-107466788D01*
X153097294Y-107466788D01*
G36*
X157136289Y-105540606D02*
X157129757Y-105689309D01*
X157107641Y-105825878D01*
X157092040Y-105881044D01*
X157010390Y-106065256D01*
X156897451Y-106227844D01*
X156756458Y-106365493D01*
X156590645Y-106474886D01*
X156453341Y-106535887D01*
X156400649Y-106550564D01*
X156400649Y-105589180D01*
X156394724Y-105485101D01*
X156359605Y-105398822D01*
X156301688Y-105332003D01*
X156227369Y-105286303D01*
X156143042Y-105263384D01*
X156055103Y-105264904D01*
X155969947Y-105292524D01*
X155893969Y-105347905D01*
X155833565Y-105432706D01*
X155829542Y-105440926D01*
X155803410Y-105535164D01*
X155810910Y-105625939D01*
X155846625Y-105708274D01*
X155905140Y-105777194D01*
X155981040Y-105827720D01*
X156068907Y-105854877D01*
X156163327Y-105853687D01*
X156247688Y-105825162D01*
X156329200Y-105765182D01*
X156379926Y-105682724D01*
X156400649Y-105589180D01*
X156400649Y-106550564D01*
X156370695Y-106558908D01*
X156268183Y-106577513D01*
X156159809Y-106590117D01*
X156059574Y-106595134D01*
X155981483Y-106590977D01*
X155975539Y-106590015D01*
X155772030Y-106536650D01*
X155588429Y-106452735D01*
X155427932Y-106340401D01*
X155293734Y-106201781D01*
X155211147Y-106079896D01*
X155130984Y-105901516D01*
X155086099Y-105712115D01*
X155076510Y-105517524D01*
X155102240Y-105323576D01*
X155163310Y-105136103D01*
X155207434Y-105046015D01*
X155267314Y-104958409D01*
X155351198Y-104863307D01*
X155448300Y-104771008D01*
X155547835Y-104691811D01*
X155634444Y-104638280D01*
X155750846Y-104579713D01*
X155745903Y-100877126D01*
X155745359Y-100499491D01*
X155744753Y-100132247D01*
X155744092Y-99777309D01*
X155743380Y-99436591D01*
X155742626Y-99112008D01*
X155741835Y-98805473D01*
X155741014Y-98518902D01*
X155740169Y-98254208D01*
X155739307Y-98013305D01*
X155738435Y-97798109D01*
X155737558Y-97610533D01*
X155736683Y-97452491D01*
X155735817Y-97325899D01*
X155734966Y-97232669D01*
X155734137Y-97174717D01*
X155733347Y-97153985D01*
X155715941Y-97141633D01*
X155666933Y-97110489D01*
X155588301Y-97061744D01*
X155482022Y-96996595D01*
X155350071Y-96916234D01*
X155194426Y-96821858D01*
X155017063Y-96714659D01*
X154819960Y-96595832D01*
X154605093Y-96466571D01*
X154374438Y-96328071D01*
X154129973Y-96181527D01*
X153873674Y-96028132D01*
X153607519Y-95869080D01*
X153534811Y-95825672D01*
X153211402Y-95632543D01*
X152919999Y-95458325D01*
X152658983Y-95302018D01*
X152426734Y-95162626D01*
X152221632Y-95039150D01*
X152042059Y-94930593D01*
X151886395Y-94835956D01*
X151753020Y-94754242D01*
X151640316Y-94684452D01*
X151546662Y-94625589D01*
X151470439Y-94576654D01*
X151410027Y-94536651D01*
X151363808Y-94504580D01*
X151330162Y-94479444D01*
X151307469Y-94460245D01*
X151294111Y-94445985D01*
X151292657Y-94443988D01*
X151252873Y-94360609D01*
X151230603Y-94260076D01*
X151229353Y-94161716D01*
X151235360Y-94127957D01*
X151261648Y-94072718D01*
X151309412Y-94009437D01*
X151367274Y-93951231D01*
X151422965Y-93911674D01*
X151489844Y-93890307D01*
X151574641Y-93880249D01*
X151657446Y-93883002D01*
X151696616Y-93891029D01*
X151718922Y-93902666D01*
X151772823Y-93933207D01*
X151856371Y-93981503D01*
X151967623Y-94046405D01*
X152104632Y-94126764D01*
X152265454Y-94221431D01*
X152448142Y-94329256D01*
X152650752Y-94449091D01*
X152871339Y-94579787D01*
X153107956Y-94720193D01*
X153358659Y-94869162D01*
X153621502Y-95025544D01*
X153894540Y-95188190D01*
X154104919Y-95313641D01*
X156464376Y-96721241D01*
X156459303Y-100650428D01*
X156454231Y-104579616D01*
X156582764Y-104642672D01*
X156733456Y-104737271D01*
X156868502Y-104862844D01*
X156982288Y-105012602D01*
X157069198Y-105179750D01*
X157101610Y-105270311D01*
X157126990Y-105395647D01*
X157136289Y-105540606D01*
X157136289Y-105540606D01*
X157136289Y-105540606D01*
G37*
X157136289Y-105540606D02*
X157129757Y-105689309D01*
X157107641Y-105825878D01*
X157092040Y-105881044D01*
X157010390Y-106065256D01*
X156897451Y-106227844D01*
X156756458Y-106365493D01*
X156590645Y-106474886D01*
X156453341Y-106535887D01*
X156400649Y-106550564D01*
X156400649Y-105589180D01*
X156394724Y-105485101D01*
X156359605Y-105398822D01*
X156301688Y-105332003D01*
X156227369Y-105286303D01*
X156143042Y-105263384D01*
X156055103Y-105264904D01*
X155969947Y-105292524D01*
X155893969Y-105347905D01*
X155833565Y-105432706D01*
X155829542Y-105440926D01*
X155803410Y-105535164D01*
X155810910Y-105625939D01*
X155846625Y-105708274D01*
X155905140Y-105777194D01*
X155981040Y-105827720D01*
X156068907Y-105854877D01*
X156163327Y-105853687D01*
X156247688Y-105825162D01*
X156329200Y-105765182D01*
X156379926Y-105682724D01*
X156400649Y-105589180D01*
X156400649Y-106550564D01*
X156370695Y-106558908D01*
X156268183Y-106577513D01*
X156159809Y-106590117D01*
X156059574Y-106595134D01*
X155981483Y-106590977D01*
X155975539Y-106590015D01*
X155772030Y-106536650D01*
X155588429Y-106452735D01*
X155427932Y-106340401D01*
X155293734Y-106201781D01*
X155211147Y-106079896D01*
X155130984Y-105901516D01*
X155086099Y-105712115D01*
X155076510Y-105517524D01*
X155102240Y-105323576D01*
X155163310Y-105136103D01*
X155207434Y-105046015D01*
X155267314Y-104958409D01*
X155351198Y-104863307D01*
X155448300Y-104771008D01*
X155547835Y-104691811D01*
X155634444Y-104638280D01*
X155750846Y-104579713D01*
X155745903Y-100877126D01*
X155745359Y-100499491D01*
X155744753Y-100132247D01*
X155744092Y-99777309D01*
X155743380Y-99436591D01*
X155742626Y-99112008D01*
X155741835Y-98805473D01*
X155741014Y-98518902D01*
X155740169Y-98254208D01*
X155739307Y-98013305D01*
X155738435Y-97798109D01*
X155737558Y-97610533D01*
X155736683Y-97452491D01*
X155735817Y-97325899D01*
X155734966Y-97232669D01*
X155734137Y-97174717D01*
X155733347Y-97153985D01*
X155715941Y-97141633D01*
X155666933Y-97110489D01*
X155588301Y-97061744D01*
X155482022Y-96996595D01*
X155350071Y-96916234D01*
X155194426Y-96821858D01*
X155017063Y-96714659D01*
X154819960Y-96595832D01*
X154605093Y-96466571D01*
X154374438Y-96328071D01*
X154129973Y-96181527D01*
X153873674Y-96028132D01*
X153607519Y-95869080D01*
X153534811Y-95825672D01*
X153211402Y-95632543D01*
X152919999Y-95458325D01*
X152658983Y-95302018D01*
X152426734Y-95162626D01*
X152221632Y-95039150D01*
X152042059Y-94930593D01*
X151886395Y-94835956D01*
X151753020Y-94754242D01*
X151640316Y-94684452D01*
X151546662Y-94625589D01*
X151470439Y-94576654D01*
X151410027Y-94536651D01*
X151363808Y-94504580D01*
X151330162Y-94479444D01*
X151307469Y-94460245D01*
X151294111Y-94445985D01*
X151292657Y-94443988D01*
X151252873Y-94360609D01*
X151230603Y-94260076D01*
X151229353Y-94161716D01*
X151235360Y-94127957D01*
X151261648Y-94072718D01*
X151309412Y-94009437D01*
X151367274Y-93951231D01*
X151422965Y-93911674D01*
X151489844Y-93890307D01*
X151574641Y-93880249D01*
X151657446Y-93883002D01*
X151696616Y-93891029D01*
X151718922Y-93902666D01*
X151772823Y-93933207D01*
X151856371Y-93981503D01*
X151967623Y-94046405D01*
X152104632Y-94126764D01*
X152265454Y-94221431D01*
X152448142Y-94329256D01*
X152650752Y-94449091D01*
X152871339Y-94579787D01*
X153107956Y-94720193D01*
X153358659Y-94869162D01*
X153621502Y-95025544D01*
X153894540Y-95188190D01*
X154104919Y-95313641D01*
X156464376Y-96721241D01*
X156459303Y-100650428D01*
X156454231Y-104579616D01*
X156582764Y-104642672D01*
X156733456Y-104737271D01*
X156868502Y-104862844D01*
X156982288Y-105012602D01*
X157069198Y-105179750D01*
X157101610Y-105270311D01*
X157126990Y-105395647D01*
X157136289Y-105540606D01*
X157136289Y-105540606D01*
G36*
X149666554Y-92475539D02*
X149648047Y-92674397D01*
X149594340Y-92861029D01*
X149508158Y-93031632D01*
X149392226Y-93182407D01*
X149249268Y-93309551D01*
X149082007Y-93409265D01*
X148963117Y-93457046D01*
X148941371Y-93461950D01*
X148941371Y-92471432D01*
X148925118Y-92391656D01*
X148883250Y-92309816D01*
X148825001Y-92241529D01*
X148790317Y-92215978D01*
X148695830Y-92181969D01*
X148595256Y-92181450D01*
X148498519Y-92212268D01*
X148415541Y-92272268D01*
X148389045Y-92303122D01*
X148354544Y-92377030D01*
X148341111Y-92467622D01*
X148349840Y-92557993D01*
X148369111Y-92610919D01*
X148432905Y-92693707D01*
X148517483Y-92748282D01*
X148614607Y-92772603D01*
X148716041Y-92764626D01*
X148813548Y-92722312D01*
X148814882Y-92721442D01*
X148865367Y-92670950D01*
X148908463Y-92597776D01*
X148935881Y-92518302D01*
X148941371Y-92471432D01*
X148941371Y-93461950D01*
X148781925Y-93497912D01*
X148592725Y-93505119D01*
X148403744Y-93479946D01*
X148223210Y-93423672D01*
X148059350Y-93337577D01*
X148020475Y-93310452D01*
X147966810Y-93270776D01*
X147900537Y-93327426D01*
X147877135Y-93343133D01*
X147821834Y-93377797D01*
X147736322Y-93430404D01*
X147622290Y-93499937D01*
X147481424Y-93585381D01*
X147315414Y-93685722D01*
X147125949Y-93799945D01*
X146914716Y-93927033D01*
X146683406Y-94065973D01*
X146433705Y-94215748D01*
X146167303Y-94375343D01*
X145885889Y-94543744D01*
X145591151Y-94719935D01*
X145284777Y-94902901D01*
X144968457Y-95091626D01*
X144686386Y-95259770D01*
X141538509Y-97135462D01*
X141537133Y-99255385D01*
X141536897Y-99589206D01*
X141536621Y-99886196D01*
X141536265Y-100148600D01*
X141535790Y-100378665D01*
X141535155Y-100578636D01*
X141534322Y-100750760D01*
X141533252Y-100897280D01*
X141531903Y-101020445D01*
X141530238Y-101122499D01*
X141528215Y-101205687D01*
X141525796Y-101272257D01*
X141522942Y-101324454D01*
X141519612Y-101364522D01*
X141515767Y-101394709D01*
X141511367Y-101417261D01*
X141506373Y-101434421D01*
X141500745Y-101448438D01*
X141498406Y-101453462D01*
X141445831Y-101545566D01*
X141387159Y-101608867D01*
X141327547Y-101646737D01*
X141250518Y-101669831D01*
X141156995Y-101676187D01*
X141065899Y-101665582D01*
X141018846Y-101650353D01*
X140921760Y-101585764D01*
X140845278Y-101489602D01*
X140838324Y-101477318D01*
X140833151Y-101466151D01*
X140828521Y-101451207D01*
X140824406Y-101430380D01*
X140820775Y-101401565D01*
X140817598Y-101362655D01*
X140814845Y-101311544D01*
X140812486Y-101246126D01*
X140810491Y-101164295D01*
X140808829Y-101063945D01*
X140807471Y-100942969D01*
X140806386Y-100799263D01*
X140805545Y-100630719D01*
X140804917Y-100435232D01*
X140804473Y-100210695D01*
X140804181Y-99955003D01*
X140804013Y-99666050D01*
X140803937Y-99341728D01*
X140803923Y-99069849D01*
X140803923Y-96725312D01*
X144163558Y-94718794D01*
X144497280Y-94519553D01*
X144822334Y-94325626D01*
X145137108Y-94137969D01*
X145439991Y-93957539D01*
X145729370Y-93785291D01*
X146003632Y-93622181D01*
X146261166Y-93469166D01*
X146500359Y-93327202D01*
X146719600Y-93197244D01*
X146917275Y-93080250D01*
X147091772Y-92977173D01*
X147241480Y-92888972D01*
X147364785Y-92816602D01*
X147460076Y-92761018D01*
X147525741Y-92723178D01*
X147560167Y-92704037D01*
X147564939Y-92701799D01*
X147583742Y-92694598D01*
X147595829Y-92679429D01*
X147602645Y-92648896D01*
X147605636Y-92595602D01*
X147606247Y-92512151D01*
X147606210Y-92490622D01*
X147618936Y-92295648D01*
X147659849Y-92123725D01*
X147731566Y-91968352D01*
X147836704Y-91823029D01*
X147904248Y-91750479D01*
X148058153Y-91622148D01*
X148226371Y-91527696D01*
X148404446Y-91467146D01*
X148587922Y-91440524D01*
X148772340Y-91447854D01*
X148953246Y-91489162D01*
X149126180Y-91564471D01*
X149286688Y-91673807D01*
X149362029Y-91742382D01*
X149492378Y-91896714D01*
X149585846Y-92063058D01*
X149643422Y-92243801D01*
X149666098Y-92441326D01*
X149666554Y-92475539D01*
X149666554Y-92475539D01*
X149666554Y-92475539D01*
G37*
X149666554Y-92475539D02*
X149648047Y-92674397D01*
X149594340Y-92861029D01*
X149508158Y-93031632D01*
X149392226Y-93182407D01*
X149249268Y-93309551D01*
X149082007Y-93409265D01*
X148963117Y-93457046D01*
X148941371Y-93461950D01*
X148941371Y-92471432D01*
X148925118Y-92391656D01*
X148883250Y-92309816D01*
X148825001Y-92241529D01*
X148790317Y-92215978D01*
X148695830Y-92181969D01*
X148595256Y-92181450D01*
X148498519Y-92212268D01*
X148415541Y-92272268D01*
X148389045Y-92303122D01*
X148354544Y-92377030D01*
X148341111Y-92467622D01*
X148349840Y-92557993D01*
X148369111Y-92610919D01*
X148432905Y-92693707D01*
X148517483Y-92748282D01*
X148614607Y-92772603D01*
X148716041Y-92764626D01*
X148813548Y-92722312D01*
X148814882Y-92721442D01*
X148865367Y-92670950D01*
X148908463Y-92597776D01*
X148935881Y-92518302D01*
X148941371Y-92471432D01*
X148941371Y-93461950D01*
X148781925Y-93497912D01*
X148592725Y-93505119D01*
X148403744Y-93479946D01*
X148223210Y-93423672D01*
X148059350Y-93337577D01*
X148020475Y-93310452D01*
X147966810Y-93270776D01*
X147900537Y-93327426D01*
X147877135Y-93343133D01*
X147821834Y-93377797D01*
X147736322Y-93430404D01*
X147622290Y-93499937D01*
X147481424Y-93585381D01*
X147315414Y-93685722D01*
X147125949Y-93799945D01*
X146914716Y-93927033D01*
X146683406Y-94065973D01*
X146433705Y-94215748D01*
X146167303Y-94375343D01*
X145885889Y-94543744D01*
X145591151Y-94719935D01*
X145284777Y-94902901D01*
X144968457Y-95091626D01*
X144686386Y-95259770D01*
X141538509Y-97135462D01*
X141537133Y-99255385D01*
X141536897Y-99589206D01*
X141536621Y-99886196D01*
X141536265Y-100148600D01*
X141535790Y-100378665D01*
X141535155Y-100578636D01*
X141534322Y-100750760D01*
X141533252Y-100897280D01*
X141531903Y-101020445D01*
X141530238Y-101122499D01*
X141528215Y-101205687D01*
X141525796Y-101272257D01*
X141522942Y-101324454D01*
X141519612Y-101364522D01*
X141515767Y-101394709D01*
X141511367Y-101417261D01*
X141506373Y-101434421D01*
X141500745Y-101448438D01*
X141498406Y-101453462D01*
X141445831Y-101545566D01*
X141387159Y-101608867D01*
X141327547Y-101646737D01*
X141250518Y-101669831D01*
X141156995Y-101676187D01*
X141065899Y-101665582D01*
X141018846Y-101650353D01*
X140921760Y-101585764D01*
X140845278Y-101489602D01*
X140838324Y-101477318D01*
X140833151Y-101466151D01*
X140828521Y-101451207D01*
X140824406Y-101430380D01*
X140820775Y-101401565D01*
X140817598Y-101362655D01*
X140814845Y-101311544D01*
X140812486Y-101246126D01*
X140810491Y-101164295D01*
X140808829Y-101063945D01*
X140807471Y-100942969D01*
X140806386Y-100799263D01*
X140805545Y-100630719D01*
X140804917Y-100435232D01*
X140804473Y-100210695D01*
X140804181Y-99955003D01*
X140804013Y-99666050D01*
X140803937Y-99341728D01*
X140803923Y-99069849D01*
X140803923Y-96725312D01*
X144163558Y-94718794D01*
X144497280Y-94519553D01*
X144822334Y-94325626D01*
X145137108Y-94137969D01*
X145439991Y-93957539D01*
X145729370Y-93785291D01*
X146003632Y-93622181D01*
X146261166Y-93469166D01*
X146500359Y-93327202D01*
X146719600Y-93197244D01*
X146917275Y-93080250D01*
X147091772Y-92977173D01*
X147241480Y-92888972D01*
X147364785Y-92816602D01*
X147460076Y-92761018D01*
X147525741Y-92723178D01*
X147560167Y-92704037D01*
X147564939Y-92701799D01*
X147583742Y-92694598D01*
X147595829Y-92679429D01*
X147602645Y-92648896D01*
X147605636Y-92595602D01*
X147606247Y-92512151D01*
X147606210Y-92490622D01*
X147618936Y-92295648D01*
X147659849Y-92123725D01*
X147731566Y-91968352D01*
X147836704Y-91823029D01*
X147904248Y-91750479D01*
X148058153Y-91622148D01*
X148226371Y-91527696D01*
X148404446Y-91467146D01*
X148587922Y-91440524D01*
X148772340Y-91447854D01*
X148953246Y-91489162D01*
X149126180Y-91564471D01*
X149286688Y-91673807D01*
X149362029Y-91742382D01*
X149492378Y-91896714D01*
X149585846Y-92063058D01*
X149643422Y-92243801D01*
X149666098Y-92441326D01*
X149666554Y-92475539D01*
X149666554Y-92475539D01*
X127378667Y-101833333D02*
X127878667Y-101833333D01*
X127978667Y-101866667D01*
X128045333Y-101933333D01*
X128078667Y-102033333D01*
X128078667Y-102100000D01*
X128078667Y-101133334D02*
X128078667Y-101533334D01*
X128078667Y-101333334D02*
X127378667Y-101333334D01*
X127478667Y-101400000D01*
X127545333Y-101466667D01*
X127578667Y-101533334D01*
X130056000Y-90287857D02*
X130008381Y-90340238D01*
X130008381Y-90418810D01*
X130056000Y-90497381D01*
X130151238Y-90549762D01*
X130246476Y-90575953D01*
X130436952Y-90602143D01*
X130579810Y-90602143D01*
X130770286Y-90575953D01*
X130865524Y-90549762D01*
X130960762Y-90497381D01*
X131008381Y-90418810D01*
X131008381Y-90366429D01*
X130960762Y-90287857D01*
X130913143Y-90261667D01*
X130579810Y-90261667D01*
X130579810Y-90366429D01*
X130008381Y-90078334D02*
X130008381Y-89737857D01*
X130389333Y-89921191D01*
X130389333Y-89842619D01*
X130436952Y-89790238D01*
X130484571Y-89764048D01*
X130579810Y-89737857D01*
X130817905Y-89737857D01*
X130913143Y-89764048D01*
X130960762Y-89790238D01*
X131008381Y-89842619D01*
X131008381Y-89999762D01*
X130960762Y-90052143D01*
X130913143Y-90078334D01*
X130056000Y-93652857D02*
X130008381Y-93705238D01*
X130008381Y-93783810D01*
X130056000Y-93862381D01*
X130151238Y-93914762D01*
X130246476Y-93940953D01*
X130436952Y-93967143D01*
X130579810Y-93967143D01*
X130770286Y-93940953D01*
X130865524Y-93914762D01*
X130960762Y-93862381D01*
X131008381Y-93783810D01*
X131008381Y-93731429D01*
X130960762Y-93652857D01*
X130913143Y-93626667D01*
X130579810Y-93626667D01*
X130579810Y-93731429D01*
X130103619Y-93417143D02*
X130056000Y-93390953D01*
X130008381Y-93338572D01*
X130008381Y-93207619D01*
X130056000Y-93155238D01*
X130103619Y-93129048D01*
X130198857Y-93102857D01*
X130294095Y-93102857D01*
X130436952Y-93129048D01*
X131008381Y-93443334D01*
X131008381Y-93102857D01*
X129960762Y-92474285D02*
X131246476Y-92945714D01*
X131008381Y-91976667D02*
X130532190Y-92160000D01*
X131008381Y-92290953D02*
X130008381Y-92290953D01*
X130008381Y-92081429D01*
X130056000Y-92029048D01*
X130103619Y-92002857D01*
X130198857Y-91976667D01*
X130341714Y-91976667D01*
X130436952Y-92002857D01*
X130484571Y-92029048D01*
X130532190Y-92081429D01*
X130532190Y-92290953D01*
X130008381Y-91793334D02*
X131008381Y-91426667D01*
X130008381Y-91426667D02*
X131008381Y-91793334D01*
X130056000Y-96127381D02*
X130008381Y-96179762D01*
X130008381Y-96258334D01*
X130056000Y-96336905D01*
X130151238Y-96389286D01*
X130246476Y-96415477D01*
X130436952Y-96441667D01*
X130579810Y-96441667D01*
X130770286Y-96415477D01*
X130865524Y-96389286D01*
X130960762Y-96336905D01*
X131008381Y-96258334D01*
X131008381Y-96205953D01*
X130960762Y-96127381D01*
X130913143Y-96101191D01*
X130579810Y-96101191D01*
X130579810Y-96205953D01*
X131008381Y-95577381D02*
X131008381Y-95891667D01*
X131008381Y-95734524D02*
X130008381Y-95734524D01*
X130151238Y-95786905D01*
X130246476Y-95839286D01*
X130294095Y-95891667D01*
X129960762Y-94948809D02*
X131246476Y-95420238D01*
X130008381Y-94844048D02*
X130008381Y-94529762D01*
X131008381Y-94686905D02*
X130008381Y-94686905D01*
X130008381Y-94398810D02*
X131008381Y-94032143D01*
X130008381Y-94032143D02*
X131008381Y-94398810D01*
X131008381Y-98654286D02*
X130008381Y-98654286D01*
X130722667Y-98470952D01*
X130008381Y-98287619D01*
X131008381Y-98287619D01*
X130008381Y-97920953D02*
X130008381Y-97816191D01*
X130056000Y-97763810D01*
X130151238Y-97711429D01*
X130341714Y-97685238D01*
X130675048Y-97685238D01*
X130865524Y-97711429D01*
X130960762Y-97763810D01*
X131008381Y-97816191D01*
X131008381Y-97920953D01*
X130960762Y-97973334D01*
X130865524Y-98025715D01*
X130675048Y-98051905D01*
X130341714Y-98051905D01*
X130151238Y-98025715D01*
X130056000Y-97973334D01*
X130008381Y-97920953D01*
X130960762Y-97475715D02*
X131008381Y-97397144D01*
X131008381Y-97266191D01*
X130960762Y-97213810D01*
X130913143Y-97187620D01*
X130817905Y-97161429D01*
X130722667Y-97161429D01*
X130627429Y-97187620D01*
X130579810Y-97213810D01*
X130532190Y-97266191D01*
X130484571Y-97370953D01*
X130436952Y-97423334D01*
X130389333Y-97449525D01*
X130294095Y-97475715D01*
X130198857Y-97475715D01*
X130103619Y-97449525D01*
X130056000Y-97423334D01*
X130008381Y-97370953D01*
X130008381Y-97240001D01*
X130056000Y-97161429D01*
X131008381Y-96925715D02*
X130008381Y-96925715D01*
X131008381Y-101194286D02*
X130008381Y-101194286D01*
X130722667Y-101010952D01*
X130008381Y-100827619D01*
X131008381Y-100827619D01*
X131008381Y-100565715D02*
X130008381Y-100565715D01*
X130960762Y-100330000D02*
X131008381Y-100251429D01*
X131008381Y-100120476D01*
X130960762Y-100068095D01*
X130913143Y-100041905D01*
X130817905Y-100015714D01*
X130722667Y-100015714D01*
X130627429Y-100041905D01*
X130579810Y-100068095D01*
X130532190Y-100120476D01*
X130484571Y-100225238D01*
X130436952Y-100277619D01*
X130389333Y-100303810D01*
X130294095Y-100330000D01*
X130198857Y-100330000D01*
X130103619Y-100303810D01*
X130056000Y-100277619D01*
X130008381Y-100225238D01*
X130008381Y-100094286D01*
X130056000Y-100015714D01*
X130008381Y-99675238D02*
X130008381Y-99570476D01*
X130056000Y-99518095D01*
X130151238Y-99465714D01*
X130341714Y-99439523D01*
X130675048Y-99439523D01*
X130865524Y-99465714D01*
X130960762Y-99518095D01*
X131008381Y-99570476D01*
X131008381Y-99675238D01*
X130960762Y-99727619D01*
X130865524Y-99780000D01*
X130675048Y-99806190D01*
X130341714Y-99806190D01*
X130151238Y-99780000D01*
X130056000Y-99727619D01*
X130008381Y-99675238D01*
X130960762Y-103577143D02*
X131008381Y-103498572D01*
X131008381Y-103367619D01*
X130960762Y-103315238D01*
X130913143Y-103289048D01*
X130817905Y-103262857D01*
X130722667Y-103262857D01*
X130627429Y-103289048D01*
X130579810Y-103315238D01*
X130532190Y-103367619D01*
X130484571Y-103472381D01*
X130436952Y-103524762D01*
X130389333Y-103550953D01*
X130294095Y-103577143D01*
X130198857Y-103577143D01*
X130103619Y-103550953D01*
X130056000Y-103524762D01*
X130008381Y-103472381D01*
X130008381Y-103341429D01*
X130056000Y-103262857D01*
X130913143Y-102712857D02*
X130960762Y-102739047D01*
X131008381Y-102817619D01*
X131008381Y-102870000D01*
X130960762Y-102948571D01*
X130865524Y-103000952D01*
X130770286Y-103027143D01*
X130579810Y-103053333D01*
X130436952Y-103053333D01*
X130246476Y-103027143D01*
X130151238Y-103000952D01*
X130056000Y-102948571D01*
X130008381Y-102870000D01*
X130008381Y-102817619D01*
X130056000Y-102739047D01*
X130103619Y-102712857D01*
X131008381Y-102477143D02*
X130008381Y-102477143D01*
X131008381Y-102162857D02*
X130436952Y-102398571D01*
X130008381Y-102162857D02*
X130579810Y-102477143D01*
X130960762Y-106077857D02*
X131008381Y-105999286D01*
X131008381Y-105868333D01*
X130960762Y-105815952D01*
X130913143Y-105789762D01*
X130817905Y-105763571D01*
X130722667Y-105763571D01*
X130627429Y-105789762D01*
X130579810Y-105815952D01*
X130532190Y-105868333D01*
X130484571Y-105973095D01*
X130436952Y-106025476D01*
X130389333Y-106051667D01*
X130294095Y-106077857D01*
X130198857Y-106077857D01*
X130103619Y-106051667D01*
X130056000Y-106025476D01*
X130008381Y-105973095D01*
X130008381Y-105842143D01*
X130056000Y-105763571D01*
X131008381Y-105527857D02*
X130008381Y-105527857D01*
X130008381Y-105396904D01*
X130056000Y-105318333D01*
X130151238Y-105265952D01*
X130246476Y-105239761D01*
X130436952Y-105213571D01*
X130579810Y-105213571D01*
X130770286Y-105239761D01*
X130865524Y-105265952D01*
X130960762Y-105318333D01*
X131008381Y-105396904D01*
X131008381Y-105527857D01*
X130722667Y-105004047D02*
X130722667Y-104742142D01*
X131008381Y-105056428D02*
X130008381Y-104873095D01*
X131008381Y-104689761D01*
X130960762Y-108604762D02*
X131008381Y-108526191D01*
X131008381Y-108395238D01*
X130960762Y-108342857D01*
X130913143Y-108316667D01*
X130817905Y-108290476D01*
X130722667Y-108290476D01*
X130627429Y-108316667D01*
X130579810Y-108342857D01*
X130532190Y-108395238D01*
X130484571Y-108500000D01*
X130436952Y-108552381D01*
X130389333Y-108578572D01*
X130294095Y-108604762D01*
X130198857Y-108604762D01*
X130103619Y-108578572D01*
X130056000Y-108552381D01*
X130008381Y-108500000D01*
X130008381Y-108369048D01*
X130056000Y-108290476D01*
X130913143Y-107740476D02*
X130960762Y-107766666D01*
X131008381Y-107845238D01*
X131008381Y-107897619D01*
X130960762Y-107976190D01*
X130865524Y-108028571D01*
X130770286Y-108054762D01*
X130579810Y-108080952D01*
X130436952Y-108080952D01*
X130246476Y-108054762D01*
X130151238Y-108028571D01*
X130056000Y-107976190D01*
X130008381Y-107897619D01*
X130008381Y-107845238D01*
X130056000Y-107766666D01*
X130103619Y-107740476D01*
X131008381Y-107242857D02*
X131008381Y-107504762D01*
X130008381Y-107504762D01*
X130008381Y-111170953D02*
X130008381Y-110830476D01*
X130389333Y-111013810D01*
X130389333Y-110935238D01*
X130436952Y-110882857D01*
X130484571Y-110856667D01*
X130579810Y-110830476D01*
X130817905Y-110830476D01*
X130913143Y-110856667D01*
X130960762Y-110882857D01*
X131008381Y-110935238D01*
X131008381Y-111092381D01*
X130960762Y-111144762D01*
X130913143Y-111170953D01*
X130008381Y-110673333D02*
X131008381Y-110490000D01*
X130008381Y-110306666D01*
X130008381Y-110175714D02*
X130008381Y-109835237D01*
X130389333Y-110018571D01*
X130389333Y-109939999D01*
X130436952Y-109887618D01*
X130484571Y-109861428D01*
X130579810Y-109835237D01*
X130817905Y-109835237D01*
X130913143Y-109861428D01*
X130960762Y-109887618D01*
X131008381Y-109939999D01*
X131008381Y-110097142D01*
X130960762Y-110149523D01*
X130913143Y-110175714D01*
X130056000Y-113449047D02*
X130008381Y-113501428D01*
X130008381Y-113580000D01*
X130056000Y-113658571D01*
X130151238Y-113710952D01*
X130246476Y-113737143D01*
X130436952Y-113763333D01*
X130579810Y-113763333D01*
X130770286Y-113737143D01*
X130865524Y-113710952D01*
X130960762Y-113658571D01*
X131008381Y-113580000D01*
X131008381Y-113527619D01*
X130960762Y-113449047D01*
X130913143Y-113422857D01*
X130579810Y-113422857D01*
X130579810Y-113527619D01*
X131008381Y-113187143D02*
X130008381Y-113187143D01*
X131008381Y-112872857D01*
X130008381Y-112872857D01*
X131008381Y-112610953D02*
X130008381Y-112610953D01*
X130008381Y-112480000D01*
X130056000Y-112401429D01*
X130151238Y-112349048D01*
X130246476Y-112322857D01*
X130436952Y-112296667D01*
X130579810Y-112296667D01*
X130770286Y-112322857D01*
X130865524Y-112349048D01*
X130960762Y-112401429D01*
X131008381Y-112480000D01*
X131008381Y-112610953D01*
%LPC*%
D13*
X128905000Y-113030000D03*
X128905000Y-110490000D03*
X128905000Y-107950000D03*
X128905000Y-105410000D03*
X128905000Y-102870000D03*
X128905000Y-100330000D03*
X128905000Y-97790000D03*
X128905000Y-95250000D03*
X128905000Y-92710000D03*
X128905000Y-90170000D03*
X134620000Y-113030000D03*
X134620000Y-110490000D03*
X134620000Y-107950000D03*
X134620000Y-105410000D03*
X134620000Y-102870000D03*
X134620000Y-100330000D03*
X134620000Y-97790000D03*
X134620000Y-95250000D03*
X134620000Y-92710000D03*
X134620000Y-90170000D03*
X137160000Y-113030000D03*
X137160000Y-110490000D03*
X137160000Y-107950000D03*
X137160000Y-105410000D03*
X137160000Y-102870000D03*
X137160000Y-100330000D03*
X137160000Y-97790000D03*
X137160000Y-95250000D03*
X137160000Y-92710000D03*
X137160000Y-90170000D03*
X139700000Y-113030000D03*
X139700000Y-110490000D03*
X139700000Y-107950000D03*
X139700000Y-105410000D03*
X139700000Y-102870000D03*
X139700000Y-100330000D03*
X139700000Y-97790000D03*
X139700000Y-95250000D03*
X139700000Y-92710000D03*
X139700000Y-90170000D03*
X142240000Y-113030000D03*
X142240000Y-110490000D03*
X142240000Y-107950000D03*
X142240000Y-105410000D03*
X142240000Y-102870000D03*
X142240000Y-100330000D03*
X142240000Y-97790000D03*
X142240000Y-95250000D03*
X142240000Y-92710000D03*
X142240000Y-90170000D03*
X144780000Y-113030000D03*
X144780000Y-110490000D03*
X144780000Y-107950000D03*
X144780000Y-105410000D03*
X144780000Y-102870000D03*
X144780000Y-100330000D03*
X144780000Y-97790000D03*
X144780000Y-95250000D03*
X144780000Y-92710000D03*
X144780000Y-90170000D03*
X147320000Y-113030000D03*
X147320000Y-110490000D03*
X147320000Y-107950000D03*
X147320000Y-105410000D03*
X147320000Y-102870000D03*
X147320000Y-100330000D03*
X147320000Y-97790000D03*
X147320000Y-95250000D03*
X147320000Y-92710000D03*
X147320000Y-90170000D03*
X149860000Y-113030000D03*
X149860000Y-110490000D03*
X149860000Y-107950000D03*
X149860000Y-105410000D03*
X149860000Y-102870000D03*
X149860000Y-100330000D03*
X149860000Y-97790000D03*
X149860000Y-95250000D03*
X149860000Y-92710000D03*
X149860000Y-90170000D03*
X152400000Y-113030000D03*
X152400000Y-110490000D03*
X152400000Y-107950000D03*
X152400000Y-105410000D03*
X152400000Y-102870000D03*
X152400000Y-100330000D03*
X152400000Y-97790000D03*
X152400000Y-95250000D03*
X152400000Y-92710000D03*
X152400000Y-90170000D03*
X154940000Y-113030000D03*
X154940000Y-110490000D03*
X154940000Y-107950000D03*
X154940000Y-105410000D03*
X154940000Y-102870000D03*
X154940000Y-100330000D03*
X154940000Y-97790000D03*
X154940000Y-95250000D03*
X154940000Y-92710000D03*
X154940000Y-90170000D03*
X157480000Y-113030000D03*
X157480000Y-110490000D03*
X157480000Y-107950000D03*
X157480000Y-105410000D03*
X157480000Y-102870000D03*
X157480000Y-100330000D03*
X157480000Y-97790000D03*
X157480000Y-95250000D03*
X157480000Y-92710000D03*
X157480000Y-90170000D03*
X160020000Y-113030000D03*
X160020000Y-110490000D03*
X160020000Y-107950000D03*
X160020000Y-105410000D03*
X160020000Y-102870000D03*
X160020000Y-100330000D03*
X160020000Y-97790000D03*
X160020000Y-95250000D03*
X160020000Y-92710000D03*
X160020000Y-90170000D03*
X162560000Y-113030000D03*
X162560000Y-110490000D03*
X162560000Y-107950000D03*
X162560000Y-105410000D03*
X162560000Y-102870000D03*
X162560000Y-100330000D03*
X162560000Y-97790000D03*
X162560000Y-95250000D03*
X162560000Y-92710000D03*
X162560000Y-90170000D03*
X132080000Y-113030000D03*
X132080000Y-110490000D03*
X132080000Y-107950000D03*
X132080000Y-105410000D03*
X132080000Y-102870000D03*
X132080000Y-100330000D03*
X132080000Y-97790000D03*
X132080000Y-95250000D03*
X132080000Y-92710000D03*
X132080000Y-90170000D03*
X133350000Y-113030000D03*
X133350000Y-110490000D03*
X133350000Y-107950000D03*
X133350000Y-105410000D03*
X133350000Y-102870000D03*
X133350000Y-100330000D03*
X133350000Y-97790000D03*
X133350000Y-95250000D03*
X133350000Y-92710000D03*
X133350000Y-90170000D03*
D14*
G36*
X162433000Y-88847395D02*
X162253395Y-89027000D01*
X136525000Y-89027000D01*
X136525000Y-88265000D01*
X162253395Y-88265000D01*
X162433000Y-88444605D01*
X162433000Y-88847395D01*
X162433000Y-88847395D01*
G37*
X162433000Y-88847395D02*
X162253395Y-89027000D01*
X136525000Y-89027000D01*
X136525000Y-88265000D01*
X162253395Y-88265000D01*
X162433000Y-88444605D01*
X162433000Y-88847395D01*
G36*
X162433000Y-114755395D02*
X162253395Y-114935000D01*
X162052000Y-114935000D01*
X136017000Y-114935000D01*
X136017000Y-114173000D01*
X162253395Y-114173000D01*
X162433000Y-114352605D01*
X162433000Y-114755395D01*
X162433000Y-114755395D01*
G37*
X162433000Y-114755395D02*
X162253395Y-114935000D01*
X162052000Y-114935000D01*
X136017000Y-114935000D01*
X136017000Y-114173000D01*
X162253395Y-114173000D01*
X162433000Y-114352605D01*
X162433000Y-114755395D01*
M02*
