%FSLAX46Y46*%
G04 Gerber Fmt 4.6, Leading zero omitted, Abs format (unit mm)*
G04 Created by KiCad (PCBNEW (2014-08-29 BZR 5106)-product) date Fri 17 Oct 2014 02:56:12 PM PDT*
%MOMM*%
G01*
G04 APERTURE LIST*
%ADD10C,0.100000*%
%ADD11C,0.177800*%
%ADD12C,0.101600*%
%ADD13C,0.406400*%
%ADD14C,0.150000*%
%ADD15C,1.676400*%
%ADD16C,0.254000*%
G04 APERTURE END LIST*
D10*
D11*
X135442476Y-106347381D02*
X136712476Y-106347381D01*
X135502952Y-106347381D02*
X135442476Y-106468334D01*
X135442476Y-106710238D01*
X135502952Y-106831191D01*
X135563429Y-106891667D01*
X135684381Y-106952143D01*
X136047238Y-106952143D01*
X136168190Y-106891667D01*
X136228667Y-106831191D01*
X136289143Y-106710238D01*
X136289143Y-106468334D01*
X136228667Y-106347381D01*
X135442476Y-105742619D02*
X136289143Y-105742619D01*
X136712476Y-105742619D02*
X136652000Y-105803095D01*
X136591524Y-105742619D01*
X136652000Y-105682143D01*
X136712476Y-105742619D01*
X136591524Y-105742619D01*
X136289143Y-105258809D02*
X135442476Y-104956428D01*
X136289143Y-104654048D02*
X135442476Y-104956428D01*
X135140095Y-105077381D01*
X135079619Y-105137857D01*
X135019143Y-105258809D01*
X135926286Y-104170238D02*
X135926286Y-103202619D01*
X135442476Y-102597857D02*
X136289143Y-102597857D01*
X136168190Y-102597857D02*
X136228667Y-102537381D01*
X136289143Y-102416428D01*
X136289143Y-102235000D01*
X136228667Y-102114048D01*
X136107714Y-102053571D01*
X135442476Y-102053571D01*
X136107714Y-102053571D02*
X136228667Y-101993095D01*
X136289143Y-101872143D01*
X136289143Y-101690714D01*
X136228667Y-101569762D01*
X136107714Y-101509286D01*
X135442476Y-101509286D01*
X135442476Y-100723095D02*
X135502952Y-100844048D01*
X135563429Y-100904524D01*
X135684381Y-100965000D01*
X136047238Y-100965000D01*
X136168190Y-100904524D01*
X136228667Y-100844048D01*
X136289143Y-100723095D01*
X136289143Y-100541667D01*
X136228667Y-100420715D01*
X136168190Y-100360238D01*
X136047238Y-100299762D01*
X135684381Y-100299762D01*
X135563429Y-100360238D01*
X135502952Y-100420715D01*
X135442476Y-100541667D01*
X135442476Y-100723095D01*
X135442476Y-99211190D02*
X136712476Y-99211190D01*
X135502952Y-99211190D02*
X135442476Y-99332143D01*
X135442476Y-99574047D01*
X135502952Y-99695000D01*
X135563429Y-99755476D01*
X135684381Y-99815952D01*
X136047238Y-99815952D01*
X136168190Y-99755476D01*
X136228667Y-99695000D01*
X136289143Y-99574047D01*
X136289143Y-99332143D01*
X136228667Y-99211190D01*
X136289143Y-98062142D02*
X135442476Y-98062142D01*
X136289143Y-98606428D02*
X135623905Y-98606428D01*
X135502952Y-98545952D01*
X135442476Y-98424999D01*
X135442476Y-98243571D01*
X135502952Y-98122619D01*
X135563429Y-98062142D01*
X135442476Y-97275951D02*
X135502952Y-97396904D01*
X135623905Y-97457380D01*
X136712476Y-97457380D01*
X135502952Y-96308333D02*
X135442476Y-96429285D01*
X135442476Y-96671190D01*
X135502952Y-96792142D01*
X135623905Y-96852618D01*
X136107714Y-96852618D01*
X136228667Y-96792142D01*
X136289143Y-96671190D01*
X136289143Y-96429285D01*
X136228667Y-96308333D01*
X136107714Y-96247856D01*
X135986762Y-96247856D01*
X135865810Y-96852618D01*
D12*
X130646714Y-95824523D02*
X130646714Y-95437475D01*
X130985381Y-95679380D02*
X130114524Y-95679380D01*
X130017762Y-95630999D01*
X129969381Y-95534237D01*
X129969381Y-95437475D01*
X130017762Y-94711762D02*
X129969381Y-94808524D01*
X129969381Y-95002047D01*
X130017762Y-95098809D01*
X130114524Y-95147190D01*
X130501571Y-95147190D01*
X130598333Y-95098809D01*
X130646714Y-95002047D01*
X130646714Y-94808524D01*
X130598333Y-94711762D01*
X130501571Y-94663381D01*
X130404810Y-94663381D01*
X130308048Y-95147190D01*
X130017762Y-94276333D02*
X129969381Y-94179571D01*
X129969381Y-93986047D01*
X130017762Y-93889286D01*
X130114524Y-93840905D01*
X130162905Y-93840905D01*
X130259667Y-93889286D01*
X130308048Y-93986047D01*
X130308048Y-94131190D01*
X130356429Y-94227952D01*
X130453190Y-94276333D01*
X130501571Y-94276333D01*
X130598333Y-94227952D01*
X130646714Y-94131190D01*
X130646714Y-93986047D01*
X130598333Y-93889286D01*
X130017762Y-93453857D02*
X129969381Y-93357095D01*
X129969381Y-93163571D01*
X130017762Y-93066810D01*
X130114524Y-93018429D01*
X130162905Y-93018429D01*
X130259667Y-93066810D01*
X130308048Y-93163571D01*
X130308048Y-93308714D01*
X130356429Y-93405476D01*
X130453190Y-93453857D01*
X130501571Y-93453857D01*
X130598333Y-93405476D01*
X130646714Y-93308714D01*
X130646714Y-93163571D01*
X130598333Y-93066810D01*
X130017762Y-92195953D02*
X129969381Y-92292715D01*
X129969381Y-92486238D01*
X130017762Y-92583000D01*
X130114524Y-92631381D01*
X130501571Y-92631381D01*
X130598333Y-92583000D01*
X130646714Y-92486238D01*
X130646714Y-92292715D01*
X130598333Y-92195953D01*
X130501571Y-92147572D01*
X130404810Y-92147572D01*
X130308048Y-92631381D01*
X129969381Y-91567000D02*
X130017762Y-91663762D01*
X130114524Y-91712143D01*
X130985381Y-91712143D01*
X130066143Y-91179953D02*
X130017762Y-91131572D01*
X129969381Y-91179953D01*
X130017762Y-91228334D01*
X130066143Y-91179953D01*
X129969381Y-91179953D01*
X129969381Y-90696143D02*
X130646714Y-90696143D01*
X130985381Y-90696143D02*
X130937000Y-90744524D01*
X130888619Y-90696143D01*
X130937000Y-90647762D01*
X130985381Y-90696143D01*
X130888619Y-90696143D01*
X129969381Y-90067190D02*
X130017762Y-90163952D01*
X130066143Y-90212333D01*
X130162905Y-90260714D01*
X130453190Y-90260714D01*
X130549952Y-90212333D01*
X130598333Y-90163952D01*
X130646714Y-90067190D01*
X130646714Y-89922048D01*
X130598333Y-89825286D01*
X130549952Y-89776905D01*
X130453190Y-89728524D01*
X130162905Y-89728524D01*
X130066143Y-89776905D01*
X130017762Y-89825286D01*
X129969381Y-89922048D01*
X129969381Y-90067190D01*
X130985381Y-113695238D02*
X130985381Y-113114667D01*
X129969381Y-113404952D02*
X130985381Y-113404952D01*
X129969381Y-112776000D02*
X130985381Y-112776000D01*
X130259667Y-112437334D01*
X130985381Y-112098667D01*
X129969381Y-112098667D01*
X130356429Y-111614857D02*
X130356429Y-110840762D01*
X129969381Y-109824762D02*
X129969381Y-110405333D01*
X129969381Y-110115047D02*
X130985381Y-110115047D01*
X130840238Y-110211809D01*
X130743476Y-110308571D01*
X130695095Y-110405333D01*
X130985381Y-108905524D02*
X130985381Y-109389333D01*
X130501571Y-109437714D01*
X130549952Y-109389333D01*
X130598333Y-109292571D01*
X130598333Y-109050667D01*
X130549952Y-108953905D01*
X130501571Y-108905524D01*
X130404810Y-108857143D01*
X130162905Y-108857143D01*
X130066143Y-108905524D01*
X130017762Y-108953905D01*
X129969381Y-109050667D01*
X129969381Y-109292571D01*
X130017762Y-109389333D01*
X130066143Y-109437714D01*
X130356429Y-108421714D02*
X130356429Y-107647619D01*
X130985381Y-106970285D02*
X130985381Y-106873524D01*
X130937000Y-106776762D01*
X130888619Y-106728381D01*
X130791857Y-106680000D01*
X130598333Y-106631619D01*
X130356429Y-106631619D01*
X130162905Y-106680000D01*
X130066143Y-106728381D01*
X130017762Y-106776762D01*
X129969381Y-106873524D01*
X129969381Y-106970285D01*
X130017762Y-107067047D01*
X130066143Y-107115428D01*
X130162905Y-107163809D01*
X130356429Y-107212190D01*
X130598333Y-107212190D01*
X130791857Y-107163809D01*
X130888619Y-107115428D01*
X130937000Y-107067047D01*
X130985381Y-106970285D01*
X130985381Y-106002666D02*
X130985381Y-105905905D01*
X130937000Y-105809143D01*
X130888619Y-105760762D01*
X130791857Y-105712381D01*
X130598333Y-105664000D01*
X130356429Y-105664000D01*
X130162905Y-105712381D01*
X130066143Y-105760762D01*
X130017762Y-105809143D01*
X129969381Y-105905905D01*
X129969381Y-106002666D01*
X130017762Y-106099428D01*
X130066143Y-106147809D01*
X130162905Y-106196190D01*
X130356429Y-106244571D01*
X130598333Y-106244571D01*
X130791857Y-106196190D01*
X130888619Y-106147809D01*
X130937000Y-106099428D01*
X130985381Y-106002666D01*
D13*
X142651238Y-104666143D02*
X145953238Y-104666143D01*
X145953238Y-103879952D01*
X145796000Y-103408238D01*
X145481524Y-103093762D01*
X145167048Y-102936523D01*
X144538095Y-102779285D01*
X144066381Y-102779285D01*
X143437429Y-102936523D01*
X143122952Y-103093762D01*
X142808476Y-103408238D01*
X142651238Y-103879952D01*
X142651238Y-104666143D01*
X142651238Y-101364143D02*
X145953238Y-101364143D01*
X144223619Y-99162809D02*
X142651238Y-99162809D01*
X145953238Y-100263476D02*
X144223619Y-99162809D01*
X145953238Y-98062142D01*
D14*
X129820810Y-113030000D02*
G75*
G03X129820810Y-113030000I-915810J0D01*
G74*
G01*
D10*
G36*
X141055495Y-107105043D02*
X140976285Y-107100745D01*
X140909506Y-107090005D01*
X140900150Y-107087552D01*
X140779196Y-107040634D01*
X140670649Y-106972495D01*
X140576662Y-106885153D01*
X140499384Y-106780627D01*
X140440967Y-106660931D01*
X140438657Y-106654791D01*
X140427062Y-106619430D01*
X141068039Y-106619430D01*
X141141080Y-106609144D01*
X141199818Y-106579772D01*
X141241861Y-106533545D01*
X141264819Y-106472694D01*
X141268450Y-106432350D01*
X141257268Y-106364391D01*
X141225521Y-106309175D01*
X141175907Y-106269248D01*
X141111125Y-106247158D01*
X141068375Y-106243524D01*
X141005375Y-106255082D01*
X140950798Y-106287138D01*
X140909213Y-106335088D01*
X140885188Y-106394323D01*
X140881100Y-106432350D01*
X140892687Y-106495141D01*
X140909675Y-106527729D01*
X140952575Y-106578903D01*
X140999151Y-106608228D01*
X141055356Y-106619151D01*
X141068039Y-106619430D01*
X140427062Y-106619430D01*
X140423318Y-106608014D01*
X140413801Y-106562415D01*
X140408821Y-106509190D01*
X140407090Y-106439534D01*
X140407085Y-106438700D01*
X140412392Y-106327610D01*
X140431375Y-106231063D01*
X140466320Y-106140897D01*
X140513772Y-106057737D01*
X140539322Y-106016890D01*
X140552110Y-105991207D01*
X140553913Y-105975022D01*
X140546506Y-105962670D01*
X140544284Y-105960368D01*
X140536460Y-105950612D01*
X140523485Y-105931642D01*
X140504942Y-105902746D01*
X140480415Y-105863209D01*
X140449485Y-105812320D01*
X140411737Y-105749364D01*
X140366752Y-105673628D01*
X140314115Y-105584399D01*
X140253407Y-105480965D01*
X140184212Y-105362610D01*
X140106114Y-105228624D01*
X140018694Y-105078291D01*
X139921537Y-104910899D01*
X139814224Y-104725735D01*
X139696339Y-104522085D01*
X139567465Y-104299237D01*
X139427185Y-104056476D01*
X139275082Y-103793090D01*
X139116125Y-103517700D01*
X139001396Y-103318936D01*
X138889750Y-103125605D01*
X138781883Y-102938904D01*
X138678487Y-102760028D01*
X138580255Y-102590175D01*
X138487881Y-102430541D01*
X138402058Y-102282322D01*
X138323479Y-102146716D01*
X138252838Y-102024917D01*
X138190828Y-101918124D01*
X138138141Y-101827532D01*
X138095473Y-101754338D01*
X138063515Y-101699739D01*
X138042961Y-101664931D01*
X138034973Y-101651797D01*
X138009106Y-101607212D01*
X137999940Y-101573976D01*
X138006729Y-101544981D01*
X138021383Y-101522337D01*
X138030567Y-101507669D01*
X138051630Y-101472360D01*
X138083779Y-101417779D01*
X138126216Y-101345295D01*
X138178147Y-101256278D01*
X138238775Y-101152098D01*
X138307306Y-101034124D01*
X138382944Y-100903725D01*
X138464892Y-100762271D01*
X138552355Y-100611131D01*
X138644539Y-100451676D01*
X138740646Y-100285274D01*
X138824313Y-100140286D01*
X138923236Y-99968927D01*
X139019016Y-99803274D01*
X139110847Y-99644705D01*
X139197926Y-99494597D01*
X139279449Y-99354330D01*
X139354610Y-99225280D01*
X139422605Y-99108826D01*
X139482630Y-99006347D01*
X139533881Y-98919219D01*
X139575552Y-98848821D01*
X139606840Y-98796531D01*
X139626941Y-98763727D01*
X139634578Y-98752254D01*
X139691855Y-98701818D01*
X139757405Y-98673383D01*
X139826712Y-98667159D01*
X139895263Y-98683355D01*
X139958544Y-98722181D01*
X139974055Y-98736485D01*
X140021472Y-98799964D01*
X140044859Y-98870730D01*
X140043699Y-98947057D01*
X140041089Y-98960169D01*
X140033134Y-98978386D01*
X140013072Y-99017335D01*
X139981584Y-99075806D01*
X139939355Y-99152586D01*
X139887067Y-99246464D01*
X139825404Y-99356228D01*
X139755047Y-99480667D01*
X139676682Y-99618570D01*
X139590990Y-99768724D01*
X139498654Y-99929918D01*
X139400358Y-100100941D01*
X139296785Y-100280581D01*
X139292188Y-100288541D01*
X139194686Y-100457628D01*
X139101311Y-100620056D01*
X139012820Y-100774483D01*
X138929971Y-100919566D01*
X138853520Y-101053965D01*
X138784224Y-101176337D01*
X138722840Y-101285341D01*
X138670125Y-101379635D01*
X138626837Y-101457877D01*
X138593731Y-101518726D01*
X138571565Y-101560838D01*
X138561097Y-101582874D01*
X138560357Y-101585779D01*
X138567216Y-101598903D01*
X138586012Y-101632634D01*
X138615951Y-101685596D01*
X138656242Y-101756417D01*
X138706092Y-101843722D01*
X138764708Y-101946137D01*
X138831297Y-102062288D01*
X138905068Y-102190802D01*
X138985228Y-102330304D01*
X139070983Y-102479420D01*
X139161542Y-102636777D01*
X139256112Y-102801000D01*
X139353900Y-102970715D01*
X139454114Y-103144548D01*
X139555961Y-103321126D01*
X139658649Y-103499074D01*
X139761385Y-103677019D01*
X139863376Y-103853586D01*
X139963830Y-104027401D01*
X140061954Y-104197091D01*
X140156957Y-104361281D01*
X140248044Y-104518598D01*
X140334424Y-104667667D01*
X140415305Y-104807114D01*
X140489892Y-104935566D01*
X140557395Y-105051648D01*
X140617020Y-105153987D01*
X140667975Y-105241208D01*
X140709467Y-105311938D01*
X140722349Y-105333800D01*
X140773351Y-105420745D01*
X140820529Y-105502175D01*
X140862210Y-105575124D01*
X140896723Y-105636627D01*
X140922395Y-105683720D01*
X140937552Y-105713435D01*
X140940652Y-105720809D01*
X140952840Y-105758569D01*
X141053495Y-105755165D01*
X141180928Y-105763003D01*
X141301790Y-105794078D01*
X141413583Y-105846557D01*
X141513807Y-105918605D01*
X141599963Y-106008388D01*
X141669550Y-106114071D01*
X141720069Y-106233821D01*
X141724223Y-106247330D01*
X141737482Y-106314327D01*
X141743739Y-106395742D01*
X141742995Y-106481577D01*
X141735249Y-106561832D01*
X141724228Y-106614545D01*
X141676808Y-106735926D01*
X141608361Y-106844585D01*
X141520950Y-106938380D01*
X141416640Y-107015169D01*
X141297496Y-107072811D01*
X141274800Y-107080931D01*
X141214044Y-107094972D01*
X141137845Y-107103064D01*
X141055495Y-107105043D01*
X141055495Y-107105043D01*
X141055495Y-107105043D01*
G37*
X141055495Y-107105043D02*
X140976285Y-107100745D01*
X140909506Y-107090005D01*
X140900150Y-107087552D01*
X140779196Y-107040634D01*
X140670649Y-106972495D01*
X140576662Y-106885153D01*
X140499384Y-106780627D01*
X140440967Y-106660931D01*
X140438657Y-106654791D01*
X140427062Y-106619430D01*
X141068039Y-106619430D01*
X141141080Y-106609144D01*
X141199818Y-106579772D01*
X141241861Y-106533545D01*
X141264819Y-106472694D01*
X141268450Y-106432350D01*
X141257268Y-106364391D01*
X141225521Y-106309175D01*
X141175907Y-106269248D01*
X141111125Y-106247158D01*
X141068375Y-106243524D01*
X141005375Y-106255082D01*
X140950798Y-106287138D01*
X140909213Y-106335088D01*
X140885188Y-106394323D01*
X140881100Y-106432350D01*
X140892687Y-106495141D01*
X140909675Y-106527729D01*
X140952575Y-106578903D01*
X140999151Y-106608228D01*
X141055356Y-106619151D01*
X141068039Y-106619430D01*
X140427062Y-106619430D01*
X140423318Y-106608014D01*
X140413801Y-106562415D01*
X140408821Y-106509190D01*
X140407090Y-106439534D01*
X140407085Y-106438700D01*
X140412392Y-106327610D01*
X140431375Y-106231063D01*
X140466320Y-106140897D01*
X140513772Y-106057737D01*
X140539322Y-106016890D01*
X140552110Y-105991207D01*
X140553913Y-105975022D01*
X140546506Y-105962670D01*
X140544284Y-105960368D01*
X140536460Y-105950612D01*
X140523485Y-105931642D01*
X140504942Y-105902746D01*
X140480415Y-105863209D01*
X140449485Y-105812320D01*
X140411737Y-105749364D01*
X140366752Y-105673628D01*
X140314115Y-105584399D01*
X140253407Y-105480965D01*
X140184212Y-105362610D01*
X140106114Y-105228624D01*
X140018694Y-105078291D01*
X139921537Y-104910899D01*
X139814224Y-104725735D01*
X139696339Y-104522085D01*
X139567465Y-104299237D01*
X139427185Y-104056476D01*
X139275082Y-103793090D01*
X139116125Y-103517700D01*
X139001396Y-103318936D01*
X138889750Y-103125605D01*
X138781883Y-102938904D01*
X138678487Y-102760028D01*
X138580255Y-102590175D01*
X138487881Y-102430541D01*
X138402058Y-102282322D01*
X138323479Y-102146716D01*
X138252838Y-102024917D01*
X138190828Y-101918124D01*
X138138141Y-101827532D01*
X138095473Y-101754338D01*
X138063515Y-101699739D01*
X138042961Y-101664931D01*
X138034973Y-101651797D01*
X138009106Y-101607212D01*
X137999940Y-101573976D01*
X138006729Y-101544981D01*
X138021383Y-101522337D01*
X138030567Y-101507669D01*
X138051630Y-101472360D01*
X138083779Y-101417779D01*
X138126216Y-101345295D01*
X138178147Y-101256278D01*
X138238775Y-101152098D01*
X138307306Y-101034124D01*
X138382944Y-100903725D01*
X138464892Y-100762271D01*
X138552355Y-100611131D01*
X138644539Y-100451676D01*
X138740646Y-100285274D01*
X138824313Y-100140286D01*
X138923236Y-99968927D01*
X139019016Y-99803274D01*
X139110847Y-99644705D01*
X139197926Y-99494597D01*
X139279449Y-99354330D01*
X139354610Y-99225280D01*
X139422605Y-99108826D01*
X139482630Y-99006347D01*
X139533881Y-98919219D01*
X139575552Y-98848821D01*
X139606840Y-98796531D01*
X139626941Y-98763727D01*
X139634578Y-98752254D01*
X139691855Y-98701818D01*
X139757405Y-98673383D01*
X139826712Y-98667159D01*
X139895263Y-98683355D01*
X139958544Y-98722181D01*
X139974055Y-98736485D01*
X140021472Y-98799964D01*
X140044859Y-98870730D01*
X140043699Y-98947057D01*
X140041089Y-98960169D01*
X140033134Y-98978386D01*
X140013072Y-99017335D01*
X139981584Y-99075806D01*
X139939355Y-99152586D01*
X139887067Y-99246464D01*
X139825404Y-99356228D01*
X139755047Y-99480667D01*
X139676682Y-99618570D01*
X139590990Y-99768724D01*
X139498654Y-99929918D01*
X139400358Y-100100941D01*
X139296785Y-100280581D01*
X139292188Y-100288541D01*
X139194686Y-100457628D01*
X139101311Y-100620056D01*
X139012820Y-100774483D01*
X138929971Y-100919566D01*
X138853520Y-101053965D01*
X138784224Y-101176337D01*
X138722840Y-101285341D01*
X138670125Y-101379635D01*
X138626837Y-101457877D01*
X138593731Y-101518726D01*
X138571565Y-101560838D01*
X138561097Y-101582874D01*
X138560357Y-101585779D01*
X138567216Y-101598903D01*
X138586012Y-101632634D01*
X138615951Y-101685596D01*
X138656242Y-101756417D01*
X138706092Y-101843722D01*
X138764708Y-101946137D01*
X138831297Y-102062288D01*
X138905068Y-102190802D01*
X138985228Y-102330304D01*
X139070983Y-102479420D01*
X139161542Y-102636777D01*
X139256112Y-102801000D01*
X139353900Y-102970715D01*
X139454114Y-103144548D01*
X139555961Y-103321126D01*
X139658649Y-103499074D01*
X139761385Y-103677019D01*
X139863376Y-103853586D01*
X139963830Y-104027401D01*
X140061954Y-104197091D01*
X140156957Y-104361281D01*
X140248044Y-104518598D01*
X140334424Y-104667667D01*
X140415305Y-104807114D01*
X140489892Y-104935566D01*
X140557395Y-105051648D01*
X140617020Y-105153987D01*
X140667975Y-105241208D01*
X140709467Y-105311938D01*
X140722349Y-105333800D01*
X140773351Y-105420745D01*
X140820529Y-105502175D01*
X140862210Y-105575124D01*
X140896723Y-105636627D01*
X140922395Y-105683720D01*
X140937552Y-105713435D01*
X140940652Y-105720809D01*
X140952840Y-105758569D01*
X141053495Y-105755165D01*
X141180928Y-105763003D01*
X141301790Y-105794078D01*
X141413583Y-105846557D01*
X141513807Y-105918605D01*
X141599963Y-106008388D01*
X141669550Y-106114071D01*
X141720069Y-106233821D01*
X141724223Y-106247330D01*
X141737482Y-106314327D01*
X141743739Y-106395742D01*
X141742995Y-106481577D01*
X141735249Y-106561832D01*
X141724228Y-106614545D01*
X141676808Y-106735926D01*
X141608361Y-106844585D01*
X141520950Y-106938380D01*
X141416640Y-107015169D01*
X141297496Y-107072811D01*
X141274800Y-107080931D01*
X141214044Y-107094972D01*
X141137845Y-107103064D01*
X141055495Y-107105043D01*
X141055495Y-107105043D01*
G36*
X148412226Y-99897425D02*
X148344734Y-99878959D01*
X148283254Y-99838586D01*
X148277713Y-99833404D01*
X148266456Y-99817969D01*
X148243046Y-99782022D01*
X148208290Y-99726893D01*
X148162997Y-99653913D01*
X148107976Y-99564413D01*
X148044035Y-99459724D01*
X147971983Y-99341176D01*
X147892629Y-99210101D01*
X147806780Y-99067829D01*
X147715246Y-98915691D01*
X147618834Y-98755019D01*
X147518354Y-98587142D01*
X147414614Y-98413391D01*
X147395063Y-98380598D01*
X146551650Y-96965629D01*
X144164050Y-96963798D01*
X143919278Y-96963565D01*
X143681096Y-96963249D01*
X143450764Y-96962855D01*
X143229546Y-96962389D01*
X143018702Y-96961856D01*
X142819495Y-96961263D01*
X142633187Y-96960613D01*
X142461038Y-96959914D01*
X142304312Y-96959170D01*
X142164269Y-96958387D01*
X142042171Y-96957570D01*
X141939281Y-96956725D01*
X141856860Y-96955858D01*
X141796170Y-96954974D01*
X141758472Y-96954078D01*
X141745220Y-96953259D01*
X141728277Y-96950746D01*
X141714571Y-96957193D01*
X141700047Y-96976916D01*
X141680651Y-97014233D01*
X141672931Y-97030224D01*
X141616508Y-97121727D01*
X141549431Y-97198340D01*
X141447939Y-97283402D01*
X141337331Y-97344778D01*
X141217752Y-97382405D01*
X141089346Y-97396224D01*
X141078780Y-97396300D01*
X140949561Y-97384399D01*
X140828998Y-97350050D01*
X140719257Y-97295281D01*
X140622500Y-97222119D01*
X140540893Y-97132593D01*
X140476599Y-97028731D01*
X140431782Y-96912561D01*
X140431018Y-96908392D01*
X141108711Y-96908392D01*
X141164662Y-96890556D01*
X141211921Y-96857524D01*
X141247160Y-96812462D01*
X141267051Y-96758537D01*
X141268266Y-96698916D01*
X141247479Y-96636767D01*
X141246879Y-96635637D01*
X141204261Y-96580129D01*
X141147570Y-96545630D01*
X141077957Y-96532815D01*
X141071799Y-96532747D01*
X141005626Y-96543972D01*
X140950903Y-96574571D01*
X140910285Y-96620105D01*
X140886428Y-96676138D01*
X140881989Y-96738232D01*
X140899624Y-96801948D01*
X140904663Y-96811981D01*
X140934892Y-96849831D01*
X140978544Y-96882746D01*
X140984038Y-96885805D01*
X141047393Y-96907864D01*
X141108711Y-96908392D01*
X140431018Y-96908392D01*
X140408607Y-96786111D01*
X140407161Y-96766879D01*
X140404879Y-96713292D01*
X140404577Y-96664841D01*
X140406287Y-96630963D01*
X140406685Y-96627950D01*
X140437868Y-96502091D01*
X140490853Y-96385967D01*
X140563360Y-96282231D01*
X140653105Y-96193533D01*
X140757806Y-96122526D01*
X140875182Y-96071861D01*
X140888932Y-96067595D01*
X140963060Y-96052488D01*
X141049326Y-96045800D01*
X141137820Y-96047507D01*
X141218631Y-96057583D01*
X141262100Y-96068530D01*
X141374748Y-96114641D01*
X141473896Y-96174092D01*
X141534136Y-96223850D01*
X141572273Y-96264699D01*
X141612289Y-96314556D01*
X141649687Y-96367004D01*
X141679973Y-96415630D01*
X141698649Y-96454018D01*
X141701242Y-96462281D01*
X141707759Y-96488250D01*
X144263421Y-96484953D01*
X146819082Y-96481656D01*
X147726766Y-98001682D01*
X147834750Y-98182589D01*
X147939297Y-98357887D01*
X148039650Y-98526300D01*
X148135053Y-98686550D01*
X148224748Y-98837362D01*
X148307979Y-98977459D01*
X148383989Y-99105565D01*
X148452020Y-99220404D01*
X148511316Y-99320698D01*
X148561120Y-99405172D01*
X148600675Y-99472550D01*
X148629224Y-99521554D01*
X148646009Y-99550909D01*
X148650325Y-99559012D01*
X148661586Y-99603235D01*
X148665613Y-99658592D01*
X148662512Y-99714242D01*
X148652390Y-99759342D01*
X148648284Y-99768655D01*
X148603760Y-99829600D01*
X148546441Y-99871924D01*
X148481029Y-99894806D01*
X148412226Y-99897425D01*
X148412226Y-99897425D01*
X148412226Y-99897425D01*
G37*
X148412226Y-99897425D02*
X148344734Y-99878959D01*
X148283254Y-99838586D01*
X148277713Y-99833404D01*
X148266456Y-99817969D01*
X148243046Y-99782022D01*
X148208290Y-99726893D01*
X148162997Y-99653913D01*
X148107976Y-99564413D01*
X148044035Y-99459724D01*
X147971983Y-99341176D01*
X147892629Y-99210101D01*
X147806780Y-99067829D01*
X147715246Y-98915691D01*
X147618834Y-98755019D01*
X147518354Y-98587142D01*
X147414614Y-98413391D01*
X147395063Y-98380598D01*
X146551650Y-96965629D01*
X144164050Y-96963798D01*
X143919278Y-96963565D01*
X143681096Y-96963249D01*
X143450764Y-96962855D01*
X143229546Y-96962389D01*
X143018702Y-96961856D01*
X142819495Y-96961263D01*
X142633187Y-96960613D01*
X142461038Y-96959914D01*
X142304312Y-96959170D01*
X142164269Y-96958387D01*
X142042171Y-96957570D01*
X141939281Y-96956725D01*
X141856860Y-96955858D01*
X141796170Y-96954974D01*
X141758472Y-96954078D01*
X141745220Y-96953259D01*
X141728277Y-96950746D01*
X141714571Y-96957193D01*
X141700047Y-96976916D01*
X141680651Y-97014233D01*
X141672931Y-97030224D01*
X141616508Y-97121727D01*
X141549431Y-97198340D01*
X141447939Y-97283402D01*
X141337331Y-97344778D01*
X141217752Y-97382405D01*
X141089346Y-97396224D01*
X141078780Y-97396300D01*
X140949561Y-97384399D01*
X140828998Y-97350050D01*
X140719257Y-97295281D01*
X140622500Y-97222119D01*
X140540893Y-97132593D01*
X140476599Y-97028731D01*
X140431782Y-96912561D01*
X140431018Y-96908392D01*
X141108711Y-96908392D01*
X141164662Y-96890556D01*
X141211921Y-96857524D01*
X141247160Y-96812462D01*
X141267051Y-96758537D01*
X141268266Y-96698916D01*
X141247479Y-96636767D01*
X141246879Y-96635637D01*
X141204261Y-96580129D01*
X141147570Y-96545630D01*
X141077957Y-96532815D01*
X141071799Y-96532747D01*
X141005626Y-96543972D01*
X140950903Y-96574571D01*
X140910285Y-96620105D01*
X140886428Y-96676138D01*
X140881989Y-96738232D01*
X140899624Y-96801948D01*
X140904663Y-96811981D01*
X140934892Y-96849831D01*
X140978544Y-96882746D01*
X140984038Y-96885805D01*
X141047393Y-96907864D01*
X141108711Y-96908392D01*
X140431018Y-96908392D01*
X140408607Y-96786111D01*
X140407161Y-96766879D01*
X140404879Y-96713292D01*
X140404577Y-96664841D01*
X140406287Y-96630963D01*
X140406685Y-96627950D01*
X140437868Y-96502091D01*
X140490853Y-96385967D01*
X140563360Y-96282231D01*
X140653105Y-96193533D01*
X140757806Y-96122526D01*
X140875182Y-96071861D01*
X140888932Y-96067595D01*
X140963060Y-96052488D01*
X141049326Y-96045800D01*
X141137820Y-96047507D01*
X141218631Y-96057583D01*
X141262100Y-96068530D01*
X141374748Y-96114641D01*
X141473896Y-96174092D01*
X141534136Y-96223850D01*
X141572273Y-96264699D01*
X141612289Y-96314556D01*
X141649687Y-96367004D01*
X141679973Y-96415630D01*
X141698649Y-96454018D01*
X141701242Y-96462281D01*
X141707759Y-96488250D01*
X144263421Y-96484953D01*
X146819082Y-96481656D01*
X147726766Y-98001682D01*
X147834750Y-98182589D01*
X147939297Y-98357887D01*
X148039650Y-98526300D01*
X148135053Y-98686550D01*
X148224748Y-98837362D01*
X148307979Y-98977459D01*
X148383989Y-99105565D01*
X148452020Y-99220404D01*
X148511316Y-99320698D01*
X148561120Y-99405172D01*
X148600675Y-99472550D01*
X148629224Y-99521554D01*
X148646009Y-99550909D01*
X148650325Y-99559012D01*
X148661586Y-99603235D01*
X148665613Y-99658592D01*
X148662512Y-99714242D01*
X148652390Y-99759342D01*
X148648284Y-99768655D01*
X148603760Y-99829600D01*
X148546441Y-99871924D01*
X148481029Y-99894806D01*
X148412226Y-99897425D01*
X148412226Y-99897425D01*
G36*
X143770350Y-106673650D02*
X143722454Y-106643871D01*
X143663633Y-106598090D01*
X143626017Y-106544622D01*
X143606136Y-106477627D01*
X143602040Y-106441375D01*
X143599557Y-106394412D01*
X143602086Y-106362972D01*
X143612151Y-106337297D01*
X143632277Y-106307633D01*
X143638933Y-106298773D01*
X143673575Y-106260775D01*
X143713375Y-106228054D01*
X143732504Y-106216450D01*
X143740952Y-106212461D01*
X143750486Y-106208907D01*
X143762563Y-106205760D01*
X143778639Y-106202989D01*
X143800171Y-106200565D01*
X143828614Y-106198459D01*
X143865427Y-106196641D01*
X143912066Y-106195082D01*
X143969987Y-106193752D01*
X144040646Y-106192622D01*
X144125501Y-106191662D01*
X144226008Y-106190843D01*
X144343624Y-106190135D01*
X144479805Y-106189509D01*
X144636008Y-106188936D01*
X144813689Y-106188385D01*
X145014306Y-106187828D01*
X145167350Y-106187423D01*
X146551650Y-106183797D01*
X147764500Y-104150062D01*
X147889694Y-103940209D01*
X148011752Y-103735756D01*
X148130010Y-103537811D01*
X148243802Y-103347483D01*
X148352463Y-103165882D01*
X148455326Y-102994114D01*
X148551727Y-102833290D01*
X148640999Y-102684517D01*
X148722478Y-102548904D01*
X148795497Y-102427561D01*
X148859391Y-102321594D01*
X148913495Y-102232114D01*
X148957143Y-102160229D01*
X148989669Y-102107046D01*
X149010408Y-102073676D01*
X149018130Y-102061903D01*
X149058909Y-102007479D01*
X149016163Y-101943958D01*
X148965516Y-101853283D01*
X148935480Y-101763985D01*
X149567340Y-101763985D01*
X149625494Y-101759275D01*
X149679782Y-101738959D01*
X149725629Y-101704173D01*
X149758458Y-101656051D01*
X149773696Y-101595728D01*
X149774211Y-101584177D01*
X149764527Y-101517550D01*
X149736232Y-101463036D01*
X149693734Y-101422012D01*
X149641443Y-101395858D01*
X149583768Y-101385953D01*
X149525119Y-101393675D01*
X149469904Y-101420403D01*
X149422533Y-101467516D01*
X149418675Y-101472993D01*
X149395472Y-101527558D01*
X149390567Y-101590034D01*
X149404121Y-101650556D01*
X149415432Y-101673141D01*
X149457734Y-101722052D01*
X149509895Y-101751956D01*
X149567340Y-101763985D01*
X148935480Y-101763985D01*
X148932894Y-101756298D01*
X148916705Y-101647236D01*
X148914216Y-101574600D01*
X148923155Y-101447092D01*
X148951066Y-101334143D01*
X148999616Y-101231718D01*
X149070470Y-101135783D01*
X149114836Y-101088935D01*
X149214412Y-101007372D01*
X149324009Y-100949065D01*
X149444066Y-100913839D01*
X149575020Y-100901518D01*
X149580601Y-100901499D01*
X149712285Y-100912960D01*
X149833192Y-100947405D01*
X149943557Y-101004932D01*
X150043616Y-101085639D01*
X150055082Y-101097029D01*
X150137272Y-101197297D01*
X150197720Y-101307215D01*
X150236412Y-101423768D01*
X150253334Y-101543944D01*
X150248469Y-101664729D01*
X150221804Y-101783110D01*
X150173324Y-101896073D01*
X150103013Y-102000606D01*
X150059761Y-102048674D01*
X149967455Y-102129881D01*
X149871072Y-102189056D01*
X149766215Y-102228001D01*
X149648487Y-102248517D01*
X149561550Y-102252839D01*
X149503522Y-102253791D01*
X149466150Y-102255956D01*
X149444692Y-102260297D01*
X149434407Y-102267777D01*
X149430553Y-102279359D01*
X149430539Y-102279450D01*
X149423717Y-102292724D01*
X149404473Y-102326747D01*
X149373424Y-102380472D01*
X149331192Y-102452853D01*
X149278396Y-102542842D01*
X149215656Y-102649395D01*
X149143592Y-102771463D01*
X149062823Y-102908001D01*
X148973969Y-103057962D01*
X148877650Y-103220299D01*
X148774487Y-103393966D01*
X148665098Y-103577916D01*
X148550104Y-103771103D01*
X148430124Y-103972481D01*
X148305778Y-104181002D01*
X148177687Y-104395620D01*
X148121771Y-104489250D01*
X146817016Y-106673650D01*
X145293683Y-106673650D01*
X143770350Y-106673650D01*
X143770350Y-106673650D01*
X143770350Y-106673650D01*
G37*
X143770350Y-106673650D02*
X143722454Y-106643871D01*
X143663633Y-106598090D01*
X143626017Y-106544622D01*
X143606136Y-106477627D01*
X143602040Y-106441375D01*
X143599557Y-106394412D01*
X143602086Y-106362972D01*
X143612151Y-106337297D01*
X143632277Y-106307633D01*
X143638933Y-106298773D01*
X143673575Y-106260775D01*
X143713375Y-106228054D01*
X143732504Y-106216450D01*
X143740952Y-106212461D01*
X143750486Y-106208907D01*
X143762563Y-106205760D01*
X143778639Y-106202989D01*
X143800171Y-106200565D01*
X143828614Y-106198459D01*
X143865427Y-106196641D01*
X143912066Y-106195082D01*
X143969987Y-106193752D01*
X144040646Y-106192622D01*
X144125501Y-106191662D01*
X144226008Y-106190843D01*
X144343624Y-106190135D01*
X144479805Y-106189509D01*
X144636008Y-106188936D01*
X144813689Y-106188385D01*
X145014306Y-106187828D01*
X145167350Y-106187423D01*
X146551650Y-106183797D01*
X147764500Y-104150062D01*
X147889694Y-103940209D01*
X148011752Y-103735756D01*
X148130010Y-103537811D01*
X148243802Y-103347483D01*
X148352463Y-103165882D01*
X148455326Y-102994114D01*
X148551727Y-102833290D01*
X148640999Y-102684517D01*
X148722478Y-102548904D01*
X148795497Y-102427561D01*
X148859391Y-102321594D01*
X148913495Y-102232114D01*
X148957143Y-102160229D01*
X148989669Y-102107046D01*
X149010408Y-102073676D01*
X149018130Y-102061903D01*
X149058909Y-102007479D01*
X149016163Y-101943958D01*
X148965516Y-101853283D01*
X148935480Y-101763985D01*
X149567340Y-101763985D01*
X149625494Y-101759275D01*
X149679782Y-101738959D01*
X149725629Y-101704173D01*
X149758458Y-101656051D01*
X149773696Y-101595728D01*
X149774211Y-101584177D01*
X149764527Y-101517550D01*
X149736232Y-101463036D01*
X149693734Y-101422012D01*
X149641443Y-101395858D01*
X149583768Y-101385953D01*
X149525119Y-101393675D01*
X149469904Y-101420403D01*
X149422533Y-101467516D01*
X149418675Y-101472993D01*
X149395472Y-101527558D01*
X149390567Y-101590034D01*
X149404121Y-101650556D01*
X149415432Y-101673141D01*
X149457734Y-101722052D01*
X149509895Y-101751956D01*
X149567340Y-101763985D01*
X148935480Y-101763985D01*
X148932894Y-101756298D01*
X148916705Y-101647236D01*
X148914216Y-101574600D01*
X148923155Y-101447092D01*
X148951066Y-101334143D01*
X148999616Y-101231718D01*
X149070470Y-101135783D01*
X149114836Y-101088935D01*
X149214412Y-101007372D01*
X149324009Y-100949065D01*
X149444066Y-100913839D01*
X149575020Y-100901518D01*
X149580601Y-100901499D01*
X149712285Y-100912960D01*
X149833192Y-100947405D01*
X149943557Y-101004932D01*
X150043616Y-101085639D01*
X150055082Y-101097029D01*
X150137272Y-101197297D01*
X150197720Y-101307215D01*
X150236412Y-101423768D01*
X150253334Y-101543944D01*
X150248469Y-101664729D01*
X150221804Y-101783110D01*
X150173324Y-101896073D01*
X150103013Y-102000606D01*
X150059761Y-102048674D01*
X149967455Y-102129881D01*
X149871072Y-102189056D01*
X149766215Y-102228001D01*
X149648487Y-102248517D01*
X149561550Y-102252839D01*
X149503522Y-102253791D01*
X149466150Y-102255956D01*
X149444692Y-102260297D01*
X149434407Y-102267777D01*
X149430553Y-102279359D01*
X149430539Y-102279450D01*
X149423717Y-102292724D01*
X149404473Y-102326747D01*
X149373424Y-102380472D01*
X149331192Y-102452853D01*
X149278396Y-102542842D01*
X149215656Y-102649395D01*
X149143592Y-102771463D01*
X149062823Y-102908001D01*
X148973969Y-103057962D01*
X148877650Y-103220299D01*
X148774487Y-103393966D01*
X148665098Y-103577916D01*
X148550104Y-103771103D01*
X148430124Y-103972481D01*
X148305778Y-104181002D01*
X148177687Y-104395620D01*
X148121771Y-104489250D01*
X146817016Y-106673650D01*
X145293683Y-106673650D01*
X143770350Y-106673650D01*
X143770350Y-106673650D01*
%LPC*%
D15*
X134620000Y-113030000D03*
X134620000Y-110490000D03*
X134620000Y-107950000D03*
X134620000Y-105410000D03*
X134620000Y-102870000D03*
X134620000Y-100330000D03*
X134620000Y-97790000D03*
X134620000Y-95250000D03*
X134620000Y-92710000D03*
X134620000Y-90170000D03*
X137160000Y-113030000D03*
X137160000Y-110490000D03*
X137160000Y-107950000D03*
X137160000Y-105410000D03*
X137160000Y-102870000D03*
X137160000Y-100330000D03*
X137160000Y-97790000D03*
X137160000Y-95250000D03*
X137160000Y-92710000D03*
X137160000Y-90170000D03*
X139700000Y-113030000D03*
X139700000Y-110490000D03*
X139700000Y-107950000D03*
X139700000Y-105410000D03*
X139700000Y-102870000D03*
X139700000Y-100330000D03*
X139700000Y-97790000D03*
X139700000Y-95250000D03*
X139700000Y-92710000D03*
X139700000Y-90170000D03*
X142240000Y-113030000D03*
X142240000Y-110490000D03*
X142240000Y-107950000D03*
X142240000Y-105410000D03*
X142240000Y-102870000D03*
X142240000Y-100330000D03*
X142240000Y-97790000D03*
X142240000Y-95250000D03*
X142240000Y-92710000D03*
X142240000Y-90170000D03*
X144780000Y-113030000D03*
X144780000Y-110490000D03*
X144780000Y-107950000D03*
X144780000Y-105410000D03*
X144780000Y-102870000D03*
X144780000Y-100330000D03*
X144780000Y-97790000D03*
X144780000Y-95250000D03*
X144780000Y-92710000D03*
X144780000Y-90170000D03*
X147320000Y-113030000D03*
X147320000Y-110490000D03*
X147320000Y-107950000D03*
X147320000Y-105410000D03*
X147320000Y-102870000D03*
X147320000Y-100330000D03*
X147320000Y-97790000D03*
X147320000Y-95250000D03*
X147320000Y-92710000D03*
X147320000Y-90170000D03*
X149860000Y-113030000D03*
X149860000Y-110490000D03*
X149860000Y-107950000D03*
X149860000Y-105410000D03*
X149860000Y-102870000D03*
X149860000Y-100330000D03*
X149860000Y-97790000D03*
X149860000Y-95250000D03*
X149860000Y-92710000D03*
X149860000Y-90170000D03*
X152400000Y-113030000D03*
X152400000Y-110490000D03*
X152400000Y-107950000D03*
X152400000Y-105410000D03*
X152400000Y-102870000D03*
X152400000Y-100330000D03*
X152400000Y-97790000D03*
X152400000Y-95250000D03*
X152400000Y-92710000D03*
X152400000Y-90170000D03*
X154940000Y-113030000D03*
X154940000Y-110490000D03*
X154940000Y-107950000D03*
X154940000Y-105410000D03*
X154940000Y-102870000D03*
X154940000Y-100330000D03*
X154940000Y-97790000D03*
X154940000Y-95250000D03*
X154940000Y-92710000D03*
X154940000Y-90170000D03*
X157480000Y-113030000D03*
X157480000Y-110490000D03*
X157480000Y-107950000D03*
X157480000Y-105410000D03*
X157480000Y-102870000D03*
X157480000Y-100330000D03*
X157480000Y-97790000D03*
X157480000Y-95250000D03*
X157480000Y-92710000D03*
X157480000Y-90170000D03*
X160020000Y-113030000D03*
X160020000Y-110490000D03*
X160020000Y-107950000D03*
X160020000Y-105410000D03*
X160020000Y-102870000D03*
X160020000Y-100330000D03*
X160020000Y-97790000D03*
X160020000Y-95250000D03*
X160020000Y-92710000D03*
X160020000Y-90170000D03*
X162560000Y-113030000D03*
X162560000Y-110490000D03*
X162560000Y-107950000D03*
X162560000Y-105410000D03*
X162560000Y-102870000D03*
X162560000Y-100330000D03*
X162560000Y-97790000D03*
X162560000Y-95250000D03*
X162560000Y-92710000D03*
X162560000Y-90170000D03*
X132080000Y-113030000D03*
X132080000Y-110490000D03*
X132080000Y-107950000D03*
X132080000Y-105410000D03*
X132080000Y-102870000D03*
X132080000Y-100330000D03*
X132080000Y-97790000D03*
X132080000Y-95250000D03*
X132080000Y-92710000D03*
X132080000Y-90170000D03*
X133350000Y-113030000D03*
X133350000Y-110490000D03*
X133350000Y-107950000D03*
X133350000Y-105410000D03*
X133350000Y-102870000D03*
X133350000Y-100330000D03*
X133350000Y-97790000D03*
X133350000Y-95250000D03*
X133350000Y-92710000D03*
X133350000Y-90170000D03*
X128905000Y-113030000D03*
X128905000Y-110490000D03*
X128905000Y-107950000D03*
X128905000Y-105410000D03*
X128905000Y-102870000D03*
X128905000Y-100330000D03*
X128905000Y-97790000D03*
X128905000Y-95250000D03*
X128905000Y-92710000D03*
X128905000Y-90170000D03*
D16*
G36*
X145669000Y-114935000D02*
X136017000Y-114935000D01*
X136017000Y-114173000D01*
X145669000Y-114173000D01*
X145669000Y-114935000D01*
X145669000Y-114935000D01*
G37*
X145669000Y-114935000D02*
X136017000Y-114935000D01*
X136017000Y-114173000D01*
X145669000Y-114173000D01*
X145669000Y-114935000D01*
G36*
X153289000Y-114935000D02*
X146431000Y-114935000D01*
X146431000Y-114173000D01*
X153289000Y-114173000D01*
X153289000Y-114935000D01*
X153289000Y-114935000D01*
G37*
X153289000Y-114935000D02*
X146431000Y-114935000D01*
X146431000Y-114173000D01*
X153289000Y-114173000D01*
X153289000Y-114935000D01*
G36*
X162433000Y-114935000D02*
X154051000Y-114935000D01*
X154051000Y-114173000D01*
X162433000Y-114173000D01*
X162433000Y-114935000D01*
X162433000Y-114935000D01*
G37*
X162433000Y-114935000D02*
X154051000Y-114935000D01*
X154051000Y-114173000D01*
X162433000Y-114173000D01*
X162433000Y-114935000D01*
G36*
X145669000Y-89027000D02*
X136017000Y-89027000D01*
X136017000Y-88265000D01*
X145669000Y-88265000D01*
X145669000Y-89027000D01*
X145669000Y-89027000D01*
G37*
X145669000Y-89027000D02*
X136017000Y-89027000D01*
X136017000Y-88265000D01*
X145669000Y-88265000D01*
X145669000Y-89027000D01*
G36*
X153289000Y-89027000D02*
X146431000Y-89027000D01*
X146431000Y-88265000D01*
X153289000Y-88265000D01*
X153289000Y-89027000D01*
X153289000Y-89027000D01*
G37*
X153289000Y-89027000D02*
X146431000Y-89027000D01*
X146431000Y-88265000D01*
X153289000Y-88265000D01*
X153289000Y-89027000D01*
G36*
X162433000Y-89027000D02*
X154051000Y-89027000D01*
X154051000Y-88265000D01*
X162433000Y-88265000D01*
X162433000Y-89027000D01*
X162433000Y-89027000D01*
G37*
X162433000Y-89027000D02*
X154051000Y-89027000D01*
X154051000Y-88265000D01*
X162433000Y-88265000D01*
X162433000Y-89027000D01*
M02*
