%FSLAX46Y46*%
G04 Gerber Fmt 4.6, Leading zero omitted, Abs format (unit mm)*
G04 Created by KiCad (PCBNEW (2014-08-29 BZR 5106)-product) date Mon 03 Nov 2014 02:33:59 PM PST*
%MOMM*%
G01*
G04 APERTURE LIST*
%ADD10C,0.100000*%
%ADD11C,1.803400*%
%ADD12C,1.930400*%
%ADD13C,0.254000*%
G04 APERTURE END LIST*
D10*
D11*
X133350000Y-113030000D03*
X133350000Y-110490000D03*
X133350000Y-107950000D03*
X133350000Y-105410000D03*
X133350000Y-102870000D03*
X133350000Y-100330000D03*
X133350000Y-97790000D03*
X133350000Y-95250000D03*
X133350000Y-92710000D03*
X133350000Y-90170000D03*
X132080000Y-113030000D03*
X132080000Y-110490000D03*
X132080000Y-107950000D03*
X132080000Y-105410000D03*
X132080000Y-102870000D03*
X132080000Y-100330000D03*
X132080000Y-97790000D03*
X132080000Y-95250000D03*
X132080000Y-92710000D03*
X132080000Y-90170000D03*
X162560000Y-113030000D03*
X162560000Y-110490000D03*
X162560000Y-107950000D03*
X162560000Y-105410000D03*
X162560000Y-102870000D03*
X162560000Y-100330000D03*
X162560000Y-97790000D03*
X162560000Y-95250000D03*
X162560000Y-92710000D03*
X162560000Y-90170000D03*
X160020000Y-113030000D03*
X160020000Y-110490000D03*
X160020000Y-107950000D03*
X160020000Y-105410000D03*
X160020000Y-102870000D03*
X160020000Y-100330000D03*
X160020000Y-97790000D03*
X160020000Y-95250000D03*
X160020000Y-92710000D03*
X160020000Y-90170000D03*
X157480000Y-113030000D03*
X157480000Y-110490000D03*
X157480000Y-107950000D03*
X157480000Y-105410000D03*
X157480000Y-102870000D03*
X157480000Y-100330000D03*
X157480000Y-97790000D03*
X157480000Y-95250000D03*
X157480000Y-92710000D03*
X157480000Y-90170000D03*
X154940000Y-113030000D03*
X154940000Y-110490000D03*
X154940000Y-107950000D03*
X154940000Y-105410000D03*
X154940000Y-102870000D03*
X154940000Y-100330000D03*
X154940000Y-97790000D03*
X154940000Y-95250000D03*
X154940000Y-92710000D03*
X154940000Y-90170000D03*
X152400000Y-113030000D03*
X152400000Y-110490000D03*
X152400000Y-107950000D03*
X152400000Y-105410000D03*
X152400000Y-102870000D03*
X152400000Y-100330000D03*
X152400000Y-97790000D03*
X152400000Y-95250000D03*
X152400000Y-92710000D03*
X152400000Y-90170000D03*
X149860000Y-113030000D03*
X149860000Y-110490000D03*
X149860000Y-107950000D03*
X149860000Y-105410000D03*
X149860000Y-102870000D03*
X149860000Y-100330000D03*
X149860000Y-97790000D03*
X149860000Y-95250000D03*
X149860000Y-92710000D03*
X149860000Y-90170000D03*
X147320000Y-113030000D03*
X147320000Y-110490000D03*
X147320000Y-107950000D03*
X147320000Y-105410000D03*
X147320000Y-102870000D03*
X147320000Y-100330000D03*
X147320000Y-97790000D03*
X147320000Y-95250000D03*
X147320000Y-92710000D03*
X147320000Y-90170000D03*
X144780000Y-113030000D03*
X144780000Y-110490000D03*
X144780000Y-107950000D03*
X144780000Y-105410000D03*
X144780000Y-102870000D03*
X144780000Y-100330000D03*
X144780000Y-97790000D03*
X144780000Y-95250000D03*
X144780000Y-92710000D03*
X144780000Y-90170000D03*
X142240000Y-113030000D03*
X142240000Y-110490000D03*
X142240000Y-107950000D03*
X142240000Y-105410000D03*
X142240000Y-102870000D03*
X142240000Y-100330000D03*
X142240000Y-97790000D03*
X142240000Y-95250000D03*
X142240000Y-92710000D03*
X142240000Y-90170000D03*
X139700000Y-113030000D03*
X139700000Y-110490000D03*
X139700000Y-107950000D03*
X139700000Y-105410000D03*
X139700000Y-102870000D03*
X139700000Y-100330000D03*
X139700000Y-97790000D03*
X139700000Y-95250000D03*
X139700000Y-92710000D03*
X139700000Y-90170000D03*
X137160000Y-113030000D03*
X137160000Y-110490000D03*
X137160000Y-107950000D03*
X137160000Y-105410000D03*
X137160000Y-102870000D03*
X137160000Y-100330000D03*
X137160000Y-97790000D03*
X137160000Y-95250000D03*
X137160000Y-92710000D03*
X137160000Y-90170000D03*
X134620000Y-113030000D03*
X134620000Y-110490000D03*
X134620000Y-107950000D03*
X134620000Y-105410000D03*
X134620000Y-102870000D03*
X134620000Y-100330000D03*
X134620000Y-97790000D03*
X134620000Y-95250000D03*
X134620000Y-92710000D03*
X134620000Y-90170000D03*
D12*
X128905000Y-113030000D03*
X128905000Y-110490000D03*
X128905000Y-107950000D03*
X128905000Y-105410000D03*
X128905000Y-102870000D03*
X128905000Y-100330000D03*
X128905000Y-97790000D03*
X128905000Y-95250000D03*
X128905000Y-92710000D03*
X128905000Y-90170000D03*
D13*
G36*
X145669000Y-114681000D02*
X136017000Y-114681000D01*
X136017000Y-114427000D01*
X145669000Y-114427000D01*
X145669000Y-114681000D01*
X145669000Y-114681000D01*
G37*
X145669000Y-114681000D02*
X136017000Y-114681000D01*
X136017000Y-114427000D01*
X145669000Y-114427000D01*
X145669000Y-114681000D01*
G36*
X153289000Y-114681000D02*
X146431000Y-114681000D01*
X146431000Y-114427000D01*
X153289000Y-114427000D01*
X153289000Y-114681000D01*
X153289000Y-114681000D01*
G37*
X153289000Y-114681000D02*
X146431000Y-114681000D01*
X146431000Y-114427000D01*
X153289000Y-114427000D01*
X153289000Y-114681000D01*
G36*
X162433000Y-114681000D02*
X154051000Y-114681000D01*
X154051000Y-114427000D01*
X162433000Y-114427000D01*
X162433000Y-114681000D01*
X162433000Y-114681000D01*
G37*
X162433000Y-114681000D02*
X154051000Y-114681000D01*
X154051000Y-114427000D01*
X162433000Y-114427000D01*
X162433000Y-114681000D01*
G36*
X145669000Y-88773000D02*
X136017000Y-88773000D01*
X136017000Y-88519000D01*
X145669000Y-88519000D01*
X145669000Y-88773000D01*
X145669000Y-88773000D01*
G37*
X145669000Y-88773000D02*
X136017000Y-88773000D01*
X136017000Y-88519000D01*
X145669000Y-88519000D01*
X145669000Y-88773000D01*
G36*
X153289000Y-88773000D02*
X146431000Y-88773000D01*
X146431000Y-88519000D01*
X153289000Y-88519000D01*
X153289000Y-88773000D01*
X153289000Y-88773000D01*
G37*
X153289000Y-88773000D02*
X146431000Y-88773000D01*
X146431000Y-88519000D01*
X153289000Y-88519000D01*
X153289000Y-88773000D01*
G36*
X162433000Y-88773000D02*
X154051000Y-88773000D01*
X154051000Y-88519000D01*
X162433000Y-88519000D01*
X162433000Y-88773000D01*
X162433000Y-88773000D01*
G37*
X162433000Y-88773000D02*
X154051000Y-88773000D01*
X154051000Y-88519000D01*
X162433000Y-88519000D01*
X162433000Y-88773000D01*
M02*
