%FSLAX46Y46*%
G04 Gerber Fmt 4.6, Leading zero omitted, Abs format (unit mm)*
G04 Created by KiCad (PCBNEW (2014-08-29 BZR 5106)-product) date Tue 04 Nov 2014 10:58:54 AM PST*
%MOMM*%
G01*
G04 APERTURE LIST*
%ADD10C,0.100000*%
%ADD11R,2.184400X2.184400*%
%ADD12O,2.184400X2.184400*%
%ADD13C,1.930400*%
%ADD14C,1.803400*%
%ADD15C,0.254000*%
G04 APERTURE END LIST*
D10*
D11*
X104140000Y-99060000D03*
D12*
X104140000Y-96520000D03*
D13*
X103505000Y-124460000D03*
X103505000Y-121920000D03*
X103505000Y-119380000D03*
X103505000Y-116840000D03*
X103505000Y-114300000D03*
X103505000Y-111760000D03*
X103505000Y-109220000D03*
X103505000Y-106680000D03*
X103505000Y-104140000D03*
X103505000Y-101600000D03*
X103505000Y-93980000D03*
X103505000Y-91440000D03*
X103505000Y-88900000D03*
X103505000Y-86360000D03*
X103505000Y-83820000D03*
X103505000Y-81280000D03*
X103505000Y-78740000D03*
X103505000Y-76200000D03*
X103505000Y-73660000D03*
X103505000Y-71120000D03*
D14*
X111760000Y-124460000D03*
X111760000Y-121920000D03*
X111760000Y-119380000D03*
X111760000Y-116840000D03*
X111760000Y-114300000D03*
X111760000Y-111760000D03*
X111760000Y-109220000D03*
X111760000Y-106680000D03*
X111760000Y-104140000D03*
X111760000Y-101600000D03*
X111760000Y-99060000D03*
X111760000Y-96520000D03*
X111760000Y-93980000D03*
X111760000Y-91440000D03*
X111760000Y-88900000D03*
X111760000Y-86360000D03*
X111760000Y-83820000D03*
X111760000Y-81280000D03*
X111760000Y-78740000D03*
X111760000Y-76200000D03*
X111760000Y-73660000D03*
X111760000Y-71120000D03*
X114300000Y-124460000D03*
X114300000Y-121920000D03*
X114300000Y-119380000D03*
X114300000Y-116840000D03*
X114300000Y-114300000D03*
X114300000Y-111760000D03*
X114300000Y-109220000D03*
X114300000Y-106680000D03*
X114300000Y-104140000D03*
X114300000Y-101600000D03*
X114300000Y-99060000D03*
X114300000Y-96520000D03*
X114300000Y-93980000D03*
X114300000Y-91440000D03*
X114300000Y-88900000D03*
X114300000Y-86360000D03*
X114300000Y-83820000D03*
X114300000Y-81280000D03*
X114300000Y-78740000D03*
X114300000Y-76200000D03*
X114300000Y-73660000D03*
X114300000Y-71120000D03*
X116840000Y-124460000D03*
X116840000Y-121920000D03*
X116840000Y-119380000D03*
X116840000Y-116840000D03*
X116840000Y-114300000D03*
X116840000Y-111760000D03*
X116840000Y-109220000D03*
X116840000Y-106680000D03*
X116840000Y-104140000D03*
X116840000Y-101600000D03*
X116840000Y-99060000D03*
X116840000Y-96520000D03*
X116840000Y-93980000D03*
X116840000Y-91440000D03*
X116840000Y-88900000D03*
X116840000Y-86360000D03*
X116840000Y-83820000D03*
X116840000Y-81280000D03*
X116840000Y-78740000D03*
X116840000Y-76200000D03*
X116840000Y-73660000D03*
X116840000Y-71120000D03*
X119380000Y-124460000D03*
X119380000Y-121920000D03*
X119380000Y-119380000D03*
X119380000Y-116840000D03*
X119380000Y-114300000D03*
X119380000Y-111760000D03*
X119380000Y-109220000D03*
X119380000Y-106680000D03*
X119380000Y-104140000D03*
X119380000Y-101600000D03*
X119380000Y-99060000D03*
X119380000Y-96520000D03*
X119380000Y-93980000D03*
X119380000Y-91440000D03*
X119380000Y-88900000D03*
X119380000Y-86360000D03*
X119380000Y-83820000D03*
X119380000Y-81280000D03*
X119380000Y-78740000D03*
X119380000Y-76200000D03*
X119380000Y-73660000D03*
X119380000Y-71120000D03*
X121920000Y-124460000D03*
X121920000Y-121920000D03*
X121920000Y-119380000D03*
X121920000Y-116840000D03*
X121920000Y-114300000D03*
X121920000Y-111760000D03*
X121920000Y-109220000D03*
X121920000Y-106680000D03*
X121920000Y-104140000D03*
X121920000Y-101600000D03*
X121920000Y-99060000D03*
X121920000Y-96520000D03*
X121920000Y-93980000D03*
X121920000Y-91440000D03*
X121920000Y-88900000D03*
X121920000Y-86360000D03*
X121920000Y-83820000D03*
X121920000Y-81280000D03*
X121920000Y-78740000D03*
X121920000Y-76200000D03*
X121920000Y-73660000D03*
X121920000Y-71120000D03*
X124460000Y-124460000D03*
X124460000Y-121920000D03*
X124460000Y-119380000D03*
X124460000Y-116840000D03*
X124460000Y-114300000D03*
X124460000Y-111760000D03*
X124460000Y-109220000D03*
X124460000Y-106680000D03*
X124460000Y-104140000D03*
X124460000Y-101600000D03*
X124460000Y-99060000D03*
X124460000Y-96520000D03*
X124460000Y-93980000D03*
X124460000Y-91440000D03*
X124460000Y-88900000D03*
X124460000Y-86360000D03*
X124460000Y-83820000D03*
X124460000Y-81280000D03*
X124460000Y-78740000D03*
X124460000Y-76200000D03*
X124460000Y-73660000D03*
X124460000Y-71120000D03*
X127000000Y-124460000D03*
X127000000Y-121920000D03*
X127000000Y-119380000D03*
X127000000Y-116840000D03*
X127000000Y-114300000D03*
X127000000Y-111760000D03*
X127000000Y-109220000D03*
X127000000Y-106680000D03*
X127000000Y-104140000D03*
X127000000Y-101600000D03*
X127000000Y-99060000D03*
X127000000Y-96520000D03*
X127000000Y-93980000D03*
X127000000Y-91440000D03*
X127000000Y-88900000D03*
X127000000Y-86360000D03*
X127000000Y-83820000D03*
X127000000Y-81280000D03*
X127000000Y-78740000D03*
X127000000Y-76200000D03*
X127000000Y-73660000D03*
X127000000Y-71120000D03*
X129540000Y-124460000D03*
X129540000Y-121920000D03*
X129540000Y-119380000D03*
X129540000Y-116840000D03*
X129540000Y-114300000D03*
X129540000Y-111760000D03*
X129540000Y-109220000D03*
X129540000Y-106680000D03*
X129540000Y-104140000D03*
X129540000Y-101600000D03*
X129540000Y-99060000D03*
X129540000Y-96520000D03*
X129540000Y-93980000D03*
X129540000Y-91440000D03*
X129540000Y-88900000D03*
X129540000Y-86360000D03*
X129540000Y-83820000D03*
X129540000Y-81280000D03*
X129540000Y-78740000D03*
X129540000Y-76200000D03*
X129540000Y-73660000D03*
X129540000Y-71120000D03*
X132080000Y-124460000D03*
X132080000Y-121920000D03*
X132080000Y-119380000D03*
X132080000Y-116840000D03*
X132080000Y-114300000D03*
X132080000Y-111760000D03*
X132080000Y-109220000D03*
X132080000Y-106680000D03*
X132080000Y-104140000D03*
X132080000Y-101600000D03*
X132080000Y-99060000D03*
X132080000Y-96520000D03*
X132080000Y-93980000D03*
X132080000Y-91440000D03*
X132080000Y-88900000D03*
X132080000Y-86360000D03*
X132080000Y-83820000D03*
X132080000Y-81280000D03*
X132080000Y-78740000D03*
X132080000Y-76200000D03*
X132080000Y-73660000D03*
X132080000Y-71120000D03*
X134620000Y-124460000D03*
X134620000Y-121920000D03*
X134620000Y-119380000D03*
X134620000Y-116840000D03*
X134620000Y-114300000D03*
X134620000Y-111760000D03*
X134620000Y-109220000D03*
X134620000Y-106680000D03*
X134620000Y-104140000D03*
X134620000Y-101600000D03*
X134620000Y-99060000D03*
X134620000Y-96520000D03*
X134620000Y-93980000D03*
X134620000Y-91440000D03*
X134620000Y-88900000D03*
X134620000Y-86360000D03*
X134620000Y-83820000D03*
X134620000Y-81280000D03*
X134620000Y-78740000D03*
X134620000Y-76200000D03*
X134620000Y-73660000D03*
X134620000Y-71120000D03*
X137160000Y-124460000D03*
X137160000Y-121920000D03*
X137160000Y-119380000D03*
X137160000Y-116840000D03*
X137160000Y-114300000D03*
X137160000Y-111760000D03*
X137160000Y-109220000D03*
X137160000Y-106680000D03*
X137160000Y-104140000D03*
X137160000Y-101600000D03*
X137160000Y-99060000D03*
X137160000Y-96520000D03*
X137160000Y-93980000D03*
X137160000Y-91440000D03*
X137160000Y-88900000D03*
X137160000Y-86360000D03*
X137160000Y-83820000D03*
X137160000Y-81280000D03*
X137160000Y-78740000D03*
X137160000Y-76200000D03*
X137160000Y-73660000D03*
X137160000Y-71120000D03*
X139700000Y-124460000D03*
X139700000Y-121920000D03*
X139700000Y-119380000D03*
X139700000Y-116840000D03*
X139700000Y-114300000D03*
X139700000Y-111760000D03*
X139700000Y-109220000D03*
X139700000Y-106680000D03*
X139700000Y-104140000D03*
X139700000Y-101600000D03*
X139700000Y-99060000D03*
X139700000Y-96520000D03*
X139700000Y-93980000D03*
X139700000Y-91440000D03*
X139700000Y-88900000D03*
X139700000Y-86360000D03*
X139700000Y-83820000D03*
X139700000Y-81280000D03*
X139700000Y-78740000D03*
X139700000Y-76200000D03*
X139700000Y-73660000D03*
X139700000Y-71120000D03*
X142240000Y-124460000D03*
X142240000Y-121920000D03*
X142240000Y-119380000D03*
X142240000Y-116840000D03*
X142240000Y-114300000D03*
X142240000Y-111760000D03*
X142240000Y-109220000D03*
X142240000Y-106680000D03*
X142240000Y-104140000D03*
X142240000Y-101600000D03*
X142240000Y-99060000D03*
X142240000Y-96520000D03*
X142240000Y-93980000D03*
X142240000Y-91440000D03*
X142240000Y-88900000D03*
X142240000Y-86360000D03*
X142240000Y-83820000D03*
X142240000Y-81280000D03*
X142240000Y-78740000D03*
X142240000Y-76200000D03*
X142240000Y-73660000D03*
X142240000Y-71120000D03*
X144780000Y-124460000D03*
X144780000Y-121920000D03*
X144780000Y-119380000D03*
X144780000Y-116840000D03*
X144780000Y-114300000D03*
X144780000Y-111760000D03*
X144780000Y-109220000D03*
X144780000Y-106680000D03*
X144780000Y-104140000D03*
X144780000Y-101600000D03*
X144780000Y-99060000D03*
X144780000Y-96520000D03*
X144780000Y-93980000D03*
X144780000Y-91440000D03*
X144780000Y-88900000D03*
X144780000Y-86360000D03*
X144780000Y-83820000D03*
X144780000Y-81280000D03*
X144780000Y-78740000D03*
X144780000Y-76200000D03*
X144780000Y-73660000D03*
X144780000Y-71120000D03*
X147320000Y-124460000D03*
X147320000Y-121920000D03*
X147320000Y-119380000D03*
X147320000Y-116840000D03*
X147320000Y-114300000D03*
X147320000Y-111760000D03*
X147320000Y-109220000D03*
X147320000Y-106680000D03*
X147320000Y-104140000D03*
X147320000Y-101600000D03*
X147320000Y-99060000D03*
X147320000Y-96520000D03*
X147320000Y-93980000D03*
X147320000Y-91440000D03*
X147320000Y-88900000D03*
X147320000Y-86360000D03*
X147320000Y-83820000D03*
X147320000Y-81280000D03*
X147320000Y-78740000D03*
X147320000Y-76200000D03*
X147320000Y-73660000D03*
X147320000Y-71120000D03*
X149860000Y-124460000D03*
X149860000Y-121920000D03*
X149860000Y-119380000D03*
X149860000Y-116840000D03*
X149860000Y-114300000D03*
X149860000Y-111760000D03*
X149860000Y-109220000D03*
X149860000Y-106680000D03*
X149860000Y-104140000D03*
X149860000Y-101600000D03*
X149860000Y-99060000D03*
X149860000Y-96520000D03*
X149860000Y-93980000D03*
X149860000Y-91440000D03*
X149860000Y-88900000D03*
X149860000Y-86360000D03*
X149860000Y-83820000D03*
X149860000Y-81280000D03*
X149860000Y-78740000D03*
X149860000Y-76200000D03*
X149860000Y-73660000D03*
X149860000Y-71120000D03*
X109220000Y-124460000D03*
X109220000Y-121920000D03*
X109220000Y-119380000D03*
X109220000Y-116840000D03*
X109220000Y-114300000D03*
X109220000Y-111760000D03*
X109220000Y-109220000D03*
X109220000Y-106680000D03*
X109220000Y-104140000D03*
X109220000Y-101600000D03*
X109220000Y-93980000D03*
X109220000Y-91440000D03*
X109220000Y-88900000D03*
X109220000Y-86360000D03*
X109220000Y-83820000D03*
X109220000Y-81280000D03*
X109220000Y-78740000D03*
X109220000Y-76200000D03*
X109220000Y-73660000D03*
X109220000Y-71120000D03*
X106680000Y-124460000D03*
X106680000Y-121920000D03*
X106680000Y-119380000D03*
X106680000Y-116840000D03*
X106680000Y-114300000D03*
X106680000Y-111760000D03*
X106680000Y-109220000D03*
X106680000Y-106680000D03*
X106680000Y-104140000D03*
X106680000Y-101600000D03*
X106680000Y-93980000D03*
X106680000Y-91440000D03*
X106680000Y-88900000D03*
X106680000Y-86360000D03*
X106680000Y-83820000D03*
X106680000Y-81280000D03*
X106680000Y-78740000D03*
X106680000Y-76200000D03*
X106680000Y-73660000D03*
X106680000Y-71120000D03*
X107950000Y-124460000D03*
X107950000Y-121920000D03*
X107950000Y-119380000D03*
X107950000Y-116840000D03*
X107950000Y-114300000D03*
X107950000Y-111760000D03*
X107950000Y-109220000D03*
X107950000Y-106680000D03*
X107950000Y-104140000D03*
X107950000Y-101600000D03*
X107950000Y-93980000D03*
X107950000Y-91440000D03*
X107950000Y-88900000D03*
X107950000Y-86360000D03*
X107950000Y-83820000D03*
X107950000Y-81280000D03*
X107950000Y-78740000D03*
X107950000Y-76200000D03*
X107950000Y-73660000D03*
X107950000Y-71120000D03*
D15*
G36*
X148209000Y-69723000D02*
X146431000Y-69723000D01*
X146431000Y-69469000D01*
X148209000Y-69469000D01*
X148209000Y-69723000D01*
X148209000Y-69723000D01*
G37*
X148209000Y-69723000D02*
X146431000Y-69723000D01*
X146431000Y-69469000D01*
X148209000Y-69469000D01*
X148209000Y-69723000D01*
G36*
X145669000Y-69723000D02*
X143891000Y-69723000D01*
X143891000Y-69469000D01*
X145669000Y-69469000D01*
X145669000Y-69723000D01*
X145669000Y-69723000D01*
G37*
X145669000Y-69723000D02*
X143891000Y-69723000D01*
X143891000Y-69469000D01*
X145669000Y-69469000D01*
X145669000Y-69723000D01*
G36*
X143129000Y-69723000D02*
X141351000Y-69723000D01*
X141351000Y-69469000D01*
X143129000Y-69469000D01*
X143129000Y-69723000D01*
X143129000Y-69723000D01*
G37*
X143129000Y-69723000D02*
X141351000Y-69723000D01*
X141351000Y-69469000D01*
X143129000Y-69469000D01*
X143129000Y-69723000D01*
G36*
X140589000Y-69723000D02*
X138811000Y-69723000D01*
X138811000Y-69469000D01*
X140589000Y-69469000D01*
X140589000Y-69723000D01*
X140589000Y-69723000D01*
G37*
X140589000Y-69723000D02*
X138811000Y-69723000D01*
X138811000Y-69469000D01*
X140589000Y-69469000D01*
X140589000Y-69723000D01*
G36*
X138049000Y-69723000D02*
X136271000Y-69723000D01*
X136271000Y-69469000D01*
X138049000Y-69469000D01*
X138049000Y-69723000D01*
X138049000Y-69723000D01*
G37*
X138049000Y-69723000D02*
X136271000Y-69723000D01*
X136271000Y-69469000D01*
X138049000Y-69469000D01*
X138049000Y-69723000D01*
G36*
X135509000Y-69723000D02*
X133731000Y-69723000D01*
X133731000Y-69469000D01*
X135509000Y-69469000D01*
X135509000Y-69723000D01*
X135509000Y-69723000D01*
G37*
X135509000Y-69723000D02*
X133731000Y-69723000D01*
X133731000Y-69469000D01*
X135509000Y-69469000D01*
X135509000Y-69723000D01*
G36*
X132969000Y-69723000D02*
X131191000Y-69723000D01*
X131191000Y-69469000D01*
X132969000Y-69469000D01*
X132969000Y-69723000D01*
X132969000Y-69723000D01*
G37*
X132969000Y-69723000D02*
X131191000Y-69723000D01*
X131191000Y-69469000D01*
X132969000Y-69469000D01*
X132969000Y-69723000D01*
G36*
X130429000Y-69723000D02*
X128651000Y-69723000D01*
X128651000Y-69469000D01*
X130429000Y-69469000D01*
X130429000Y-69723000D01*
X130429000Y-69723000D01*
G37*
X130429000Y-69723000D02*
X128651000Y-69723000D01*
X128651000Y-69469000D01*
X130429000Y-69469000D01*
X130429000Y-69723000D01*
G36*
X127889000Y-69723000D02*
X126111000Y-69723000D01*
X126111000Y-69469000D01*
X127889000Y-69469000D01*
X127889000Y-69723000D01*
X127889000Y-69723000D01*
G37*
X127889000Y-69723000D02*
X126111000Y-69723000D01*
X126111000Y-69469000D01*
X127889000Y-69469000D01*
X127889000Y-69723000D01*
G36*
X125349000Y-69723000D02*
X123571000Y-69723000D01*
X123571000Y-69469000D01*
X125349000Y-69469000D01*
X125349000Y-69723000D01*
X125349000Y-69723000D01*
G37*
X125349000Y-69723000D02*
X123571000Y-69723000D01*
X123571000Y-69469000D01*
X125349000Y-69469000D01*
X125349000Y-69723000D01*
G36*
X122809000Y-69723000D02*
X121031000Y-69723000D01*
X121031000Y-69469000D01*
X122809000Y-69469000D01*
X122809000Y-69723000D01*
X122809000Y-69723000D01*
G37*
X122809000Y-69723000D02*
X121031000Y-69723000D01*
X121031000Y-69469000D01*
X122809000Y-69469000D01*
X122809000Y-69723000D01*
G36*
X120269000Y-69723000D02*
X118491000Y-69723000D01*
X118491000Y-69469000D01*
X120269000Y-69469000D01*
X120269000Y-69723000D01*
X120269000Y-69723000D01*
G37*
X120269000Y-69723000D02*
X118491000Y-69723000D01*
X118491000Y-69469000D01*
X120269000Y-69469000D01*
X120269000Y-69723000D01*
G36*
X117729000Y-69723000D02*
X115951000Y-69723000D01*
X115951000Y-69469000D01*
X117729000Y-69469000D01*
X117729000Y-69723000D01*
X117729000Y-69723000D01*
G37*
X117729000Y-69723000D02*
X115951000Y-69723000D01*
X115951000Y-69469000D01*
X117729000Y-69469000D01*
X117729000Y-69723000D01*
G36*
X115189000Y-69723000D02*
X113411000Y-69723000D01*
X113411000Y-69469000D01*
X115189000Y-69469000D01*
X115189000Y-69723000D01*
X115189000Y-69723000D01*
G37*
X115189000Y-69723000D02*
X113411000Y-69723000D01*
X113411000Y-69469000D01*
X115189000Y-69469000D01*
X115189000Y-69723000D01*
G36*
X112649000Y-69723000D02*
X110871000Y-69723000D01*
X110871000Y-69469000D01*
X112649000Y-69469000D01*
X112649000Y-69723000D01*
X112649000Y-69723000D01*
G37*
X112649000Y-69723000D02*
X110871000Y-69723000D01*
X110871000Y-69469000D01*
X112649000Y-69469000D01*
X112649000Y-69723000D01*
G36*
X148209000Y-126111000D02*
X146431000Y-126111000D01*
X146431000Y-125857000D01*
X148209000Y-125857000D01*
X148209000Y-126111000D01*
X148209000Y-126111000D01*
G37*
X148209000Y-126111000D02*
X146431000Y-126111000D01*
X146431000Y-125857000D01*
X148209000Y-125857000D01*
X148209000Y-126111000D01*
G36*
X145669000Y-126111000D02*
X143891000Y-126111000D01*
X143891000Y-125857000D01*
X145669000Y-125857000D01*
X145669000Y-126111000D01*
X145669000Y-126111000D01*
G37*
X145669000Y-126111000D02*
X143891000Y-126111000D01*
X143891000Y-125857000D01*
X145669000Y-125857000D01*
X145669000Y-126111000D01*
G36*
X143129000Y-126111000D02*
X141351000Y-126111000D01*
X141351000Y-125857000D01*
X143129000Y-125857000D01*
X143129000Y-126111000D01*
X143129000Y-126111000D01*
G37*
X143129000Y-126111000D02*
X141351000Y-126111000D01*
X141351000Y-125857000D01*
X143129000Y-125857000D01*
X143129000Y-126111000D01*
G36*
X140589000Y-126111000D02*
X138811000Y-126111000D01*
X138811000Y-125857000D01*
X140589000Y-125857000D01*
X140589000Y-126111000D01*
X140589000Y-126111000D01*
G37*
X140589000Y-126111000D02*
X138811000Y-126111000D01*
X138811000Y-125857000D01*
X140589000Y-125857000D01*
X140589000Y-126111000D01*
G36*
X138049000Y-126111000D02*
X136271000Y-126111000D01*
X136271000Y-125857000D01*
X138049000Y-125857000D01*
X138049000Y-126111000D01*
X138049000Y-126111000D01*
G37*
X138049000Y-126111000D02*
X136271000Y-126111000D01*
X136271000Y-125857000D01*
X138049000Y-125857000D01*
X138049000Y-126111000D01*
G36*
X135509000Y-126111000D02*
X133731000Y-126111000D01*
X133731000Y-125857000D01*
X135509000Y-125857000D01*
X135509000Y-126111000D01*
X135509000Y-126111000D01*
G37*
X135509000Y-126111000D02*
X133731000Y-126111000D01*
X133731000Y-125857000D01*
X135509000Y-125857000D01*
X135509000Y-126111000D01*
G36*
X132969000Y-126111000D02*
X131191000Y-126111000D01*
X131191000Y-125857000D01*
X132969000Y-125857000D01*
X132969000Y-126111000D01*
X132969000Y-126111000D01*
G37*
X132969000Y-126111000D02*
X131191000Y-126111000D01*
X131191000Y-125857000D01*
X132969000Y-125857000D01*
X132969000Y-126111000D01*
G36*
X130429000Y-126111000D02*
X128651000Y-126111000D01*
X128651000Y-125857000D01*
X130429000Y-125857000D01*
X130429000Y-126111000D01*
X130429000Y-126111000D01*
G37*
X130429000Y-126111000D02*
X128651000Y-126111000D01*
X128651000Y-125857000D01*
X130429000Y-125857000D01*
X130429000Y-126111000D01*
G36*
X127889000Y-126111000D02*
X126111000Y-126111000D01*
X126111000Y-125857000D01*
X127889000Y-125857000D01*
X127889000Y-126111000D01*
X127889000Y-126111000D01*
G37*
X127889000Y-126111000D02*
X126111000Y-126111000D01*
X126111000Y-125857000D01*
X127889000Y-125857000D01*
X127889000Y-126111000D01*
G36*
X125349000Y-126111000D02*
X123571000Y-126111000D01*
X123571000Y-125857000D01*
X125349000Y-125857000D01*
X125349000Y-126111000D01*
X125349000Y-126111000D01*
G37*
X125349000Y-126111000D02*
X123571000Y-126111000D01*
X123571000Y-125857000D01*
X125349000Y-125857000D01*
X125349000Y-126111000D01*
G36*
X122809000Y-126111000D02*
X121031000Y-126111000D01*
X121031000Y-125857000D01*
X122809000Y-125857000D01*
X122809000Y-126111000D01*
X122809000Y-126111000D01*
G37*
X122809000Y-126111000D02*
X121031000Y-126111000D01*
X121031000Y-125857000D01*
X122809000Y-125857000D01*
X122809000Y-126111000D01*
G36*
X120269000Y-126111000D02*
X118491000Y-126111000D01*
X118491000Y-125857000D01*
X120269000Y-125857000D01*
X120269000Y-126111000D01*
X120269000Y-126111000D01*
G37*
X120269000Y-126111000D02*
X118491000Y-126111000D01*
X118491000Y-125857000D01*
X120269000Y-125857000D01*
X120269000Y-126111000D01*
G36*
X117729000Y-126111000D02*
X115951000Y-126111000D01*
X115951000Y-125857000D01*
X117729000Y-125857000D01*
X117729000Y-126111000D01*
X117729000Y-126111000D01*
G37*
X117729000Y-126111000D02*
X115951000Y-126111000D01*
X115951000Y-125857000D01*
X117729000Y-125857000D01*
X117729000Y-126111000D01*
G36*
X115189000Y-126111000D02*
X113411000Y-126111000D01*
X113411000Y-125857000D01*
X115189000Y-125857000D01*
X115189000Y-126111000D01*
X115189000Y-126111000D01*
G37*
X115189000Y-126111000D02*
X113411000Y-126111000D01*
X113411000Y-125857000D01*
X115189000Y-125857000D01*
X115189000Y-126111000D01*
G36*
X112649000Y-126111000D02*
X110871000Y-126111000D01*
X110871000Y-125857000D01*
X112649000Y-125857000D01*
X112649000Y-126111000D01*
X112649000Y-126111000D01*
G37*
X112649000Y-126111000D02*
X110871000Y-126111000D01*
X110871000Y-125857000D01*
X112649000Y-125857000D01*
X112649000Y-126111000D01*
M02*
