%FSLAX46Y46*%
G04 Gerber Fmt 4.6, Leading zero omitted, Abs format (unit mm)*
G04 Created by KiCad (PCBNEW (2014-08-29 BZR 5106)-product) date Fri 17 Oct 2014 03:49:03 PM PDT*
%MOMM*%
G01*
G04 APERTURE LIST*
%ADD10C,0.100000*%
%ADD11C,0.177800*%
%ADD12C,0.406400*%
%ADD13C,0.101600*%
%ADD14C,0.150000*%
%ADD15C,1.676400*%
%ADD16R,2.184400X2.184400*%
%ADD17O,2.184400X2.184400*%
%ADD18C,0.254000*%
G04 APERTURE END LIST*
D10*
D11*
X110042476Y-102537381D02*
X111312476Y-102537381D01*
X110102952Y-102537381D02*
X110042476Y-102658334D01*
X110042476Y-102900238D01*
X110102952Y-103021191D01*
X110163429Y-103081667D01*
X110284381Y-103142143D01*
X110647238Y-103142143D01*
X110768190Y-103081667D01*
X110828667Y-103021191D01*
X110889143Y-102900238D01*
X110889143Y-102658334D01*
X110828667Y-102537381D01*
X110042476Y-101932619D02*
X110889143Y-101932619D01*
X111312476Y-101932619D02*
X111252000Y-101993095D01*
X111191524Y-101932619D01*
X111252000Y-101872143D01*
X111312476Y-101932619D01*
X111191524Y-101932619D01*
X110889143Y-101448809D02*
X110042476Y-101146428D01*
X110889143Y-100844048D02*
X110042476Y-101146428D01*
X109740095Y-101267381D01*
X109679619Y-101327857D01*
X109619143Y-101448809D01*
X110526286Y-100360238D02*
X110526286Y-99392619D01*
X110042476Y-98787857D02*
X110889143Y-98787857D01*
X110768190Y-98787857D02*
X110828667Y-98727381D01*
X110889143Y-98606428D01*
X110889143Y-98425000D01*
X110828667Y-98304048D01*
X110707714Y-98243571D01*
X110042476Y-98243571D01*
X110707714Y-98243571D02*
X110828667Y-98183095D01*
X110889143Y-98062143D01*
X110889143Y-97880714D01*
X110828667Y-97759762D01*
X110707714Y-97699286D01*
X110042476Y-97699286D01*
X110042476Y-96913095D02*
X110102952Y-97034048D01*
X110163429Y-97094524D01*
X110284381Y-97155000D01*
X110647238Y-97155000D01*
X110768190Y-97094524D01*
X110828667Y-97034048D01*
X110889143Y-96913095D01*
X110889143Y-96731667D01*
X110828667Y-96610715D01*
X110768190Y-96550238D01*
X110647238Y-96489762D01*
X110284381Y-96489762D01*
X110163429Y-96550238D01*
X110102952Y-96610715D01*
X110042476Y-96731667D01*
X110042476Y-96913095D01*
X110042476Y-95401190D02*
X111312476Y-95401190D01*
X110102952Y-95401190D02*
X110042476Y-95522143D01*
X110042476Y-95764047D01*
X110102952Y-95885000D01*
X110163429Y-95945476D01*
X110284381Y-96005952D01*
X110647238Y-96005952D01*
X110768190Y-95945476D01*
X110828667Y-95885000D01*
X110889143Y-95764047D01*
X110889143Y-95522143D01*
X110828667Y-95401190D01*
X110889143Y-94252142D02*
X110042476Y-94252142D01*
X110889143Y-94796428D02*
X110223905Y-94796428D01*
X110102952Y-94735952D01*
X110042476Y-94614999D01*
X110042476Y-94433571D01*
X110102952Y-94312619D01*
X110163429Y-94252142D01*
X110042476Y-93465951D02*
X110102952Y-93586904D01*
X110223905Y-93647380D01*
X111312476Y-93647380D01*
X110102952Y-92498333D02*
X110042476Y-92619285D01*
X110042476Y-92861190D01*
X110102952Y-92982142D01*
X110223905Y-93042618D01*
X110707714Y-93042618D01*
X110828667Y-92982142D01*
X110889143Y-92861190D01*
X110889143Y-92619285D01*
X110828667Y-92498333D01*
X110707714Y-92437856D01*
X110586762Y-92437856D01*
X110465810Y-93042618D01*
D12*
X116870238Y-100856143D02*
X120172238Y-100856143D01*
X120172238Y-100069952D01*
X120015000Y-99598238D01*
X119700524Y-99283762D01*
X119386048Y-99126523D01*
X118757095Y-98969285D01*
X118285381Y-98969285D01*
X117656429Y-99126523D01*
X117341952Y-99283762D01*
X117027476Y-99598238D01*
X116870238Y-100069952D01*
X116870238Y-100856143D01*
X116870238Y-97554143D02*
X120172238Y-97554143D01*
X118442619Y-95352809D02*
X116870238Y-95352809D01*
X120172238Y-96453476D02*
X118442619Y-95352809D01*
X120172238Y-94252142D01*
D13*
X105585381Y-109062762D02*
X105585381Y-108482191D01*
X104569381Y-108772476D02*
X105585381Y-108772476D01*
X104569381Y-108143524D02*
X105585381Y-108143524D01*
X104859667Y-107804858D01*
X105585381Y-107466191D01*
X104569381Y-107466191D01*
X104956429Y-106982381D02*
X104956429Y-106208286D01*
X104569381Y-105192286D02*
X104569381Y-105772857D01*
X104569381Y-105482571D02*
X105585381Y-105482571D01*
X105440238Y-105579333D01*
X105343476Y-105676095D01*
X105295095Y-105772857D01*
X105585381Y-104273048D02*
X105585381Y-104756857D01*
X105101571Y-104805238D01*
X105149952Y-104756857D01*
X105198333Y-104660095D01*
X105198333Y-104418191D01*
X105149952Y-104321429D01*
X105101571Y-104273048D01*
X105004810Y-104224667D01*
X104762905Y-104224667D01*
X104666143Y-104273048D01*
X104617762Y-104321429D01*
X104569381Y-104418191D01*
X104569381Y-104660095D01*
X104617762Y-104756857D01*
X104666143Y-104805238D01*
X104956429Y-103789238D02*
X104956429Y-103015143D01*
X105585381Y-102337809D02*
X105585381Y-102241048D01*
X105537000Y-102144286D01*
X105488619Y-102095905D01*
X105391857Y-102047524D01*
X105198333Y-101999143D01*
X104956429Y-101999143D01*
X104762905Y-102047524D01*
X104666143Y-102095905D01*
X104617762Y-102144286D01*
X104569381Y-102241048D01*
X104569381Y-102337809D01*
X104617762Y-102434571D01*
X104666143Y-102482952D01*
X104762905Y-102531333D01*
X104956429Y-102579714D01*
X105198333Y-102579714D01*
X105391857Y-102531333D01*
X105488619Y-102482952D01*
X105537000Y-102434571D01*
X105585381Y-102337809D01*
X104569381Y-101031524D02*
X104569381Y-101612095D01*
X104569381Y-101321809D02*
X105585381Y-101321809D01*
X105440238Y-101418571D01*
X105343476Y-101515333D01*
X105295095Y-101612095D01*
X105246714Y-94645238D02*
X105246714Y-94258190D01*
X105585381Y-94500095D02*
X104714524Y-94500095D01*
X104617762Y-94451714D01*
X104569381Y-94354952D01*
X104569381Y-94258190D01*
X104617762Y-93532477D02*
X104569381Y-93629239D01*
X104569381Y-93822762D01*
X104617762Y-93919524D01*
X104714524Y-93967905D01*
X105101571Y-93967905D01*
X105198333Y-93919524D01*
X105246714Y-93822762D01*
X105246714Y-93629239D01*
X105198333Y-93532477D01*
X105101571Y-93484096D01*
X105004810Y-93484096D01*
X104908048Y-93967905D01*
X104617762Y-93097048D02*
X104569381Y-93000286D01*
X104569381Y-92806762D01*
X104617762Y-92710001D01*
X104714524Y-92661620D01*
X104762905Y-92661620D01*
X104859667Y-92710001D01*
X104908048Y-92806762D01*
X104908048Y-92951905D01*
X104956429Y-93048667D01*
X105053190Y-93097048D01*
X105101571Y-93097048D01*
X105198333Y-93048667D01*
X105246714Y-92951905D01*
X105246714Y-92806762D01*
X105198333Y-92710001D01*
X104617762Y-92274572D02*
X104569381Y-92177810D01*
X104569381Y-91984286D01*
X104617762Y-91887525D01*
X104714524Y-91839144D01*
X104762905Y-91839144D01*
X104859667Y-91887525D01*
X104908048Y-91984286D01*
X104908048Y-92129429D01*
X104956429Y-92226191D01*
X105053190Y-92274572D01*
X105101571Y-92274572D01*
X105198333Y-92226191D01*
X105246714Y-92129429D01*
X105246714Y-91984286D01*
X105198333Y-91887525D01*
X104617762Y-91016668D02*
X104569381Y-91113430D01*
X104569381Y-91306953D01*
X104617762Y-91403715D01*
X104714524Y-91452096D01*
X105101571Y-91452096D01*
X105198333Y-91403715D01*
X105246714Y-91306953D01*
X105246714Y-91113430D01*
X105198333Y-91016668D01*
X105101571Y-90968287D01*
X105004810Y-90968287D01*
X104908048Y-91452096D01*
X104569381Y-90387715D02*
X104617762Y-90484477D01*
X104714524Y-90532858D01*
X105585381Y-90532858D01*
X104666143Y-90000668D02*
X104617762Y-89952287D01*
X104569381Y-90000668D01*
X104617762Y-90049049D01*
X104666143Y-90000668D01*
X104569381Y-90000668D01*
X104569381Y-89516858D02*
X105246714Y-89516858D01*
X105585381Y-89516858D02*
X105537000Y-89565239D01*
X105488619Y-89516858D01*
X105537000Y-89468477D01*
X105585381Y-89516858D01*
X105488619Y-89516858D01*
X104569381Y-88887905D02*
X104617762Y-88984667D01*
X104666143Y-89033048D01*
X104762905Y-89081429D01*
X105053190Y-89081429D01*
X105149952Y-89033048D01*
X105198333Y-88984667D01*
X105246714Y-88887905D01*
X105246714Y-88742763D01*
X105198333Y-88646001D01*
X105149952Y-88597620D01*
X105053190Y-88549239D01*
X104762905Y-88549239D01*
X104666143Y-88597620D01*
X104617762Y-88646001D01*
X104569381Y-88742763D01*
X104569381Y-88887905D01*
D14*
X104420810Y-124460000D02*
G75*
G03X104420810Y-124460000I-915810J0D01*
G74*
G01*
X104420810Y-93980000D02*
G75*
G03X104420810Y-93980000I-915810J0D01*
G74*
G01*
D10*
G36*
X115655495Y-103295043D02*
X115576285Y-103290745D01*
X115509506Y-103280005D01*
X115500150Y-103277552D01*
X115379196Y-103230634D01*
X115270649Y-103162495D01*
X115176662Y-103075153D01*
X115099384Y-102970627D01*
X115040967Y-102850931D01*
X115038657Y-102844791D01*
X115027062Y-102809430D01*
X115668039Y-102809430D01*
X115741080Y-102799144D01*
X115799818Y-102769772D01*
X115841861Y-102723545D01*
X115864819Y-102662694D01*
X115868450Y-102622350D01*
X115857268Y-102554391D01*
X115825521Y-102499175D01*
X115775907Y-102459248D01*
X115711125Y-102437158D01*
X115668375Y-102433524D01*
X115605375Y-102445082D01*
X115550798Y-102477138D01*
X115509213Y-102525088D01*
X115485188Y-102584323D01*
X115481100Y-102622350D01*
X115492687Y-102685141D01*
X115509675Y-102717729D01*
X115552575Y-102768903D01*
X115599151Y-102798228D01*
X115655356Y-102809151D01*
X115668039Y-102809430D01*
X115027062Y-102809430D01*
X115023318Y-102798014D01*
X115013801Y-102752415D01*
X115008821Y-102699190D01*
X115007090Y-102629534D01*
X115007085Y-102628700D01*
X115012392Y-102517610D01*
X115031375Y-102421063D01*
X115066320Y-102330897D01*
X115113772Y-102247737D01*
X115139322Y-102206890D01*
X115152110Y-102181207D01*
X115153913Y-102165022D01*
X115146506Y-102152670D01*
X115144284Y-102150368D01*
X115136460Y-102140612D01*
X115123485Y-102121642D01*
X115104942Y-102092746D01*
X115080415Y-102053209D01*
X115049485Y-102002320D01*
X115011737Y-101939364D01*
X114966752Y-101863628D01*
X114914115Y-101774399D01*
X114853407Y-101670965D01*
X114784212Y-101552610D01*
X114706114Y-101418624D01*
X114618694Y-101268291D01*
X114521537Y-101100899D01*
X114414224Y-100915735D01*
X114296339Y-100712085D01*
X114167465Y-100489237D01*
X114027185Y-100246476D01*
X113875082Y-99983090D01*
X113716125Y-99707700D01*
X113601396Y-99508936D01*
X113489750Y-99315605D01*
X113381883Y-99128904D01*
X113278487Y-98950028D01*
X113180255Y-98780175D01*
X113087881Y-98620541D01*
X113002058Y-98472322D01*
X112923479Y-98336716D01*
X112852838Y-98214917D01*
X112790828Y-98108124D01*
X112738141Y-98017532D01*
X112695473Y-97944338D01*
X112663515Y-97889739D01*
X112642961Y-97854931D01*
X112634973Y-97841797D01*
X112609106Y-97797212D01*
X112599940Y-97763976D01*
X112606729Y-97734981D01*
X112621383Y-97712337D01*
X112630567Y-97697669D01*
X112651630Y-97662360D01*
X112683779Y-97607779D01*
X112726216Y-97535295D01*
X112778147Y-97446278D01*
X112838775Y-97342098D01*
X112907306Y-97224124D01*
X112982944Y-97093725D01*
X113064892Y-96952271D01*
X113152355Y-96801131D01*
X113244539Y-96641676D01*
X113340646Y-96475274D01*
X113424313Y-96330286D01*
X113523236Y-96158927D01*
X113619016Y-95993274D01*
X113710847Y-95834705D01*
X113797926Y-95684597D01*
X113879449Y-95544330D01*
X113954610Y-95415280D01*
X114022605Y-95298826D01*
X114082630Y-95196347D01*
X114133881Y-95109219D01*
X114175552Y-95038821D01*
X114206840Y-94986531D01*
X114226941Y-94953727D01*
X114234578Y-94942254D01*
X114291855Y-94891818D01*
X114357405Y-94863383D01*
X114426712Y-94857159D01*
X114495263Y-94873355D01*
X114558544Y-94912181D01*
X114574055Y-94926485D01*
X114621472Y-94989964D01*
X114644859Y-95060730D01*
X114643699Y-95137057D01*
X114641089Y-95150169D01*
X114633134Y-95168386D01*
X114613072Y-95207335D01*
X114581584Y-95265806D01*
X114539355Y-95342586D01*
X114487067Y-95436464D01*
X114425404Y-95546228D01*
X114355047Y-95670667D01*
X114276682Y-95808570D01*
X114190990Y-95958724D01*
X114098654Y-96119918D01*
X114000358Y-96290941D01*
X113896785Y-96470581D01*
X113892188Y-96478541D01*
X113794686Y-96647628D01*
X113701311Y-96810056D01*
X113612820Y-96964483D01*
X113529971Y-97109566D01*
X113453520Y-97243965D01*
X113384224Y-97366337D01*
X113322840Y-97475341D01*
X113270125Y-97569635D01*
X113226837Y-97647877D01*
X113193731Y-97708726D01*
X113171565Y-97750838D01*
X113161097Y-97772874D01*
X113160357Y-97775779D01*
X113167216Y-97788903D01*
X113186012Y-97822634D01*
X113215951Y-97875596D01*
X113256242Y-97946417D01*
X113306092Y-98033722D01*
X113364708Y-98136137D01*
X113431297Y-98252288D01*
X113505068Y-98380802D01*
X113585228Y-98520304D01*
X113670983Y-98669420D01*
X113761542Y-98826777D01*
X113856112Y-98991000D01*
X113953900Y-99160715D01*
X114054114Y-99334548D01*
X114155961Y-99511126D01*
X114258649Y-99689074D01*
X114361385Y-99867019D01*
X114463376Y-100043586D01*
X114563830Y-100217401D01*
X114661954Y-100387091D01*
X114756957Y-100551281D01*
X114848044Y-100708598D01*
X114934424Y-100857667D01*
X115015305Y-100997114D01*
X115089892Y-101125566D01*
X115157395Y-101241648D01*
X115217020Y-101343987D01*
X115267975Y-101431208D01*
X115309467Y-101501938D01*
X115322349Y-101523800D01*
X115373351Y-101610745D01*
X115420529Y-101692175D01*
X115462210Y-101765124D01*
X115496723Y-101826627D01*
X115522395Y-101873720D01*
X115537552Y-101903435D01*
X115540652Y-101910809D01*
X115552840Y-101948569D01*
X115653495Y-101945165D01*
X115780928Y-101953003D01*
X115901790Y-101984078D01*
X116013583Y-102036557D01*
X116113807Y-102108605D01*
X116199963Y-102198388D01*
X116269550Y-102304071D01*
X116320069Y-102423821D01*
X116324223Y-102437330D01*
X116337482Y-102504327D01*
X116343739Y-102585742D01*
X116342995Y-102671577D01*
X116335249Y-102751832D01*
X116324228Y-102804545D01*
X116276808Y-102925926D01*
X116208361Y-103034585D01*
X116120950Y-103128380D01*
X116016640Y-103205169D01*
X115897496Y-103262811D01*
X115874800Y-103270931D01*
X115814044Y-103284972D01*
X115737845Y-103293064D01*
X115655495Y-103295043D01*
X115655495Y-103295043D01*
X115655495Y-103295043D01*
G37*
X115655495Y-103295043D02*
X115576285Y-103290745D01*
X115509506Y-103280005D01*
X115500150Y-103277552D01*
X115379196Y-103230634D01*
X115270649Y-103162495D01*
X115176662Y-103075153D01*
X115099384Y-102970627D01*
X115040967Y-102850931D01*
X115038657Y-102844791D01*
X115027062Y-102809430D01*
X115668039Y-102809430D01*
X115741080Y-102799144D01*
X115799818Y-102769772D01*
X115841861Y-102723545D01*
X115864819Y-102662694D01*
X115868450Y-102622350D01*
X115857268Y-102554391D01*
X115825521Y-102499175D01*
X115775907Y-102459248D01*
X115711125Y-102437158D01*
X115668375Y-102433524D01*
X115605375Y-102445082D01*
X115550798Y-102477138D01*
X115509213Y-102525088D01*
X115485188Y-102584323D01*
X115481100Y-102622350D01*
X115492687Y-102685141D01*
X115509675Y-102717729D01*
X115552575Y-102768903D01*
X115599151Y-102798228D01*
X115655356Y-102809151D01*
X115668039Y-102809430D01*
X115027062Y-102809430D01*
X115023318Y-102798014D01*
X115013801Y-102752415D01*
X115008821Y-102699190D01*
X115007090Y-102629534D01*
X115007085Y-102628700D01*
X115012392Y-102517610D01*
X115031375Y-102421063D01*
X115066320Y-102330897D01*
X115113772Y-102247737D01*
X115139322Y-102206890D01*
X115152110Y-102181207D01*
X115153913Y-102165022D01*
X115146506Y-102152670D01*
X115144284Y-102150368D01*
X115136460Y-102140612D01*
X115123485Y-102121642D01*
X115104942Y-102092746D01*
X115080415Y-102053209D01*
X115049485Y-102002320D01*
X115011737Y-101939364D01*
X114966752Y-101863628D01*
X114914115Y-101774399D01*
X114853407Y-101670965D01*
X114784212Y-101552610D01*
X114706114Y-101418624D01*
X114618694Y-101268291D01*
X114521537Y-101100899D01*
X114414224Y-100915735D01*
X114296339Y-100712085D01*
X114167465Y-100489237D01*
X114027185Y-100246476D01*
X113875082Y-99983090D01*
X113716125Y-99707700D01*
X113601396Y-99508936D01*
X113489750Y-99315605D01*
X113381883Y-99128904D01*
X113278487Y-98950028D01*
X113180255Y-98780175D01*
X113087881Y-98620541D01*
X113002058Y-98472322D01*
X112923479Y-98336716D01*
X112852838Y-98214917D01*
X112790828Y-98108124D01*
X112738141Y-98017532D01*
X112695473Y-97944338D01*
X112663515Y-97889739D01*
X112642961Y-97854931D01*
X112634973Y-97841797D01*
X112609106Y-97797212D01*
X112599940Y-97763976D01*
X112606729Y-97734981D01*
X112621383Y-97712337D01*
X112630567Y-97697669D01*
X112651630Y-97662360D01*
X112683779Y-97607779D01*
X112726216Y-97535295D01*
X112778147Y-97446278D01*
X112838775Y-97342098D01*
X112907306Y-97224124D01*
X112982944Y-97093725D01*
X113064892Y-96952271D01*
X113152355Y-96801131D01*
X113244539Y-96641676D01*
X113340646Y-96475274D01*
X113424313Y-96330286D01*
X113523236Y-96158927D01*
X113619016Y-95993274D01*
X113710847Y-95834705D01*
X113797926Y-95684597D01*
X113879449Y-95544330D01*
X113954610Y-95415280D01*
X114022605Y-95298826D01*
X114082630Y-95196347D01*
X114133881Y-95109219D01*
X114175552Y-95038821D01*
X114206840Y-94986531D01*
X114226941Y-94953727D01*
X114234578Y-94942254D01*
X114291855Y-94891818D01*
X114357405Y-94863383D01*
X114426712Y-94857159D01*
X114495263Y-94873355D01*
X114558544Y-94912181D01*
X114574055Y-94926485D01*
X114621472Y-94989964D01*
X114644859Y-95060730D01*
X114643699Y-95137057D01*
X114641089Y-95150169D01*
X114633134Y-95168386D01*
X114613072Y-95207335D01*
X114581584Y-95265806D01*
X114539355Y-95342586D01*
X114487067Y-95436464D01*
X114425404Y-95546228D01*
X114355047Y-95670667D01*
X114276682Y-95808570D01*
X114190990Y-95958724D01*
X114098654Y-96119918D01*
X114000358Y-96290941D01*
X113896785Y-96470581D01*
X113892188Y-96478541D01*
X113794686Y-96647628D01*
X113701311Y-96810056D01*
X113612820Y-96964483D01*
X113529971Y-97109566D01*
X113453520Y-97243965D01*
X113384224Y-97366337D01*
X113322840Y-97475341D01*
X113270125Y-97569635D01*
X113226837Y-97647877D01*
X113193731Y-97708726D01*
X113171565Y-97750838D01*
X113161097Y-97772874D01*
X113160357Y-97775779D01*
X113167216Y-97788903D01*
X113186012Y-97822634D01*
X113215951Y-97875596D01*
X113256242Y-97946417D01*
X113306092Y-98033722D01*
X113364708Y-98136137D01*
X113431297Y-98252288D01*
X113505068Y-98380802D01*
X113585228Y-98520304D01*
X113670983Y-98669420D01*
X113761542Y-98826777D01*
X113856112Y-98991000D01*
X113953900Y-99160715D01*
X114054114Y-99334548D01*
X114155961Y-99511126D01*
X114258649Y-99689074D01*
X114361385Y-99867019D01*
X114463376Y-100043586D01*
X114563830Y-100217401D01*
X114661954Y-100387091D01*
X114756957Y-100551281D01*
X114848044Y-100708598D01*
X114934424Y-100857667D01*
X115015305Y-100997114D01*
X115089892Y-101125566D01*
X115157395Y-101241648D01*
X115217020Y-101343987D01*
X115267975Y-101431208D01*
X115309467Y-101501938D01*
X115322349Y-101523800D01*
X115373351Y-101610745D01*
X115420529Y-101692175D01*
X115462210Y-101765124D01*
X115496723Y-101826627D01*
X115522395Y-101873720D01*
X115537552Y-101903435D01*
X115540652Y-101910809D01*
X115552840Y-101948569D01*
X115653495Y-101945165D01*
X115780928Y-101953003D01*
X115901790Y-101984078D01*
X116013583Y-102036557D01*
X116113807Y-102108605D01*
X116199963Y-102198388D01*
X116269550Y-102304071D01*
X116320069Y-102423821D01*
X116324223Y-102437330D01*
X116337482Y-102504327D01*
X116343739Y-102585742D01*
X116342995Y-102671577D01*
X116335249Y-102751832D01*
X116324228Y-102804545D01*
X116276808Y-102925926D01*
X116208361Y-103034585D01*
X116120950Y-103128380D01*
X116016640Y-103205169D01*
X115897496Y-103262811D01*
X115874800Y-103270931D01*
X115814044Y-103284972D01*
X115737845Y-103293064D01*
X115655495Y-103295043D01*
X115655495Y-103295043D01*
G36*
X123012226Y-96087425D02*
X122944734Y-96068959D01*
X122883254Y-96028586D01*
X122877713Y-96023404D01*
X122866456Y-96007969D01*
X122843046Y-95972022D01*
X122808290Y-95916893D01*
X122762997Y-95843913D01*
X122707976Y-95754413D01*
X122644035Y-95649724D01*
X122571983Y-95531176D01*
X122492629Y-95400101D01*
X122406780Y-95257829D01*
X122315246Y-95105691D01*
X122218834Y-94945019D01*
X122118354Y-94777142D01*
X122014614Y-94603391D01*
X121995063Y-94570598D01*
X121151650Y-93155629D01*
X118764050Y-93153798D01*
X118519278Y-93153565D01*
X118281096Y-93153249D01*
X118050764Y-93152855D01*
X117829546Y-93152389D01*
X117618702Y-93151856D01*
X117419495Y-93151263D01*
X117233187Y-93150613D01*
X117061038Y-93149914D01*
X116904312Y-93149170D01*
X116764269Y-93148387D01*
X116642171Y-93147570D01*
X116539281Y-93146725D01*
X116456860Y-93145858D01*
X116396170Y-93144974D01*
X116358472Y-93144078D01*
X116345220Y-93143259D01*
X116328277Y-93140746D01*
X116314571Y-93147193D01*
X116300047Y-93166916D01*
X116280651Y-93204233D01*
X116272931Y-93220224D01*
X116216508Y-93311727D01*
X116149431Y-93388340D01*
X116047939Y-93473402D01*
X115937331Y-93534778D01*
X115817752Y-93572405D01*
X115689346Y-93586224D01*
X115678780Y-93586300D01*
X115549561Y-93574399D01*
X115428998Y-93540050D01*
X115319257Y-93485281D01*
X115222500Y-93412119D01*
X115140893Y-93322593D01*
X115076599Y-93218731D01*
X115031782Y-93102561D01*
X115031018Y-93098392D01*
X115708711Y-93098392D01*
X115764662Y-93080556D01*
X115811921Y-93047524D01*
X115847160Y-93002462D01*
X115867051Y-92948537D01*
X115868266Y-92888916D01*
X115847479Y-92826767D01*
X115846879Y-92825637D01*
X115804261Y-92770129D01*
X115747570Y-92735630D01*
X115677957Y-92722815D01*
X115671799Y-92722747D01*
X115605626Y-92733972D01*
X115550903Y-92764571D01*
X115510285Y-92810105D01*
X115486428Y-92866138D01*
X115481989Y-92928232D01*
X115499624Y-92991948D01*
X115504663Y-93001981D01*
X115534892Y-93039831D01*
X115578544Y-93072746D01*
X115584038Y-93075805D01*
X115647393Y-93097864D01*
X115708711Y-93098392D01*
X115031018Y-93098392D01*
X115008607Y-92976111D01*
X115007161Y-92956879D01*
X115004879Y-92903292D01*
X115004577Y-92854841D01*
X115006287Y-92820963D01*
X115006685Y-92817950D01*
X115037868Y-92692091D01*
X115090853Y-92575967D01*
X115163360Y-92472231D01*
X115253105Y-92383533D01*
X115357806Y-92312526D01*
X115475182Y-92261861D01*
X115488932Y-92257595D01*
X115563060Y-92242488D01*
X115649326Y-92235800D01*
X115737820Y-92237507D01*
X115818631Y-92247583D01*
X115862100Y-92258530D01*
X115974748Y-92304641D01*
X116073896Y-92364092D01*
X116134136Y-92413850D01*
X116172273Y-92454699D01*
X116212289Y-92504556D01*
X116249687Y-92557004D01*
X116279973Y-92605630D01*
X116298649Y-92644018D01*
X116301242Y-92652281D01*
X116307759Y-92678250D01*
X118863421Y-92674953D01*
X121419082Y-92671656D01*
X122326766Y-94191682D01*
X122434750Y-94372589D01*
X122539297Y-94547887D01*
X122639650Y-94716300D01*
X122735053Y-94876550D01*
X122824748Y-95027362D01*
X122907979Y-95167459D01*
X122983989Y-95295565D01*
X123052020Y-95410404D01*
X123111316Y-95510698D01*
X123161120Y-95595172D01*
X123200675Y-95662550D01*
X123229224Y-95711554D01*
X123246009Y-95740909D01*
X123250325Y-95749012D01*
X123261586Y-95793235D01*
X123265613Y-95848592D01*
X123262512Y-95904242D01*
X123252390Y-95949342D01*
X123248284Y-95958655D01*
X123203760Y-96019600D01*
X123146441Y-96061924D01*
X123081029Y-96084806D01*
X123012226Y-96087425D01*
X123012226Y-96087425D01*
X123012226Y-96087425D01*
G37*
X123012226Y-96087425D02*
X122944734Y-96068959D01*
X122883254Y-96028586D01*
X122877713Y-96023404D01*
X122866456Y-96007969D01*
X122843046Y-95972022D01*
X122808290Y-95916893D01*
X122762997Y-95843913D01*
X122707976Y-95754413D01*
X122644035Y-95649724D01*
X122571983Y-95531176D01*
X122492629Y-95400101D01*
X122406780Y-95257829D01*
X122315246Y-95105691D01*
X122218834Y-94945019D01*
X122118354Y-94777142D01*
X122014614Y-94603391D01*
X121995063Y-94570598D01*
X121151650Y-93155629D01*
X118764050Y-93153798D01*
X118519278Y-93153565D01*
X118281096Y-93153249D01*
X118050764Y-93152855D01*
X117829546Y-93152389D01*
X117618702Y-93151856D01*
X117419495Y-93151263D01*
X117233187Y-93150613D01*
X117061038Y-93149914D01*
X116904312Y-93149170D01*
X116764269Y-93148387D01*
X116642171Y-93147570D01*
X116539281Y-93146725D01*
X116456860Y-93145858D01*
X116396170Y-93144974D01*
X116358472Y-93144078D01*
X116345220Y-93143259D01*
X116328277Y-93140746D01*
X116314571Y-93147193D01*
X116300047Y-93166916D01*
X116280651Y-93204233D01*
X116272931Y-93220224D01*
X116216508Y-93311727D01*
X116149431Y-93388340D01*
X116047939Y-93473402D01*
X115937331Y-93534778D01*
X115817752Y-93572405D01*
X115689346Y-93586224D01*
X115678780Y-93586300D01*
X115549561Y-93574399D01*
X115428998Y-93540050D01*
X115319257Y-93485281D01*
X115222500Y-93412119D01*
X115140893Y-93322593D01*
X115076599Y-93218731D01*
X115031782Y-93102561D01*
X115031018Y-93098392D01*
X115708711Y-93098392D01*
X115764662Y-93080556D01*
X115811921Y-93047524D01*
X115847160Y-93002462D01*
X115867051Y-92948537D01*
X115868266Y-92888916D01*
X115847479Y-92826767D01*
X115846879Y-92825637D01*
X115804261Y-92770129D01*
X115747570Y-92735630D01*
X115677957Y-92722815D01*
X115671799Y-92722747D01*
X115605626Y-92733972D01*
X115550903Y-92764571D01*
X115510285Y-92810105D01*
X115486428Y-92866138D01*
X115481989Y-92928232D01*
X115499624Y-92991948D01*
X115504663Y-93001981D01*
X115534892Y-93039831D01*
X115578544Y-93072746D01*
X115584038Y-93075805D01*
X115647393Y-93097864D01*
X115708711Y-93098392D01*
X115031018Y-93098392D01*
X115008607Y-92976111D01*
X115007161Y-92956879D01*
X115004879Y-92903292D01*
X115004577Y-92854841D01*
X115006287Y-92820963D01*
X115006685Y-92817950D01*
X115037868Y-92692091D01*
X115090853Y-92575967D01*
X115163360Y-92472231D01*
X115253105Y-92383533D01*
X115357806Y-92312526D01*
X115475182Y-92261861D01*
X115488932Y-92257595D01*
X115563060Y-92242488D01*
X115649326Y-92235800D01*
X115737820Y-92237507D01*
X115818631Y-92247583D01*
X115862100Y-92258530D01*
X115974748Y-92304641D01*
X116073896Y-92364092D01*
X116134136Y-92413850D01*
X116172273Y-92454699D01*
X116212289Y-92504556D01*
X116249687Y-92557004D01*
X116279973Y-92605630D01*
X116298649Y-92644018D01*
X116301242Y-92652281D01*
X116307759Y-92678250D01*
X118863421Y-92674953D01*
X121419082Y-92671656D01*
X122326766Y-94191682D01*
X122434750Y-94372589D01*
X122539297Y-94547887D01*
X122639650Y-94716300D01*
X122735053Y-94876550D01*
X122824748Y-95027362D01*
X122907979Y-95167459D01*
X122983989Y-95295565D01*
X123052020Y-95410404D01*
X123111316Y-95510698D01*
X123161120Y-95595172D01*
X123200675Y-95662550D01*
X123229224Y-95711554D01*
X123246009Y-95740909D01*
X123250325Y-95749012D01*
X123261586Y-95793235D01*
X123265613Y-95848592D01*
X123262512Y-95904242D01*
X123252390Y-95949342D01*
X123248284Y-95958655D01*
X123203760Y-96019600D01*
X123146441Y-96061924D01*
X123081029Y-96084806D01*
X123012226Y-96087425D01*
X123012226Y-96087425D01*
G36*
X118370350Y-102863650D02*
X118322454Y-102833871D01*
X118263633Y-102788090D01*
X118226017Y-102734622D01*
X118206136Y-102667627D01*
X118202040Y-102631375D01*
X118199557Y-102584412D01*
X118202086Y-102552972D01*
X118212151Y-102527297D01*
X118232277Y-102497633D01*
X118238933Y-102488773D01*
X118273575Y-102450775D01*
X118313375Y-102418054D01*
X118332504Y-102406450D01*
X118340952Y-102402461D01*
X118350486Y-102398907D01*
X118362563Y-102395760D01*
X118378639Y-102392989D01*
X118400171Y-102390565D01*
X118428614Y-102388459D01*
X118465427Y-102386641D01*
X118512066Y-102385082D01*
X118569987Y-102383752D01*
X118640646Y-102382622D01*
X118725501Y-102381662D01*
X118826008Y-102380843D01*
X118943624Y-102380135D01*
X119079805Y-102379509D01*
X119236008Y-102378936D01*
X119413689Y-102378385D01*
X119614306Y-102377828D01*
X119767350Y-102377423D01*
X121151650Y-102373797D01*
X122364500Y-100340062D01*
X122489694Y-100130209D01*
X122611752Y-99925756D01*
X122730010Y-99727811D01*
X122843802Y-99537483D01*
X122952463Y-99355882D01*
X123055326Y-99184114D01*
X123151727Y-99023290D01*
X123240999Y-98874517D01*
X123322478Y-98738904D01*
X123395497Y-98617561D01*
X123459391Y-98511594D01*
X123513495Y-98422114D01*
X123557143Y-98350229D01*
X123589669Y-98297046D01*
X123610408Y-98263676D01*
X123618130Y-98251903D01*
X123658909Y-98197479D01*
X123616163Y-98133958D01*
X123565516Y-98043283D01*
X123535480Y-97953985D01*
X124167340Y-97953985D01*
X124225494Y-97949275D01*
X124279782Y-97928959D01*
X124325629Y-97894173D01*
X124358458Y-97846051D01*
X124373696Y-97785728D01*
X124374211Y-97774177D01*
X124364527Y-97707550D01*
X124336232Y-97653036D01*
X124293734Y-97612012D01*
X124241443Y-97585858D01*
X124183768Y-97575953D01*
X124125119Y-97583675D01*
X124069904Y-97610403D01*
X124022533Y-97657516D01*
X124018675Y-97662993D01*
X123995472Y-97717558D01*
X123990567Y-97780034D01*
X124004121Y-97840556D01*
X124015432Y-97863141D01*
X124057734Y-97912052D01*
X124109895Y-97941956D01*
X124167340Y-97953985D01*
X123535480Y-97953985D01*
X123532894Y-97946298D01*
X123516705Y-97837236D01*
X123514216Y-97764600D01*
X123523155Y-97637092D01*
X123551066Y-97524143D01*
X123599616Y-97421718D01*
X123670470Y-97325783D01*
X123714836Y-97278935D01*
X123814412Y-97197372D01*
X123924009Y-97139065D01*
X124044066Y-97103839D01*
X124175020Y-97091518D01*
X124180601Y-97091499D01*
X124312285Y-97102960D01*
X124433192Y-97137405D01*
X124543557Y-97194932D01*
X124643616Y-97275639D01*
X124655082Y-97287029D01*
X124737272Y-97387297D01*
X124797720Y-97497215D01*
X124836412Y-97613768D01*
X124853334Y-97733944D01*
X124848469Y-97854729D01*
X124821804Y-97973110D01*
X124773324Y-98086073D01*
X124703013Y-98190606D01*
X124659761Y-98238674D01*
X124567455Y-98319881D01*
X124471072Y-98379056D01*
X124366215Y-98418001D01*
X124248487Y-98438517D01*
X124161550Y-98442839D01*
X124103522Y-98443791D01*
X124066150Y-98445956D01*
X124044692Y-98450297D01*
X124034407Y-98457777D01*
X124030553Y-98469359D01*
X124030539Y-98469450D01*
X124023717Y-98482724D01*
X124004473Y-98516747D01*
X123973424Y-98570472D01*
X123931192Y-98642853D01*
X123878396Y-98732842D01*
X123815656Y-98839395D01*
X123743592Y-98961463D01*
X123662823Y-99098001D01*
X123573969Y-99247962D01*
X123477650Y-99410299D01*
X123374487Y-99583966D01*
X123265098Y-99767916D01*
X123150104Y-99961103D01*
X123030124Y-100162481D01*
X122905778Y-100371002D01*
X122777687Y-100585620D01*
X122721771Y-100679250D01*
X121417016Y-102863650D01*
X119893683Y-102863650D01*
X118370350Y-102863650D01*
X118370350Y-102863650D01*
X118370350Y-102863650D01*
G37*
X118370350Y-102863650D02*
X118322454Y-102833871D01*
X118263633Y-102788090D01*
X118226017Y-102734622D01*
X118206136Y-102667627D01*
X118202040Y-102631375D01*
X118199557Y-102584412D01*
X118202086Y-102552972D01*
X118212151Y-102527297D01*
X118232277Y-102497633D01*
X118238933Y-102488773D01*
X118273575Y-102450775D01*
X118313375Y-102418054D01*
X118332504Y-102406450D01*
X118340952Y-102402461D01*
X118350486Y-102398907D01*
X118362563Y-102395760D01*
X118378639Y-102392989D01*
X118400171Y-102390565D01*
X118428614Y-102388459D01*
X118465427Y-102386641D01*
X118512066Y-102385082D01*
X118569987Y-102383752D01*
X118640646Y-102382622D01*
X118725501Y-102381662D01*
X118826008Y-102380843D01*
X118943624Y-102380135D01*
X119079805Y-102379509D01*
X119236008Y-102378936D01*
X119413689Y-102378385D01*
X119614306Y-102377828D01*
X119767350Y-102377423D01*
X121151650Y-102373797D01*
X122364500Y-100340062D01*
X122489694Y-100130209D01*
X122611752Y-99925756D01*
X122730010Y-99727811D01*
X122843802Y-99537483D01*
X122952463Y-99355882D01*
X123055326Y-99184114D01*
X123151727Y-99023290D01*
X123240999Y-98874517D01*
X123322478Y-98738904D01*
X123395497Y-98617561D01*
X123459391Y-98511594D01*
X123513495Y-98422114D01*
X123557143Y-98350229D01*
X123589669Y-98297046D01*
X123610408Y-98263676D01*
X123618130Y-98251903D01*
X123658909Y-98197479D01*
X123616163Y-98133958D01*
X123565516Y-98043283D01*
X123535480Y-97953985D01*
X124167340Y-97953985D01*
X124225494Y-97949275D01*
X124279782Y-97928959D01*
X124325629Y-97894173D01*
X124358458Y-97846051D01*
X124373696Y-97785728D01*
X124374211Y-97774177D01*
X124364527Y-97707550D01*
X124336232Y-97653036D01*
X124293734Y-97612012D01*
X124241443Y-97585858D01*
X124183768Y-97575953D01*
X124125119Y-97583675D01*
X124069904Y-97610403D01*
X124022533Y-97657516D01*
X124018675Y-97662993D01*
X123995472Y-97717558D01*
X123990567Y-97780034D01*
X124004121Y-97840556D01*
X124015432Y-97863141D01*
X124057734Y-97912052D01*
X124109895Y-97941956D01*
X124167340Y-97953985D01*
X123535480Y-97953985D01*
X123532894Y-97946298D01*
X123516705Y-97837236D01*
X123514216Y-97764600D01*
X123523155Y-97637092D01*
X123551066Y-97524143D01*
X123599616Y-97421718D01*
X123670470Y-97325783D01*
X123714836Y-97278935D01*
X123814412Y-97197372D01*
X123924009Y-97139065D01*
X124044066Y-97103839D01*
X124175020Y-97091518D01*
X124180601Y-97091499D01*
X124312285Y-97102960D01*
X124433192Y-97137405D01*
X124543557Y-97194932D01*
X124643616Y-97275639D01*
X124655082Y-97287029D01*
X124737272Y-97387297D01*
X124797720Y-97497215D01*
X124836412Y-97613768D01*
X124853334Y-97733944D01*
X124848469Y-97854729D01*
X124821804Y-97973110D01*
X124773324Y-98086073D01*
X124703013Y-98190606D01*
X124659761Y-98238674D01*
X124567455Y-98319881D01*
X124471072Y-98379056D01*
X124366215Y-98418001D01*
X124248487Y-98438517D01*
X124161550Y-98442839D01*
X124103522Y-98443791D01*
X124066150Y-98445956D01*
X124044692Y-98450297D01*
X124034407Y-98457777D01*
X124030553Y-98469359D01*
X124030539Y-98469450D01*
X124023717Y-98482724D01*
X124004473Y-98516747D01*
X123973424Y-98570472D01*
X123931192Y-98642853D01*
X123878396Y-98732842D01*
X123815656Y-98839395D01*
X123743592Y-98961463D01*
X123662823Y-99098001D01*
X123573969Y-99247962D01*
X123477650Y-99410299D01*
X123374487Y-99583966D01*
X123265098Y-99767916D01*
X123150104Y-99961103D01*
X123030124Y-100162481D01*
X122905778Y-100371002D01*
X122777687Y-100585620D01*
X122721771Y-100679250D01*
X121417016Y-102863650D01*
X119893683Y-102863650D01*
X118370350Y-102863650D01*
X118370350Y-102863650D01*
%LPC*%
D15*
X103505000Y-124460000D03*
X103505000Y-121920000D03*
X103505000Y-119380000D03*
X103505000Y-116840000D03*
X103505000Y-114300000D03*
X103505000Y-111760000D03*
X103505000Y-109220000D03*
X103505000Y-106680000D03*
X103505000Y-104140000D03*
X103505000Y-101600000D03*
X103505000Y-93980000D03*
X103505000Y-91440000D03*
X103505000Y-88900000D03*
X103505000Y-86360000D03*
X103505000Y-83820000D03*
X103505000Y-81280000D03*
X103505000Y-78740000D03*
X103505000Y-76200000D03*
X103505000Y-73660000D03*
X103505000Y-71120000D03*
X111760000Y-124460000D03*
X111760000Y-121920000D03*
X111760000Y-119380000D03*
X111760000Y-116840000D03*
X111760000Y-114300000D03*
X111760000Y-111760000D03*
X111760000Y-109220000D03*
X111760000Y-106680000D03*
X111760000Y-104140000D03*
X111760000Y-101600000D03*
X111760000Y-99060000D03*
X111760000Y-96520000D03*
X111760000Y-93980000D03*
X111760000Y-91440000D03*
X111760000Y-88900000D03*
X111760000Y-86360000D03*
X111760000Y-83820000D03*
X111760000Y-81280000D03*
X111760000Y-78740000D03*
X111760000Y-76200000D03*
X111760000Y-73660000D03*
X111760000Y-71120000D03*
X114300000Y-124460000D03*
X114300000Y-121920000D03*
X114300000Y-119380000D03*
X114300000Y-116840000D03*
X114300000Y-114300000D03*
X114300000Y-111760000D03*
X114300000Y-109220000D03*
X114300000Y-106680000D03*
X114300000Y-104140000D03*
X114300000Y-101600000D03*
X114300000Y-99060000D03*
X114300000Y-96520000D03*
X114300000Y-93980000D03*
X114300000Y-91440000D03*
X114300000Y-88900000D03*
X114300000Y-86360000D03*
X114300000Y-83820000D03*
X114300000Y-81280000D03*
X114300000Y-78740000D03*
X114300000Y-76200000D03*
X114300000Y-73660000D03*
X114300000Y-71120000D03*
X109220000Y-124460000D03*
X109220000Y-121920000D03*
X109220000Y-119380000D03*
X109220000Y-116840000D03*
X109220000Y-114300000D03*
X109220000Y-111760000D03*
X109220000Y-109220000D03*
X109220000Y-106680000D03*
X109220000Y-104140000D03*
X109220000Y-101600000D03*
X109220000Y-99060000D03*
X109220000Y-96520000D03*
X109220000Y-93980000D03*
X109220000Y-91440000D03*
X109220000Y-88900000D03*
X109220000Y-86360000D03*
X109220000Y-83820000D03*
X109220000Y-81280000D03*
X109220000Y-78740000D03*
X109220000Y-76200000D03*
X109220000Y-73660000D03*
X109220000Y-71120000D03*
X116840000Y-124460000D03*
X116840000Y-121920000D03*
X116840000Y-119380000D03*
X116840000Y-116840000D03*
X116840000Y-114300000D03*
X116840000Y-111760000D03*
X116840000Y-109220000D03*
X116840000Y-106680000D03*
X116840000Y-104140000D03*
X116840000Y-101600000D03*
X116840000Y-99060000D03*
X116840000Y-96520000D03*
X116840000Y-93980000D03*
X116840000Y-91440000D03*
X116840000Y-88900000D03*
X116840000Y-86360000D03*
X116840000Y-83820000D03*
X116840000Y-81280000D03*
X116840000Y-78740000D03*
X116840000Y-76200000D03*
X116840000Y-73660000D03*
X116840000Y-71120000D03*
X119380000Y-124460000D03*
X119380000Y-121920000D03*
X119380000Y-119380000D03*
X119380000Y-116840000D03*
X119380000Y-114300000D03*
X119380000Y-111760000D03*
X119380000Y-109220000D03*
X119380000Y-106680000D03*
X119380000Y-104140000D03*
X119380000Y-101600000D03*
X119380000Y-99060000D03*
X119380000Y-96520000D03*
X119380000Y-93980000D03*
X119380000Y-91440000D03*
X119380000Y-88900000D03*
X119380000Y-86360000D03*
X119380000Y-83820000D03*
X119380000Y-81280000D03*
X119380000Y-78740000D03*
X119380000Y-76200000D03*
X119380000Y-73660000D03*
X119380000Y-71120000D03*
X107950000Y-124460000D03*
X107950000Y-121920000D03*
X107950000Y-119380000D03*
X107950000Y-116840000D03*
X107950000Y-114300000D03*
X107950000Y-111760000D03*
X107950000Y-109220000D03*
X107950000Y-106680000D03*
X107950000Y-104140000D03*
X107950000Y-101600000D03*
X107950000Y-99060000D03*
X107950000Y-96520000D03*
X107950000Y-93980000D03*
X107950000Y-91440000D03*
X107950000Y-88900000D03*
X107950000Y-86360000D03*
X107950000Y-83820000D03*
X107950000Y-81280000D03*
X107950000Y-78740000D03*
X107950000Y-76200000D03*
X107950000Y-73660000D03*
X107950000Y-71120000D03*
X121920000Y-124460000D03*
X121920000Y-121920000D03*
X121920000Y-119380000D03*
X121920000Y-116840000D03*
X121920000Y-114300000D03*
X121920000Y-111760000D03*
X121920000Y-109220000D03*
X121920000Y-106680000D03*
X121920000Y-104140000D03*
X121920000Y-101600000D03*
X121920000Y-99060000D03*
X121920000Y-96520000D03*
X121920000Y-93980000D03*
X121920000Y-91440000D03*
X121920000Y-88900000D03*
X121920000Y-86360000D03*
X121920000Y-83820000D03*
X121920000Y-81280000D03*
X121920000Y-78740000D03*
X121920000Y-76200000D03*
X121920000Y-73660000D03*
X121920000Y-71120000D03*
X124460000Y-124460000D03*
X124460000Y-121920000D03*
X124460000Y-119380000D03*
X124460000Y-116840000D03*
X124460000Y-114300000D03*
X124460000Y-111760000D03*
X124460000Y-109220000D03*
X124460000Y-106680000D03*
X124460000Y-104140000D03*
X124460000Y-101600000D03*
X124460000Y-99060000D03*
X124460000Y-96520000D03*
X124460000Y-93980000D03*
X124460000Y-91440000D03*
X124460000Y-88900000D03*
X124460000Y-86360000D03*
X124460000Y-83820000D03*
X124460000Y-81280000D03*
X124460000Y-78740000D03*
X124460000Y-76200000D03*
X124460000Y-73660000D03*
X124460000Y-71120000D03*
X106680000Y-124460000D03*
X106680000Y-121920000D03*
X106680000Y-119380000D03*
X106680000Y-116840000D03*
X106680000Y-114300000D03*
X106680000Y-111760000D03*
X106680000Y-109220000D03*
X106680000Y-106680000D03*
X106680000Y-104140000D03*
X106680000Y-101600000D03*
X106680000Y-99060000D03*
X106680000Y-96520000D03*
X106680000Y-93980000D03*
X106680000Y-91440000D03*
X106680000Y-88900000D03*
X106680000Y-86360000D03*
X106680000Y-83820000D03*
X106680000Y-81280000D03*
X106680000Y-78740000D03*
X106680000Y-76200000D03*
X106680000Y-73660000D03*
X106680000Y-71120000D03*
X127000000Y-124460000D03*
X127000000Y-121920000D03*
X127000000Y-119380000D03*
X127000000Y-116840000D03*
X127000000Y-114300000D03*
X127000000Y-111760000D03*
X127000000Y-109220000D03*
X127000000Y-106680000D03*
X127000000Y-104140000D03*
X127000000Y-101600000D03*
X127000000Y-99060000D03*
X127000000Y-96520000D03*
X127000000Y-93980000D03*
X127000000Y-91440000D03*
X127000000Y-88900000D03*
X127000000Y-86360000D03*
X127000000Y-83820000D03*
X127000000Y-81280000D03*
X127000000Y-78740000D03*
X127000000Y-76200000D03*
X127000000Y-73660000D03*
X127000000Y-71120000D03*
X129540000Y-124460000D03*
X129540000Y-121920000D03*
X129540000Y-119380000D03*
X129540000Y-116840000D03*
X129540000Y-114300000D03*
X129540000Y-111760000D03*
X129540000Y-109220000D03*
X129540000Y-106680000D03*
X129540000Y-104140000D03*
X129540000Y-101600000D03*
X129540000Y-99060000D03*
X129540000Y-96520000D03*
X129540000Y-93980000D03*
X129540000Y-91440000D03*
X129540000Y-88900000D03*
X129540000Y-86360000D03*
X129540000Y-83820000D03*
X129540000Y-81280000D03*
X129540000Y-78740000D03*
X129540000Y-76200000D03*
X129540000Y-73660000D03*
X129540000Y-71120000D03*
X132080000Y-124460000D03*
X132080000Y-121920000D03*
X132080000Y-119380000D03*
X132080000Y-116840000D03*
X132080000Y-114300000D03*
X132080000Y-111760000D03*
X132080000Y-109220000D03*
X132080000Y-106680000D03*
X132080000Y-104140000D03*
X132080000Y-101600000D03*
X132080000Y-99060000D03*
X132080000Y-96520000D03*
X132080000Y-93980000D03*
X132080000Y-91440000D03*
X132080000Y-88900000D03*
X132080000Y-86360000D03*
X132080000Y-83820000D03*
X132080000Y-81280000D03*
X132080000Y-78740000D03*
X132080000Y-76200000D03*
X132080000Y-73660000D03*
X132080000Y-71120000D03*
X134620000Y-124460000D03*
X134620000Y-121920000D03*
X134620000Y-119380000D03*
X134620000Y-116840000D03*
X134620000Y-114300000D03*
X134620000Y-111760000D03*
X134620000Y-109220000D03*
X134620000Y-106680000D03*
X134620000Y-104140000D03*
X134620000Y-101600000D03*
X134620000Y-99060000D03*
X134620000Y-96520000D03*
X134620000Y-93980000D03*
X134620000Y-91440000D03*
X134620000Y-88900000D03*
X134620000Y-86360000D03*
X134620000Y-83820000D03*
X134620000Y-81280000D03*
X134620000Y-78740000D03*
X134620000Y-76200000D03*
X134620000Y-73660000D03*
X134620000Y-71120000D03*
X137160000Y-124460000D03*
X137160000Y-121920000D03*
X137160000Y-119380000D03*
X137160000Y-116840000D03*
X137160000Y-114300000D03*
X137160000Y-111760000D03*
X137160000Y-109220000D03*
X137160000Y-106680000D03*
X137160000Y-104140000D03*
X137160000Y-101600000D03*
X137160000Y-99060000D03*
X137160000Y-96520000D03*
X137160000Y-93980000D03*
X137160000Y-91440000D03*
X137160000Y-88900000D03*
X137160000Y-86360000D03*
X137160000Y-83820000D03*
X137160000Y-81280000D03*
X137160000Y-78740000D03*
X137160000Y-76200000D03*
X137160000Y-73660000D03*
X137160000Y-71120000D03*
X139700000Y-124460000D03*
X139700000Y-121920000D03*
X139700000Y-119380000D03*
X139700000Y-116840000D03*
X139700000Y-114300000D03*
X139700000Y-111760000D03*
X139700000Y-109220000D03*
X139700000Y-106680000D03*
X139700000Y-104140000D03*
X139700000Y-101600000D03*
X139700000Y-99060000D03*
X139700000Y-96520000D03*
X139700000Y-93980000D03*
X139700000Y-91440000D03*
X139700000Y-88900000D03*
X139700000Y-86360000D03*
X139700000Y-83820000D03*
X139700000Y-81280000D03*
X139700000Y-78740000D03*
X139700000Y-76200000D03*
X139700000Y-73660000D03*
X139700000Y-71120000D03*
X142240000Y-124460000D03*
X142240000Y-121920000D03*
X142240000Y-119380000D03*
X142240000Y-116840000D03*
X142240000Y-114300000D03*
X142240000Y-111760000D03*
X142240000Y-109220000D03*
X142240000Y-106680000D03*
X142240000Y-104140000D03*
X142240000Y-101600000D03*
X142240000Y-99060000D03*
X142240000Y-96520000D03*
X142240000Y-93980000D03*
X142240000Y-91440000D03*
X142240000Y-88900000D03*
X142240000Y-86360000D03*
X142240000Y-83820000D03*
X142240000Y-81280000D03*
X142240000Y-78740000D03*
X142240000Y-76200000D03*
X142240000Y-73660000D03*
X142240000Y-71120000D03*
X144780000Y-124460000D03*
X144780000Y-121920000D03*
X144780000Y-119380000D03*
X144780000Y-116840000D03*
X144780000Y-114300000D03*
X144780000Y-111760000D03*
X144780000Y-109220000D03*
X144780000Y-106680000D03*
X144780000Y-104140000D03*
X144780000Y-101600000D03*
X144780000Y-99060000D03*
X144780000Y-96520000D03*
X144780000Y-93980000D03*
X144780000Y-91440000D03*
X144780000Y-88900000D03*
X144780000Y-86360000D03*
X144780000Y-83820000D03*
X144780000Y-81280000D03*
X144780000Y-78740000D03*
X144780000Y-76200000D03*
X144780000Y-73660000D03*
X144780000Y-71120000D03*
X147320000Y-124460000D03*
X147320000Y-121920000D03*
X147320000Y-119380000D03*
X147320000Y-116840000D03*
X147320000Y-114300000D03*
X147320000Y-111760000D03*
X147320000Y-109220000D03*
X147320000Y-106680000D03*
X147320000Y-104140000D03*
X147320000Y-101600000D03*
X147320000Y-99060000D03*
X147320000Y-96520000D03*
X147320000Y-93980000D03*
X147320000Y-91440000D03*
X147320000Y-88900000D03*
X147320000Y-86360000D03*
X147320000Y-83820000D03*
X147320000Y-81280000D03*
X147320000Y-78740000D03*
X147320000Y-76200000D03*
X147320000Y-73660000D03*
X147320000Y-71120000D03*
X149860000Y-124460000D03*
X149860000Y-121920000D03*
X149860000Y-119380000D03*
X149860000Y-116840000D03*
X149860000Y-114300000D03*
X149860000Y-111760000D03*
X149860000Y-109220000D03*
X149860000Y-106680000D03*
X149860000Y-104140000D03*
X149860000Y-101600000D03*
X149860000Y-99060000D03*
X149860000Y-96520000D03*
X149860000Y-93980000D03*
X149860000Y-91440000D03*
X149860000Y-88900000D03*
X149860000Y-86360000D03*
X149860000Y-83820000D03*
X149860000Y-81280000D03*
X149860000Y-78740000D03*
X149860000Y-76200000D03*
X149860000Y-73660000D03*
X149860000Y-71120000D03*
D16*
X104140000Y-99060000D03*
D17*
X104140000Y-96520000D03*
D18*
G36*
X150114000Y-95377000D02*
X148971000Y-95377000D01*
X148971000Y-95123000D01*
X150114000Y-95123000D01*
X150114000Y-95377000D01*
X150114000Y-95377000D01*
G37*
X150114000Y-95377000D02*
X148971000Y-95377000D01*
X148971000Y-95123000D01*
X150114000Y-95123000D01*
X150114000Y-95377000D01*
G36*
X150114000Y-100457000D02*
X148971000Y-100457000D01*
X148971000Y-100203000D01*
X150114000Y-100203000D01*
X150114000Y-100457000D01*
X150114000Y-100457000D01*
G37*
X150114000Y-100457000D02*
X148971000Y-100457000D01*
X148971000Y-100203000D01*
X150114000Y-100203000D01*
X150114000Y-100457000D01*
G36*
X148209000Y-100457000D02*
X146431000Y-100457000D01*
X146431000Y-100203000D01*
X148209000Y-100203000D01*
X148209000Y-100457000D01*
X148209000Y-100457000D01*
G37*
X148209000Y-100457000D02*
X146431000Y-100457000D01*
X146431000Y-100203000D01*
X148209000Y-100203000D01*
X148209000Y-100457000D01*
G36*
X145669000Y-100457000D02*
X143891000Y-100457000D01*
X143891000Y-100203000D01*
X145669000Y-100203000D01*
X145669000Y-100457000D01*
X145669000Y-100457000D01*
G37*
X145669000Y-100457000D02*
X143891000Y-100457000D01*
X143891000Y-100203000D01*
X145669000Y-100203000D01*
X145669000Y-100457000D01*
G36*
X143129000Y-100457000D02*
X141351000Y-100457000D01*
X141351000Y-100203000D01*
X143129000Y-100203000D01*
X143129000Y-100457000D01*
X143129000Y-100457000D01*
G37*
X143129000Y-100457000D02*
X141351000Y-100457000D01*
X141351000Y-100203000D01*
X143129000Y-100203000D01*
X143129000Y-100457000D01*
G36*
X140589000Y-100457000D02*
X138811000Y-100457000D01*
X138811000Y-100203000D01*
X140589000Y-100203000D01*
X140589000Y-100457000D01*
X140589000Y-100457000D01*
G37*
X140589000Y-100457000D02*
X138811000Y-100457000D01*
X138811000Y-100203000D01*
X140589000Y-100203000D01*
X140589000Y-100457000D01*
G36*
X138049000Y-100457000D02*
X136271000Y-100457000D01*
X136271000Y-100203000D01*
X138049000Y-100203000D01*
X138049000Y-100457000D01*
X138049000Y-100457000D01*
G37*
X138049000Y-100457000D02*
X136271000Y-100457000D01*
X136271000Y-100203000D01*
X138049000Y-100203000D01*
X138049000Y-100457000D01*
G36*
X135509000Y-100457000D02*
X133731000Y-100457000D01*
X133731000Y-100203000D01*
X135509000Y-100203000D01*
X135509000Y-100457000D01*
X135509000Y-100457000D01*
G37*
X135509000Y-100457000D02*
X133731000Y-100457000D01*
X133731000Y-100203000D01*
X135509000Y-100203000D01*
X135509000Y-100457000D01*
G36*
X132969000Y-100457000D02*
X131191000Y-100457000D01*
X131191000Y-100203000D01*
X132969000Y-100203000D01*
X132969000Y-100457000D01*
X132969000Y-100457000D01*
G37*
X132969000Y-100457000D02*
X131191000Y-100457000D01*
X131191000Y-100203000D01*
X132969000Y-100203000D01*
X132969000Y-100457000D01*
G36*
X130429000Y-100457000D02*
X128651000Y-100457000D01*
X128651000Y-100203000D01*
X130429000Y-100203000D01*
X130429000Y-100457000D01*
X130429000Y-100457000D01*
G37*
X130429000Y-100457000D02*
X128651000Y-100457000D01*
X128651000Y-100203000D01*
X130429000Y-100203000D01*
X130429000Y-100457000D01*
G36*
X127889000Y-100457000D02*
X126111000Y-100457000D01*
X126111000Y-100203000D01*
X127889000Y-100203000D01*
X127889000Y-100457000D01*
X127889000Y-100457000D01*
G37*
X127889000Y-100457000D02*
X126111000Y-100457000D01*
X126111000Y-100203000D01*
X127889000Y-100203000D01*
X127889000Y-100457000D01*
G36*
X125349000Y-100457000D02*
X123571000Y-100457000D01*
X123571000Y-100203000D01*
X125349000Y-100203000D01*
X125349000Y-100457000D01*
X125349000Y-100457000D01*
G37*
X125349000Y-100457000D02*
X123571000Y-100457000D01*
X123571000Y-100203000D01*
X125349000Y-100203000D01*
X125349000Y-100457000D01*
G36*
X122809000Y-100457000D02*
X121031000Y-100457000D01*
X121031000Y-100203000D01*
X122809000Y-100203000D01*
X122809000Y-100457000D01*
X122809000Y-100457000D01*
G37*
X122809000Y-100457000D02*
X121031000Y-100457000D01*
X121031000Y-100203000D01*
X122809000Y-100203000D01*
X122809000Y-100457000D01*
G36*
X120269000Y-100457000D02*
X118491000Y-100457000D01*
X118491000Y-100203000D01*
X120269000Y-100203000D01*
X120269000Y-100457000D01*
X120269000Y-100457000D01*
G37*
X120269000Y-100457000D02*
X118491000Y-100457000D01*
X118491000Y-100203000D01*
X120269000Y-100203000D01*
X120269000Y-100457000D01*
G36*
X117729000Y-100457000D02*
X115951000Y-100457000D01*
X115951000Y-100203000D01*
X117729000Y-100203000D01*
X117729000Y-100457000D01*
X117729000Y-100457000D01*
G37*
X117729000Y-100457000D02*
X115951000Y-100457000D01*
X115951000Y-100203000D01*
X117729000Y-100203000D01*
X117729000Y-100457000D01*
G36*
X115189000Y-100457000D02*
X113411000Y-100457000D01*
X113411000Y-100203000D01*
X115189000Y-100203000D01*
X115189000Y-100457000D01*
X115189000Y-100457000D01*
G37*
X115189000Y-100457000D02*
X113411000Y-100457000D01*
X113411000Y-100203000D01*
X115189000Y-100203000D01*
X115189000Y-100457000D01*
G36*
X112649000Y-100457000D02*
X110871000Y-100457000D01*
X110871000Y-100203000D01*
X112649000Y-100203000D01*
X112649000Y-100457000D01*
X112649000Y-100457000D01*
G37*
X112649000Y-100457000D02*
X110871000Y-100457000D01*
X110871000Y-100203000D01*
X112649000Y-100203000D01*
X112649000Y-100457000D01*
G36*
X148209000Y-95377000D02*
X146431000Y-95377000D01*
X146431000Y-95123000D01*
X148209000Y-95123000D01*
X148209000Y-95377000D01*
X148209000Y-95377000D01*
G37*
X148209000Y-95377000D02*
X146431000Y-95377000D01*
X146431000Y-95123000D01*
X148209000Y-95123000D01*
X148209000Y-95377000D01*
G36*
X145669000Y-95377000D02*
X143891000Y-95377000D01*
X143891000Y-95123000D01*
X145669000Y-95123000D01*
X145669000Y-95377000D01*
X145669000Y-95377000D01*
G37*
X145669000Y-95377000D02*
X143891000Y-95377000D01*
X143891000Y-95123000D01*
X145669000Y-95123000D01*
X145669000Y-95377000D01*
G36*
X143129000Y-95377000D02*
X141351000Y-95377000D01*
X141351000Y-95123000D01*
X143129000Y-95123000D01*
X143129000Y-95377000D01*
X143129000Y-95377000D01*
G37*
X143129000Y-95377000D02*
X141351000Y-95377000D01*
X141351000Y-95123000D01*
X143129000Y-95123000D01*
X143129000Y-95377000D01*
G36*
X140589000Y-95377000D02*
X138811000Y-95377000D01*
X138811000Y-95123000D01*
X140589000Y-95123000D01*
X140589000Y-95377000D01*
X140589000Y-95377000D01*
G37*
X140589000Y-95377000D02*
X138811000Y-95377000D01*
X138811000Y-95123000D01*
X140589000Y-95123000D01*
X140589000Y-95377000D01*
G36*
X138049000Y-95377000D02*
X136271000Y-95377000D01*
X136271000Y-95123000D01*
X138049000Y-95123000D01*
X138049000Y-95377000D01*
X138049000Y-95377000D01*
G37*
X138049000Y-95377000D02*
X136271000Y-95377000D01*
X136271000Y-95123000D01*
X138049000Y-95123000D01*
X138049000Y-95377000D01*
G36*
X135509000Y-95377000D02*
X133731000Y-95377000D01*
X133731000Y-95123000D01*
X135509000Y-95123000D01*
X135509000Y-95377000D01*
X135509000Y-95377000D01*
G37*
X135509000Y-95377000D02*
X133731000Y-95377000D01*
X133731000Y-95123000D01*
X135509000Y-95123000D01*
X135509000Y-95377000D01*
G36*
X132969000Y-95377000D02*
X131191000Y-95377000D01*
X131191000Y-95123000D01*
X132969000Y-95123000D01*
X132969000Y-95377000D01*
X132969000Y-95377000D01*
G37*
X132969000Y-95377000D02*
X131191000Y-95377000D01*
X131191000Y-95123000D01*
X132969000Y-95123000D01*
X132969000Y-95377000D01*
G36*
X130429000Y-95377000D02*
X128651000Y-95377000D01*
X128651000Y-95123000D01*
X130429000Y-95123000D01*
X130429000Y-95377000D01*
X130429000Y-95377000D01*
G37*
X130429000Y-95377000D02*
X128651000Y-95377000D01*
X128651000Y-95123000D01*
X130429000Y-95123000D01*
X130429000Y-95377000D01*
G36*
X127889000Y-95377000D02*
X126111000Y-95377000D01*
X126111000Y-95123000D01*
X127889000Y-95123000D01*
X127889000Y-95377000D01*
X127889000Y-95377000D01*
G37*
X127889000Y-95377000D02*
X126111000Y-95377000D01*
X126111000Y-95123000D01*
X127889000Y-95123000D01*
X127889000Y-95377000D01*
G36*
X125349000Y-95377000D02*
X123571000Y-95377000D01*
X123571000Y-95123000D01*
X125349000Y-95123000D01*
X125349000Y-95377000D01*
X125349000Y-95377000D01*
G37*
X125349000Y-95377000D02*
X123571000Y-95377000D01*
X123571000Y-95123000D01*
X125349000Y-95123000D01*
X125349000Y-95377000D01*
G36*
X122809000Y-95377000D02*
X121031000Y-95377000D01*
X121031000Y-95123000D01*
X122809000Y-95123000D01*
X122809000Y-95377000D01*
X122809000Y-95377000D01*
G37*
X122809000Y-95377000D02*
X121031000Y-95377000D01*
X121031000Y-95123000D01*
X122809000Y-95123000D01*
X122809000Y-95377000D01*
G36*
X120269000Y-95377000D02*
X118491000Y-95377000D01*
X118491000Y-95123000D01*
X120269000Y-95123000D01*
X120269000Y-95377000D01*
X120269000Y-95377000D01*
G37*
X120269000Y-95377000D02*
X118491000Y-95377000D01*
X118491000Y-95123000D01*
X120269000Y-95123000D01*
X120269000Y-95377000D01*
G36*
X117729000Y-95377000D02*
X115951000Y-95377000D01*
X115951000Y-95123000D01*
X117729000Y-95123000D01*
X117729000Y-95377000D01*
X117729000Y-95377000D01*
G37*
X117729000Y-95377000D02*
X115951000Y-95377000D01*
X115951000Y-95123000D01*
X117729000Y-95123000D01*
X117729000Y-95377000D01*
G36*
X115189000Y-95377000D02*
X113411000Y-95377000D01*
X113411000Y-95123000D01*
X115189000Y-95123000D01*
X115189000Y-95377000D01*
X115189000Y-95377000D01*
G37*
X115189000Y-95377000D02*
X113411000Y-95377000D01*
X113411000Y-95123000D01*
X115189000Y-95123000D01*
X115189000Y-95377000D01*
G36*
X112649000Y-95377000D02*
X110871000Y-95377000D01*
X110871000Y-95123000D01*
X112649000Y-95123000D01*
X112649000Y-95377000D01*
X112649000Y-95377000D01*
G37*
X112649000Y-95377000D02*
X110871000Y-95377000D01*
X110871000Y-95123000D01*
X112649000Y-95123000D01*
X112649000Y-95377000D01*
G36*
X148209000Y-69723000D02*
X146431000Y-69723000D01*
X146431000Y-69469000D01*
X148209000Y-69469000D01*
X148209000Y-69723000D01*
X148209000Y-69723000D01*
G37*
X148209000Y-69723000D02*
X146431000Y-69723000D01*
X146431000Y-69469000D01*
X148209000Y-69469000D01*
X148209000Y-69723000D01*
G36*
X145669000Y-69723000D02*
X143891000Y-69723000D01*
X143891000Y-69469000D01*
X145669000Y-69469000D01*
X145669000Y-69723000D01*
X145669000Y-69723000D01*
G37*
X145669000Y-69723000D02*
X143891000Y-69723000D01*
X143891000Y-69469000D01*
X145669000Y-69469000D01*
X145669000Y-69723000D01*
G36*
X143129000Y-69723000D02*
X141351000Y-69723000D01*
X141351000Y-69469000D01*
X143129000Y-69469000D01*
X143129000Y-69723000D01*
X143129000Y-69723000D01*
G37*
X143129000Y-69723000D02*
X141351000Y-69723000D01*
X141351000Y-69469000D01*
X143129000Y-69469000D01*
X143129000Y-69723000D01*
G36*
X140589000Y-69723000D02*
X138811000Y-69723000D01*
X138811000Y-69469000D01*
X140589000Y-69469000D01*
X140589000Y-69723000D01*
X140589000Y-69723000D01*
G37*
X140589000Y-69723000D02*
X138811000Y-69723000D01*
X138811000Y-69469000D01*
X140589000Y-69469000D01*
X140589000Y-69723000D01*
G36*
X138049000Y-69723000D02*
X136271000Y-69723000D01*
X136271000Y-69469000D01*
X138049000Y-69469000D01*
X138049000Y-69723000D01*
X138049000Y-69723000D01*
G37*
X138049000Y-69723000D02*
X136271000Y-69723000D01*
X136271000Y-69469000D01*
X138049000Y-69469000D01*
X138049000Y-69723000D01*
G36*
X135509000Y-69723000D02*
X133731000Y-69723000D01*
X133731000Y-69469000D01*
X135509000Y-69469000D01*
X135509000Y-69723000D01*
X135509000Y-69723000D01*
G37*
X135509000Y-69723000D02*
X133731000Y-69723000D01*
X133731000Y-69469000D01*
X135509000Y-69469000D01*
X135509000Y-69723000D01*
G36*
X132969000Y-69723000D02*
X131191000Y-69723000D01*
X131191000Y-69469000D01*
X132969000Y-69469000D01*
X132969000Y-69723000D01*
X132969000Y-69723000D01*
G37*
X132969000Y-69723000D02*
X131191000Y-69723000D01*
X131191000Y-69469000D01*
X132969000Y-69469000D01*
X132969000Y-69723000D01*
G36*
X130429000Y-69723000D02*
X128651000Y-69723000D01*
X128651000Y-69469000D01*
X130429000Y-69469000D01*
X130429000Y-69723000D01*
X130429000Y-69723000D01*
G37*
X130429000Y-69723000D02*
X128651000Y-69723000D01*
X128651000Y-69469000D01*
X130429000Y-69469000D01*
X130429000Y-69723000D01*
G36*
X127889000Y-69723000D02*
X126111000Y-69723000D01*
X126111000Y-69469000D01*
X127889000Y-69469000D01*
X127889000Y-69723000D01*
X127889000Y-69723000D01*
G37*
X127889000Y-69723000D02*
X126111000Y-69723000D01*
X126111000Y-69469000D01*
X127889000Y-69469000D01*
X127889000Y-69723000D01*
G36*
X125349000Y-69723000D02*
X123571000Y-69723000D01*
X123571000Y-69469000D01*
X125349000Y-69469000D01*
X125349000Y-69723000D01*
X125349000Y-69723000D01*
G37*
X125349000Y-69723000D02*
X123571000Y-69723000D01*
X123571000Y-69469000D01*
X125349000Y-69469000D01*
X125349000Y-69723000D01*
G36*
X122809000Y-69723000D02*
X121031000Y-69723000D01*
X121031000Y-69469000D01*
X122809000Y-69469000D01*
X122809000Y-69723000D01*
X122809000Y-69723000D01*
G37*
X122809000Y-69723000D02*
X121031000Y-69723000D01*
X121031000Y-69469000D01*
X122809000Y-69469000D01*
X122809000Y-69723000D01*
G36*
X120269000Y-69723000D02*
X118491000Y-69723000D01*
X118491000Y-69469000D01*
X120269000Y-69469000D01*
X120269000Y-69723000D01*
X120269000Y-69723000D01*
G37*
X120269000Y-69723000D02*
X118491000Y-69723000D01*
X118491000Y-69469000D01*
X120269000Y-69469000D01*
X120269000Y-69723000D01*
G36*
X117729000Y-69723000D02*
X115951000Y-69723000D01*
X115951000Y-69469000D01*
X117729000Y-69469000D01*
X117729000Y-69723000D01*
X117729000Y-69723000D01*
G37*
X117729000Y-69723000D02*
X115951000Y-69723000D01*
X115951000Y-69469000D01*
X117729000Y-69469000D01*
X117729000Y-69723000D01*
G36*
X115189000Y-69723000D02*
X113411000Y-69723000D01*
X113411000Y-69469000D01*
X115189000Y-69469000D01*
X115189000Y-69723000D01*
X115189000Y-69723000D01*
G37*
X115189000Y-69723000D02*
X113411000Y-69723000D01*
X113411000Y-69469000D01*
X115189000Y-69469000D01*
X115189000Y-69723000D01*
G36*
X112649000Y-69723000D02*
X110871000Y-69723000D01*
X110871000Y-69469000D01*
X112649000Y-69469000D01*
X112649000Y-69723000D01*
X112649000Y-69723000D01*
G37*
X112649000Y-69723000D02*
X110871000Y-69723000D01*
X110871000Y-69469000D01*
X112649000Y-69469000D01*
X112649000Y-69723000D01*
G36*
X148209000Y-126111000D02*
X146431000Y-126111000D01*
X146431000Y-125857000D01*
X148209000Y-125857000D01*
X148209000Y-126111000D01*
X148209000Y-126111000D01*
G37*
X148209000Y-126111000D02*
X146431000Y-126111000D01*
X146431000Y-125857000D01*
X148209000Y-125857000D01*
X148209000Y-126111000D01*
G36*
X145669000Y-126111000D02*
X143891000Y-126111000D01*
X143891000Y-125857000D01*
X145669000Y-125857000D01*
X145669000Y-126111000D01*
X145669000Y-126111000D01*
G37*
X145669000Y-126111000D02*
X143891000Y-126111000D01*
X143891000Y-125857000D01*
X145669000Y-125857000D01*
X145669000Y-126111000D01*
G36*
X143129000Y-126111000D02*
X141351000Y-126111000D01*
X141351000Y-125857000D01*
X143129000Y-125857000D01*
X143129000Y-126111000D01*
X143129000Y-126111000D01*
G37*
X143129000Y-126111000D02*
X141351000Y-126111000D01*
X141351000Y-125857000D01*
X143129000Y-125857000D01*
X143129000Y-126111000D01*
G36*
X140589000Y-126111000D02*
X138811000Y-126111000D01*
X138811000Y-125857000D01*
X140589000Y-125857000D01*
X140589000Y-126111000D01*
X140589000Y-126111000D01*
G37*
X140589000Y-126111000D02*
X138811000Y-126111000D01*
X138811000Y-125857000D01*
X140589000Y-125857000D01*
X140589000Y-126111000D01*
G36*
X138049000Y-126111000D02*
X136271000Y-126111000D01*
X136271000Y-125857000D01*
X138049000Y-125857000D01*
X138049000Y-126111000D01*
X138049000Y-126111000D01*
G37*
X138049000Y-126111000D02*
X136271000Y-126111000D01*
X136271000Y-125857000D01*
X138049000Y-125857000D01*
X138049000Y-126111000D01*
G36*
X135509000Y-126111000D02*
X133731000Y-126111000D01*
X133731000Y-125857000D01*
X135509000Y-125857000D01*
X135509000Y-126111000D01*
X135509000Y-126111000D01*
G37*
X135509000Y-126111000D02*
X133731000Y-126111000D01*
X133731000Y-125857000D01*
X135509000Y-125857000D01*
X135509000Y-126111000D01*
G36*
X132969000Y-126111000D02*
X131191000Y-126111000D01*
X131191000Y-125857000D01*
X132969000Y-125857000D01*
X132969000Y-126111000D01*
X132969000Y-126111000D01*
G37*
X132969000Y-126111000D02*
X131191000Y-126111000D01*
X131191000Y-125857000D01*
X132969000Y-125857000D01*
X132969000Y-126111000D01*
G36*
X130429000Y-126111000D02*
X128651000Y-126111000D01*
X128651000Y-125857000D01*
X130429000Y-125857000D01*
X130429000Y-126111000D01*
X130429000Y-126111000D01*
G37*
X130429000Y-126111000D02*
X128651000Y-126111000D01*
X128651000Y-125857000D01*
X130429000Y-125857000D01*
X130429000Y-126111000D01*
G36*
X127889000Y-126111000D02*
X126111000Y-126111000D01*
X126111000Y-125857000D01*
X127889000Y-125857000D01*
X127889000Y-126111000D01*
X127889000Y-126111000D01*
G37*
X127889000Y-126111000D02*
X126111000Y-126111000D01*
X126111000Y-125857000D01*
X127889000Y-125857000D01*
X127889000Y-126111000D01*
G36*
X125349000Y-126111000D02*
X123571000Y-126111000D01*
X123571000Y-125857000D01*
X125349000Y-125857000D01*
X125349000Y-126111000D01*
X125349000Y-126111000D01*
G37*
X125349000Y-126111000D02*
X123571000Y-126111000D01*
X123571000Y-125857000D01*
X125349000Y-125857000D01*
X125349000Y-126111000D01*
G36*
X122809000Y-126111000D02*
X121031000Y-126111000D01*
X121031000Y-125857000D01*
X122809000Y-125857000D01*
X122809000Y-126111000D01*
X122809000Y-126111000D01*
G37*
X122809000Y-126111000D02*
X121031000Y-126111000D01*
X121031000Y-125857000D01*
X122809000Y-125857000D01*
X122809000Y-126111000D01*
G36*
X120269000Y-126111000D02*
X118491000Y-126111000D01*
X118491000Y-125857000D01*
X120269000Y-125857000D01*
X120269000Y-126111000D01*
X120269000Y-126111000D01*
G37*
X120269000Y-126111000D02*
X118491000Y-126111000D01*
X118491000Y-125857000D01*
X120269000Y-125857000D01*
X120269000Y-126111000D01*
G36*
X117729000Y-126111000D02*
X115951000Y-126111000D01*
X115951000Y-125857000D01*
X117729000Y-125857000D01*
X117729000Y-126111000D01*
X117729000Y-126111000D01*
G37*
X117729000Y-126111000D02*
X115951000Y-126111000D01*
X115951000Y-125857000D01*
X117729000Y-125857000D01*
X117729000Y-126111000D01*
G36*
X115189000Y-126111000D02*
X113411000Y-126111000D01*
X113411000Y-125857000D01*
X115189000Y-125857000D01*
X115189000Y-126111000D01*
X115189000Y-126111000D01*
G37*
X115189000Y-126111000D02*
X113411000Y-126111000D01*
X113411000Y-125857000D01*
X115189000Y-125857000D01*
X115189000Y-126111000D01*
G36*
X112649000Y-126111000D02*
X110871000Y-126111000D01*
X110871000Y-125857000D01*
X112649000Y-125857000D01*
X112649000Y-126111000D01*
X112649000Y-126111000D01*
G37*
X112649000Y-126111000D02*
X110871000Y-126111000D01*
X110871000Y-125857000D01*
X112649000Y-125857000D01*
X112649000Y-126111000D01*
M02*
