%FSLAX46Y46*%
G04 Gerber Fmt 4.6, Leading zero omitted, Abs format (unit mm)*
G04 Created by KiCad (PCBNEW (2014-08-29 BZR 5106)-product) date Tue 04 Nov 2014 10:58:54 AM PST*
%MOMM*%
G01*
G04 APERTURE LIST*
%ADD10C,0.100000*%
%ADD11C,0.101600*%
%ADD12C,0.127000*%
%ADD13C,0.177800*%
%ADD14C,0.635000*%
%ADD15C,0.150000*%
%ADD16R,2.184400X2.184400*%
%ADD17O,2.184400X2.184400*%
%ADD18C,1.930400*%
%ADD19C,1.803400*%
%ADD20C,0.254000*%
G04 APERTURE END LIST*
D10*
D11*
X110710738Y-97457381D02*
X110710738Y-97064285D01*
X110468833Y-97275952D01*
X110468833Y-97185238D01*
X110438595Y-97124762D01*
X110408357Y-97094524D01*
X110347881Y-97064285D01*
X110196690Y-97064285D01*
X110136214Y-97094524D01*
X110105976Y-97124762D01*
X110075738Y-97185238D01*
X110075738Y-97366666D01*
X110105976Y-97427143D01*
X110136214Y-97457381D01*
X110136214Y-96792143D02*
X110105976Y-96761904D01*
X110075738Y-96792143D01*
X110105976Y-96822381D01*
X110136214Y-96792143D01*
X110075738Y-96792143D01*
X110710738Y-96550238D02*
X110710738Y-96157142D01*
X110468833Y-96368809D01*
X110468833Y-96278095D01*
X110438595Y-96217619D01*
X110408357Y-96187381D01*
X110347881Y-96157142D01*
X110196690Y-96157142D01*
X110136214Y-96187381D01*
X110105976Y-96217619D01*
X110075738Y-96278095D01*
X110075738Y-96459523D01*
X110105976Y-96520000D01*
X110136214Y-96550238D01*
X110710738Y-95975714D02*
X110075738Y-95764047D01*
X110710738Y-95552380D01*
X110680500Y-99543809D02*
X110710738Y-99604286D01*
X110710738Y-99695000D01*
X110680500Y-99785714D01*
X110620024Y-99846190D01*
X110559548Y-99876429D01*
X110438595Y-99906667D01*
X110347881Y-99906667D01*
X110226929Y-99876429D01*
X110166452Y-99846190D01*
X110105976Y-99785714D01*
X110075738Y-99695000D01*
X110075738Y-99634524D01*
X110105976Y-99543809D01*
X110136214Y-99513571D01*
X110347881Y-99513571D01*
X110347881Y-99634524D01*
X110075738Y-99241429D02*
X110710738Y-99241429D01*
X110075738Y-98878571D01*
X110710738Y-98878571D01*
X110075738Y-98576191D02*
X110710738Y-98576191D01*
X110710738Y-98425000D01*
X110680500Y-98334286D01*
X110620024Y-98273810D01*
X110559548Y-98243571D01*
X110438595Y-98213333D01*
X110347881Y-98213333D01*
X110226929Y-98243571D01*
X110166452Y-98273810D01*
X110105976Y-98334286D01*
X110075738Y-98425000D01*
X110075738Y-98576191D01*
D12*
X110471857Y-69178714D02*
X110000143Y-69178714D01*
X110254143Y-69469000D01*
X110145285Y-69469000D01*
X110072714Y-69505286D01*
X110036428Y-69541571D01*
X110000143Y-69614143D01*
X110000143Y-69795571D01*
X110036428Y-69868143D01*
X110072714Y-69904429D01*
X110145285Y-69940714D01*
X110363000Y-69940714D01*
X110435571Y-69904429D01*
X110471857Y-69868143D01*
X109673571Y-69868143D02*
X109637286Y-69904429D01*
X109673571Y-69940714D01*
X109709857Y-69904429D01*
X109673571Y-69868143D01*
X109673571Y-69940714D01*
X109383286Y-69178714D02*
X108911572Y-69178714D01*
X109165572Y-69469000D01*
X109056714Y-69469000D01*
X108984143Y-69505286D01*
X108947857Y-69541571D01*
X108911572Y-69614143D01*
X108911572Y-69795571D01*
X108947857Y-69868143D01*
X108984143Y-69904429D01*
X109056714Y-69940714D01*
X109274429Y-69940714D01*
X109347000Y-69904429D01*
X109383286Y-69868143D01*
X108693858Y-69178714D02*
X108439858Y-69940714D01*
X108185858Y-69178714D01*
X109927572Y-125603000D02*
X110000143Y-125566714D01*
X110109000Y-125566714D01*
X110217857Y-125603000D01*
X110290429Y-125675571D01*
X110326714Y-125748143D01*
X110363000Y-125893286D01*
X110363000Y-126002143D01*
X110326714Y-126147286D01*
X110290429Y-126219857D01*
X110217857Y-126292429D01*
X110109000Y-126328714D01*
X110036429Y-126328714D01*
X109927572Y-126292429D01*
X109891286Y-126256143D01*
X109891286Y-126002143D01*
X110036429Y-126002143D01*
X109564714Y-126328714D02*
X109564714Y-125566714D01*
X109129286Y-126328714D01*
X109129286Y-125566714D01*
X108766428Y-126328714D02*
X108766428Y-125566714D01*
X108585000Y-125566714D01*
X108476143Y-125603000D01*
X108403571Y-125675571D01*
X108367286Y-125748143D01*
X108331000Y-125893286D01*
X108331000Y-126002143D01*
X108367286Y-126147286D01*
X108403571Y-126219857D01*
X108476143Y-126292429D01*
X108585000Y-126328714D01*
X108766428Y-126328714D01*
D13*
X108163481Y-98830191D02*
X109179481Y-98830191D01*
X108211862Y-98830191D02*
X108163481Y-98926953D01*
X108163481Y-99120476D01*
X108211862Y-99217238D01*
X108260243Y-99265619D01*
X108357005Y-99314000D01*
X108647290Y-99314000D01*
X108744052Y-99265619D01*
X108792433Y-99217238D01*
X108840814Y-99120476D01*
X108840814Y-98926953D01*
X108792433Y-98830191D01*
X108163481Y-98346381D02*
X108840814Y-98346381D01*
X109179481Y-98346381D02*
X109131100Y-98394762D01*
X109082719Y-98346381D01*
X109131100Y-98298000D01*
X109179481Y-98346381D01*
X109082719Y-98346381D01*
X108840814Y-97959333D02*
X108163481Y-97717428D01*
X108840814Y-97475524D02*
X108163481Y-97717428D01*
X107921576Y-97814190D01*
X107873195Y-97862571D01*
X107824814Y-97959333D01*
X108550529Y-97088476D02*
X108550529Y-96314381D01*
X106563281Y-100305809D02*
X107240614Y-100305809D01*
X107143852Y-100305809D02*
X107192233Y-100257428D01*
X107240614Y-100160666D01*
X107240614Y-100015524D01*
X107192233Y-99918762D01*
X107095471Y-99870381D01*
X106563281Y-99870381D01*
X107095471Y-99870381D02*
X107192233Y-99822000D01*
X107240614Y-99725238D01*
X107240614Y-99580095D01*
X107192233Y-99483333D01*
X107095471Y-99434952D01*
X106563281Y-99434952D01*
X106563281Y-98805999D02*
X106611662Y-98902761D01*
X106660043Y-98951142D01*
X106756805Y-98999523D01*
X107047090Y-98999523D01*
X107143852Y-98951142D01*
X107192233Y-98902761D01*
X107240614Y-98805999D01*
X107240614Y-98660857D01*
X107192233Y-98564095D01*
X107143852Y-98515714D01*
X107047090Y-98467333D01*
X106756805Y-98467333D01*
X106660043Y-98515714D01*
X106611662Y-98564095D01*
X106563281Y-98660857D01*
X106563281Y-98805999D01*
X106563281Y-97596476D02*
X107579281Y-97596476D01*
X106611662Y-97596476D02*
X106563281Y-97693238D01*
X106563281Y-97886761D01*
X106611662Y-97983523D01*
X106660043Y-98031904D01*
X106756805Y-98080285D01*
X107047090Y-98080285D01*
X107143852Y-98031904D01*
X107192233Y-97983523D01*
X107240614Y-97886761D01*
X107240614Y-97693238D01*
X107192233Y-97596476D01*
X107240614Y-96677238D02*
X106563281Y-96677238D01*
X107240614Y-97112666D02*
X106708424Y-97112666D01*
X106611662Y-97064285D01*
X106563281Y-96967523D01*
X106563281Y-96822381D01*
X106611662Y-96725619D01*
X106660043Y-96677238D01*
X106563281Y-96048285D02*
X106611662Y-96145047D01*
X106708424Y-96193428D01*
X107579281Y-96193428D01*
X106611662Y-95274191D02*
X106563281Y-95370953D01*
X106563281Y-95564476D01*
X106611662Y-95661238D01*
X106708424Y-95709619D01*
X107095471Y-95709619D01*
X107192233Y-95661238D01*
X107240614Y-95564476D01*
X107240614Y-95370953D01*
X107192233Y-95274191D01*
X107095471Y-95225810D01*
X106998710Y-95225810D01*
X106901948Y-95709619D01*
D14*
X122536857Y-105119714D02*
X130156857Y-105119714D01*
X130156857Y-103305429D01*
X129794000Y-102216857D01*
X129068286Y-101491143D01*
X128342571Y-101128286D01*
X126891143Y-100765429D01*
X125802571Y-100765429D01*
X124351143Y-101128286D01*
X123625429Y-101491143D01*
X122899714Y-102216857D01*
X122536857Y-103305429D01*
X122536857Y-105119714D01*
X122536857Y-97499714D02*
X130156857Y-97499714D01*
X126165429Y-92419715D02*
X122536857Y-92419715D01*
X130156857Y-94959715D02*
X126165429Y-92419715D01*
X130156857Y-89879715D01*
D11*
X105585381Y-109062762D02*
X105585381Y-108482191D01*
X104569381Y-108772476D02*
X105585381Y-108772476D01*
X104569381Y-108143524D02*
X105585381Y-108143524D01*
X104859667Y-107804858D01*
X105585381Y-107466191D01*
X104569381Y-107466191D01*
X104956429Y-106982381D02*
X104956429Y-106208286D01*
X104569381Y-105192286D02*
X104569381Y-105772857D01*
X104569381Y-105482571D02*
X105585381Y-105482571D01*
X105440238Y-105579333D01*
X105343476Y-105676095D01*
X105295095Y-105772857D01*
X105585381Y-104273048D02*
X105585381Y-104756857D01*
X105101571Y-104805238D01*
X105149952Y-104756857D01*
X105198333Y-104660095D01*
X105198333Y-104418191D01*
X105149952Y-104321429D01*
X105101571Y-104273048D01*
X105004810Y-104224667D01*
X104762905Y-104224667D01*
X104666143Y-104273048D01*
X104617762Y-104321429D01*
X104569381Y-104418191D01*
X104569381Y-104660095D01*
X104617762Y-104756857D01*
X104666143Y-104805238D01*
X104956429Y-103789238D02*
X104956429Y-103015143D01*
X105585381Y-102337809D02*
X105585381Y-102241048D01*
X105537000Y-102144286D01*
X105488619Y-102095905D01*
X105391857Y-102047524D01*
X105198333Y-101999143D01*
X104956429Y-101999143D01*
X104762905Y-102047524D01*
X104666143Y-102095905D01*
X104617762Y-102144286D01*
X104569381Y-102241048D01*
X104569381Y-102337809D01*
X104617762Y-102434571D01*
X104666143Y-102482952D01*
X104762905Y-102531333D01*
X104956429Y-102579714D01*
X105198333Y-102579714D01*
X105391857Y-102531333D01*
X105488619Y-102482952D01*
X105537000Y-102434571D01*
X105585381Y-102337809D01*
X104569381Y-101031524D02*
X104569381Y-101612095D01*
X104569381Y-101321809D02*
X105585381Y-101321809D01*
X105440238Y-101418571D01*
X105343476Y-101515333D01*
X105295095Y-101612095D01*
X105373714Y-94823038D02*
X105373714Y-94435990D01*
X105712381Y-94677895D02*
X104841524Y-94677895D01*
X104744762Y-94629514D01*
X104696381Y-94532752D01*
X104696381Y-94435990D01*
X104744762Y-93710277D02*
X104696381Y-93807039D01*
X104696381Y-94000562D01*
X104744762Y-94097324D01*
X104841524Y-94145705D01*
X105228571Y-94145705D01*
X105325333Y-94097324D01*
X105373714Y-94000562D01*
X105373714Y-93807039D01*
X105325333Y-93710277D01*
X105228571Y-93661896D01*
X105131810Y-93661896D01*
X105035048Y-94145705D01*
X104744762Y-93274848D02*
X104696381Y-93178086D01*
X104696381Y-92984562D01*
X104744762Y-92887801D01*
X104841524Y-92839420D01*
X104889905Y-92839420D01*
X104986667Y-92887801D01*
X105035048Y-92984562D01*
X105035048Y-93129705D01*
X105083429Y-93226467D01*
X105180190Y-93274848D01*
X105228571Y-93274848D01*
X105325333Y-93226467D01*
X105373714Y-93129705D01*
X105373714Y-92984562D01*
X105325333Y-92887801D01*
X104744762Y-92452372D02*
X104696381Y-92355610D01*
X104696381Y-92162086D01*
X104744762Y-92065325D01*
X104841524Y-92016944D01*
X104889905Y-92016944D01*
X104986667Y-92065325D01*
X105035048Y-92162086D01*
X105035048Y-92307229D01*
X105083429Y-92403991D01*
X105180190Y-92452372D01*
X105228571Y-92452372D01*
X105325333Y-92403991D01*
X105373714Y-92307229D01*
X105373714Y-92162086D01*
X105325333Y-92065325D01*
X104744762Y-91194468D02*
X104696381Y-91291230D01*
X104696381Y-91484753D01*
X104744762Y-91581515D01*
X104841524Y-91629896D01*
X105228571Y-91629896D01*
X105325333Y-91581515D01*
X105373714Y-91484753D01*
X105373714Y-91291230D01*
X105325333Y-91194468D01*
X105228571Y-91146087D01*
X105131810Y-91146087D01*
X105035048Y-91629896D01*
X104696381Y-90565515D02*
X104744762Y-90662277D01*
X104841524Y-90710658D01*
X105712381Y-90710658D01*
X104793143Y-90178468D02*
X104744762Y-90130087D01*
X104696381Y-90178468D01*
X104744762Y-90226849D01*
X104793143Y-90178468D01*
X104696381Y-90178468D01*
X104696381Y-89694658D02*
X105373714Y-89694658D01*
X105712381Y-89694658D02*
X105664000Y-89743039D01*
X105615619Y-89694658D01*
X105664000Y-89646277D01*
X105712381Y-89694658D01*
X105615619Y-89694658D01*
X104696381Y-89065705D02*
X104744762Y-89162467D01*
X104793143Y-89210848D01*
X104889905Y-89259229D01*
X105180190Y-89259229D01*
X105276952Y-89210848D01*
X105325333Y-89162467D01*
X105373714Y-89065705D01*
X105373714Y-88920563D01*
X105325333Y-88823801D01*
X105276952Y-88775420D01*
X105180190Y-88727039D01*
X104889905Y-88727039D01*
X104793143Y-88775420D01*
X104744762Y-88823801D01*
X104696381Y-88920563D01*
X104696381Y-89065705D01*
D15*
X104538705Y-124460000D02*
G75*
G03X104538705Y-124460000I-1033705J0D01*
G74*
G01*
X104538705Y-93980000D02*
G75*
G03X104538705Y-93980000I-1033705J0D01*
G74*
G01*
D10*
G36*
X120456165Y-109336209D02*
X120206195Y-109298322D01*
X119965937Y-109214620D01*
X119742188Y-109085390D01*
X119575866Y-108945713D01*
X119396625Y-108738523D01*
X119268260Y-108518284D01*
X119228570Y-108399435D01*
X120504130Y-108399435D01*
X120649062Y-108394335D01*
X120764797Y-108351255D01*
X120865040Y-108264135D01*
X120895934Y-108226162D01*
X120940026Y-108159096D01*
X120962701Y-108092081D01*
X120970453Y-108002342D01*
X120970843Y-107963368D01*
X120966629Y-107860968D01*
X120949659Y-107788898D01*
X120913440Y-107724382D01*
X120895934Y-107700574D01*
X120831573Y-107629935D01*
X120762337Y-107573464D01*
X120743525Y-107562287D01*
X120638531Y-107530769D01*
X120511241Y-107524643D01*
X120386314Y-107543716D01*
X120326095Y-107565561D01*
X120224653Y-107641337D01*
X120151656Y-107751162D01*
X120110721Y-107881725D01*
X120105466Y-108019712D01*
X120139512Y-108151813D01*
X120157178Y-108186991D01*
X120238319Y-108296799D01*
X120338147Y-108363926D01*
X120469464Y-108396210D01*
X120504130Y-108399435D01*
X119228570Y-108399435D01*
X119188866Y-108280550D01*
X119156540Y-108020873D01*
X119155554Y-107963368D01*
X119175945Y-107709237D01*
X119239842Y-107477311D01*
X119351277Y-107254626D01*
X119398497Y-107181939D01*
X119517647Y-107007903D01*
X119450856Y-106937530D01*
X119434498Y-106918254D01*
X119412494Y-106888498D01*
X119383813Y-106846505D01*
X119347427Y-106790517D01*
X119302303Y-106718775D01*
X119247412Y-106629522D01*
X119181723Y-106521000D01*
X119104206Y-106391450D01*
X119013831Y-106239115D01*
X118909567Y-106062236D01*
X118790383Y-105859056D01*
X118655250Y-105627817D01*
X118503137Y-105366760D01*
X118333014Y-105074127D01*
X118143850Y-104748161D01*
X117934615Y-104387103D01*
X117704278Y-103989195D01*
X117451809Y-103552680D01*
X117176179Y-103075799D01*
X116876355Y-102556794D01*
X116551309Y-101993908D01*
X116412862Y-101754107D01*
X116169375Y-101332671D01*
X115933012Y-100924207D01*
X115705160Y-100531080D01*
X115487204Y-100155658D01*
X115280530Y-99800305D01*
X115086524Y-99467390D01*
X114906572Y-99159278D01*
X114742060Y-98878336D01*
X114594374Y-98626930D01*
X114464900Y-98407427D01*
X114355024Y-98222194D01*
X114266131Y-98073596D01*
X114199608Y-97964000D01*
X114156841Y-97895773D01*
X114139215Y-97871281D01*
X114138882Y-97871339D01*
X114117925Y-97870355D01*
X114090941Y-97830038D01*
X114090743Y-97829605D01*
X114063641Y-97750973D01*
X114069163Y-97689322D01*
X114088562Y-97649069D01*
X114119652Y-97616431D01*
X114137871Y-97615154D01*
X114153703Y-97594157D01*
X114194533Y-97529578D01*
X114258726Y-97424204D01*
X114344644Y-97280821D01*
X114450652Y-97102217D01*
X114575113Y-96891177D01*
X114716392Y-96650488D01*
X114872851Y-96382937D01*
X115042856Y-96091311D01*
X115224769Y-95778396D01*
X115416955Y-95446979D01*
X115617778Y-95099847D01*
X115797630Y-94788295D01*
X116005715Y-94427679D01*
X116207186Y-94078919D01*
X116400345Y-93744934D01*
X116583494Y-93428639D01*
X116754937Y-93132955D01*
X116912976Y-92860799D01*
X117055915Y-92615088D01*
X117182055Y-92398741D01*
X117289700Y-92214676D01*
X117377153Y-92065811D01*
X117442717Y-91955063D01*
X117484693Y-91885350D01*
X117500320Y-91860858D01*
X117612026Y-91752763D01*
X117749822Y-91689069D01*
X117905014Y-91673565D01*
X117926276Y-91675313D01*
X118079733Y-91714553D01*
X118202999Y-91793725D01*
X118290322Y-91906605D01*
X118335950Y-92046969D01*
X118341340Y-92124463D01*
X118340308Y-92146418D01*
X118336600Y-92170868D01*
X118328795Y-92200393D01*
X118315474Y-92237570D01*
X118295216Y-92284979D01*
X118266602Y-92345198D01*
X118228212Y-92420806D01*
X118178627Y-92514382D01*
X118116425Y-92628503D01*
X118040187Y-92765750D01*
X117948493Y-92928700D01*
X117839924Y-93119932D01*
X117713059Y-93342025D01*
X117566479Y-93597558D01*
X117398763Y-93889109D01*
X117208492Y-94219257D01*
X116994245Y-94590580D01*
X116759704Y-94996824D01*
X116519888Y-95412251D01*
X116305526Y-95783902D01*
X116115244Y-96114261D01*
X115947668Y-96405810D01*
X115801427Y-96661031D01*
X115675146Y-96882407D01*
X115567451Y-97072420D01*
X115476971Y-97233553D01*
X115402331Y-97368287D01*
X115342158Y-97479106D01*
X115295079Y-97568493D01*
X115259721Y-97638928D01*
X115234710Y-97692896D01*
X115218674Y-97732877D01*
X115210237Y-97761356D01*
X115208029Y-97780814D01*
X115210674Y-97793733D01*
X115211504Y-97795451D01*
X115228786Y-97826056D01*
X115271048Y-97899901D01*
X115336524Y-98013924D01*
X115423446Y-98165063D01*
X115530046Y-98350255D01*
X115654558Y-98566436D01*
X115795213Y-98810546D01*
X115950245Y-99079521D01*
X116117886Y-99370299D01*
X116296368Y-99679817D01*
X116483925Y-100005012D01*
X116678788Y-100342823D01*
X116879191Y-100690186D01*
X117083365Y-101044040D01*
X117289544Y-101401321D01*
X117495959Y-101758968D01*
X117700845Y-102113917D01*
X117902432Y-102463106D01*
X118098955Y-102803472D01*
X118288644Y-103131954D01*
X118469734Y-103445488D01*
X118640456Y-103741012D01*
X118799043Y-104015464D01*
X118943728Y-104265781D01*
X119072742Y-104488900D01*
X119184320Y-104681758D01*
X119276693Y-104841295D01*
X119348094Y-104964446D01*
X119396756Y-105048149D01*
X119420800Y-105089157D01*
X119577659Y-105352671D01*
X119723197Y-105599103D01*
X119855148Y-105824505D01*
X119971241Y-106024928D01*
X120069208Y-106196423D01*
X120146780Y-106335041D01*
X120201689Y-106436833D01*
X120231665Y-106497852D01*
X120234975Y-106506210D01*
X120268076Y-106599789D01*
X120485487Y-106590868D01*
X120749729Y-106604396D01*
X120995467Y-106663975D01*
X121219461Y-106764561D01*
X121418473Y-106901111D01*
X121589263Y-107068582D01*
X121728592Y-107261930D01*
X121833221Y-107476112D01*
X121899910Y-107706085D01*
X121925421Y-107946806D01*
X121906513Y-108193232D01*
X121839948Y-108440318D01*
X121772104Y-108594014D01*
X121686394Y-108731149D01*
X121571906Y-108873291D01*
X121446342Y-108999005D01*
X121417160Y-109023830D01*
X121196343Y-109172091D01*
X120958038Y-109273381D01*
X120709046Y-109327991D01*
X120456165Y-109336209D01*
X120456165Y-109336209D01*
X120456165Y-109336209D01*
G37*
X120456165Y-109336209D02*
X120206195Y-109298322D01*
X119965937Y-109214620D01*
X119742188Y-109085390D01*
X119575866Y-108945713D01*
X119396625Y-108738523D01*
X119268260Y-108518284D01*
X119228570Y-108399435D01*
X120504130Y-108399435D01*
X120649062Y-108394335D01*
X120764797Y-108351255D01*
X120865040Y-108264135D01*
X120895934Y-108226162D01*
X120940026Y-108159096D01*
X120962701Y-108092081D01*
X120970453Y-108002342D01*
X120970843Y-107963368D01*
X120966629Y-107860968D01*
X120949659Y-107788898D01*
X120913440Y-107724382D01*
X120895934Y-107700574D01*
X120831573Y-107629935D01*
X120762337Y-107573464D01*
X120743525Y-107562287D01*
X120638531Y-107530769D01*
X120511241Y-107524643D01*
X120386314Y-107543716D01*
X120326095Y-107565561D01*
X120224653Y-107641337D01*
X120151656Y-107751162D01*
X120110721Y-107881725D01*
X120105466Y-108019712D01*
X120139512Y-108151813D01*
X120157178Y-108186991D01*
X120238319Y-108296799D01*
X120338147Y-108363926D01*
X120469464Y-108396210D01*
X120504130Y-108399435D01*
X119228570Y-108399435D01*
X119188866Y-108280550D01*
X119156540Y-108020873D01*
X119155554Y-107963368D01*
X119175945Y-107709237D01*
X119239842Y-107477311D01*
X119351277Y-107254626D01*
X119398497Y-107181939D01*
X119517647Y-107007903D01*
X119450856Y-106937530D01*
X119434498Y-106918254D01*
X119412494Y-106888498D01*
X119383813Y-106846505D01*
X119347427Y-106790517D01*
X119302303Y-106718775D01*
X119247412Y-106629522D01*
X119181723Y-106521000D01*
X119104206Y-106391450D01*
X119013831Y-106239115D01*
X118909567Y-106062236D01*
X118790383Y-105859056D01*
X118655250Y-105627817D01*
X118503137Y-105366760D01*
X118333014Y-105074127D01*
X118143850Y-104748161D01*
X117934615Y-104387103D01*
X117704278Y-103989195D01*
X117451809Y-103552680D01*
X117176179Y-103075799D01*
X116876355Y-102556794D01*
X116551309Y-101993908D01*
X116412862Y-101754107D01*
X116169375Y-101332671D01*
X115933012Y-100924207D01*
X115705160Y-100531080D01*
X115487204Y-100155658D01*
X115280530Y-99800305D01*
X115086524Y-99467390D01*
X114906572Y-99159278D01*
X114742060Y-98878336D01*
X114594374Y-98626930D01*
X114464900Y-98407427D01*
X114355024Y-98222194D01*
X114266131Y-98073596D01*
X114199608Y-97964000D01*
X114156841Y-97895773D01*
X114139215Y-97871281D01*
X114138882Y-97871339D01*
X114117925Y-97870355D01*
X114090941Y-97830038D01*
X114090743Y-97829605D01*
X114063641Y-97750973D01*
X114069163Y-97689322D01*
X114088562Y-97649069D01*
X114119652Y-97616431D01*
X114137871Y-97615154D01*
X114153703Y-97594157D01*
X114194533Y-97529578D01*
X114258726Y-97424204D01*
X114344644Y-97280821D01*
X114450652Y-97102217D01*
X114575113Y-96891177D01*
X114716392Y-96650488D01*
X114872851Y-96382937D01*
X115042856Y-96091311D01*
X115224769Y-95778396D01*
X115416955Y-95446979D01*
X115617778Y-95099847D01*
X115797630Y-94788295D01*
X116005715Y-94427679D01*
X116207186Y-94078919D01*
X116400345Y-93744934D01*
X116583494Y-93428639D01*
X116754937Y-93132955D01*
X116912976Y-92860799D01*
X117055915Y-92615088D01*
X117182055Y-92398741D01*
X117289700Y-92214676D01*
X117377153Y-92065811D01*
X117442717Y-91955063D01*
X117484693Y-91885350D01*
X117500320Y-91860858D01*
X117612026Y-91752763D01*
X117749822Y-91689069D01*
X117905014Y-91673565D01*
X117926276Y-91675313D01*
X118079733Y-91714553D01*
X118202999Y-91793725D01*
X118290322Y-91906605D01*
X118335950Y-92046969D01*
X118341340Y-92124463D01*
X118340308Y-92146418D01*
X118336600Y-92170868D01*
X118328795Y-92200393D01*
X118315474Y-92237570D01*
X118295216Y-92284979D01*
X118266602Y-92345198D01*
X118228212Y-92420806D01*
X118178627Y-92514382D01*
X118116425Y-92628503D01*
X118040187Y-92765750D01*
X117948493Y-92928700D01*
X117839924Y-93119932D01*
X117713059Y-93342025D01*
X117566479Y-93597558D01*
X117398763Y-93889109D01*
X117208492Y-94219257D01*
X116994245Y-94590580D01*
X116759704Y-94996824D01*
X116519888Y-95412251D01*
X116305526Y-95783902D01*
X116115244Y-96114261D01*
X115947668Y-96405810D01*
X115801427Y-96661031D01*
X115675146Y-96882407D01*
X115567451Y-97072420D01*
X115476971Y-97233553D01*
X115402331Y-97368287D01*
X115342158Y-97479106D01*
X115295079Y-97568493D01*
X115259721Y-97638928D01*
X115234710Y-97692896D01*
X115218674Y-97732877D01*
X115210237Y-97761356D01*
X115208029Y-97780814D01*
X115210674Y-97793733D01*
X115211504Y-97795451D01*
X115228786Y-97826056D01*
X115271048Y-97899901D01*
X115336524Y-98013924D01*
X115423446Y-98165063D01*
X115530046Y-98350255D01*
X115654558Y-98566436D01*
X115795213Y-98810546D01*
X115950245Y-99079521D01*
X116117886Y-99370299D01*
X116296368Y-99679817D01*
X116483925Y-100005012D01*
X116678788Y-100342823D01*
X116879191Y-100690186D01*
X117083365Y-101044040D01*
X117289544Y-101401321D01*
X117495959Y-101758968D01*
X117700845Y-102113917D01*
X117902432Y-102463106D01*
X118098955Y-102803472D01*
X118288644Y-103131954D01*
X118469734Y-103445488D01*
X118640456Y-103741012D01*
X118799043Y-104015464D01*
X118943728Y-104265781D01*
X119072742Y-104488900D01*
X119184320Y-104681758D01*
X119276693Y-104841295D01*
X119348094Y-104964446D01*
X119396756Y-105048149D01*
X119420800Y-105089157D01*
X119577659Y-105352671D01*
X119723197Y-105599103D01*
X119855148Y-105824505D01*
X119971241Y-106024928D01*
X120069208Y-106196423D01*
X120146780Y-106335041D01*
X120201689Y-106436833D01*
X120231665Y-106497852D01*
X120234975Y-106506210D01*
X120268076Y-106599789D01*
X120485487Y-106590868D01*
X120749729Y-106604396D01*
X120995467Y-106663975D01*
X121219461Y-106764561D01*
X121418473Y-106901111D01*
X121589263Y-107068582D01*
X121728592Y-107261930D01*
X121833221Y-107476112D01*
X121899910Y-107706085D01*
X121925421Y-107946806D01*
X121906513Y-108193232D01*
X121839948Y-108440318D01*
X121772104Y-108594014D01*
X121686394Y-108731149D01*
X121571906Y-108873291D01*
X121446342Y-108999005D01*
X121417160Y-109023830D01*
X121196343Y-109172091D01*
X120958038Y-109273381D01*
X120709046Y-109327991D01*
X120456165Y-109336209D01*
X120456165Y-109336209D01*
G36*
X136050890Y-94153789D02*
X135888587Y-94131859D01*
X135756131Y-94066656D01*
X135687380Y-94001890D01*
X135665663Y-93969498D01*
X135618276Y-93893962D01*
X135546909Y-93778081D01*
X135453251Y-93624656D01*
X135338991Y-93436488D01*
X135205818Y-93216375D01*
X135055422Y-92967120D01*
X134889491Y-92691521D01*
X134709716Y-92392380D01*
X134517785Y-92072496D01*
X134315387Y-91734670D01*
X134104213Y-91381702D01*
X133885950Y-91016391D01*
X133846467Y-90950255D01*
X132071993Y-87977579D01*
X127055978Y-87977579D01*
X126444823Y-87977444D01*
X125865516Y-87977045D01*
X125319637Y-87976389D01*
X124808764Y-87975484D01*
X124334476Y-87974339D01*
X123898349Y-87972961D01*
X123501964Y-87971357D01*
X123146897Y-87969536D01*
X122834729Y-87967505D01*
X122567036Y-87965272D01*
X122345397Y-87962845D01*
X122171391Y-87960232D01*
X122046596Y-87957441D01*
X121972590Y-87954479D01*
X121951844Y-87952306D01*
X121889478Y-87939458D01*
X121859050Y-87951322D01*
X121848797Y-87972359D01*
X121775472Y-88135581D01*
X121665975Y-88304372D01*
X121532070Y-88464877D01*
X121385523Y-88603240D01*
X121238097Y-88705607D01*
X121216418Y-88717111D01*
X121027225Y-88803316D01*
X120856915Y-88857426D01*
X120685956Y-88884545D01*
X120554177Y-88890211D01*
X120283325Y-88866366D01*
X120028984Y-88794158D01*
X119796347Y-88677394D01*
X119590609Y-88519884D01*
X119416962Y-88325433D01*
X119280602Y-88097851D01*
X119228474Y-87964032D01*
X120480814Y-87964032D01*
X120627959Y-87961913D01*
X120630344Y-87961480D01*
X120742508Y-87916520D01*
X120845347Y-87832519D01*
X120925570Y-87723760D01*
X120969884Y-87604528D01*
X120971499Y-87594838D01*
X120971794Y-87438863D01*
X120927972Y-87301040D01*
X120846108Y-87188830D01*
X120732277Y-87109695D01*
X120592552Y-87071097D01*
X120543053Y-87068526D01*
X120398209Y-87092353D01*
X120276010Y-87157964D01*
X120181772Y-87256555D01*
X120120814Y-87379321D01*
X120098453Y-87517457D01*
X120120007Y-87662159D01*
X120145392Y-87726949D01*
X120227251Y-87840612D01*
X120343152Y-87921619D01*
X120480814Y-87964032D01*
X119228474Y-87964032D01*
X119203540Y-87900026D01*
X119179458Y-87792234D01*
X119161424Y-87656022D01*
X119151236Y-87513406D01*
X119150692Y-87386399D01*
X119156379Y-87322526D01*
X119221337Y-87071002D01*
X119333374Y-86836713D01*
X119487281Y-86625676D01*
X119677852Y-86443911D01*
X119899881Y-86297437D01*
X120128632Y-86198630D01*
X120261955Y-86168301D01*
X120426423Y-86151517D01*
X120601346Y-86148680D01*
X120766035Y-86160195D01*
X120890632Y-86183783D01*
X121135160Y-86279233D01*
X121360857Y-86419250D01*
X121558830Y-86596540D01*
X121720186Y-86803810D01*
X121784561Y-86916821D01*
X121833220Y-87009361D01*
X121867892Y-87061604D01*
X121896386Y-87082082D01*
X121926514Y-87079327D01*
X121931613Y-87077455D01*
X121963494Y-87075278D01*
X122046272Y-87073089D01*
X122177372Y-87070901D01*
X122354218Y-87068729D01*
X122574234Y-87066586D01*
X122834844Y-87064486D01*
X123133472Y-87062443D01*
X123467542Y-87060471D01*
X123834478Y-87058583D01*
X124231705Y-87056794D01*
X124656646Y-87055117D01*
X125106725Y-87053566D01*
X125579366Y-87052156D01*
X126071995Y-87050899D01*
X126582033Y-87049810D01*
X127106907Y-87048902D01*
X127294524Y-87048629D01*
X132602206Y-87041270D01*
X134513471Y-90239145D01*
X134741343Y-90620738D01*
X134962160Y-90991153D01*
X135174309Y-91347649D01*
X135376173Y-91687488D01*
X135566139Y-92007931D01*
X135742592Y-92306237D01*
X135903917Y-92579666D01*
X136048499Y-92825480D01*
X136174722Y-93040939D01*
X136280974Y-93223303D01*
X136365637Y-93369832D01*
X136427099Y-93477788D01*
X136463743Y-93544430D01*
X136473550Y-93564454D01*
X136502517Y-93654877D01*
X136507468Y-93727056D01*
X136492900Y-93801307D01*
X136429263Y-93947195D01*
X136329896Y-94058216D01*
X136201656Y-94128903D01*
X136051396Y-94153789D01*
X136050890Y-94153789D01*
X136050890Y-94153789D01*
X136050890Y-94153789D01*
G37*
X136050890Y-94153789D02*
X135888587Y-94131859D01*
X135756131Y-94066656D01*
X135687380Y-94001890D01*
X135665663Y-93969498D01*
X135618276Y-93893962D01*
X135546909Y-93778081D01*
X135453251Y-93624656D01*
X135338991Y-93436488D01*
X135205818Y-93216375D01*
X135055422Y-92967120D01*
X134889491Y-92691521D01*
X134709716Y-92392380D01*
X134517785Y-92072496D01*
X134315387Y-91734670D01*
X134104213Y-91381702D01*
X133885950Y-91016391D01*
X133846467Y-90950255D01*
X132071993Y-87977579D01*
X127055978Y-87977579D01*
X126444823Y-87977444D01*
X125865516Y-87977045D01*
X125319637Y-87976389D01*
X124808764Y-87975484D01*
X124334476Y-87974339D01*
X123898349Y-87972961D01*
X123501964Y-87971357D01*
X123146897Y-87969536D01*
X122834729Y-87967505D01*
X122567036Y-87965272D01*
X122345397Y-87962845D01*
X122171391Y-87960232D01*
X122046596Y-87957441D01*
X121972590Y-87954479D01*
X121951844Y-87952306D01*
X121889478Y-87939458D01*
X121859050Y-87951322D01*
X121848797Y-87972359D01*
X121775472Y-88135581D01*
X121665975Y-88304372D01*
X121532070Y-88464877D01*
X121385523Y-88603240D01*
X121238097Y-88705607D01*
X121216418Y-88717111D01*
X121027225Y-88803316D01*
X120856915Y-88857426D01*
X120685956Y-88884545D01*
X120554177Y-88890211D01*
X120283325Y-88866366D01*
X120028984Y-88794158D01*
X119796347Y-88677394D01*
X119590609Y-88519884D01*
X119416962Y-88325433D01*
X119280602Y-88097851D01*
X119228474Y-87964032D01*
X120480814Y-87964032D01*
X120627959Y-87961913D01*
X120630344Y-87961480D01*
X120742508Y-87916520D01*
X120845347Y-87832519D01*
X120925570Y-87723760D01*
X120969884Y-87604528D01*
X120971499Y-87594838D01*
X120971794Y-87438863D01*
X120927972Y-87301040D01*
X120846108Y-87188830D01*
X120732277Y-87109695D01*
X120592552Y-87071097D01*
X120543053Y-87068526D01*
X120398209Y-87092353D01*
X120276010Y-87157964D01*
X120181772Y-87256555D01*
X120120814Y-87379321D01*
X120098453Y-87517457D01*
X120120007Y-87662159D01*
X120145392Y-87726949D01*
X120227251Y-87840612D01*
X120343152Y-87921619D01*
X120480814Y-87964032D01*
X119228474Y-87964032D01*
X119203540Y-87900026D01*
X119179458Y-87792234D01*
X119161424Y-87656022D01*
X119151236Y-87513406D01*
X119150692Y-87386399D01*
X119156379Y-87322526D01*
X119221337Y-87071002D01*
X119333374Y-86836713D01*
X119487281Y-86625676D01*
X119677852Y-86443911D01*
X119899881Y-86297437D01*
X120128632Y-86198630D01*
X120261955Y-86168301D01*
X120426423Y-86151517D01*
X120601346Y-86148680D01*
X120766035Y-86160195D01*
X120890632Y-86183783D01*
X121135160Y-86279233D01*
X121360857Y-86419250D01*
X121558830Y-86596540D01*
X121720186Y-86803810D01*
X121784561Y-86916821D01*
X121833220Y-87009361D01*
X121867892Y-87061604D01*
X121896386Y-87082082D01*
X121926514Y-87079327D01*
X121931613Y-87077455D01*
X121963494Y-87075278D01*
X122046272Y-87073089D01*
X122177372Y-87070901D01*
X122354218Y-87068729D01*
X122574234Y-87066586D01*
X122834844Y-87064486D01*
X123133472Y-87062443D01*
X123467542Y-87060471D01*
X123834478Y-87058583D01*
X124231705Y-87056794D01*
X124656646Y-87055117D01*
X125106725Y-87053566D01*
X125579366Y-87052156D01*
X126071995Y-87050899D01*
X126582033Y-87049810D01*
X127106907Y-87048902D01*
X127294524Y-87048629D01*
X132602206Y-87041270D01*
X134513471Y-90239145D01*
X134741343Y-90620738D01*
X134962160Y-90991153D01*
X135174309Y-91347649D01*
X135376173Y-91687488D01*
X135566139Y-92007931D01*
X135742592Y-92306237D01*
X135903917Y-92579666D01*
X136048499Y-92825480D01*
X136174722Y-93040939D01*
X136280974Y-93223303D01*
X136365637Y-93369832D01*
X136427099Y-93477788D01*
X136463743Y-93544430D01*
X136473550Y-93564454D01*
X136502517Y-93654877D01*
X136507468Y-93727056D01*
X136492900Y-93801307D01*
X136429263Y-93947195D01*
X136329896Y-94058216D01*
X136201656Y-94128903D01*
X136051396Y-94153789D01*
X136050890Y-94153789D01*
X136050890Y-94153789D01*
G36*
X132604990Y-108432310D02*
X129403737Y-108425102D01*
X126202485Y-108417894D01*
X126089325Y-108337684D01*
X125971973Y-108227516D01*
X125899936Y-108100038D01*
X125874879Y-107963237D01*
X125898463Y-107825101D01*
X125958913Y-107711334D01*
X126041399Y-107622581D01*
X126137501Y-107554963D01*
X126152755Y-107547488D01*
X126171947Y-107539487D01*
X126194300Y-107532370D01*
X126222889Y-107526085D01*
X126260791Y-107520580D01*
X126311083Y-107515802D01*
X126376839Y-107511698D01*
X126461136Y-107508217D01*
X126567051Y-107505306D01*
X126697658Y-107502912D01*
X126856035Y-107500984D01*
X127045257Y-107499467D01*
X127268401Y-107498311D01*
X127528542Y-107497463D01*
X127828756Y-107496870D01*
X128172120Y-107496479D01*
X128561710Y-107496239D01*
X129000601Y-107496097D01*
X129169467Y-107496060D01*
X132074197Y-107495473D01*
X133986022Y-104293736D01*
X134226750Y-103890575D01*
X134468794Y-103485181D01*
X134709797Y-103081505D01*
X134947399Y-102683500D01*
X135179243Y-102295116D01*
X135402969Y-101920307D01*
X135616219Y-101563022D01*
X135816634Y-101227213D01*
X136001857Y-100916833D01*
X136169528Y-100635833D01*
X136317289Y-100388163D01*
X136442782Y-100177777D01*
X136543647Y-100008625D01*
X136559269Y-99982421D01*
X136694433Y-99756504D01*
X136824145Y-99541283D01*
X136945285Y-99341824D01*
X137054733Y-99163193D01*
X137149370Y-99010456D01*
X137226075Y-98888681D01*
X137281730Y-98802932D01*
X137312741Y-98758857D01*
X137404791Y-98644872D01*
X137334388Y-98561203D01*
X137233768Y-98412721D01*
X137148207Y-98229587D01*
X137135782Y-98191052D01*
X138447605Y-98191052D01*
X138563201Y-98170220D01*
X138679427Y-98115373D01*
X138776248Y-98037985D01*
X138821553Y-97976908D01*
X138870005Y-97833421D01*
X138871214Y-97683396D01*
X138828029Y-97539014D01*
X138743298Y-97412456D01*
X138675272Y-97351300D01*
X138582933Y-97310174D01*
X138464914Y-97293719D01*
X138342955Y-97301892D01*
X138238794Y-97334648D01*
X138210143Y-97352225D01*
X138100181Y-97464383D01*
X138033175Y-97600050D01*
X138011469Y-97748409D01*
X138037410Y-97898648D01*
X138073975Y-97980199D01*
X138157231Y-98078735D01*
X138273541Y-98151580D01*
X138404771Y-98188497D01*
X138447605Y-98191052D01*
X137135782Y-98191052D01*
X137095128Y-98064968D01*
X137056583Y-97812577D01*
X137068350Y-97557964D01*
X137128218Y-97308942D01*
X137233976Y-97073324D01*
X137383412Y-96858921D01*
X137460089Y-96775656D01*
X137669678Y-96599469D01*
X137896810Y-96473551D01*
X138144057Y-96396834D01*
X138413996Y-96368251D01*
X138443369Y-96367999D01*
X138716880Y-96392091D01*
X138968369Y-96464788D01*
X139199326Y-96586718D01*
X139411240Y-96758511D01*
X139443267Y-96790452D01*
X139609941Y-96995947D01*
X139729348Y-97217878D01*
X139802957Y-97450672D01*
X139832235Y-97688758D01*
X139818653Y-97926563D01*
X139763678Y-98158516D01*
X139668778Y-98379045D01*
X139535423Y-98582577D01*
X139365080Y-98763542D01*
X139159219Y-98916367D01*
X138919307Y-99035481D01*
X138844421Y-99062639D01*
X138740469Y-99089532D01*
X138617146Y-99104915D01*
X138459598Y-99110430D01*
X138411721Y-99110453D01*
X138285354Y-99110288D01*
X138202457Y-99112686D01*
X138153029Y-99119786D01*
X138127067Y-99133728D01*
X138114570Y-99156651D01*
X138109504Y-99175087D01*
X138094332Y-99204299D01*
X138053018Y-99277187D01*
X137986874Y-99391541D01*
X137897209Y-99545148D01*
X137785334Y-99735795D01*
X137652558Y-99961270D01*
X137500192Y-100219361D01*
X137329545Y-100507855D01*
X137141929Y-100824540D01*
X136938652Y-101167204D01*
X136721026Y-101533634D01*
X136490360Y-101921617D01*
X136247964Y-102328943D01*
X135995149Y-102753398D01*
X135733225Y-103192769D01*
X135463501Y-103644846D01*
X135348962Y-103836708D01*
X132604990Y-108432310D01*
X132604990Y-108432310D01*
X132604990Y-108432310D01*
G37*
X132604990Y-108432310D02*
X129403737Y-108425102D01*
X126202485Y-108417894D01*
X126089325Y-108337684D01*
X125971973Y-108227516D01*
X125899936Y-108100038D01*
X125874879Y-107963237D01*
X125898463Y-107825101D01*
X125958913Y-107711334D01*
X126041399Y-107622581D01*
X126137501Y-107554963D01*
X126152755Y-107547488D01*
X126171947Y-107539487D01*
X126194300Y-107532370D01*
X126222889Y-107526085D01*
X126260791Y-107520580D01*
X126311083Y-107515802D01*
X126376839Y-107511698D01*
X126461136Y-107508217D01*
X126567051Y-107505306D01*
X126697658Y-107502912D01*
X126856035Y-107500984D01*
X127045257Y-107499467D01*
X127268401Y-107498311D01*
X127528542Y-107497463D01*
X127828756Y-107496870D01*
X128172120Y-107496479D01*
X128561710Y-107496239D01*
X129000601Y-107496097D01*
X129169467Y-107496060D01*
X132074197Y-107495473D01*
X133986022Y-104293736D01*
X134226750Y-103890575D01*
X134468794Y-103485181D01*
X134709797Y-103081505D01*
X134947399Y-102683500D01*
X135179243Y-102295116D01*
X135402969Y-101920307D01*
X135616219Y-101563022D01*
X135816634Y-101227213D01*
X136001857Y-100916833D01*
X136169528Y-100635833D01*
X136317289Y-100388163D01*
X136442782Y-100177777D01*
X136543647Y-100008625D01*
X136559269Y-99982421D01*
X136694433Y-99756504D01*
X136824145Y-99541283D01*
X136945285Y-99341824D01*
X137054733Y-99163193D01*
X137149370Y-99010456D01*
X137226075Y-98888681D01*
X137281730Y-98802932D01*
X137312741Y-98758857D01*
X137404791Y-98644872D01*
X137334388Y-98561203D01*
X137233768Y-98412721D01*
X137148207Y-98229587D01*
X137135782Y-98191052D01*
X138447605Y-98191052D01*
X138563201Y-98170220D01*
X138679427Y-98115373D01*
X138776248Y-98037985D01*
X138821553Y-97976908D01*
X138870005Y-97833421D01*
X138871214Y-97683396D01*
X138828029Y-97539014D01*
X138743298Y-97412456D01*
X138675272Y-97351300D01*
X138582933Y-97310174D01*
X138464914Y-97293719D01*
X138342955Y-97301892D01*
X138238794Y-97334648D01*
X138210143Y-97352225D01*
X138100181Y-97464383D01*
X138033175Y-97600050D01*
X138011469Y-97748409D01*
X138037410Y-97898648D01*
X138073975Y-97980199D01*
X138157231Y-98078735D01*
X138273541Y-98151580D01*
X138404771Y-98188497D01*
X138447605Y-98191052D01*
X137135782Y-98191052D01*
X137095128Y-98064968D01*
X137056583Y-97812577D01*
X137068350Y-97557964D01*
X137128218Y-97308942D01*
X137233976Y-97073324D01*
X137383412Y-96858921D01*
X137460089Y-96775656D01*
X137669678Y-96599469D01*
X137896810Y-96473551D01*
X138144057Y-96396834D01*
X138413996Y-96368251D01*
X138443369Y-96367999D01*
X138716880Y-96392091D01*
X138968369Y-96464788D01*
X139199326Y-96586718D01*
X139411240Y-96758511D01*
X139443267Y-96790452D01*
X139609941Y-96995947D01*
X139729348Y-97217878D01*
X139802957Y-97450672D01*
X139832235Y-97688758D01*
X139818653Y-97926563D01*
X139763678Y-98158516D01*
X139668778Y-98379045D01*
X139535423Y-98582577D01*
X139365080Y-98763542D01*
X139159219Y-98916367D01*
X138919307Y-99035481D01*
X138844421Y-99062639D01*
X138740469Y-99089532D01*
X138617146Y-99104915D01*
X138459598Y-99110430D01*
X138411721Y-99110453D01*
X138285354Y-99110288D01*
X138202457Y-99112686D01*
X138153029Y-99119786D01*
X138127067Y-99133728D01*
X138114570Y-99156651D01*
X138109504Y-99175087D01*
X138094332Y-99204299D01*
X138053018Y-99277187D01*
X137986874Y-99391541D01*
X137897209Y-99545148D01*
X137785334Y-99735795D01*
X137652558Y-99961270D01*
X137500192Y-100219361D01*
X137329545Y-100507855D01*
X137141929Y-100824540D01*
X136938652Y-101167204D01*
X136721026Y-101533634D01*
X136490360Y-101921617D01*
X136247964Y-102328943D01*
X135995149Y-102753398D01*
X135733225Y-103192769D01*
X135463501Y-103644846D01*
X135348962Y-103836708D01*
X132604990Y-108432310D01*
X132604990Y-108432310D01*
%LPC*%
D16*
X104140000Y-99060000D03*
D17*
X104140000Y-96520000D03*
D18*
X103505000Y-124460000D03*
X103505000Y-121920000D03*
X103505000Y-119380000D03*
X103505000Y-116840000D03*
X103505000Y-114300000D03*
X103505000Y-111760000D03*
X103505000Y-109220000D03*
X103505000Y-106680000D03*
X103505000Y-104140000D03*
X103505000Y-101600000D03*
X103505000Y-93980000D03*
X103505000Y-91440000D03*
X103505000Y-88900000D03*
X103505000Y-86360000D03*
X103505000Y-83820000D03*
X103505000Y-81280000D03*
X103505000Y-78740000D03*
X103505000Y-76200000D03*
X103505000Y-73660000D03*
X103505000Y-71120000D03*
D19*
X111760000Y-124460000D03*
X111760000Y-121920000D03*
X111760000Y-119380000D03*
X111760000Y-116840000D03*
X111760000Y-114300000D03*
X111760000Y-111760000D03*
X111760000Y-109220000D03*
X111760000Y-106680000D03*
X111760000Y-104140000D03*
X111760000Y-101600000D03*
X111760000Y-99060000D03*
X111760000Y-96520000D03*
X111760000Y-93980000D03*
X111760000Y-91440000D03*
X111760000Y-88900000D03*
X111760000Y-86360000D03*
X111760000Y-83820000D03*
X111760000Y-81280000D03*
X111760000Y-78740000D03*
X111760000Y-76200000D03*
X111760000Y-73660000D03*
X111760000Y-71120000D03*
X114300000Y-124460000D03*
X114300000Y-121920000D03*
X114300000Y-119380000D03*
X114300000Y-116840000D03*
X114300000Y-114300000D03*
X114300000Y-111760000D03*
X114300000Y-109220000D03*
X114300000Y-106680000D03*
X114300000Y-104140000D03*
X114300000Y-101600000D03*
X114300000Y-99060000D03*
X114300000Y-96520000D03*
X114300000Y-93980000D03*
X114300000Y-91440000D03*
X114300000Y-88900000D03*
X114300000Y-86360000D03*
X114300000Y-83820000D03*
X114300000Y-81280000D03*
X114300000Y-78740000D03*
X114300000Y-76200000D03*
X114300000Y-73660000D03*
X114300000Y-71120000D03*
X116840000Y-124460000D03*
X116840000Y-121920000D03*
X116840000Y-119380000D03*
X116840000Y-116840000D03*
X116840000Y-114300000D03*
X116840000Y-111760000D03*
X116840000Y-109220000D03*
X116840000Y-106680000D03*
X116840000Y-104140000D03*
X116840000Y-101600000D03*
X116840000Y-99060000D03*
X116840000Y-96520000D03*
X116840000Y-93980000D03*
X116840000Y-91440000D03*
X116840000Y-88900000D03*
X116840000Y-86360000D03*
X116840000Y-83820000D03*
X116840000Y-81280000D03*
X116840000Y-78740000D03*
X116840000Y-76200000D03*
X116840000Y-73660000D03*
X116840000Y-71120000D03*
X119380000Y-124460000D03*
X119380000Y-121920000D03*
X119380000Y-119380000D03*
X119380000Y-116840000D03*
X119380000Y-114300000D03*
X119380000Y-111760000D03*
X119380000Y-109220000D03*
X119380000Y-106680000D03*
X119380000Y-104140000D03*
X119380000Y-101600000D03*
X119380000Y-99060000D03*
X119380000Y-96520000D03*
X119380000Y-93980000D03*
X119380000Y-91440000D03*
X119380000Y-88900000D03*
X119380000Y-86360000D03*
X119380000Y-83820000D03*
X119380000Y-81280000D03*
X119380000Y-78740000D03*
X119380000Y-76200000D03*
X119380000Y-73660000D03*
X119380000Y-71120000D03*
X121920000Y-124460000D03*
X121920000Y-121920000D03*
X121920000Y-119380000D03*
X121920000Y-116840000D03*
X121920000Y-114300000D03*
X121920000Y-111760000D03*
X121920000Y-109220000D03*
X121920000Y-106680000D03*
X121920000Y-104140000D03*
X121920000Y-101600000D03*
X121920000Y-99060000D03*
X121920000Y-96520000D03*
X121920000Y-93980000D03*
X121920000Y-91440000D03*
X121920000Y-88900000D03*
X121920000Y-86360000D03*
X121920000Y-83820000D03*
X121920000Y-81280000D03*
X121920000Y-78740000D03*
X121920000Y-76200000D03*
X121920000Y-73660000D03*
X121920000Y-71120000D03*
X124460000Y-124460000D03*
X124460000Y-121920000D03*
X124460000Y-119380000D03*
X124460000Y-116840000D03*
X124460000Y-114300000D03*
X124460000Y-111760000D03*
X124460000Y-109220000D03*
X124460000Y-106680000D03*
X124460000Y-104140000D03*
X124460000Y-101600000D03*
X124460000Y-99060000D03*
X124460000Y-96520000D03*
X124460000Y-93980000D03*
X124460000Y-91440000D03*
X124460000Y-88900000D03*
X124460000Y-86360000D03*
X124460000Y-83820000D03*
X124460000Y-81280000D03*
X124460000Y-78740000D03*
X124460000Y-76200000D03*
X124460000Y-73660000D03*
X124460000Y-71120000D03*
X127000000Y-124460000D03*
X127000000Y-121920000D03*
X127000000Y-119380000D03*
X127000000Y-116840000D03*
X127000000Y-114300000D03*
X127000000Y-111760000D03*
X127000000Y-109220000D03*
X127000000Y-106680000D03*
X127000000Y-104140000D03*
X127000000Y-101600000D03*
X127000000Y-99060000D03*
X127000000Y-96520000D03*
X127000000Y-93980000D03*
X127000000Y-91440000D03*
X127000000Y-88900000D03*
X127000000Y-86360000D03*
X127000000Y-83820000D03*
X127000000Y-81280000D03*
X127000000Y-78740000D03*
X127000000Y-76200000D03*
X127000000Y-73660000D03*
X127000000Y-71120000D03*
X129540000Y-124460000D03*
X129540000Y-121920000D03*
X129540000Y-119380000D03*
X129540000Y-116840000D03*
X129540000Y-114300000D03*
X129540000Y-111760000D03*
X129540000Y-109220000D03*
X129540000Y-106680000D03*
X129540000Y-104140000D03*
X129540000Y-101600000D03*
X129540000Y-99060000D03*
X129540000Y-96520000D03*
X129540000Y-93980000D03*
X129540000Y-91440000D03*
X129540000Y-88900000D03*
X129540000Y-86360000D03*
X129540000Y-83820000D03*
X129540000Y-81280000D03*
X129540000Y-78740000D03*
X129540000Y-76200000D03*
X129540000Y-73660000D03*
X129540000Y-71120000D03*
X132080000Y-124460000D03*
X132080000Y-121920000D03*
X132080000Y-119380000D03*
X132080000Y-116840000D03*
X132080000Y-114300000D03*
X132080000Y-111760000D03*
X132080000Y-109220000D03*
X132080000Y-106680000D03*
X132080000Y-104140000D03*
X132080000Y-101600000D03*
X132080000Y-99060000D03*
X132080000Y-96520000D03*
X132080000Y-93980000D03*
X132080000Y-91440000D03*
X132080000Y-88900000D03*
X132080000Y-86360000D03*
X132080000Y-83820000D03*
X132080000Y-81280000D03*
X132080000Y-78740000D03*
X132080000Y-76200000D03*
X132080000Y-73660000D03*
X132080000Y-71120000D03*
X134620000Y-124460000D03*
X134620000Y-121920000D03*
X134620000Y-119380000D03*
X134620000Y-116840000D03*
X134620000Y-114300000D03*
X134620000Y-111760000D03*
X134620000Y-109220000D03*
X134620000Y-106680000D03*
X134620000Y-104140000D03*
X134620000Y-101600000D03*
X134620000Y-99060000D03*
X134620000Y-96520000D03*
X134620000Y-93980000D03*
X134620000Y-91440000D03*
X134620000Y-88900000D03*
X134620000Y-86360000D03*
X134620000Y-83820000D03*
X134620000Y-81280000D03*
X134620000Y-78740000D03*
X134620000Y-76200000D03*
X134620000Y-73660000D03*
X134620000Y-71120000D03*
X137160000Y-124460000D03*
X137160000Y-121920000D03*
X137160000Y-119380000D03*
X137160000Y-116840000D03*
X137160000Y-114300000D03*
X137160000Y-111760000D03*
X137160000Y-109220000D03*
X137160000Y-106680000D03*
X137160000Y-104140000D03*
X137160000Y-101600000D03*
X137160000Y-99060000D03*
X137160000Y-96520000D03*
X137160000Y-93980000D03*
X137160000Y-91440000D03*
X137160000Y-88900000D03*
X137160000Y-86360000D03*
X137160000Y-83820000D03*
X137160000Y-81280000D03*
X137160000Y-78740000D03*
X137160000Y-76200000D03*
X137160000Y-73660000D03*
X137160000Y-71120000D03*
X139700000Y-124460000D03*
X139700000Y-121920000D03*
X139700000Y-119380000D03*
X139700000Y-116840000D03*
X139700000Y-114300000D03*
X139700000Y-111760000D03*
X139700000Y-109220000D03*
X139700000Y-106680000D03*
X139700000Y-104140000D03*
X139700000Y-101600000D03*
X139700000Y-99060000D03*
X139700000Y-96520000D03*
X139700000Y-93980000D03*
X139700000Y-91440000D03*
X139700000Y-88900000D03*
X139700000Y-86360000D03*
X139700000Y-83820000D03*
X139700000Y-81280000D03*
X139700000Y-78740000D03*
X139700000Y-76200000D03*
X139700000Y-73660000D03*
X139700000Y-71120000D03*
X142240000Y-124460000D03*
X142240000Y-121920000D03*
X142240000Y-119380000D03*
X142240000Y-116840000D03*
X142240000Y-114300000D03*
X142240000Y-111760000D03*
X142240000Y-109220000D03*
X142240000Y-106680000D03*
X142240000Y-104140000D03*
X142240000Y-101600000D03*
X142240000Y-99060000D03*
X142240000Y-96520000D03*
X142240000Y-93980000D03*
X142240000Y-91440000D03*
X142240000Y-88900000D03*
X142240000Y-86360000D03*
X142240000Y-83820000D03*
X142240000Y-81280000D03*
X142240000Y-78740000D03*
X142240000Y-76200000D03*
X142240000Y-73660000D03*
X142240000Y-71120000D03*
X144780000Y-124460000D03*
X144780000Y-121920000D03*
X144780000Y-119380000D03*
X144780000Y-116840000D03*
X144780000Y-114300000D03*
X144780000Y-111760000D03*
X144780000Y-109220000D03*
X144780000Y-106680000D03*
X144780000Y-104140000D03*
X144780000Y-101600000D03*
X144780000Y-99060000D03*
X144780000Y-96520000D03*
X144780000Y-93980000D03*
X144780000Y-91440000D03*
X144780000Y-88900000D03*
X144780000Y-86360000D03*
X144780000Y-83820000D03*
X144780000Y-81280000D03*
X144780000Y-78740000D03*
X144780000Y-76200000D03*
X144780000Y-73660000D03*
X144780000Y-71120000D03*
X147320000Y-124460000D03*
X147320000Y-121920000D03*
X147320000Y-119380000D03*
X147320000Y-116840000D03*
X147320000Y-114300000D03*
X147320000Y-111760000D03*
X147320000Y-109220000D03*
X147320000Y-106680000D03*
X147320000Y-104140000D03*
X147320000Y-101600000D03*
X147320000Y-99060000D03*
X147320000Y-96520000D03*
X147320000Y-93980000D03*
X147320000Y-91440000D03*
X147320000Y-88900000D03*
X147320000Y-86360000D03*
X147320000Y-83820000D03*
X147320000Y-81280000D03*
X147320000Y-78740000D03*
X147320000Y-76200000D03*
X147320000Y-73660000D03*
X147320000Y-71120000D03*
X149860000Y-124460000D03*
X149860000Y-121920000D03*
X149860000Y-119380000D03*
X149860000Y-116840000D03*
X149860000Y-114300000D03*
X149860000Y-111760000D03*
X149860000Y-109220000D03*
X149860000Y-106680000D03*
X149860000Y-104140000D03*
X149860000Y-101600000D03*
X149860000Y-99060000D03*
X149860000Y-96520000D03*
X149860000Y-93980000D03*
X149860000Y-91440000D03*
X149860000Y-88900000D03*
X149860000Y-86360000D03*
X149860000Y-83820000D03*
X149860000Y-81280000D03*
X149860000Y-78740000D03*
X149860000Y-76200000D03*
X149860000Y-73660000D03*
X149860000Y-71120000D03*
X109220000Y-124460000D03*
X109220000Y-121920000D03*
X109220000Y-119380000D03*
X109220000Y-116840000D03*
X109220000Y-114300000D03*
X109220000Y-111760000D03*
X109220000Y-109220000D03*
X109220000Y-106680000D03*
X109220000Y-104140000D03*
X109220000Y-101600000D03*
X109220000Y-93980000D03*
X109220000Y-91440000D03*
X109220000Y-88900000D03*
X109220000Y-86360000D03*
X109220000Y-83820000D03*
X109220000Y-81280000D03*
X109220000Y-78740000D03*
X109220000Y-76200000D03*
X109220000Y-73660000D03*
X109220000Y-71120000D03*
X106680000Y-124460000D03*
X106680000Y-121920000D03*
X106680000Y-119380000D03*
X106680000Y-116840000D03*
X106680000Y-114300000D03*
X106680000Y-111760000D03*
X106680000Y-109220000D03*
X106680000Y-106680000D03*
X106680000Y-104140000D03*
X106680000Y-101600000D03*
X106680000Y-93980000D03*
X106680000Y-91440000D03*
X106680000Y-88900000D03*
X106680000Y-86360000D03*
X106680000Y-83820000D03*
X106680000Y-81280000D03*
X106680000Y-78740000D03*
X106680000Y-76200000D03*
X106680000Y-73660000D03*
X106680000Y-71120000D03*
X107950000Y-124460000D03*
X107950000Y-121920000D03*
X107950000Y-119380000D03*
X107950000Y-116840000D03*
X107950000Y-114300000D03*
X107950000Y-111760000D03*
X107950000Y-109220000D03*
X107950000Y-106680000D03*
X107950000Y-104140000D03*
X107950000Y-101600000D03*
X107950000Y-93980000D03*
X107950000Y-91440000D03*
X107950000Y-88900000D03*
X107950000Y-86360000D03*
X107950000Y-83820000D03*
X107950000Y-81280000D03*
X107950000Y-78740000D03*
X107950000Y-76200000D03*
X107950000Y-73660000D03*
X107950000Y-71120000D03*
D20*
G36*
X148209000Y-69723000D02*
X146431000Y-69723000D01*
X146431000Y-69469000D01*
X148209000Y-69469000D01*
X148209000Y-69723000D01*
X148209000Y-69723000D01*
G37*
X148209000Y-69723000D02*
X146431000Y-69723000D01*
X146431000Y-69469000D01*
X148209000Y-69469000D01*
X148209000Y-69723000D01*
G36*
X145669000Y-69723000D02*
X143891000Y-69723000D01*
X143891000Y-69469000D01*
X145669000Y-69469000D01*
X145669000Y-69723000D01*
X145669000Y-69723000D01*
G37*
X145669000Y-69723000D02*
X143891000Y-69723000D01*
X143891000Y-69469000D01*
X145669000Y-69469000D01*
X145669000Y-69723000D01*
G36*
X143129000Y-69723000D02*
X141351000Y-69723000D01*
X141351000Y-69469000D01*
X143129000Y-69469000D01*
X143129000Y-69723000D01*
X143129000Y-69723000D01*
G37*
X143129000Y-69723000D02*
X141351000Y-69723000D01*
X141351000Y-69469000D01*
X143129000Y-69469000D01*
X143129000Y-69723000D01*
G36*
X140589000Y-69723000D02*
X138811000Y-69723000D01*
X138811000Y-69469000D01*
X140589000Y-69469000D01*
X140589000Y-69723000D01*
X140589000Y-69723000D01*
G37*
X140589000Y-69723000D02*
X138811000Y-69723000D01*
X138811000Y-69469000D01*
X140589000Y-69469000D01*
X140589000Y-69723000D01*
G36*
X138049000Y-69723000D02*
X136271000Y-69723000D01*
X136271000Y-69469000D01*
X138049000Y-69469000D01*
X138049000Y-69723000D01*
X138049000Y-69723000D01*
G37*
X138049000Y-69723000D02*
X136271000Y-69723000D01*
X136271000Y-69469000D01*
X138049000Y-69469000D01*
X138049000Y-69723000D01*
G36*
X135509000Y-69723000D02*
X133731000Y-69723000D01*
X133731000Y-69469000D01*
X135509000Y-69469000D01*
X135509000Y-69723000D01*
X135509000Y-69723000D01*
G37*
X135509000Y-69723000D02*
X133731000Y-69723000D01*
X133731000Y-69469000D01*
X135509000Y-69469000D01*
X135509000Y-69723000D01*
G36*
X132969000Y-69723000D02*
X131191000Y-69723000D01*
X131191000Y-69469000D01*
X132969000Y-69469000D01*
X132969000Y-69723000D01*
X132969000Y-69723000D01*
G37*
X132969000Y-69723000D02*
X131191000Y-69723000D01*
X131191000Y-69469000D01*
X132969000Y-69469000D01*
X132969000Y-69723000D01*
G36*
X130429000Y-69723000D02*
X128651000Y-69723000D01*
X128651000Y-69469000D01*
X130429000Y-69469000D01*
X130429000Y-69723000D01*
X130429000Y-69723000D01*
G37*
X130429000Y-69723000D02*
X128651000Y-69723000D01*
X128651000Y-69469000D01*
X130429000Y-69469000D01*
X130429000Y-69723000D01*
G36*
X127889000Y-69723000D02*
X126111000Y-69723000D01*
X126111000Y-69469000D01*
X127889000Y-69469000D01*
X127889000Y-69723000D01*
X127889000Y-69723000D01*
G37*
X127889000Y-69723000D02*
X126111000Y-69723000D01*
X126111000Y-69469000D01*
X127889000Y-69469000D01*
X127889000Y-69723000D01*
G36*
X125349000Y-69723000D02*
X123571000Y-69723000D01*
X123571000Y-69469000D01*
X125349000Y-69469000D01*
X125349000Y-69723000D01*
X125349000Y-69723000D01*
G37*
X125349000Y-69723000D02*
X123571000Y-69723000D01*
X123571000Y-69469000D01*
X125349000Y-69469000D01*
X125349000Y-69723000D01*
G36*
X122809000Y-69723000D02*
X121031000Y-69723000D01*
X121031000Y-69469000D01*
X122809000Y-69469000D01*
X122809000Y-69723000D01*
X122809000Y-69723000D01*
G37*
X122809000Y-69723000D02*
X121031000Y-69723000D01*
X121031000Y-69469000D01*
X122809000Y-69469000D01*
X122809000Y-69723000D01*
G36*
X120269000Y-69723000D02*
X118491000Y-69723000D01*
X118491000Y-69469000D01*
X120269000Y-69469000D01*
X120269000Y-69723000D01*
X120269000Y-69723000D01*
G37*
X120269000Y-69723000D02*
X118491000Y-69723000D01*
X118491000Y-69469000D01*
X120269000Y-69469000D01*
X120269000Y-69723000D01*
G36*
X117729000Y-69723000D02*
X115951000Y-69723000D01*
X115951000Y-69469000D01*
X117729000Y-69469000D01*
X117729000Y-69723000D01*
X117729000Y-69723000D01*
G37*
X117729000Y-69723000D02*
X115951000Y-69723000D01*
X115951000Y-69469000D01*
X117729000Y-69469000D01*
X117729000Y-69723000D01*
G36*
X115189000Y-69723000D02*
X113411000Y-69723000D01*
X113411000Y-69469000D01*
X115189000Y-69469000D01*
X115189000Y-69723000D01*
X115189000Y-69723000D01*
G37*
X115189000Y-69723000D02*
X113411000Y-69723000D01*
X113411000Y-69469000D01*
X115189000Y-69469000D01*
X115189000Y-69723000D01*
G36*
X112649000Y-69723000D02*
X110871000Y-69723000D01*
X110871000Y-69469000D01*
X112649000Y-69469000D01*
X112649000Y-69723000D01*
X112649000Y-69723000D01*
G37*
X112649000Y-69723000D02*
X110871000Y-69723000D01*
X110871000Y-69469000D01*
X112649000Y-69469000D01*
X112649000Y-69723000D01*
G36*
X148209000Y-126111000D02*
X146431000Y-126111000D01*
X146431000Y-125857000D01*
X148209000Y-125857000D01*
X148209000Y-126111000D01*
X148209000Y-126111000D01*
G37*
X148209000Y-126111000D02*
X146431000Y-126111000D01*
X146431000Y-125857000D01*
X148209000Y-125857000D01*
X148209000Y-126111000D01*
G36*
X145669000Y-126111000D02*
X143891000Y-126111000D01*
X143891000Y-125857000D01*
X145669000Y-125857000D01*
X145669000Y-126111000D01*
X145669000Y-126111000D01*
G37*
X145669000Y-126111000D02*
X143891000Y-126111000D01*
X143891000Y-125857000D01*
X145669000Y-125857000D01*
X145669000Y-126111000D01*
G36*
X143129000Y-126111000D02*
X141351000Y-126111000D01*
X141351000Y-125857000D01*
X143129000Y-125857000D01*
X143129000Y-126111000D01*
X143129000Y-126111000D01*
G37*
X143129000Y-126111000D02*
X141351000Y-126111000D01*
X141351000Y-125857000D01*
X143129000Y-125857000D01*
X143129000Y-126111000D01*
G36*
X140589000Y-126111000D02*
X138811000Y-126111000D01*
X138811000Y-125857000D01*
X140589000Y-125857000D01*
X140589000Y-126111000D01*
X140589000Y-126111000D01*
G37*
X140589000Y-126111000D02*
X138811000Y-126111000D01*
X138811000Y-125857000D01*
X140589000Y-125857000D01*
X140589000Y-126111000D01*
G36*
X138049000Y-126111000D02*
X136271000Y-126111000D01*
X136271000Y-125857000D01*
X138049000Y-125857000D01*
X138049000Y-126111000D01*
X138049000Y-126111000D01*
G37*
X138049000Y-126111000D02*
X136271000Y-126111000D01*
X136271000Y-125857000D01*
X138049000Y-125857000D01*
X138049000Y-126111000D01*
G36*
X135509000Y-126111000D02*
X133731000Y-126111000D01*
X133731000Y-125857000D01*
X135509000Y-125857000D01*
X135509000Y-126111000D01*
X135509000Y-126111000D01*
G37*
X135509000Y-126111000D02*
X133731000Y-126111000D01*
X133731000Y-125857000D01*
X135509000Y-125857000D01*
X135509000Y-126111000D01*
G36*
X132969000Y-126111000D02*
X131191000Y-126111000D01*
X131191000Y-125857000D01*
X132969000Y-125857000D01*
X132969000Y-126111000D01*
X132969000Y-126111000D01*
G37*
X132969000Y-126111000D02*
X131191000Y-126111000D01*
X131191000Y-125857000D01*
X132969000Y-125857000D01*
X132969000Y-126111000D01*
G36*
X130429000Y-126111000D02*
X128651000Y-126111000D01*
X128651000Y-125857000D01*
X130429000Y-125857000D01*
X130429000Y-126111000D01*
X130429000Y-126111000D01*
G37*
X130429000Y-126111000D02*
X128651000Y-126111000D01*
X128651000Y-125857000D01*
X130429000Y-125857000D01*
X130429000Y-126111000D01*
G36*
X127889000Y-126111000D02*
X126111000Y-126111000D01*
X126111000Y-125857000D01*
X127889000Y-125857000D01*
X127889000Y-126111000D01*
X127889000Y-126111000D01*
G37*
X127889000Y-126111000D02*
X126111000Y-126111000D01*
X126111000Y-125857000D01*
X127889000Y-125857000D01*
X127889000Y-126111000D01*
G36*
X125349000Y-126111000D02*
X123571000Y-126111000D01*
X123571000Y-125857000D01*
X125349000Y-125857000D01*
X125349000Y-126111000D01*
X125349000Y-126111000D01*
G37*
X125349000Y-126111000D02*
X123571000Y-126111000D01*
X123571000Y-125857000D01*
X125349000Y-125857000D01*
X125349000Y-126111000D01*
G36*
X122809000Y-126111000D02*
X121031000Y-126111000D01*
X121031000Y-125857000D01*
X122809000Y-125857000D01*
X122809000Y-126111000D01*
X122809000Y-126111000D01*
G37*
X122809000Y-126111000D02*
X121031000Y-126111000D01*
X121031000Y-125857000D01*
X122809000Y-125857000D01*
X122809000Y-126111000D01*
G36*
X120269000Y-126111000D02*
X118491000Y-126111000D01*
X118491000Y-125857000D01*
X120269000Y-125857000D01*
X120269000Y-126111000D01*
X120269000Y-126111000D01*
G37*
X120269000Y-126111000D02*
X118491000Y-126111000D01*
X118491000Y-125857000D01*
X120269000Y-125857000D01*
X120269000Y-126111000D01*
G36*
X117729000Y-126111000D02*
X115951000Y-126111000D01*
X115951000Y-125857000D01*
X117729000Y-125857000D01*
X117729000Y-126111000D01*
X117729000Y-126111000D01*
G37*
X117729000Y-126111000D02*
X115951000Y-126111000D01*
X115951000Y-125857000D01*
X117729000Y-125857000D01*
X117729000Y-126111000D01*
G36*
X115189000Y-126111000D02*
X113411000Y-126111000D01*
X113411000Y-125857000D01*
X115189000Y-125857000D01*
X115189000Y-126111000D01*
X115189000Y-126111000D01*
G37*
X115189000Y-126111000D02*
X113411000Y-126111000D01*
X113411000Y-125857000D01*
X115189000Y-125857000D01*
X115189000Y-126111000D01*
G36*
X112649000Y-126111000D02*
X110871000Y-126111000D01*
X110871000Y-125857000D01*
X112649000Y-125857000D01*
X112649000Y-126111000D01*
X112649000Y-126111000D01*
G37*
X112649000Y-126111000D02*
X110871000Y-126111000D01*
X110871000Y-125857000D01*
X112649000Y-125857000D01*
X112649000Y-126111000D01*
M02*
