%FSLAX46Y46*%
G04 Gerber Fmt 4.6, Leading zero omitted, Abs format (unit mm)*
G04 Created by KiCad (PCBNEW (2014-08-29 BZR 5106)-product) date Thu 16 Oct 2014 04:24:20 PM PDT*
%MOMM*%
G01*
G04 APERTURE LIST*
%ADD10C,0.100000*%
%ADD11C,0.700000*%
%ADD12C,0.177800*%
%ADD13C,0.125000*%
%ADD14C,0.200000*%
%ADD15C,0.150000*%
%ADD16C,0.127000*%
%ADD17C,1.676400*%
%ADD18R,2.184400X2.184400*%
%ADD19O,2.184400X2.184400*%
%ADD20C,0.254000*%
G04 APERTURE END LIST*
D10*
D11*
X124135143Y-100432905D02*
X124135143Y-95432905D01*
X125325619Y-95432905D01*
X126039905Y-95671000D01*
X126516096Y-96147190D01*
X126754191Y-96623381D01*
X126992286Y-97575762D01*
X126992286Y-98290048D01*
X126754191Y-99242429D01*
X126516096Y-99718619D01*
X126039905Y-100194810D01*
X125325619Y-100432905D01*
X124135143Y-100432905D01*
X129135143Y-100432905D02*
X129135143Y-95432905D01*
X132468476Y-98051952D02*
X132468476Y-100432905D01*
X130801809Y-95432905D02*
X132468476Y-98051952D01*
X134135143Y-95432905D01*
D12*
X109401428Y-125603000D02*
X109328857Y-125566714D01*
X109220000Y-125566714D01*
X109111143Y-125603000D01*
X109038571Y-125675571D01*
X109002286Y-125748143D01*
X108966000Y-125893286D01*
X108966000Y-126002143D01*
X109002286Y-126147286D01*
X109038571Y-126219857D01*
X109111143Y-126292429D01*
X109220000Y-126328714D01*
X109292571Y-126328714D01*
X109401428Y-126292429D01*
X109437714Y-126256143D01*
X109437714Y-126002143D01*
X109292571Y-126002143D01*
X109764286Y-126328714D02*
X109764286Y-125566714D01*
X110199714Y-126328714D01*
X110199714Y-125566714D01*
X110562572Y-126328714D02*
X110562572Y-125566714D01*
X110744000Y-125566714D01*
X110852857Y-125603000D01*
X110925429Y-125675571D01*
X110961714Y-125748143D01*
X110998000Y-125893286D01*
X110998000Y-126002143D01*
X110961714Y-126147286D01*
X110925429Y-126219857D01*
X110852857Y-126292429D01*
X110744000Y-126328714D01*
X110562572Y-126328714D01*
X108857143Y-99912714D02*
X109328857Y-99912714D01*
X109074857Y-100203000D01*
X109183715Y-100203000D01*
X109256286Y-100239286D01*
X109292572Y-100275571D01*
X109328857Y-100348143D01*
X109328857Y-100529571D01*
X109292572Y-100602143D01*
X109256286Y-100638429D01*
X109183715Y-100674714D01*
X108966000Y-100674714D01*
X108893429Y-100638429D01*
X108857143Y-100602143D01*
X109655429Y-100602143D02*
X109691714Y-100638429D01*
X109655429Y-100674714D01*
X109619143Y-100638429D01*
X109655429Y-100602143D01*
X109655429Y-100674714D01*
X109945714Y-99912714D02*
X110417428Y-99912714D01*
X110163428Y-100203000D01*
X110272286Y-100203000D01*
X110344857Y-100239286D01*
X110381143Y-100275571D01*
X110417428Y-100348143D01*
X110417428Y-100529571D01*
X110381143Y-100602143D01*
X110344857Y-100638429D01*
X110272286Y-100674714D01*
X110054571Y-100674714D01*
X109982000Y-100638429D01*
X109945714Y-100602143D01*
X110635142Y-99912714D02*
X110889142Y-100674714D01*
X111143142Y-99912714D01*
X109401428Y-94869000D02*
X109328857Y-94832714D01*
X109220000Y-94832714D01*
X109111143Y-94869000D01*
X109038571Y-94941571D01*
X109002286Y-95014143D01*
X108966000Y-95159286D01*
X108966000Y-95268143D01*
X109002286Y-95413286D01*
X109038571Y-95485857D01*
X109111143Y-95558429D01*
X109220000Y-95594714D01*
X109292571Y-95594714D01*
X109401428Y-95558429D01*
X109437714Y-95522143D01*
X109437714Y-95268143D01*
X109292571Y-95268143D01*
X109764286Y-95594714D02*
X109764286Y-94832714D01*
X110199714Y-95594714D01*
X110199714Y-94832714D01*
X110562572Y-95594714D02*
X110562572Y-94832714D01*
X110744000Y-94832714D01*
X110852857Y-94869000D01*
X110925429Y-94941571D01*
X110961714Y-95014143D01*
X110998000Y-95159286D01*
X110998000Y-95268143D01*
X110961714Y-95413286D01*
X110925429Y-95485857D01*
X110852857Y-95558429D01*
X110744000Y-95594714D01*
X110562572Y-95594714D01*
X108857143Y-69178714D02*
X109328857Y-69178714D01*
X109074857Y-69469000D01*
X109183715Y-69469000D01*
X109256286Y-69505286D01*
X109292572Y-69541571D01*
X109328857Y-69614143D01*
X109328857Y-69795571D01*
X109292572Y-69868143D01*
X109256286Y-69904429D01*
X109183715Y-69940714D01*
X108966000Y-69940714D01*
X108893429Y-69904429D01*
X108857143Y-69868143D01*
X109655429Y-69868143D02*
X109691714Y-69904429D01*
X109655429Y-69940714D01*
X109619143Y-69904429D01*
X109655429Y-69868143D01*
X109655429Y-69940714D01*
X109945714Y-69178714D02*
X110417428Y-69178714D01*
X110163428Y-69469000D01*
X110272286Y-69469000D01*
X110344857Y-69505286D01*
X110381143Y-69541571D01*
X110417428Y-69614143D01*
X110417428Y-69795571D01*
X110381143Y-69868143D01*
X110344857Y-69904429D01*
X110272286Y-69940714D01*
X110054571Y-69940714D01*
X109982000Y-69904429D01*
X109945714Y-69868143D01*
X110635142Y-69178714D02*
X110889142Y-69940714D01*
X111143142Y-69178714D01*
D13*
X106108476Y-99222714D02*
X105727524Y-99222714D01*
X106108476Y-96428714D02*
X105727524Y-96428714D01*
X105918000Y-96619190D02*
X105918000Y-96238238D01*
D14*
X106045000Y-96901000D02*
X105664000Y-96901000D01*
X106045000Y-98679000D02*
X105664000Y-98679000D01*
X106045000Y-98044000D02*
X106045000Y-98679000D01*
X105664000Y-97980500D02*
X106426000Y-97980500D01*
X106045000Y-96901000D02*
X106045000Y-97536000D01*
X105664000Y-97599500D02*
X106426000Y-97599500D01*
D15*
X104420810Y-124460000D02*
G75*
G03X104420810Y-124460000I-915810J0D01*
G74*
G01*
X104420810Y-93980000D02*
G75*
G03X104420810Y-93980000I-915810J0D01*
G74*
G01*
X102870000Y-97790000D02*
X105410000Y-97790000D01*
X102870000Y-100330000D02*
X105410000Y-100330000D01*
X105410000Y-100330000D02*
X105410000Y-97790000D01*
X105410000Y-97790000D02*
X105410000Y-95250000D01*
X105410000Y-95250000D02*
X102870000Y-95250000D01*
X102870000Y-95250000D02*
X102870000Y-100330000D01*
D10*
G36*
X133412294Y-104418788D02*
X133409678Y-104528890D01*
X133374814Y-104623789D01*
X133304477Y-104711807D01*
X133295515Y-104720412D01*
X133270687Y-104737687D01*
X133214147Y-104773131D01*
X133128076Y-104825462D01*
X133014656Y-104893399D01*
X132876066Y-104975660D01*
X132714488Y-105070964D01*
X132532102Y-105178030D01*
X132331090Y-105295576D01*
X132113632Y-105422321D01*
X131881908Y-105556982D01*
X131638101Y-105698280D01*
X131384389Y-105844932D01*
X131239846Y-105928314D01*
X130979920Y-106078182D01*
X130727507Y-106223781D01*
X130484896Y-106363789D01*
X130254377Y-106496880D01*
X130038241Y-106621731D01*
X129838776Y-106737017D01*
X129658272Y-106841415D01*
X129499020Y-106933600D01*
X129363309Y-107012248D01*
X129253429Y-107076036D01*
X129171670Y-107123638D01*
X129120321Y-107153732D01*
X129106637Y-107161877D01*
X129040527Y-107200700D01*
X128986954Y-107230106D01*
X128954776Y-107245305D01*
X128950329Y-107246386D01*
X128927575Y-107236778D01*
X128879850Y-107211198D01*
X128815442Y-107174191D01*
X128778000Y-107151875D01*
X128743825Y-107131697D01*
X128677724Y-107093102D01*
X128581616Y-107037200D01*
X128457423Y-106965103D01*
X128307065Y-106877922D01*
X128132462Y-106776769D01*
X127935534Y-106662756D01*
X127718203Y-106536993D01*
X127482388Y-106400592D01*
X127230011Y-106254665D01*
X126962991Y-106100322D01*
X126683249Y-105938675D01*
X126392705Y-105770836D01*
X126093280Y-105597917D01*
X125886308Y-105478417D01*
X125465771Y-105235602D01*
X125077827Y-105011532D01*
X124721201Y-104805459D01*
X124394618Y-104616637D01*
X124096802Y-104444319D01*
X123826477Y-104287758D01*
X123582370Y-104146208D01*
X123363203Y-104018921D01*
X123167702Y-103905151D01*
X122994591Y-103804150D01*
X122842596Y-103715173D01*
X122710439Y-103637471D01*
X122596847Y-103570299D01*
X122500544Y-103512910D01*
X122420254Y-103464556D01*
X122354702Y-103424491D01*
X122302612Y-103391968D01*
X122262710Y-103366240D01*
X122233720Y-103346561D01*
X122214366Y-103332183D01*
X122203373Y-103322359D01*
X122202316Y-103321174D01*
X122180459Y-103299753D01*
X122159611Y-103299852D01*
X122126185Y-103323284D01*
X122114393Y-103332900D01*
X121967141Y-103429263D01*
X121797084Y-103497287D01*
X121778858Y-103500963D01*
X121778858Y-102504304D01*
X121762373Y-102404692D01*
X121740587Y-102357057D01*
X121694280Y-102304086D01*
X121625321Y-102255143D01*
X121549211Y-102219317D01*
X121482414Y-102205693D01*
X121435457Y-102214155D01*
X121374386Y-102235440D01*
X121350521Y-102246156D01*
X121267090Y-102304672D01*
X121213100Y-102380125D01*
X121186982Y-102465679D01*
X121187165Y-102554497D01*
X121212078Y-102639743D01*
X121260150Y-102714579D01*
X121329810Y-102772170D01*
X121419488Y-102805678D01*
X121480385Y-102811385D01*
X121578047Y-102796934D01*
X121637631Y-102767357D01*
X121714239Y-102694596D01*
X121762064Y-102603926D01*
X121778858Y-102504304D01*
X121778858Y-103500963D01*
X121610283Y-103534971D01*
X121480385Y-103542250D01*
X121283976Y-103527061D01*
X121107881Y-103480089D01*
X120946993Y-103399227D01*
X120796203Y-103282366D01*
X120755325Y-103243137D01*
X120624133Y-103086539D01*
X120528947Y-102915788D01*
X120470377Y-102732475D01*
X120449029Y-102538188D01*
X120451566Y-102449923D01*
X120481918Y-102251498D01*
X120545137Y-102072450D01*
X120643133Y-101908597D01*
X120761379Y-101771929D01*
X120912269Y-101647844D01*
X121082153Y-101557442D01*
X121268685Y-101501671D01*
X121469519Y-101481479D01*
X121480385Y-101481420D01*
X121682237Y-101499408D01*
X121869367Y-101553530D01*
X122041083Y-101643500D01*
X122196694Y-101769034D01*
X122209491Y-101781671D01*
X122336962Y-101935825D01*
X122431327Y-102107560D01*
X122490827Y-102292399D01*
X122513701Y-102485862D01*
X122512786Y-102553590D01*
X122506154Y-102693923D01*
X122580793Y-102723736D01*
X122617016Y-102741410D01*
X122681595Y-102776249D01*
X122769366Y-102825330D01*
X122875167Y-102885731D01*
X122993834Y-102954530D01*
X123120203Y-103028805D01*
X123127870Y-103033344D01*
X123222706Y-103089249D01*
X123343959Y-103160302D01*
X123489531Y-103245293D01*
X123657327Y-103343013D01*
X123845250Y-103452254D01*
X124051204Y-103571807D01*
X124273093Y-103700464D01*
X124508821Y-103837014D01*
X124756291Y-103980251D01*
X125013407Y-104128965D01*
X125278073Y-104281947D01*
X125548193Y-104437989D01*
X125821670Y-104595881D01*
X126096408Y-104754416D01*
X126370311Y-104912384D01*
X126641283Y-105068577D01*
X126907227Y-105221786D01*
X127166047Y-105370802D01*
X127415647Y-105514417D01*
X127653930Y-105651421D01*
X127878802Y-105780607D01*
X128088164Y-105900765D01*
X128279921Y-106010686D01*
X128451977Y-106109162D01*
X128602235Y-106194984D01*
X128728599Y-106266944D01*
X128828973Y-106323832D01*
X128901261Y-106364441D01*
X128943366Y-106387560D01*
X128953846Y-106392699D01*
X128972992Y-106383036D01*
X129023806Y-106355013D01*
X129104143Y-106309857D01*
X129211859Y-106248797D01*
X129344809Y-106173060D01*
X129500848Y-106083875D01*
X129677832Y-105982470D01*
X129873616Y-105870072D01*
X130086056Y-105747909D01*
X130313006Y-105617210D01*
X130552322Y-105479203D01*
X130801860Y-105335116D01*
X130907693Y-105273951D01*
X131161707Y-105127137D01*
X131406935Y-104985456D01*
X131641175Y-104850176D01*
X131862229Y-104722566D01*
X132067899Y-104603892D01*
X132255986Y-104495422D01*
X132424289Y-104398423D01*
X132570611Y-104314164D01*
X132692753Y-104243912D01*
X132788516Y-104188934D01*
X132855700Y-104150498D01*
X132892106Y-104129872D01*
X132897460Y-104126943D01*
X132976435Y-104103023D01*
X133071469Y-104098453D01*
X133165083Y-104112529D01*
X133233508Y-104140457D01*
X133327414Y-104218141D01*
X133387111Y-104314450D01*
X133412294Y-104418788D01*
X133412294Y-104418788D01*
X133412294Y-104418788D01*
G37*
X133412294Y-104418788D02*
X133409678Y-104528890D01*
X133374814Y-104623789D01*
X133304477Y-104711807D01*
X133295515Y-104720412D01*
X133270687Y-104737687D01*
X133214147Y-104773131D01*
X133128076Y-104825462D01*
X133014656Y-104893399D01*
X132876066Y-104975660D01*
X132714488Y-105070964D01*
X132532102Y-105178030D01*
X132331090Y-105295576D01*
X132113632Y-105422321D01*
X131881908Y-105556982D01*
X131638101Y-105698280D01*
X131384389Y-105844932D01*
X131239846Y-105928314D01*
X130979920Y-106078182D01*
X130727507Y-106223781D01*
X130484896Y-106363789D01*
X130254377Y-106496880D01*
X130038241Y-106621731D01*
X129838776Y-106737017D01*
X129658272Y-106841415D01*
X129499020Y-106933600D01*
X129363309Y-107012248D01*
X129253429Y-107076036D01*
X129171670Y-107123638D01*
X129120321Y-107153732D01*
X129106637Y-107161877D01*
X129040527Y-107200700D01*
X128986954Y-107230106D01*
X128954776Y-107245305D01*
X128950329Y-107246386D01*
X128927575Y-107236778D01*
X128879850Y-107211198D01*
X128815442Y-107174191D01*
X128778000Y-107151875D01*
X128743825Y-107131697D01*
X128677724Y-107093102D01*
X128581616Y-107037200D01*
X128457423Y-106965103D01*
X128307065Y-106877922D01*
X128132462Y-106776769D01*
X127935534Y-106662756D01*
X127718203Y-106536993D01*
X127482388Y-106400592D01*
X127230011Y-106254665D01*
X126962991Y-106100322D01*
X126683249Y-105938675D01*
X126392705Y-105770836D01*
X126093280Y-105597917D01*
X125886308Y-105478417D01*
X125465771Y-105235602D01*
X125077827Y-105011532D01*
X124721201Y-104805459D01*
X124394618Y-104616637D01*
X124096802Y-104444319D01*
X123826477Y-104287758D01*
X123582370Y-104146208D01*
X123363203Y-104018921D01*
X123167702Y-103905151D01*
X122994591Y-103804150D01*
X122842596Y-103715173D01*
X122710439Y-103637471D01*
X122596847Y-103570299D01*
X122500544Y-103512910D01*
X122420254Y-103464556D01*
X122354702Y-103424491D01*
X122302612Y-103391968D01*
X122262710Y-103366240D01*
X122233720Y-103346561D01*
X122214366Y-103332183D01*
X122203373Y-103322359D01*
X122202316Y-103321174D01*
X122180459Y-103299753D01*
X122159611Y-103299852D01*
X122126185Y-103323284D01*
X122114393Y-103332900D01*
X121967141Y-103429263D01*
X121797084Y-103497287D01*
X121778858Y-103500963D01*
X121778858Y-102504304D01*
X121762373Y-102404692D01*
X121740587Y-102357057D01*
X121694280Y-102304086D01*
X121625321Y-102255143D01*
X121549211Y-102219317D01*
X121482414Y-102205693D01*
X121435457Y-102214155D01*
X121374386Y-102235440D01*
X121350521Y-102246156D01*
X121267090Y-102304672D01*
X121213100Y-102380125D01*
X121186982Y-102465679D01*
X121187165Y-102554497D01*
X121212078Y-102639743D01*
X121260150Y-102714579D01*
X121329810Y-102772170D01*
X121419488Y-102805678D01*
X121480385Y-102811385D01*
X121578047Y-102796934D01*
X121637631Y-102767357D01*
X121714239Y-102694596D01*
X121762064Y-102603926D01*
X121778858Y-102504304D01*
X121778858Y-103500963D01*
X121610283Y-103534971D01*
X121480385Y-103542250D01*
X121283976Y-103527061D01*
X121107881Y-103480089D01*
X120946993Y-103399227D01*
X120796203Y-103282366D01*
X120755325Y-103243137D01*
X120624133Y-103086539D01*
X120528947Y-102915788D01*
X120470377Y-102732475D01*
X120449029Y-102538188D01*
X120451566Y-102449923D01*
X120481918Y-102251498D01*
X120545137Y-102072450D01*
X120643133Y-101908597D01*
X120761379Y-101771929D01*
X120912269Y-101647844D01*
X121082153Y-101557442D01*
X121268685Y-101501671D01*
X121469519Y-101481479D01*
X121480385Y-101481420D01*
X121682237Y-101499408D01*
X121869367Y-101553530D01*
X122041083Y-101643500D01*
X122196694Y-101769034D01*
X122209491Y-101781671D01*
X122336962Y-101935825D01*
X122431327Y-102107560D01*
X122490827Y-102292399D01*
X122513701Y-102485862D01*
X122512786Y-102553590D01*
X122506154Y-102693923D01*
X122580793Y-102723736D01*
X122617016Y-102741410D01*
X122681595Y-102776249D01*
X122769366Y-102825330D01*
X122875167Y-102885731D01*
X122993834Y-102954530D01*
X123120203Y-103028805D01*
X123127870Y-103033344D01*
X123222706Y-103089249D01*
X123343959Y-103160302D01*
X123489531Y-103245293D01*
X123657327Y-103343013D01*
X123845250Y-103452254D01*
X124051204Y-103571807D01*
X124273093Y-103700464D01*
X124508821Y-103837014D01*
X124756291Y-103980251D01*
X125013407Y-104128965D01*
X125278073Y-104281947D01*
X125548193Y-104437989D01*
X125821670Y-104595881D01*
X126096408Y-104754416D01*
X126370311Y-104912384D01*
X126641283Y-105068577D01*
X126907227Y-105221786D01*
X127166047Y-105370802D01*
X127415647Y-105514417D01*
X127653930Y-105651421D01*
X127878802Y-105780607D01*
X128088164Y-105900765D01*
X128279921Y-106010686D01*
X128451977Y-106109162D01*
X128602235Y-106194984D01*
X128728599Y-106266944D01*
X128828973Y-106323832D01*
X128901261Y-106364441D01*
X128943366Y-106387560D01*
X128953846Y-106392699D01*
X128972992Y-106383036D01*
X129023806Y-106355013D01*
X129104143Y-106309857D01*
X129211859Y-106248797D01*
X129344809Y-106173060D01*
X129500848Y-106083875D01*
X129677832Y-105982470D01*
X129873616Y-105870072D01*
X130086056Y-105747909D01*
X130313006Y-105617210D01*
X130552322Y-105479203D01*
X130801860Y-105335116D01*
X130907693Y-105273951D01*
X131161707Y-105127137D01*
X131406935Y-104985456D01*
X131641175Y-104850176D01*
X131862229Y-104722566D01*
X132067899Y-104603892D01*
X132255986Y-104495422D01*
X132424289Y-104398423D01*
X132570611Y-104314164D01*
X132692753Y-104243912D01*
X132788516Y-104188934D01*
X132855700Y-104150498D01*
X132892106Y-104129872D01*
X132897460Y-104126943D01*
X132976435Y-104103023D01*
X133071469Y-104098453D01*
X133165083Y-104112529D01*
X133233508Y-104140457D01*
X133327414Y-104218141D01*
X133387111Y-104314450D01*
X133412294Y-104418788D01*
X133412294Y-104418788D01*
G36*
X137451289Y-102492606D02*
X137444757Y-102641309D01*
X137422641Y-102777878D01*
X137407040Y-102833044D01*
X137325390Y-103017256D01*
X137212451Y-103179844D01*
X137071458Y-103317493D01*
X136905645Y-103426886D01*
X136768341Y-103487887D01*
X136715649Y-103502564D01*
X136715649Y-102541180D01*
X136709724Y-102437101D01*
X136674605Y-102350822D01*
X136616688Y-102284003D01*
X136542369Y-102238303D01*
X136458042Y-102215384D01*
X136370103Y-102216904D01*
X136284947Y-102244524D01*
X136208969Y-102299905D01*
X136148565Y-102384706D01*
X136144542Y-102392926D01*
X136118410Y-102487164D01*
X136125910Y-102577939D01*
X136161625Y-102660274D01*
X136220140Y-102729194D01*
X136296040Y-102779720D01*
X136383907Y-102806877D01*
X136478327Y-102805687D01*
X136562688Y-102777162D01*
X136644200Y-102717182D01*
X136694926Y-102634724D01*
X136715649Y-102541180D01*
X136715649Y-103502564D01*
X136685695Y-103510908D01*
X136583183Y-103529513D01*
X136474809Y-103542117D01*
X136374574Y-103547134D01*
X136296483Y-103542977D01*
X136290539Y-103542015D01*
X136087030Y-103488650D01*
X135903429Y-103404735D01*
X135742932Y-103292401D01*
X135608734Y-103153781D01*
X135526147Y-103031896D01*
X135445984Y-102853516D01*
X135401099Y-102664115D01*
X135391510Y-102469524D01*
X135417240Y-102275576D01*
X135478310Y-102088103D01*
X135522434Y-101998015D01*
X135582314Y-101910409D01*
X135666198Y-101815307D01*
X135763300Y-101723008D01*
X135862835Y-101643811D01*
X135949444Y-101590280D01*
X136065846Y-101531713D01*
X136060903Y-97829126D01*
X136060359Y-97451491D01*
X136059753Y-97084247D01*
X136059092Y-96729309D01*
X136058380Y-96388591D01*
X136057626Y-96064008D01*
X136056835Y-95757473D01*
X136056014Y-95470902D01*
X136055169Y-95206208D01*
X136054307Y-94965305D01*
X136053435Y-94750109D01*
X136052558Y-94562533D01*
X136051683Y-94404491D01*
X136050817Y-94277899D01*
X136049966Y-94184669D01*
X136049137Y-94126717D01*
X136048347Y-94105985D01*
X136030941Y-94093633D01*
X135981933Y-94062489D01*
X135903301Y-94013744D01*
X135797022Y-93948595D01*
X135665071Y-93868234D01*
X135509426Y-93773858D01*
X135332063Y-93666659D01*
X135134960Y-93547832D01*
X134920093Y-93418571D01*
X134689438Y-93280071D01*
X134444973Y-93133527D01*
X134188674Y-92980132D01*
X133922519Y-92821080D01*
X133849811Y-92777672D01*
X133526402Y-92584543D01*
X133234999Y-92410325D01*
X132973983Y-92254018D01*
X132741734Y-92114626D01*
X132536632Y-91991150D01*
X132357059Y-91882593D01*
X132201395Y-91787956D01*
X132068020Y-91706242D01*
X131955316Y-91636452D01*
X131861662Y-91577589D01*
X131785439Y-91528654D01*
X131725027Y-91488651D01*
X131678808Y-91456580D01*
X131645162Y-91431444D01*
X131622469Y-91412245D01*
X131609111Y-91397985D01*
X131607657Y-91395988D01*
X131567873Y-91312609D01*
X131545603Y-91212076D01*
X131544353Y-91113716D01*
X131550360Y-91079957D01*
X131576648Y-91024718D01*
X131624412Y-90961437D01*
X131682274Y-90903231D01*
X131737965Y-90863674D01*
X131804844Y-90842307D01*
X131889641Y-90832249D01*
X131972446Y-90835002D01*
X132011616Y-90843029D01*
X132033922Y-90854666D01*
X132087823Y-90885207D01*
X132171371Y-90933503D01*
X132282623Y-90998405D01*
X132419632Y-91078764D01*
X132580454Y-91173431D01*
X132763142Y-91281256D01*
X132965752Y-91401091D01*
X133186339Y-91531787D01*
X133422956Y-91672193D01*
X133673659Y-91821162D01*
X133936502Y-91977544D01*
X134209540Y-92140190D01*
X134419919Y-92265641D01*
X136779376Y-93673241D01*
X136774303Y-97602428D01*
X136769231Y-101531616D01*
X136897764Y-101594672D01*
X137048456Y-101689271D01*
X137183502Y-101814844D01*
X137297288Y-101964602D01*
X137384198Y-102131750D01*
X137416610Y-102222311D01*
X137441990Y-102347647D01*
X137451289Y-102492606D01*
X137451289Y-102492606D01*
X137451289Y-102492606D01*
G37*
X137451289Y-102492606D02*
X137444757Y-102641309D01*
X137422641Y-102777878D01*
X137407040Y-102833044D01*
X137325390Y-103017256D01*
X137212451Y-103179844D01*
X137071458Y-103317493D01*
X136905645Y-103426886D01*
X136768341Y-103487887D01*
X136715649Y-103502564D01*
X136715649Y-102541180D01*
X136709724Y-102437101D01*
X136674605Y-102350822D01*
X136616688Y-102284003D01*
X136542369Y-102238303D01*
X136458042Y-102215384D01*
X136370103Y-102216904D01*
X136284947Y-102244524D01*
X136208969Y-102299905D01*
X136148565Y-102384706D01*
X136144542Y-102392926D01*
X136118410Y-102487164D01*
X136125910Y-102577939D01*
X136161625Y-102660274D01*
X136220140Y-102729194D01*
X136296040Y-102779720D01*
X136383907Y-102806877D01*
X136478327Y-102805687D01*
X136562688Y-102777162D01*
X136644200Y-102717182D01*
X136694926Y-102634724D01*
X136715649Y-102541180D01*
X136715649Y-103502564D01*
X136685695Y-103510908D01*
X136583183Y-103529513D01*
X136474809Y-103542117D01*
X136374574Y-103547134D01*
X136296483Y-103542977D01*
X136290539Y-103542015D01*
X136087030Y-103488650D01*
X135903429Y-103404735D01*
X135742932Y-103292401D01*
X135608734Y-103153781D01*
X135526147Y-103031896D01*
X135445984Y-102853516D01*
X135401099Y-102664115D01*
X135391510Y-102469524D01*
X135417240Y-102275576D01*
X135478310Y-102088103D01*
X135522434Y-101998015D01*
X135582314Y-101910409D01*
X135666198Y-101815307D01*
X135763300Y-101723008D01*
X135862835Y-101643811D01*
X135949444Y-101590280D01*
X136065846Y-101531713D01*
X136060903Y-97829126D01*
X136060359Y-97451491D01*
X136059753Y-97084247D01*
X136059092Y-96729309D01*
X136058380Y-96388591D01*
X136057626Y-96064008D01*
X136056835Y-95757473D01*
X136056014Y-95470902D01*
X136055169Y-95206208D01*
X136054307Y-94965305D01*
X136053435Y-94750109D01*
X136052558Y-94562533D01*
X136051683Y-94404491D01*
X136050817Y-94277899D01*
X136049966Y-94184669D01*
X136049137Y-94126717D01*
X136048347Y-94105985D01*
X136030941Y-94093633D01*
X135981933Y-94062489D01*
X135903301Y-94013744D01*
X135797022Y-93948595D01*
X135665071Y-93868234D01*
X135509426Y-93773858D01*
X135332063Y-93666659D01*
X135134960Y-93547832D01*
X134920093Y-93418571D01*
X134689438Y-93280071D01*
X134444973Y-93133527D01*
X134188674Y-92980132D01*
X133922519Y-92821080D01*
X133849811Y-92777672D01*
X133526402Y-92584543D01*
X133234999Y-92410325D01*
X132973983Y-92254018D01*
X132741734Y-92114626D01*
X132536632Y-91991150D01*
X132357059Y-91882593D01*
X132201395Y-91787956D01*
X132068020Y-91706242D01*
X131955316Y-91636452D01*
X131861662Y-91577589D01*
X131785439Y-91528654D01*
X131725027Y-91488651D01*
X131678808Y-91456580D01*
X131645162Y-91431444D01*
X131622469Y-91412245D01*
X131609111Y-91397985D01*
X131607657Y-91395988D01*
X131567873Y-91312609D01*
X131545603Y-91212076D01*
X131544353Y-91113716D01*
X131550360Y-91079957D01*
X131576648Y-91024718D01*
X131624412Y-90961437D01*
X131682274Y-90903231D01*
X131737965Y-90863674D01*
X131804844Y-90842307D01*
X131889641Y-90832249D01*
X131972446Y-90835002D01*
X132011616Y-90843029D01*
X132033922Y-90854666D01*
X132087823Y-90885207D01*
X132171371Y-90933503D01*
X132282623Y-90998405D01*
X132419632Y-91078764D01*
X132580454Y-91173431D01*
X132763142Y-91281256D01*
X132965752Y-91401091D01*
X133186339Y-91531787D01*
X133422956Y-91672193D01*
X133673659Y-91821162D01*
X133936502Y-91977544D01*
X134209540Y-92140190D01*
X134419919Y-92265641D01*
X136779376Y-93673241D01*
X136774303Y-97602428D01*
X136769231Y-101531616D01*
X136897764Y-101594672D01*
X137048456Y-101689271D01*
X137183502Y-101814844D01*
X137297288Y-101964602D01*
X137384198Y-102131750D01*
X137416610Y-102222311D01*
X137441990Y-102347647D01*
X137451289Y-102492606D01*
X137451289Y-102492606D01*
G36*
X129981554Y-89427539D02*
X129963047Y-89626397D01*
X129909340Y-89813029D01*
X129823158Y-89983632D01*
X129707226Y-90134407D01*
X129564268Y-90261551D01*
X129397007Y-90361265D01*
X129278117Y-90409046D01*
X129256371Y-90413950D01*
X129256371Y-89423432D01*
X129240118Y-89343656D01*
X129198250Y-89261816D01*
X129140001Y-89193529D01*
X129105317Y-89167978D01*
X129010830Y-89133969D01*
X128910256Y-89133450D01*
X128813519Y-89164268D01*
X128730541Y-89224268D01*
X128704045Y-89255122D01*
X128669544Y-89329030D01*
X128656111Y-89419622D01*
X128664840Y-89509993D01*
X128684111Y-89562919D01*
X128747905Y-89645707D01*
X128832483Y-89700282D01*
X128929607Y-89724603D01*
X129031041Y-89716626D01*
X129128548Y-89674312D01*
X129129882Y-89673442D01*
X129180367Y-89622950D01*
X129223463Y-89549776D01*
X129250881Y-89470302D01*
X129256371Y-89423432D01*
X129256371Y-90413950D01*
X129096925Y-90449912D01*
X128907725Y-90457119D01*
X128718744Y-90431946D01*
X128538210Y-90375672D01*
X128374350Y-90289577D01*
X128335475Y-90262452D01*
X128281810Y-90222776D01*
X128215537Y-90279426D01*
X128192135Y-90295133D01*
X128136834Y-90329797D01*
X128051322Y-90382404D01*
X127937290Y-90451937D01*
X127796424Y-90537381D01*
X127630414Y-90637722D01*
X127440949Y-90751945D01*
X127229716Y-90879033D01*
X126998406Y-91017973D01*
X126748705Y-91167748D01*
X126482303Y-91327343D01*
X126200889Y-91495744D01*
X125906151Y-91671935D01*
X125599777Y-91854901D01*
X125283457Y-92043626D01*
X125001386Y-92211770D01*
X121853509Y-94087462D01*
X121852133Y-96207385D01*
X121851897Y-96541206D01*
X121851621Y-96838196D01*
X121851265Y-97100600D01*
X121850790Y-97330665D01*
X121850155Y-97530636D01*
X121849322Y-97702760D01*
X121848252Y-97849280D01*
X121846903Y-97972445D01*
X121845238Y-98074499D01*
X121843215Y-98157687D01*
X121840796Y-98224257D01*
X121837942Y-98276454D01*
X121834612Y-98316522D01*
X121830767Y-98346709D01*
X121826367Y-98369261D01*
X121821373Y-98386421D01*
X121815745Y-98400438D01*
X121813406Y-98405462D01*
X121760831Y-98497566D01*
X121702159Y-98560867D01*
X121642547Y-98598737D01*
X121565518Y-98621831D01*
X121471995Y-98628187D01*
X121380899Y-98617582D01*
X121333846Y-98602353D01*
X121236760Y-98537764D01*
X121160278Y-98441602D01*
X121153324Y-98429318D01*
X121148151Y-98418151D01*
X121143521Y-98403207D01*
X121139406Y-98382380D01*
X121135775Y-98353565D01*
X121132598Y-98314655D01*
X121129845Y-98263544D01*
X121127486Y-98198126D01*
X121125491Y-98116295D01*
X121123829Y-98015945D01*
X121122471Y-97894969D01*
X121121386Y-97751263D01*
X121120545Y-97582719D01*
X121119917Y-97387232D01*
X121119473Y-97162695D01*
X121119181Y-96907003D01*
X121119013Y-96618050D01*
X121118937Y-96293728D01*
X121118923Y-96021849D01*
X121118923Y-93677312D01*
X124478558Y-91670794D01*
X124812280Y-91471553D01*
X125137334Y-91277626D01*
X125452108Y-91089969D01*
X125754991Y-90909539D01*
X126044370Y-90737291D01*
X126318632Y-90574181D01*
X126576166Y-90421166D01*
X126815359Y-90279202D01*
X127034600Y-90149244D01*
X127232275Y-90032250D01*
X127406772Y-89929173D01*
X127556480Y-89840972D01*
X127679785Y-89768602D01*
X127775076Y-89713018D01*
X127840741Y-89675178D01*
X127875167Y-89656037D01*
X127879939Y-89653799D01*
X127898742Y-89646598D01*
X127910829Y-89631429D01*
X127917645Y-89600896D01*
X127920636Y-89547602D01*
X127921247Y-89464151D01*
X127921210Y-89442622D01*
X127933936Y-89247648D01*
X127974849Y-89075725D01*
X128046566Y-88920352D01*
X128151704Y-88775029D01*
X128219248Y-88702479D01*
X128373153Y-88574148D01*
X128541371Y-88479696D01*
X128719446Y-88419146D01*
X128902922Y-88392524D01*
X129087340Y-88399854D01*
X129268246Y-88441162D01*
X129441180Y-88516471D01*
X129601688Y-88625807D01*
X129677029Y-88694382D01*
X129807378Y-88848714D01*
X129900846Y-89015058D01*
X129958422Y-89195801D01*
X129981098Y-89393326D01*
X129981554Y-89427539D01*
X129981554Y-89427539D01*
X129981554Y-89427539D01*
G37*
X129981554Y-89427539D02*
X129963047Y-89626397D01*
X129909340Y-89813029D01*
X129823158Y-89983632D01*
X129707226Y-90134407D01*
X129564268Y-90261551D01*
X129397007Y-90361265D01*
X129278117Y-90409046D01*
X129256371Y-90413950D01*
X129256371Y-89423432D01*
X129240118Y-89343656D01*
X129198250Y-89261816D01*
X129140001Y-89193529D01*
X129105317Y-89167978D01*
X129010830Y-89133969D01*
X128910256Y-89133450D01*
X128813519Y-89164268D01*
X128730541Y-89224268D01*
X128704045Y-89255122D01*
X128669544Y-89329030D01*
X128656111Y-89419622D01*
X128664840Y-89509993D01*
X128684111Y-89562919D01*
X128747905Y-89645707D01*
X128832483Y-89700282D01*
X128929607Y-89724603D01*
X129031041Y-89716626D01*
X129128548Y-89674312D01*
X129129882Y-89673442D01*
X129180367Y-89622950D01*
X129223463Y-89549776D01*
X129250881Y-89470302D01*
X129256371Y-89423432D01*
X129256371Y-90413950D01*
X129096925Y-90449912D01*
X128907725Y-90457119D01*
X128718744Y-90431946D01*
X128538210Y-90375672D01*
X128374350Y-90289577D01*
X128335475Y-90262452D01*
X128281810Y-90222776D01*
X128215537Y-90279426D01*
X128192135Y-90295133D01*
X128136834Y-90329797D01*
X128051322Y-90382404D01*
X127937290Y-90451937D01*
X127796424Y-90537381D01*
X127630414Y-90637722D01*
X127440949Y-90751945D01*
X127229716Y-90879033D01*
X126998406Y-91017973D01*
X126748705Y-91167748D01*
X126482303Y-91327343D01*
X126200889Y-91495744D01*
X125906151Y-91671935D01*
X125599777Y-91854901D01*
X125283457Y-92043626D01*
X125001386Y-92211770D01*
X121853509Y-94087462D01*
X121852133Y-96207385D01*
X121851897Y-96541206D01*
X121851621Y-96838196D01*
X121851265Y-97100600D01*
X121850790Y-97330665D01*
X121850155Y-97530636D01*
X121849322Y-97702760D01*
X121848252Y-97849280D01*
X121846903Y-97972445D01*
X121845238Y-98074499D01*
X121843215Y-98157687D01*
X121840796Y-98224257D01*
X121837942Y-98276454D01*
X121834612Y-98316522D01*
X121830767Y-98346709D01*
X121826367Y-98369261D01*
X121821373Y-98386421D01*
X121815745Y-98400438D01*
X121813406Y-98405462D01*
X121760831Y-98497566D01*
X121702159Y-98560867D01*
X121642547Y-98598737D01*
X121565518Y-98621831D01*
X121471995Y-98628187D01*
X121380899Y-98617582D01*
X121333846Y-98602353D01*
X121236760Y-98537764D01*
X121160278Y-98441602D01*
X121153324Y-98429318D01*
X121148151Y-98418151D01*
X121143521Y-98403207D01*
X121139406Y-98382380D01*
X121135775Y-98353565D01*
X121132598Y-98314655D01*
X121129845Y-98263544D01*
X121127486Y-98198126D01*
X121125491Y-98116295D01*
X121123829Y-98015945D01*
X121122471Y-97894969D01*
X121121386Y-97751263D01*
X121120545Y-97582719D01*
X121119917Y-97387232D01*
X121119473Y-97162695D01*
X121119181Y-96907003D01*
X121119013Y-96618050D01*
X121118937Y-96293728D01*
X121118923Y-96021849D01*
X121118923Y-93677312D01*
X124478558Y-91670794D01*
X124812280Y-91471553D01*
X125137334Y-91277626D01*
X125452108Y-91089969D01*
X125754991Y-90909539D01*
X126044370Y-90737291D01*
X126318632Y-90574181D01*
X126576166Y-90421166D01*
X126815359Y-90279202D01*
X127034600Y-90149244D01*
X127232275Y-90032250D01*
X127406772Y-89929173D01*
X127556480Y-89840972D01*
X127679785Y-89768602D01*
X127775076Y-89713018D01*
X127840741Y-89675178D01*
X127875167Y-89656037D01*
X127879939Y-89653799D01*
X127898742Y-89646598D01*
X127910829Y-89631429D01*
X127917645Y-89600896D01*
X127920636Y-89547602D01*
X127921247Y-89464151D01*
X127921210Y-89442622D01*
X127933936Y-89247648D01*
X127974849Y-89075725D01*
X128046566Y-88920352D01*
X128151704Y-88775029D01*
X128219248Y-88702479D01*
X128373153Y-88574148D01*
X128541371Y-88479696D01*
X128719446Y-88419146D01*
X128902922Y-88392524D01*
X129087340Y-88399854D01*
X129268246Y-88441162D01*
X129441180Y-88516471D01*
X129601688Y-88625807D01*
X129677029Y-88694382D01*
X129807378Y-88848714D01*
X129900846Y-89015058D01*
X129958422Y-89195801D01*
X129981098Y-89393326D01*
X129981554Y-89427539D01*
X129981554Y-89427539D01*
X101814381Y-113363333D02*
X102528667Y-113363333D01*
X102671524Y-113410953D01*
X102766762Y-113506191D01*
X102814381Y-113649048D01*
X102814381Y-113744286D01*
X102814381Y-112363333D02*
X102814381Y-112934762D01*
X102814381Y-112649048D02*
X101814381Y-112649048D01*
X101957238Y-112744286D01*
X102052476Y-112839524D01*
X102100095Y-112934762D01*
X104656000Y-101717857D02*
X104608381Y-101770238D01*
X104608381Y-101848810D01*
X104656000Y-101927381D01*
X104751238Y-101979762D01*
X104846476Y-102005953D01*
X105036952Y-102032143D01*
X105179810Y-102032143D01*
X105370286Y-102005953D01*
X105465524Y-101979762D01*
X105560762Y-101927381D01*
X105608381Y-101848810D01*
X105608381Y-101796429D01*
X105560762Y-101717857D01*
X105513143Y-101691667D01*
X105179810Y-101691667D01*
X105179810Y-101796429D01*
X104608381Y-101508334D02*
X104608381Y-101167857D01*
X104989333Y-101351191D01*
X104989333Y-101272619D01*
X105036952Y-101220238D01*
X105084571Y-101194048D01*
X105179810Y-101167857D01*
X105417905Y-101167857D01*
X105513143Y-101194048D01*
X105560762Y-101220238D01*
X105608381Y-101272619D01*
X105608381Y-101429762D01*
X105560762Y-101482143D01*
X105513143Y-101508334D01*
X104656000Y-105082857D02*
X104608381Y-105135238D01*
X104608381Y-105213810D01*
X104656000Y-105292381D01*
X104751238Y-105344762D01*
X104846476Y-105370953D01*
X105036952Y-105397143D01*
X105179810Y-105397143D01*
X105370286Y-105370953D01*
X105465524Y-105344762D01*
X105560762Y-105292381D01*
X105608381Y-105213810D01*
X105608381Y-105161429D01*
X105560762Y-105082857D01*
X105513143Y-105056667D01*
X105179810Y-105056667D01*
X105179810Y-105161429D01*
X104703619Y-104847143D02*
X104656000Y-104820953D01*
X104608381Y-104768572D01*
X104608381Y-104637619D01*
X104656000Y-104585238D01*
X104703619Y-104559048D01*
X104798857Y-104532857D01*
X104894095Y-104532857D01*
X105036952Y-104559048D01*
X105608381Y-104873334D01*
X105608381Y-104532857D01*
X104560762Y-103904285D02*
X105846476Y-104375714D01*
X105608381Y-103406667D02*
X105132190Y-103590000D01*
X105608381Y-103720953D02*
X104608381Y-103720953D01*
X104608381Y-103511429D01*
X104656000Y-103459048D01*
X104703619Y-103432857D01*
X104798857Y-103406667D01*
X104941714Y-103406667D01*
X105036952Y-103432857D01*
X105084571Y-103459048D01*
X105132190Y-103511429D01*
X105132190Y-103720953D01*
X104608381Y-103223334D02*
X105608381Y-102856667D01*
X104608381Y-102856667D02*
X105608381Y-103223334D01*
X104656000Y-107557381D02*
X104608381Y-107609762D01*
X104608381Y-107688334D01*
X104656000Y-107766905D01*
X104751238Y-107819286D01*
X104846476Y-107845477D01*
X105036952Y-107871667D01*
X105179810Y-107871667D01*
X105370286Y-107845477D01*
X105465524Y-107819286D01*
X105560762Y-107766905D01*
X105608381Y-107688334D01*
X105608381Y-107635953D01*
X105560762Y-107557381D01*
X105513143Y-107531191D01*
X105179810Y-107531191D01*
X105179810Y-107635953D01*
X105608381Y-107007381D02*
X105608381Y-107321667D01*
X105608381Y-107164524D02*
X104608381Y-107164524D01*
X104751238Y-107216905D01*
X104846476Y-107269286D01*
X104894095Y-107321667D01*
X104560762Y-106378809D02*
X105846476Y-106850238D01*
X104608381Y-106274048D02*
X104608381Y-105959762D01*
X105608381Y-106116905D02*
X104608381Y-106116905D01*
X104608381Y-105828810D02*
X105608381Y-105462143D01*
X104608381Y-105462143D02*
X105608381Y-105828810D01*
X105608381Y-110084286D02*
X104608381Y-110084286D01*
X105322667Y-109900952D01*
X104608381Y-109717619D01*
X105608381Y-109717619D01*
X104608381Y-109350953D02*
X104608381Y-109246191D01*
X104656000Y-109193810D01*
X104751238Y-109141429D01*
X104941714Y-109115238D01*
X105275048Y-109115238D01*
X105465524Y-109141429D01*
X105560762Y-109193810D01*
X105608381Y-109246191D01*
X105608381Y-109350953D01*
X105560762Y-109403334D01*
X105465524Y-109455715D01*
X105275048Y-109481905D01*
X104941714Y-109481905D01*
X104751238Y-109455715D01*
X104656000Y-109403334D01*
X104608381Y-109350953D01*
X105560762Y-108905715D02*
X105608381Y-108827144D01*
X105608381Y-108696191D01*
X105560762Y-108643810D01*
X105513143Y-108617620D01*
X105417905Y-108591429D01*
X105322667Y-108591429D01*
X105227429Y-108617620D01*
X105179810Y-108643810D01*
X105132190Y-108696191D01*
X105084571Y-108800953D01*
X105036952Y-108853334D01*
X104989333Y-108879525D01*
X104894095Y-108905715D01*
X104798857Y-108905715D01*
X104703619Y-108879525D01*
X104656000Y-108853334D01*
X104608381Y-108800953D01*
X104608381Y-108670001D01*
X104656000Y-108591429D01*
X105608381Y-108355715D02*
X104608381Y-108355715D01*
X105608381Y-112624286D02*
X104608381Y-112624286D01*
X105322667Y-112440952D01*
X104608381Y-112257619D01*
X105608381Y-112257619D01*
X105608381Y-111995715D02*
X104608381Y-111995715D01*
X105560762Y-111760000D02*
X105608381Y-111681429D01*
X105608381Y-111550476D01*
X105560762Y-111498095D01*
X105513143Y-111471905D01*
X105417905Y-111445714D01*
X105322667Y-111445714D01*
X105227429Y-111471905D01*
X105179810Y-111498095D01*
X105132190Y-111550476D01*
X105084571Y-111655238D01*
X105036952Y-111707619D01*
X104989333Y-111733810D01*
X104894095Y-111760000D01*
X104798857Y-111760000D01*
X104703619Y-111733810D01*
X104656000Y-111707619D01*
X104608381Y-111655238D01*
X104608381Y-111524286D01*
X104656000Y-111445714D01*
X104608381Y-111105238D02*
X104608381Y-111000476D01*
X104656000Y-110948095D01*
X104751238Y-110895714D01*
X104941714Y-110869523D01*
X105275048Y-110869523D01*
X105465524Y-110895714D01*
X105560762Y-110948095D01*
X105608381Y-111000476D01*
X105608381Y-111105238D01*
X105560762Y-111157619D01*
X105465524Y-111210000D01*
X105275048Y-111236190D01*
X104941714Y-111236190D01*
X104751238Y-111210000D01*
X104656000Y-111157619D01*
X104608381Y-111105238D01*
X105560762Y-115007143D02*
X105608381Y-114928572D01*
X105608381Y-114797619D01*
X105560762Y-114745238D01*
X105513143Y-114719048D01*
X105417905Y-114692857D01*
X105322667Y-114692857D01*
X105227429Y-114719048D01*
X105179810Y-114745238D01*
X105132190Y-114797619D01*
X105084571Y-114902381D01*
X105036952Y-114954762D01*
X104989333Y-114980953D01*
X104894095Y-115007143D01*
X104798857Y-115007143D01*
X104703619Y-114980953D01*
X104656000Y-114954762D01*
X104608381Y-114902381D01*
X104608381Y-114771429D01*
X104656000Y-114692857D01*
X105513143Y-114142857D02*
X105560762Y-114169047D01*
X105608381Y-114247619D01*
X105608381Y-114300000D01*
X105560762Y-114378571D01*
X105465524Y-114430952D01*
X105370286Y-114457143D01*
X105179810Y-114483333D01*
X105036952Y-114483333D01*
X104846476Y-114457143D01*
X104751238Y-114430952D01*
X104656000Y-114378571D01*
X104608381Y-114300000D01*
X104608381Y-114247619D01*
X104656000Y-114169047D01*
X104703619Y-114142857D01*
X105608381Y-113907143D02*
X104608381Y-113907143D01*
X105608381Y-113592857D02*
X105036952Y-113828571D01*
X104608381Y-113592857D02*
X105179810Y-113907143D01*
X105560762Y-117507857D02*
X105608381Y-117429286D01*
X105608381Y-117298333D01*
X105560762Y-117245952D01*
X105513143Y-117219762D01*
X105417905Y-117193571D01*
X105322667Y-117193571D01*
X105227429Y-117219762D01*
X105179810Y-117245952D01*
X105132190Y-117298333D01*
X105084571Y-117403095D01*
X105036952Y-117455476D01*
X104989333Y-117481667D01*
X104894095Y-117507857D01*
X104798857Y-117507857D01*
X104703619Y-117481667D01*
X104656000Y-117455476D01*
X104608381Y-117403095D01*
X104608381Y-117272143D01*
X104656000Y-117193571D01*
X105608381Y-116957857D02*
X104608381Y-116957857D01*
X104608381Y-116826904D01*
X104656000Y-116748333D01*
X104751238Y-116695952D01*
X104846476Y-116669761D01*
X105036952Y-116643571D01*
X105179810Y-116643571D01*
X105370286Y-116669761D01*
X105465524Y-116695952D01*
X105560762Y-116748333D01*
X105608381Y-116826904D01*
X105608381Y-116957857D01*
X105322667Y-116434047D02*
X105322667Y-116172142D01*
X105608381Y-116486428D02*
X104608381Y-116303095D01*
X105608381Y-116119761D01*
X105560762Y-120034762D02*
X105608381Y-119956191D01*
X105608381Y-119825238D01*
X105560762Y-119772857D01*
X105513143Y-119746667D01*
X105417905Y-119720476D01*
X105322667Y-119720476D01*
X105227429Y-119746667D01*
X105179810Y-119772857D01*
X105132190Y-119825238D01*
X105084571Y-119930000D01*
X105036952Y-119982381D01*
X104989333Y-120008572D01*
X104894095Y-120034762D01*
X104798857Y-120034762D01*
X104703619Y-120008572D01*
X104656000Y-119982381D01*
X104608381Y-119930000D01*
X104608381Y-119799048D01*
X104656000Y-119720476D01*
X105513143Y-119170476D02*
X105560762Y-119196666D01*
X105608381Y-119275238D01*
X105608381Y-119327619D01*
X105560762Y-119406190D01*
X105465524Y-119458571D01*
X105370286Y-119484762D01*
X105179810Y-119510952D01*
X105036952Y-119510952D01*
X104846476Y-119484762D01*
X104751238Y-119458571D01*
X104656000Y-119406190D01*
X104608381Y-119327619D01*
X104608381Y-119275238D01*
X104656000Y-119196666D01*
X104703619Y-119170476D01*
X105608381Y-118672857D02*
X105608381Y-118934762D01*
X104608381Y-118934762D01*
X104608381Y-122600953D02*
X104608381Y-122260476D01*
X104989333Y-122443810D01*
X104989333Y-122365238D01*
X105036952Y-122312857D01*
X105084571Y-122286667D01*
X105179810Y-122260476D01*
X105417905Y-122260476D01*
X105513143Y-122286667D01*
X105560762Y-122312857D01*
X105608381Y-122365238D01*
X105608381Y-122522381D01*
X105560762Y-122574762D01*
X105513143Y-122600953D01*
X104608381Y-122103333D02*
X105608381Y-121920000D01*
X104608381Y-121736666D01*
X104608381Y-121605714D02*
X104608381Y-121265237D01*
X104989333Y-121448571D01*
X104989333Y-121369999D01*
X105036952Y-121317618D01*
X105084571Y-121291428D01*
X105179810Y-121265237D01*
X105417905Y-121265237D01*
X105513143Y-121291428D01*
X105560762Y-121317618D01*
X105608381Y-121369999D01*
X105608381Y-121527142D01*
X105560762Y-121579523D01*
X105513143Y-121605714D01*
X104656000Y-124879047D02*
X104608381Y-124931428D01*
X104608381Y-125010000D01*
X104656000Y-125088571D01*
X104751238Y-125140952D01*
X104846476Y-125167143D01*
X105036952Y-125193333D01*
X105179810Y-125193333D01*
X105370286Y-125167143D01*
X105465524Y-125140952D01*
X105560762Y-125088571D01*
X105608381Y-125010000D01*
X105608381Y-124957619D01*
X105560762Y-124879047D01*
X105513143Y-124852857D01*
X105179810Y-124852857D01*
X105179810Y-124957619D01*
X105608381Y-124617143D02*
X104608381Y-124617143D01*
X105608381Y-124302857D01*
X104608381Y-124302857D01*
X105608381Y-124040953D02*
X104608381Y-124040953D01*
X104608381Y-123910000D01*
X104656000Y-123831429D01*
X104751238Y-123779048D01*
X104846476Y-123752857D01*
X105036952Y-123726667D01*
X105179810Y-123726667D01*
X105370286Y-123752857D01*
X105465524Y-123779048D01*
X105560762Y-123831429D01*
X105608381Y-123910000D01*
X105608381Y-124040953D01*
X101814381Y-82883333D02*
X102528667Y-82883333D01*
X102671524Y-82930953D01*
X102766762Y-83026191D01*
X102814381Y-83169048D01*
X102814381Y-83264286D01*
X101909619Y-82454762D02*
X101862000Y-82407143D01*
X101814381Y-82311905D01*
X101814381Y-82073809D01*
X101862000Y-81978571D01*
X101909619Y-81930952D01*
X102004857Y-81883333D01*
X102100095Y-81883333D01*
X102242952Y-81930952D01*
X102814381Y-82502381D01*
X102814381Y-81883333D01*
X104656000Y-71237857D02*
X104608381Y-71290238D01*
X104608381Y-71368810D01*
X104656000Y-71447381D01*
X104751238Y-71499762D01*
X104846476Y-71525953D01*
X105036952Y-71552143D01*
X105179810Y-71552143D01*
X105370286Y-71525953D01*
X105465524Y-71499762D01*
X105560762Y-71447381D01*
X105608381Y-71368810D01*
X105608381Y-71316429D01*
X105560762Y-71237857D01*
X105513143Y-71211667D01*
X105179810Y-71211667D01*
X105179810Y-71316429D01*
X104608381Y-71028334D02*
X104608381Y-70687857D01*
X104989333Y-70871191D01*
X104989333Y-70792619D01*
X105036952Y-70740238D01*
X105084571Y-70714048D01*
X105179810Y-70687857D01*
X105417905Y-70687857D01*
X105513143Y-70714048D01*
X105560762Y-70740238D01*
X105608381Y-70792619D01*
X105608381Y-70949762D01*
X105560762Y-71002143D01*
X105513143Y-71028334D01*
X104656000Y-74602857D02*
X104608381Y-74655238D01*
X104608381Y-74733810D01*
X104656000Y-74812381D01*
X104751238Y-74864762D01*
X104846476Y-74890953D01*
X105036952Y-74917143D01*
X105179810Y-74917143D01*
X105370286Y-74890953D01*
X105465524Y-74864762D01*
X105560762Y-74812381D01*
X105608381Y-74733810D01*
X105608381Y-74681429D01*
X105560762Y-74602857D01*
X105513143Y-74576667D01*
X105179810Y-74576667D01*
X105179810Y-74681429D01*
X104703619Y-74367143D02*
X104656000Y-74340953D01*
X104608381Y-74288572D01*
X104608381Y-74157619D01*
X104656000Y-74105238D01*
X104703619Y-74079048D01*
X104798857Y-74052857D01*
X104894095Y-74052857D01*
X105036952Y-74079048D01*
X105608381Y-74393334D01*
X105608381Y-74052857D01*
X104560762Y-73424285D02*
X105846476Y-73895714D01*
X105608381Y-72926667D02*
X105132190Y-73110000D01*
X105608381Y-73240953D02*
X104608381Y-73240953D01*
X104608381Y-73031429D01*
X104656000Y-72979048D01*
X104703619Y-72952857D01*
X104798857Y-72926667D01*
X104941714Y-72926667D01*
X105036952Y-72952857D01*
X105084571Y-72979048D01*
X105132190Y-73031429D01*
X105132190Y-73240953D01*
X104608381Y-72743334D02*
X105608381Y-72376667D01*
X104608381Y-72376667D02*
X105608381Y-72743334D01*
X104656000Y-77077381D02*
X104608381Y-77129762D01*
X104608381Y-77208334D01*
X104656000Y-77286905D01*
X104751238Y-77339286D01*
X104846476Y-77365477D01*
X105036952Y-77391667D01*
X105179810Y-77391667D01*
X105370286Y-77365477D01*
X105465524Y-77339286D01*
X105560762Y-77286905D01*
X105608381Y-77208334D01*
X105608381Y-77155953D01*
X105560762Y-77077381D01*
X105513143Y-77051191D01*
X105179810Y-77051191D01*
X105179810Y-77155953D01*
X105608381Y-76527381D02*
X105608381Y-76841667D01*
X105608381Y-76684524D02*
X104608381Y-76684524D01*
X104751238Y-76736905D01*
X104846476Y-76789286D01*
X104894095Y-76841667D01*
X104560762Y-75898809D02*
X105846476Y-76370238D01*
X104608381Y-75794048D02*
X104608381Y-75479762D01*
X105608381Y-75636905D02*
X104608381Y-75636905D01*
X104608381Y-75348810D02*
X105608381Y-74982143D01*
X104608381Y-74982143D02*
X105608381Y-75348810D01*
X105608381Y-79604286D02*
X104608381Y-79604286D01*
X105322667Y-79420952D01*
X104608381Y-79237619D01*
X105608381Y-79237619D01*
X104608381Y-78870953D02*
X104608381Y-78766191D01*
X104656000Y-78713810D01*
X104751238Y-78661429D01*
X104941714Y-78635238D01*
X105275048Y-78635238D01*
X105465524Y-78661429D01*
X105560762Y-78713810D01*
X105608381Y-78766191D01*
X105608381Y-78870953D01*
X105560762Y-78923334D01*
X105465524Y-78975715D01*
X105275048Y-79001905D01*
X104941714Y-79001905D01*
X104751238Y-78975715D01*
X104656000Y-78923334D01*
X104608381Y-78870953D01*
X105560762Y-78425715D02*
X105608381Y-78347144D01*
X105608381Y-78216191D01*
X105560762Y-78163810D01*
X105513143Y-78137620D01*
X105417905Y-78111429D01*
X105322667Y-78111429D01*
X105227429Y-78137620D01*
X105179810Y-78163810D01*
X105132190Y-78216191D01*
X105084571Y-78320953D01*
X105036952Y-78373334D01*
X104989333Y-78399525D01*
X104894095Y-78425715D01*
X104798857Y-78425715D01*
X104703619Y-78399525D01*
X104656000Y-78373334D01*
X104608381Y-78320953D01*
X104608381Y-78190001D01*
X104656000Y-78111429D01*
X105608381Y-77875715D02*
X104608381Y-77875715D01*
X105608381Y-82144286D02*
X104608381Y-82144286D01*
X105322667Y-81960952D01*
X104608381Y-81777619D01*
X105608381Y-81777619D01*
X105608381Y-81515715D02*
X104608381Y-81515715D01*
X105560762Y-81280000D02*
X105608381Y-81201429D01*
X105608381Y-81070476D01*
X105560762Y-81018095D01*
X105513143Y-80991905D01*
X105417905Y-80965714D01*
X105322667Y-80965714D01*
X105227429Y-80991905D01*
X105179810Y-81018095D01*
X105132190Y-81070476D01*
X105084571Y-81175238D01*
X105036952Y-81227619D01*
X104989333Y-81253810D01*
X104894095Y-81280000D01*
X104798857Y-81280000D01*
X104703619Y-81253810D01*
X104656000Y-81227619D01*
X104608381Y-81175238D01*
X104608381Y-81044286D01*
X104656000Y-80965714D01*
X104608381Y-80625238D02*
X104608381Y-80520476D01*
X104656000Y-80468095D01*
X104751238Y-80415714D01*
X104941714Y-80389523D01*
X105275048Y-80389523D01*
X105465524Y-80415714D01*
X105560762Y-80468095D01*
X105608381Y-80520476D01*
X105608381Y-80625238D01*
X105560762Y-80677619D01*
X105465524Y-80730000D01*
X105275048Y-80756190D01*
X104941714Y-80756190D01*
X104751238Y-80730000D01*
X104656000Y-80677619D01*
X104608381Y-80625238D01*
X105560762Y-84527143D02*
X105608381Y-84448572D01*
X105608381Y-84317619D01*
X105560762Y-84265238D01*
X105513143Y-84239048D01*
X105417905Y-84212857D01*
X105322667Y-84212857D01*
X105227429Y-84239048D01*
X105179810Y-84265238D01*
X105132190Y-84317619D01*
X105084571Y-84422381D01*
X105036952Y-84474762D01*
X104989333Y-84500953D01*
X104894095Y-84527143D01*
X104798857Y-84527143D01*
X104703619Y-84500953D01*
X104656000Y-84474762D01*
X104608381Y-84422381D01*
X104608381Y-84291429D01*
X104656000Y-84212857D01*
X105513143Y-83662857D02*
X105560762Y-83689047D01*
X105608381Y-83767619D01*
X105608381Y-83820000D01*
X105560762Y-83898571D01*
X105465524Y-83950952D01*
X105370286Y-83977143D01*
X105179810Y-84003333D01*
X105036952Y-84003333D01*
X104846476Y-83977143D01*
X104751238Y-83950952D01*
X104656000Y-83898571D01*
X104608381Y-83820000D01*
X104608381Y-83767619D01*
X104656000Y-83689047D01*
X104703619Y-83662857D01*
X105608381Y-83427143D02*
X104608381Y-83427143D01*
X105608381Y-83112857D02*
X105036952Y-83348571D01*
X104608381Y-83112857D02*
X105179810Y-83427143D01*
X105560762Y-87027857D02*
X105608381Y-86949286D01*
X105608381Y-86818333D01*
X105560762Y-86765952D01*
X105513143Y-86739762D01*
X105417905Y-86713571D01*
X105322667Y-86713571D01*
X105227429Y-86739762D01*
X105179810Y-86765952D01*
X105132190Y-86818333D01*
X105084571Y-86923095D01*
X105036952Y-86975476D01*
X104989333Y-87001667D01*
X104894095Y-87027857D01*
X104798857Y-87027857D01*
X104703619Y-87001667D01*
X104656000Y-86975476D01*
X104608381Y-86923095D01*
X104608381Y-86792143D01*
X104656000Y-86713571D01*
X105608381Y-86477857D02*
X104608381Y-86477857D01*
X104608381Y-86346904D01*
X104656000Y-86268333D01*
X104751238Y-86215952D01*
X104846476Y-86189761D01*
X105036952Y-86163571D01*
X105179810Y-86163571D01*
X105370286Y-86189761D01*
X105465524Y-86215952D01*
X105560762Y-86268333D01*
X105608381Y-86346904D01*
X105608381Y-86477857D01*
X105322667Y-85954047D02*
X105322667Y-85692142D01*
X105608381Y-86006428D02*
X104608381Y-85823095D01*
X105608381Y-85639761D01*
X105560762Y-89554762D02*
X105608381Y-89476191D01*
X105608381Y-89345238D01*
X105560762Y-89292857D01*
X105513143Y-89266667D01*
X105417905Y-89240476D01*
X105322667Y-89240476D01*
X105227429Y-89266667D01*
X105179810Y-89292857D01*
X105132190Y-89345238D01*
X105084571Y-89450000D01*
X105036952Y-89502381D01*
X104989333Y-89528572D01*
X104894095Y-89554762D01*
X104798857Y-89554762D01*
X104703619Y-89528572D01*
X104656000Y-89502381D01*
X104608381Y-89450000D01*
X104608381Y-89319048D01*
X104656000Y-89240476D01*
X105513143Y-88690476D02*
X105560762Y-88716666D01*
X105608381Y-88795238D01*
X105608381Y-88847619D01*
X105560762Y-88926190D01*
X105465524Y-88978571D01*
X105370286Y-89004762D01*
X105179810Y-89030952D01*
X105036952Y-89030952D01*
X104846476Y-89004762D01*
X104751238Y-88978571D01*
X104656000Y-88926190D01*
X104608381Y-88847619D01*
X104608381Y-88795238D01*
X104656000Y-88716666D01*
X104703619Y-88690476D01*
X105608381Y-88192857D02*
X105608381Y-88454762D01*
X104608381Y-88454762D01*
X104608381Y-92120953D02*
X104608381Y-91780476D01*
X104989333Y-91963810D01*
X104989333Y-91885238D01*
X105036952Y-91832857D01*
X105084571Y-91806667D01*
X105179810Y-91780476D01*
X105417905Y-91780476D01*
X105513143Y-91806667D01*
X105560762Y-91832857D01*
X105608381Y-91885238D01*
X105608381Y-92042381D01*
X105560762Y-92094762D01*
X105513143Y-92120953D01*
X104608381Y-91623333D02*
X105608381Y-91440000D01*
X104608381Y-91256666D01*
X104608381Y-91125714D02*
X104608381Y-90785237D01*
X104989333Y-90968571D01*
X104989333Y-90889999D01*
X105036952Y-90837618D01*
X105084571Y-90811428D01*
X105179810Y-90785237D01*
X105417905Y-90785237D01*
X105513143Y-90811428D01*
X105560762Y-90837618D01*
X105608381Y-90889999D01*
X105608381Y-91047142D01*
X105560762Y-91099523D01*
X105513143Y-91125714D01*
X104656000Y-94399047D02*
X104608381Y-94451428D01*
X104608381Y-94530000D01*
X104656000Y-94608571D01*
X104751238Y-94660952D01*
X104846476Y-94687143D01*
X105036952Y-94713333D01*
X105179810Y-94713333D01*
X105370286Y-94687143D01*
X105465524Y-94660952D01*
X105560762Y-94608571D01*
X105608381Y-94530000D01*
X105608381Y-94477619D01*
X105560762Y-94399047D01*
X105513143Y-94372857D01*
X105179810Y-94372857D01*
X105179810Y-94477619D01*
X105608381Y-94137143D02*
X104608381Y-94137143D01*
X105608381Y-93822857D01*
X104608381Y-93822857D01*
X105608381Y-93560953D02*
X104608381Y-93560953D01*
X104608381Y-93430000D01*
X104656000Y-93351429D01*
X104751238Y-93299048D01*
X104846476Y-93272857D01*
X105036952Y-93246667D01*
X105179810Y-93246667D01*
X105370286Y-93272857D01*
X105465524Y-93299048D01*
X105560762Y-93351429D01*
X105608381Y-93430000D01*
X105608381Y-93560953D01*
D16*
X102634143Y-97917000D02*
X102670429Y-97953286D01*
X102706714Y-98062143D01*
X102706714Y-98134714D01*
X102670429Y-98243571D01*
X102597857Y-98316143D01*
X102525286Y-98352428D01*
X102380143Y-98388714D01*
X102271286Y-98388714D01*
X102126143Y-98352428D01*
X102053571Y-98316143D01*
X101981000Y-98243571D01*
X101944714Y-98134714D01*
X101944714Y-98062143D01*
X101981000Y-97953286D01*
X102017286Y-97917000D01*
X102706714Y-97191286D02*
X102706714Y-97626714D01*
X102706714Y-97409000D02*
X101944714Y-97409000D01*
X102053571Y-97481571D01*
X102126143Y-97554143D01*
X102162429Y-97626714D01*
%LPC*%
D17*
X103505000Y-124460000D03*
X103505000Y-121920000D03*
X103505000Y-119380000D03*
X103505000Y-116840000D03*
X103505000Y-114300000D03*
X103505000Y-111760000D03*
X103505000Y-109220000D03*
X103505000Y-106680000D03*
X103505000Y-104140000D03*
X103505000Y-101600000D03*
X103505000Y-93980000D03*
X103505000Y-91440000D03*
X103505000Y-88900000D03*
X103505000Y-86360000D03*
X103505000Y-83820000D03*
X103505000Y-81280000D03*
X103505000Y-78740000D03*
X103505000Y-76200000D03*
X103505000Y-73660000D03*
X103505000Y-71120000D03*
X112395000Y-124460000D03*
X112395000Y-121920000D03*
X112395000Y-119380000D03*
X112395000Y-116840000D03*
X112395000Y-114300000D03*
X112395000Y-111760000D03*
X112395000Y-109220000D03*
X112395000Y-106680000D03*
X112395000Y-104140000D03*
X112395000Y-101600000D03*
X112395000Y-99060000D03*
X112395000Y-96520000D03*
X112395000Y-93980000D03*
X112395000Y-91440000D03*
X112395000Y-88900000D03*
X112395000Y-86360000D03*
X112395000Y-83820000D03*
X112395000Y-81280000D03*
X112395000Y-78740000D03*
X112395000Y-76200000D03*
X112395000Y-73660000D03*
X112395000Y-71120000D03*
X114935000Y-124460000D03*
X114935000Y-121920000D03*
X114935000Y-119380000D03*
X114935000Y-116840000D03*
X114935000Y-114300000D03*
X114935000Y-111760000D03*
X114935000Y-109220000D03*
X114935000Y-106680000D03*
X114935000Y-104140000D03*
X114935000Y-101600000D03*
X114935000Y-99060000D03*
X114935000Y-96520000D03*
X114935000Y-93980000D03*
X114935000Y-91440000D03*
X114935000Y-88900000D03*
X114935000Y-86360000D03*
X114935000Y-83820000D03*
X114935000Y-81280000D03*
X114935000Y-78740000D03*
X114935000Y-76200000D03*
X114935000Y-73660000D03*
X114935000Y-71120000D03*
X109855000Y-124460000D03*
X109855000Y-121920000D03*
X109855000Y-119380000D03*
X109855000Y-116840000D03*
X109855000Y-114300000D03*
X109855000Y-111760000D03*
X109855000Y-109220000D03*
X109855000Y-106680000D03*
X109855000Y-104140000D03*
X109855000Y-101600000D03*
X109855000Y-99060000D03*
X109855000Y-96520000D03*
X109855000Y-93980000D03*
X109855000Y-91440000D03*
X109855000Y-88900000D03*
X109855000Y-86360000D03*
X109855000Y-83820000D03*
X109855000Y-81280000D03*
X109855000Y-78740000D03*
X109855000Y-76200000D03*
X109855000Y-73660000D03*
X109855000Y-71120000D03*
X117475000Y-124460000D03*
X117475000Y-121920000D03*
X117475000Y-119380000D03*
X117475000Y-116840000D03*
X117475000Y-114300000D03*
X117475000Y-111760000D03*
X117475000Y-109220000D03*
X117475000Y-106680000D03*
X117475000Y-104140000D03*
X117475000Y-101600000D03*
X117475000Y-99060000D03*
X117475000Y-96520000D03*
X117475000Y-93980000D03*
X117475000Y-91440000D03*
X117475000Y-88900000D03*
X117475000Y-86360000D03*
X117475000Y-83820000D03*
X117475000Y-81280000D03*
X117475000Y-78740000D03*
X117475000Y-76200000D03*
X117475000Y-73660000D03*
X117475000Y-71120000D03*
X120015000Y-124460000D03*
X120015000Y-121920000D03*
X120015000Y-119380000D03*
X120015000Y-116840000D03*
X120015000Y-114300000D03*
X120015000Y-111760000D03*
X120015000Y-109220000D03*
X120015000Y-106680000D03*
X120015000Y-104140000D03*
X120015000Y-101600000D03*
X120015000Y-99060000D03*
X120015000Y-96520000D03*
X120015000Y-93980000D03*
X120015000Y-91440000D03*
X120015000Y-88900000D03*
X120015000Y-86360000D03*
X120015000Y-83820000D03*
X120015000Y-81280000D03*
X120015000Y-78740000D03*
X120015000Y-76200000D03*
X120015000Y-73660000D03*
X120015000Y-71120000D03*
X108585000Y-124460000D03*
X108585000Y-121920000D03*
X108585000Y-119380000D03*
X108585000Y-116840000D03*
X108585000Y-114300000D03*
X108585000Y-111760000D03*
X108585000Y-109220000D03*
X108585000Y-106680000D03*
X108585000Y-104140000D03*
X108585000Y-101600000D03*
X108585000Y-99060000D03*
X108585000Y-96520000D03*
X108585000Y-93980000D03*
X108585000Y-91440000D03*
X108585000Y-88900000D03*
X108585000Y-86360000D03*
X108585000Y-83820000D03*
X108585000Y-81280000D03*
X108585000Y-78740000D03*
X108585000Y-76200000D03*
X108585000Y-73660000D03*
X108585000Y-71120000D03*
X122555000Y-124460000D03*
X122555000Y-121920000D03*
X122555000Y-119380000D03*
X122555000Y-116840000D03*
X122555000Y-114300000D03*
X122555000Y-111760000D03*
X122555000Y-109220000D03*
X122555000Y-106680000D03*
X122555000Y-104140000D03*
X122555000Y-101600000D03*
X122555000Y-99060000D03*
X122555000Y-96520000D03*
X122555000Y-93980000D03*
X122555000Y-91440000D03*
X122555000Y-88900000D03*
X122555000Y-86360000D03*
X122555000Y-83820000D03*
X122555000Y-81280000D03*
X122555000Y-78740000D03*
X122555000Y-76200000D03*
X122555000Y-73660000D03*
X122555000Y-71120000D03*
X125095000Y-124460000D03*
X125095000Y-121920000D03*
X125095000Y-119380000D03*
X125095000Y-116840000D03*
X125095000Y-114300000D03*
X125095000Y-111760000D03*
X125095000Y-109220000D03*
X125095000Y-106680000D03*
X125095000Y-104140000D03*
X125095000Y-101600000D03*
X125095000Y-99060000D03*
X125095000Y-96520000D03*
X125095000Y-93980000D03*
X125095000Y-91440000D03*
X125095000Y-88900000D03*
X125095000Y-86360000D03*
X125095000Y-83820000D03*
X125095000Y-81280000D03*
X125095000Y-78740000D03*
X125095000Y-76200000D03*
X125095000Y-73660000D03*
X125095000Y-71120000D03*
X107315000Y-124460000D03*
X107315000Y-121920000D03*
X107315000Y-119380000D03*
X107315000Y-116840000D03*
X107315000Y-114300000D03*
X107315000Y-111760000D03*
X107315000Y-109220000D03*
X107315000Y-106680000D03*
X107315000Y-104140000D03*
X107315000Y-101600000D03*
X107315000Y-99060000D03*
X107315000Y-96520000D03*
X107315000Y-93980000D03*
X107315000Y-91440000D03*
X107315000Y-88900000D03*
X107315000Y-86360000D03*
X107315000Y-83820000D03*
X107315000Y-81280000D03*
X107315000Y-78740000D03*
X107315000Y-76200000D03*
X107315000Y-73660000D03*
X107315000Y-71120000D03*
X127635000Y-124460000D03*
X127635000Y-121920000D03*
X127635000Y-119380000D03*
X127635000Y-116840000D03*
X127635000Y-114300000D03*
X127635000Y-111760000D03*
X127635000Y-109220000D03*
X127635000Y-106680000D03*
X127635000Y-104140000D03*
X127635000Y-101600000D03*
X127635000Y-99060000D03*
X127635000Y-96520000D03*
X127635000Y-93980000D03*
X127635000Y-91440000D03*
X127635000Y-88900000D03*
X127635000Y-86360000D03*
X127635000Y-83820000D03*
X127635000Y-81280000D03*
X127635000Y-78740000D03*
X127635000Y-76200000D03*
X127635000Y-73660000D03*
X127635000Y-71120000D03*
X130175000Y-124460000D03*
X130175000Y-121920000D03*
X130175000Y-119380000D03*
X130175000Y-116840000D03*
X130175000Y-114300000D03*
X130175000Y-111760000D03*
X130175000Y-109220000D03*
X130175000Y-106680000D03*
X130175000Y-104140000D03*
X130175000Y-101600000D03*
X130175000Y-99060000D03*
X130175000Y-96520000D03*
X130175000Y-93980000D03*
X130175000Y-91440000D03*
X130175000Y-88900000D03*
X130175000Y-86360000D03*
X130175000Y-83820000D03*
X130175000Y-81280000D03*
X130175000Y-78740000D03*
X130175000Y-76200000D03*
X130175000Y-73660000D03*
X130175000Y-71120000D03*
X132715000Y-124460000D03*
X132715000Y-121920000D03*
X132715000Y-119380000D03*
X132715000Y-116840000D03*
X132715000Y-114300000D03*
X132715000Y-111760000D03*
X132715000Y-109220000D03*
X132715000Y-106680000D03*
X132715000Y-104140000D03*
X132715000Y-101600000D03*
X132715000Y-99060000D03*
X132715000Y-96520000D03*
X132715000Y-93980000D03*
X132715000Y-91440000D03*
X132715000Y-88900000D03*
X132715000Y-86360000D03*
X132715000Y-83820000D03*
X132715000Y-81280000D03*
X132715000Y-78740000D03*
X132715000Y-76200000D03*
X132715000Y-73660000D03*
X132715000Y-71120000D03*
X135255000Y-124460000D03*
X135255000Y-121920000D03*
X135255000Y-119380000D03*
X135255000Y-116840000D03*
X135255000Y-114300000D03*
X135255000Y-111760000D03*
X135255000Y-109220000D03*
X135255000Y-106680000D03*
X135255000Y-104140000D03*
X135255000Y-101600000D03*
X135255000Y-99060000D03*
X135255000Y-96520000D03*
X135255000Y-93980000D03*
X135255000Y-91440000D03*
X135255000Y-88900000D03*
X135255000Y-86360000D03*
X135255000Y-83820000D03*
X135255000Y-81280000D03*
X135255000Y-78740000D03*
X135255000Y-76200000D03*
X135255000Y-73660000D03*
X135255000Y-71120000D03*
X137795000Y-124460000D03*
X137795000Y-121920000D03*
X137795000Y-119380000D03*
X137795000Y-116840000D03*
X137795000Y-114300000D03*
X137795000Y-111760000D03*
X137795000Y-109220000D03*
X137795000Y-106680000D03*
X137795000Y-104140000D03*
X137795000Y-101600000D03*
X137795000Y-99060000D03*
X137795000Y-96520000D03*
X137795000Y-93980000D03*
X137795000Y-91440000D03*
X137795000Y-88900000D03*
X137795000Y-86360000D03*
X137795000Y-83820000D03*
X137795000Y-81280000D03*
X137795000Y-78740000D03*
X137795000Y-76200000D03*
X137795000Y-73660000D03*
X137795000Y-71120000D03*
X140335000Y-124460000D03*
X140335000Y-121920000D03*
X140335000Y-119380000D03*
X140335000Y-116840000D03*
X140335000Y-114300000D03*
X140335000Y-111760000D03*
X140335000Y-109220000D03*
X140335000Y-106680000D03*
X140335000Y-104140000D03*
X140335000Y-101600000D03*
X140335000Y-99060000D03*
X140335000Y-96520000D03*
X140335000Y-93980000D03*
X140335000Y-91440000D03*
X140335000Y-88900000D03*
X140335000Y-86360000D03*
X140335000Y-83820000D03*
X140335000Y-81280000D03*
X140335000Y-78740000D03*
X140335000Y-76200000D03*
X140335000Y-73660000D03*
X140335000Y-71120000D03*
X142875000Y-124460000D03*
X142875000Y-121920000D03*
X142875000Y-119380000D03*
X142875000Y-116840000D03*
X142875000Y-114300000D03*
X142875000Y-111760000D03*
X142875000Y-109220000D03*
X142875000Y-106680000D03*
X142875000Y-104140000D03*
X142875000Y-101600000D03*
X142875000Y-99060000D03*
X142875000Y-96520000D03*
X142875000Y-93980000D03*
X142875000Y-91440000D03*
X142875000Y-88900000D03*
X142875000Y-86360000D03*
X142875000Y-83820000D03*
X142875000Y-81280000D03*
X142875000Y-78740000D03*
X142875000Y-76200000D03*
X142875000Y-73660000D03*
X142875000Y-71120000D03*
X145415000Y-124460000D03*
X145415000Y-121920000D03*
X145415000Y-119380000D03*
X145415000Y-116840000D03*
X145415000Y-114300000D03*
X145415000Y-111760000D03*
X145415000Y-109220000D03*
X145415000Y-106680000D03*
X145415000Y-104140000D03*
X145415000Y-101600000D03*
X145415000Y-99060000D03*
X145415000Y-96520000D03*
X145415000Y-93980000D03*
X145415000Y-91440000D03*
X145415000Y-88900000D03*
X145415000Y-86360000D03*
X145415000Y-83820000D03*
X145415000Y-81280000D03*
X145415000Y-78740000D03*
X145415000Y-76200000D03*
X145415000Y-73660000D03*
X145415000Y-71120000D03*
X147955000Y-124460000D03*
X147955000Y-121920000D03*
X147955000Y-119380000D03*
X147955000Y-116840000D03*
X147955000Y-114300000D03*
X147955000Y-111760000D03*
X147955000Y-109220000D03*
X147955000Y-106680000D03*
X147955000Y-104140000D03*
X147955000Y-101600000D03*
X147955000Y-99060000D03*
X147955000Y-96520000D03*
X147955000Y-93980000D03*
X147955000Y-91440000D03*
X147955000Y-88900000D03*
X147955000Y-86360000D03*
X147955000Y-83820000D03*
X147955000Y-81280000D03*
X147955000Y-78740000D03*
X147955000Y-76200000D03*
X147955000Y-73660000D03*
X147955000Y-71120000D03*
X150495000Y-124460000D03*
X150495000Y-121920000D03*
X150495000Y-119380000D03*
X150495000Y-116840000D03*
X150495000Y-114300000D03*
X150495000Y-111760000D03*
X150495000Y-109220000D03*
X150495000Y-106680000D03*
X150495000Y-104140000D03*
X150495000Y-101600000D03*
X150495000Y-99060000D03*
X150495000Y-96520000D03*
X150495000Y-93980000D03*
X150495000Y-91440000D03*
X150495000Y-88900000D03*
X150495000Y-86360000D03*
X150495000Y-83820000D03*
X150495000Y-81280000D03*
X150495000Y-78740000D03*
X150495000Y-76200000D03*
X150495000Y-73660000D03*
X150495000Y-71120000D03*
D18*
X104140000Y-99060000D03*
D19*
X104140000Y-96520000D03*
D20*
G36*
X150749000Y-95377000D02*
X149606000Y-95377000D01*
X149606000Y-95123000D01*
X150749000Y-95123000D01*
X150749000Y-95377000D01*
X150749000Y-95377000D01*
G37*
X150749000Y-95377000D02*
X149606000Y-95377000D01*
X149606000Y-95123000D01*
X150749000Y-95123000D01*
X150749000Y-95377000D01*
G36*
X150749000Y-100457000D02*
X149606000Y-100457000D01*
X149606000Y-100203000D01*
X150749000Y-100203000D01*
X150749000Y-100457000D01*
X150749000Y-100457000D01*
G37*
X150749000Y-100457000D02*
X149606000Y-100457000D01*
X149606000Y-100203000D01*
X150749000Y-100203000D01*
X150749000Y-100457000D01*
G36*
X148844000Y-100457000D02*
X147066000Y-100457000D01*
X147066000Y-100203000D01*
X148844000Y-100203000D01*
X148844000Y-100457000D01*
X148844000Y-100457000D01*
G37*
X148844000Y-100457000D02*
X147066000Y-100457000D01*
X147066000Y-100203000D01*
X148844000Y-100203000D01*
X148844000Y-100457000D01*
G36*
X146304000Y-100457000D02*
X144526000Y-100457000D01*
X144526000Y-100203000D01*
X146304000Y-100203000D01*
X146304000Y-100457000D01*
X146304000Y-100457000D01*
G37*
X146304000Y-100457000D02*
X144526000Y-100457000D01*
X144526000Y-100203000D01*
X146304000Y-100203000D01*
X146304000Y-100457000D01*
G36*
X143764000Y-100457000D02*
X141986000Y-100457000D01*
X141986000Y-100203000D01*
X143764000Y-100203000D01*
X143764000Y-100457000D01*
X143764000Y-100457000D01*
G37*
X143764000Y-100457000D02*
X141986000Y-100457000D01*
X141986000Y-100203000D01*
X143764000Y-100203000D01*
X143764000Y-100457000D01*
G36*
X141224000Y-100457000D02*
X139446000Y-100457000D01*
X139446000Y-100203000D01*
X141224000Y-100203000D01*
X141224000Y-100457000D01*
X141224000Y-100457000D01*
G37*
X141224000Y-100457000D02*
X139446000Y-100457000D01*
X139446000Y-100203000D01*
X141224000Y-100203000D01*
X141224000Y-100457000D01*
G36*
X138684000Y-100457000D02*
X136906000Y-100457000D01*
X136906000Y-100203000D01*
X138684000Y-100203000D01*
X138684000Y-100457000D01*
X138684000Y-100457000D01*
G37*
X138684000Y-100457000D02*
X136906000Y-100457000D01*
X136906000Y-100203000D01*
X138684000Y-100203000D01*
X138684000Y-100457000D01*
G36*
X136144000Y-100457000D02*
X134366000Y-100457000D01*
X134366000Y-100203000D01*
X136144000Y-100203000D01*
X136144000Y-100457000D01*
X136144000Y-100457000D01*
G37*
X136144000Y-100457000D02*
X134366000Y-100457000D01*
X134366000Y-100203000D01*
X136144000Y-100203000D01*
X136144000Y-100457000D01*
G36*
X133604000Y-100457000D02*
X131826000Y-100457000D01*
X131826000Y-100203000D01*
X133604000Y-100203000D01*
X133604000Y-100457000D01*
X133604000Y-100457000D01*
G37*
X133604000Y-100457000D02*
X131826000Y-100457000D01*
X131826000Y-100203000D01*
X133604000Y-100203000D01*
X133604000Y-100457000D01*
G36*
X131064000Y-100457000D02*
X129286000Y-100457000D01*
X129286000Y-100203000D01*
X131064000Y-100203000D01*
X131064000Y-100457000D01*
X131064000Y-100457000D01*
G37*
X131064000Y-100457000D02*
X129286000Y-100457000D01*
X129286000Y-100203000D01*
X131064000Y-100203000D01*
X131064000Y-100457000D01*
G36*
X128524000Y-100457000D02*
X126746000Y-100457000D01*
X126746000Y-100203000D01*
X128524000Y-100203000D01*
X128524000Y-100457000D01*
X128524000Y-100457000D01*
G37*
X128524000Y-100457000D02*
X126746000Y-100457000D01*
X126746000Y-100203000D01*
X128524000Y-100203000D01*
X128524000Y-100457000D01*
G36*
X125984000Y-100457000D02*
X124206000Y-100457000D01*
X124206000Y-100203000D01*
X125984000Y-100203000D01*
X125984000Y-100457000D01*
X125984000Y-100457000D01*
G37*
X125984000Y-100457000D02*
X124206000Y-100457000D01*
X124206000Y-100203000D01*
X125984000Y-100203000D01*
X125984000Y-100457000D01*
G36*
X123444000Y-100457000D02*
X121666000Y-100457000D01*
X121666000Y-100203000D01*
X123444000Y-100203000D01*
X123444000Y-100457000D01*
X123444000Y-100457000D01*
G37*
X123444000Y-100457000D02*
X121666000Y-100457000D01*
X121666000Y-100203000D01*
X123444000Y-100203000D01*
X123444000Y-100457000D01*
G36*
X120904000Y-100457000D02*
X119126000Y-100457000D01*
X119126000Y-100203000D01*
X120904000Y-100203000D01*
X120904000Y-100457000D01*
X120904000Y-100457000D01*
G37*
X120904000Y-100457000D02*
X119126000Y-100457000D01*
X119126000Y-100203000D01*
X120904000Y-100203000D01*
X120904000Y-100457000D01*
G36*
X118364000Y-100457000D02*
X116586000Y-100457000D01*
X116586000Y-100203000D01*
X118364000Y-100203000D01*
X118364000Y-100457000D01*
X118364000Y-100457000D01*
G37*
X118364000Y-100457000D02*
X116586000Y-100457000D01*
X116586000Y-100203000D01*
X118364000Y-100203000D01*
X118364000Y-100457000D01*
G36*
X115824000Y-100457000D02*
X114046000Y-100457000D01*
X114046000Y-100203000D01*
X115824000Y-100203000D01*
X115824000Y-100457000D01*
X115824000Y-100457000D01*
G37*
X115824000Y-100457000D02*
X114046000Y-100457000D01*
X114046000Y-100203000D01*
X115824000Y-100203000D01*
X115824000Y-100457000D01*
G36*
X113284000Y-100457000D02*
X111506000Y-100457000D01*
X111506000Y-100203000D01*
X113284000Y-100203000D01*
X113284000Y-100457000D01*
X113284000Y-100457000D01*
G37*
X113284000Y-100457000D02*
X111506000Y-100457000D01*
X111506000Y-100203000D01*
X113284000Y-100203000D01*
X113284000Y-100457000D01*
G36*
X148844000Y-95377000D02*
X147066000Y-95377000D01*
X147066000Y-95123000D01*
X148844000Y-95123000D01*
X148844000Y-95377000D01*
X148844000Y-95377000D01*
G37*
X148844000Y-95377000D02*
X147066000Y-95377000D01*
X147066000Y-95123000D01*
X148844000Y-95123000D01*
X148844000Y-95377000D01*
G36*
X146304000Y-95377000D02*
X144526000Y-95377000D01*
X144526000Y-95123000D01*
X146304000Y-95123000D01*
X146304000Y-95377000D01*
X146304000Y-95377000D01*
G37*
X146304000Y-95377000D02*
X144526000Y-95377000D01*
X144526000Y-95123000D01*
X146304000Y-95123000D01*
X146304000Y-95377000D01*
G36*
X143764000Y-95377000D02*
X141986000Y-95377000D01*
X141986000Y-95123000D01*
X143764000Y-95123000D01*
X143764000Y-95377000D01*
X143764000Y-95377000D01*
G37*
X143764000Y-95377000D02*
X141986000Y-95377000D01*
X141986000Y-95123000D01*
X143764000Y-95123000D01*
X143764000Y-95377000D01*
G36*
X141224000Y-95377000D02*
X139446000Y-95377000D01*
X139446000Y-95123000D01*
X141224000Y-95123000D01*
X141224000Y-95377000D01*
X141224000Y-95377000D01*
G37*
X141224000Y-95377000D02*
X139446000Y-95377000D01*
X139446000Y-95123000D01*
X141224000Y-95123000D01*
X141224000Y-95377000D01*
G36*
X138684000Y-95377000D02*
X136906000Y-95377000D01*
X136906000Y-95123000D01*
X138684000Y-95123000D01*
X138684000Y-95377000D01*
X138684000Y-95377000D01*
G37*
X138684000Y-95377000D02*
X136906000Y-95377000D01*
X136906000Y-95123000D01*
X138684000Y-95123000D01*
X138684000Y-95377000D01*
G36*
X136144000Y-95377000D02*
X134366000Y-95377000D01*
X134366000Y-95123000D01*
X136144000Y-95123000D01*
X136144000Y-95377000D01*
X136144000Y-95377000D01*
G37*
X136144000Y-95377000D02*
X134366000Y-95377000D01*
X134366000Y-95123000D01*
X136144000Y-95123000D01*
X136144000Y-95377000D01*
G36*
X133604000Y-95377000D02*
X131826000Y-95377000D01*
X131826000Y-95123000D01*
X133604000Y-95123000D01*
X133604000Y-95377000D01*
X133604000Y-95377000D01*
G37*
X133604000Y-95377000D02*
X131826000Y-95377000D01*
X131826000Y-95123000D01*
X133604000Y-95123000D01*
X133604000Y-95377000D01*
G36*
X131064000Y-95377000D02*
X129286000Y-95377000D01*
X129286000Y-95123000D01*
X131064000Y-95123000D01*
X131064000Y-95377000D01*
X131064000Y-95377000D01*
G37*
X131064000Y-95377000D02*
X129286000Y-95377000D01*
X129286000Y-95123000D01*
X131064000Y-95123000D01*
X131064000Y-95377000D01*
G36*
X128524000Y-95377000D02*
X126746000Y-95377000D01*
X126746000Y-95123000D01*
X128524000Y-95123000D01*
X128524000Y-95377000D01*
X128524000Y-95377000D01*
G37*
X128524000Y-95377000D02*
X126746000Y-95377000D01*
X126746000Y-95123000D01*
X128524000Y-95123000D01*
X128524000Y-95377000D01*
G36*
X125984000Y-95377000D02*
X124206000Y-95377000D01*
X124206000Y-95123000D01*
X125984000Y-95123000D01*
X125984000Y-95377000D01*
X125984000Y-95377000D01*
G37*
X125984000Y-95377000D02*
X124206000Y-95377000D01*
X124206000Y-95123000D01*
X125984000Y-95123000D01*
X125984000Y-95377000D01*
G36*
X123444000Y-95377000D02*
X121666000Y-95377000D01*
X121666000Y-95123000D01*
X123444000Y-95123000D01*
X123444000Y-95377000D01*
X123444000Y-95377000D01*
G37*
X123444000Y-95377000D02*
X121666000Y-95377000D01*
X121666000Y-95123000D01*
X123444000Y-95123000D01*
X123444000Y-95377000D01*
G36*
X120904000Y-95377000D02*
X119126000Y-95377000D01*
X119126000Y-95123000D01*
X120904000Y-95123000D01*
X120904000Y-95377000D01*
X120904000Y-95377000D01*
G37*
X120904000Y-95377000D02*
X119126000Y-95377000D01*
X119126000Y-95123000D01*
X120904000Y-95123000D01*
X120904000Y-95377000D01*
G36*
X118364000Y-95377000D02*
X116586000Y-95377000D01*
X116586000Y-95123000D01*
X118364000Y-95123000D01*
X118364000Y-95377000D01*
X118364000Y-95377000D01*
G37*
X118364000Y-95377000D02*
X116586000Y-95377000D01*
X116586000Y-95123000D01*
X118364000Y-95123000D01*
X118364000Y-95377000D01*
G36*
X115824000Y-95377000D02*
X114046000Y-95377000D01*
X114046000Y-95123000D01*
X115824000Y-95123000D01*
X115824000Y-95377000D01*
X115824000Y-95377000D01*
G37*
X115824000Y-95377000D02*
X114046000Y-95377000D01*
X114046000Y-95123000D01*
X115824000Y-95123000D01*
X115824000Y-95377000D01*
G36*
X113284000Y-95377000D02*
X111506000Y-95377000D01*
X111506000Y-95123000D01*
X113284000Y-95123000D01*
X113284000Y-95377000D01*
X113284000Y-95377000D01*
G37*
X113284000Y-95377000D02*
X111506000Y-95377000D01*
X111506000Y-95123000D01*
X113284000Y-95123000D01*
X113284000Y-95377000D01*
G36*
X148844000Y-69723000D02*
X147066000Y-69723000D01*
X147066000Y-69469000D01*
X148844000Y-69469000D01*
X148844000Y-69723000D01*
X148844000Y-69723000D01*
G37*
X148844000Y-69723000D02*
X147066000Y-69723000D01*
X147066000Y-69469000D01*
X148844000Y-69469000D01*
X148844000Y-69723000D01*
G36*
X146304000Y-69723000D02*
X144526000Y-69723000D01*
X144526000Y-69469000D01*
X146304000Y-69469000D01*
X146304000Y-69723000D01*
X146304000Y-69723000D01*
G37*
X146304000Y-69723000D02*
X144526000Y-69723000D01*
X144526000Y-69469000D01*
X146304000Y-69469000D01*
X146304000Y-69723000D01*
G36*
X143764000Y-69723000D02*
X141986000Y-69723000D01*
X141986000Y-69469000D01*
X143764000Y-69469000D01*
X143764000Y-69723000D01*
X143764000Y-69723000D01*
G37*
X143764000Y-69723000D02*
X141986000Y-69723000D01*
X141986000Y-69469000D01*
X143764000Y-69469000D01*
X143764000Y-69723000D01*
G36*
X141224000Y-69723000D02*
X139446000Y-69723000D01*
X139446000Y-69469000D01*
X141224000Y-69469000D01*
X141224000Y-69723000D01*
X141224000Y-69723000D01*
G37*
X141224000Y-69723000D02*
X139446000Y-69723000D01*
X139446000Y-69469000D01*
X141224000Y-69469000D01*
X141224000Y-69723000D01*
G36*
X138684000Y-69723000D02*
X136906000Y-69723000D01*
X136906000Y-69469000D01*
X138684000Y-69469000D01*
X138684000Y-69723000D01*
X138684000Y-69723000D01*
G37*
X138684000Y-69723000D02*
X136906000Y-69723000D01*
X136906000Y-69469000D01*
X138684000Y-69469000D01*
X138684000Y-69723000D01*
G36*
X136144000Y-69723000D02*
X134366000Y-69723000D01*
X134366000Y-69469000D01*
X136144000Y-69469000D01*
X136144000Y-69723000D01*
X136144000Y-69723000D01*
G37*
X136144000Y-69723000D02*
X134366000Y-69723000D01*
X134366000Y-69469000D01*
X136144000Y-69469000D01*
X136144000Y-69723000D01*
G36*
X133604000Y-69723000D02*
X131826000Y-69723000D01*
X131826000Y-69469000D01*
X133604000Y-69469000D01*
X133604000Y-69723000D01*
X133604000Y-69723000D01*
G37*
X133604000Y-69723000D02*
X131826000Y-69723000D01*
X131826000Y-69469000D01*
X133604000Y-69469000D01*
X133604000Y-69723000D01*
G36*
X131064000Y-69723000D02*
X129286000Y-69723000D01*
X129286000Y-69469000D01*
X131064000Y-69469000D01*
X131064000Y-69723000D01*
X131064000Y-69723000D01*
G37*
X131064000Y-69723000D02*
X129286000Y-69723000D01*
X129286000Y-69469000D01*
X131064000Y-69469000D01*
X131064000Y-69723000D01*
G36*
X128524000Y-69723000D02*
X126746000Y-69723000D01*
X126746000Y-69469000D01*
X128524000Y-69469000D01*
X128524000Y-69723000D01*
X128524000Y-69723000D01*
G37*
X128524000Y-69723000D02*
X126746000Y-69723000D01*
X126746000Y-69469000D01*
X128524000Y-69469000D01*
X128524000Y-69723000D01*
G36*
X125984000Y-69723000D02*
X124206000Y-69723000D01*
X124206000Y-69469000D01*
X125984000Y-69469000D01*
X125984000Y-69723000D01*
X125984000Y-69723000D01*
G37*
X125984000Y-69723000D02*
X124206000Y-69723000D01*
X124206000Y-69469000D01*
X125984000Y-69469000D01*
X125984000Y-69723000D01*
G36*
X123444000Y-69723000D02*
X121666000Y-69723000D01*
X121666000Y-69469000D01*
X123444000Y-69469000D01*
X123444000Y-69723000D01*
X123444000Y-69723000D01*
G37*
X123444000Y-69723000D02*
X121666000Y-69723000D01*
X121666000Y-69469000D01*
X123444000Y-69469000D01*
X123444000Y-69723000D01*
G36*
X120904000Y-69723000D02*
X119126000Y-69723000D01*
X119126000Y-69469000D01*
X120904000Y-69469000D01*
X120904000Y-69723000D01*
X120904000Y-69723000D01*
G37*
X120904000Y-69723000D02*
X119126000Y-69723000D01*
X119126000Y-69469000D01*
X120904000Y-69469000D01*
X120904000Y-69723000D01*
G36*
X118364000Y-69723000D02*
X116586000Y-69723000D01*
X116586000Y-69469000D01*
X118364000Y-69469000D01*
X118364000Y-69723000D01*
X118364000Y-69723000D01*
G37*
X118364000Y-69723000D02*
X116586000Y-69723000D01*
X116586000Y-69469000D01*
X118364000Y-69469000D01*
X118364000Y-69723000D01*
G36*
X115824000Y-69723000D02*
X114046000Y-69723000D01*
X114046000Y-69469000D01*
X115824000Y-69469000D01*
X115824000Y-69723000D01*
X115824000Y-69723000D01*
G37*
X115824000Y-69723000D02*
X114046000Y-69723000D01*
X114046000Y-69469000D01*
X115824000Y-69469000D01*
X115824000Y-69723000D01*
G36*
X113284000Y-69723000D02*
X111506000Y-69723000D01*
X111506000Y-69469000D01*
X113284000Y-69469000D01*
X113284000Y-69723000D01*
X113284000Y-69723000D01*
G37*
X113284000Y-69723000D02*
X111506000Y-69723000D01*
X111506000Y-69469000D01*
X113284000Y-69469000D01*
X113284000Y-69723000D01*
G36*
X148844000Y-126111000D02*
X147066000Y-126111000D01*
X147066000Y-125857000D01*
X148844000Y-125857000D01*
X148844000Y-126111000D01*
X148844000Y-126111000D01*
G37*
X148844000Y-126111000D02*
X147066000Y-126111000D01*
X147066000Y-125857000D01*
X148844000Y-125857000D01*
X148844000Y-126111000D01*
G36*
X146304000Y-126111000D02*
X144526000Y-126111000D01*
X144526000Y-125857000D01*
X146304000Y-125857000D01*
X146304000Y-126111000D01*
X146304000Y-126111000D01*
G37*
X146304000Y-126111000D02*
X144526000Y-126111000D01*
X144526000Y-125857000D01*
X146304000Y-125857000D01*
X146304000Y-126111000D01*
G36*
X143764000Y-126111000D02*
X141986000Y-126111000D01*
X141986000Y-125857000D01*
X143764000Y-125857000D01*
X143764000Y-126111000D01*
X143764000Y-126111000D01*
G37*
X143764000Y-126111000D02*
X141986000Y-126111000D01*
X141986000Y-125857000D01*
X143764000Y-125857000D01*
X143764000Y-126111000D01*
G36*
X141224000Y-126111000D02*
X139446000Y-126111000D01*
X139446000Y-125857000D01*
X141224000Y-125857000D01*
X141224000Y-126111000D01*
X141224000Y-126111000D01*
G37*
X141224000Y-126111000D02*
X139446000Y-126111000D01*
X139446000Y-125857000D01*
X141224000Y-125857000D01*
X141224000Y-126111000D01*
G36*
X138684000Y-126111000D02*
X136906000Y-126111000D01*
X136906000Y-125857000D01*
X138684000Y-125857000D01*
X138684000Y-126111000D01*
X138684000Y-126111000D01*
G37*
X138684000Y-126111000D02*
X136906000Y-126111000D01*
X136906000Y-125857000D01*
X138684000Y-125857000D01*
X138684000Y-126111000D01*
G36*
X136144000Y-126111000D02*
X134366000Y-126111000D01*
X134366000Y-125857000D01*
X136144000Y-125857000D01*
X136144000Y-126111000D01*
X136144000Y-126111000D01*
G37*
X136144000Y-126111000D02*
X134366000Y-126111000D01*
X134366000Y-125857000D01*
X136144000Y-125857000D01*
X136144000Y-126111000D01*
G36*
X133604000Y-126111000D02*
X131826000Y-126111000D01*
X131826000Y-125857000D01*
X133604000Y-125857000D01*
X133604000Y-126111000D01*
X133604000Y-126111000D01*
G37*
X133604000Y-126111000D02*
X131826000Y-126111000D01*
X131826000Y-125857000D01*
X133604000Y-125857000D01*
X133604000Y-126111000D01*
G36*
X131064000Y-126111000D02*
X129286000Y-126111000D01*
X129286000Y-125857000D01*
X131064000Y-125857000D01*
X131064000Y-126111000D01*
X131064000Y-126111000D01*
G37*
X131064000Y-126111000D02*
X129286000Y-126111000D01*
X129286000Y-125857000D01*
X131064000Y-125857000D01*
X131064000Y-126111000D01*
G36*
X128524000Y-126111000D02*
X126746000Y-126111000D01*
X126746000Y-125857000D01*
X128524000Y-125857000D01*
X128524000Y-126111000D01*
X128524000Y-126111000D01*
G37*
X128524000Y-126111000D02*
X126746000Y-126111000D01*
X126746000Y-125857000D01*
X128524000Y-125857000D01*
X128524000Y-126111000D01*
G36*
X125984000Y-126111000D02*
X124206000Y-126111000D01*
X124206000Y-125857000D01*
X125984000Y-125857000D01*
X125984000Y-126111000D01*
X125984000Y-126111000D01*
G37*
X125984000Y-126111000D02*
X124206000Y-126111000D01*
X124206000Y-125857000D01*
X125984000Y-125857000D01*
X125984000Y-126111000D01*
G36*
X123444000Y-126111000D02*
X121666000Y-126111000D01*
X121666000Y-125857000D01*
X123444000Y-125857000D01*
X123444000Y-126111000D01*
X123444000Y-126111000D01*
G37*
X123444000Y-126111000D02*
X121666000Y-126111000D01*
X121666000Y-125857000D01*
X123444000Y-125857000D01*
X123444000Y-126111000D01*
G36*
X120904000Y-126111000D02*
X119126000Y-126111000D01*
X119126000Y-125857000D01*
X120904000Y-125857000D01*
X120904000Y-126111000D01*
X120904000Y-126111000D01*
G37*
X120904000Y-126111000D02*
X119126000Y-126111000D01*
X119126000Y-125857000D01*
X120904000Y-125857000D01*
X120904000Y-126111000D01*
G36*
X118364000Y-126111000D02*
X116586000Y-126111000D01*
X116586000Y-125857000D01*
X118364000Y-125857000D01*
X118364000Y-126111000D01*
X118364000Y-126111000D01*
G37*
X118364000Y-126111000D02*
X116586000Y-126111000D01*
X116586000Y-125857000D01*
X118364000Y-125857000D01*
X118364000Y-126111000D01*
G36*
X115824000Y-126111000D02*
X114046000Y-126111000D01*
X114046000Y-125857000D01*
X115824000Y-125857000D01*
X115824000Y-126111000D01*
X115824000Y-126111000D01*
G37*
X115824000Y-126111000D02*
X114046000Y-126111000D01*
X114046000Y-125857000D01*
X115824000Y-125857000D01*
X115824000Y-126111000D01*
G36*
X113284000Y-126111000D02*
X111506000Y-126111000D01*
X111506000Y-125857000D01*
X113284000Y-125857000D01*
X113284000Y-126111000D01*
X113284000Y-126111000D01*
G37*
X113284000Y-126111000D02*
X111506000Y-126111000D01*
X111506000Y-125857000D01*
X113284000Y-125857000D01*
X113284000Y-126111000D01*
M02*
