M48
;DRILL file {kicad (2014-08-29 BZR 5106)-product} date Thu 16 Oct 2014 04:24:11 PM PDT
;FORMAT={-:-/ absolute / inch / decimal}
FMAT,2
INCH,TZ
T1C0.035
T2C0.040
%
G90
G05
M72
T1
X4.075Y-2.8
X4.075Y-2.9
X4.075Y-3.
X4.075Y-3.1
X4.075Y-3.2
X4.075Y-3.3
X4.075Y-3.4
X4.075Y-3.5
X4.075Y-3.6
X4.075Y-3.7
X4.075Y-4.
X4.075Y-4.1
X4.075Y-4.2
X4.075Y-4.3
X4.075Y-4.4
X4.075Y-4.5
X4.075Y-4.6
X4.075Y-4.7
X4.075Y-4.8
X4.075Y-4.9
X4.225Y-2.8
X4.225Y-2.9
X4.225Y-3.
X4.225Y-3.1
X4.225Y-3.2
X4.225Y-3.3
X4.225Y-3.4
X4.225Y-3.5
X4.225Y-3.6
X4.225Y-3.7
X4.225Y-3.8
X4.225Y-3.9
X4.225Y-4.
X4.225Y-4.1
X4.225Y-4.2
X4.225Y-4.3
X4.225Y-4.4
X4.225Y-4.5
X4.225Y-4.6
X4.225Y-4.7
X4.225Y-4.8
X4.225Y-4.9
X4.275Y-2.8
X4.275Y-2.9
X4.275Y-3.
X4.275Y-3.1
X4.275Y-3.2
X4.275Y-3.3
X4.275Y-3.4
X4.275Y-3.5
X4.275Y-3.6
X4.275Y-3.7
X4.275Y-3.8
X4.275Y-3.9
X4.275Y-4.
X4.275Y-4.1
X4.275Y-4.2
X4.275Y-4.3
X4.275Y-4.4
X4.275Y-4.5
X4.275Y-4.6
X4.275Y-4.7
X4.275Y-4.8
X4.275Y-4.9
X4.325Y-2.8
X4.325Y-2.9
X4.325Y-3.
X4.325Y-3.1
X4.325Y-3.2
X4.325Y-3.3
X4.325Y-3.4
X4.325Y-3.5
X4.325Y-3.6
X4.325Y-3.7
X4.325Y-3.8
X4.325Y-3.9
X4.325Y-4.
X4.325Y-4.1
X4.325Y-4.2
X4.325Y-4.3
X4.325Y-4.4
X4.325Y-4.5
X4.325Y-4.6
X4.325Y-4.7
X4.325Y-4.8
X4.325Y-4.9
X4.425Y-2.8
X4.425Y-2.9
X4.425Y-3.
X4.425Y-3.1
X4.425Y-3.2
X4.425Y-3.3
X4.425Y-3.4
X4.425Y-3.5
X4.425Y-3.6
X4.425Y-3.7
X4.425Y-3.8
X4.425Y-3.9
X4.425Y-4.
X4.425Y-4.1
X4.425Y-4.2
X4.425Y-4.3
X4.425Y-4.4
X4.425Y-4.5
X4.425Y-4.6
X4.425Y-4.7
X4.425Y-4.8
X4.425Y-4.9
X4.525Y-2.8
X4.525Y-2.9
X4.525Y-3.
X4.525Y-3.1
X4.525Y-3.2
X4.525Y-3.3
X4.525Y-3.4
X4.525Y-3.5
X4.525Y-3.6
X4.525Y-3.7
X4.525Y-3.8
X4.525Y-3.9
X4.525Y-4.
X4.525Y-4.1
X4.525Y-4.2
X4.525Y-4.3
X4.525Y-4.4
X4.525Y-4.5
X4.525Y-4.6
X4.525Y-4.7
X4.525Y-4.8
X4.525Y-4.9
X4.625Y-2.8
X4.625Y-2.9
X4.625Y-3.
X4.625Y-3.1
X4.625Y-3.2
X4.625Y-3.3
X4.625Y-3.4
X4.625Y-3.5
X4.625Y-3.6
X4.625Y-3.7
X4.625Y-3.8
X4.625Y-3.9
X4.625Y-4.
X4.625Y-4.1
X4.625Y-4.2
X4.625Y-4.3
X4.625Y-4.4
X4.625Y-4.5
X4.625Y-4.6
X4.625Y-4.7
X4.625Y-4.8
X4.625Y-4.9
X4.725Y-2.8
X4.725Y-2.9
X4.725Y-3.
X4.725Y-3.1
X4.725Y-3.2
X4.725Y-3.3
X4.725Y-3.4
X4.725Y-3.5
X4.725Y-3.6
X4.725Y-3.7
X4.725Y-3.8
X4.725Y-3.9
X4.725Y-4.
X4.725Y-4.1
X4.725Y-4.2
X4.725Y-4.3
X4.725Y-4.4
X4.725Y-4.5
X4.725Y-4.6
X4.725Y-4.7
X4.725Y-4.8
X4.725Y-4.9
X4.825Y-2.8
X4.825Y-2.9
X4.825Y-3.
X4.825Y-3.1
X4.825Y-3.2
X4.825Y-3.3
X4.825Y-3.4
X4.825Y-3.5
X4.825Y-3.6
X4.825Y-3.7
X4.825Y-3.8
X4.825Y-3.9
X4.825Y-4.
X4.825Y-4.1
X4.825Y-4.2
X4.825Y-4.3
X4.825Y-4.4
X4.825Y-4.5
X4.825Y-4.6
X4.825Y-4.7
X4.825Y-4.8
X4.825Y-4.9
X4.925Y-2.8
X4.925Y-2.9
X4.925Y-3.
X4.925Y-3.1
X4.925Y-3.2
X4.925Y-3.3
X4.925Y-3.4
X4.925Y-3.5
X4.925Y-3.6
X4.925Y-3.7
X4.925Y-3.8
X4.925Y-3.9
X4.925Y-4.
X4.925Y-4.1
X4.925Y-4.2
X4.925Y-4.3
X4.925Y-4.4
X4.925Y-4.5
X4.925Y-4.6
X4.925Y-4.7
X4.925Y-4.8
X4.925Y-4.9
X5.025Y-2.8
X5.025Y-2.9
X5.025Y-3.
X5.025Y-3.1
X5.025Y-3.2
X5.025Y-3.3
X5.025Y-3.4
X5.025Y-3.5
X5.025Y-3.6
X5.025Y-3.7
X5.025Y-3.8
X5.025Y-3.9
X5.025Y-4.
X5.025Y-4.1
X5.025Y-4.2
X5.025Y-4.3
X5.025Y-4.4
X5.025Y-4.5
X5.025Y-4.6
X5.025Y-4.7
X5.025Y-4.8
X5.025Y-4.9
X5.125Y-2.8
X5.125Y-2.9
X5.125Y-3.
X5.125Y-3.1
X5.125Y-3.2
X5.125Y-3.3
X5.125Y-3.4
X5.125Y-3.5
X5.125Y-3.6
X5.125Y-3.7
X5.125Y-3.8
X5.125Y-3.9
X5.125Y-4.
X5.125Y-4.1
X5.125Y-4.2
X5.125Y-4.3
X5.125Y-4.4
X5.125Y-4.5
X5.125Y-4.6
X5.125Y-4.7
X5.125Y-4.8
X5.125Y-4.9
X5.225Y-2.8
X5.225Y-2.9
X5.225Y-3.
X5.225Y-3.1
X5.225Y-3.2
X5.225Y-3.3
X5.225Y-3.4
X5.225Y-3.5
X5.225Y-3.6
X5.225Y-3.7
X5.225Y-3.8
X5.225Y-3.9
X5.225Y-4.
X5.225Y-4.1
X5.225Y-4.2
X5.225Y-4.3
X5.225Y-4.4
X5.225Y-4.5
X5.225Y-4.6
X5.225Y-4.7
X5.225Y-4.8
X5.225Y-4.9
X5.325Y-2.8
X5.325Y-2.9
X5.325Y-3.
X5.325Y-3.1
X5.325Y-3.2
X5.325Y-3.3
X5.325Y-3.4
X5.325Y-3.5
X5.325Y-3.6
X5.325Y-3.7
X5.325Y-3.8
X5.325Y-3.9
X5.325Y-4.
X5.325Y-4.1
X5.325Y-4.2
X5.325Y-4.3
X5.325Y-4.4
X5.325Y-4.5
X5.325Y-4.6
X5.325Y-4.7
X5.325Y-4.8
X5.325Y-4.9
X5.425Y-2.8
X5.425Y-2.9
X5.425Y-3.
X5.425Y-3.1
X5.425Y-3.2
X5.425Y-3.3
X5.425Y-3.4
X5.425Y-3.5
X5.425Y-3.6
X5.425Y-3.7
X5.425Y-3.8
X5.425Y-3.9
X5.425Y-4.
X5.425Y-4.1
X5.425Y-4.2
X5.425Y-4.3
X5.425Y-4.4
X5.425Y-4.5
X5.425Y-4.6
X5.425Y-4.7
X5.425Y-4.8
X5.425Y-4.9
X5.525Y-2.8
X5.525Y-2.9
X5.525Y-3.
X5.525Y-3.1
X5.525Y-3.2
X5.525Y-3.3
X5.525Y-3.4
X5.525Y-3.5
X5.525Y-3.6
X5.525Y-3.7
X5.525Y-3.8
X5.525Y-3.9
X5.525Y-4.
X5.525Y-4.1
X5.525Y-4.2
X5.525Y-4.3
X5.525Y-4.4
X5.525Y-4.5
X5.525Y-4.6
X5.525Y-4.7
X5.525Y-4.8
X5.525Y-4.9
X5.625Y-2.8
X5.625Y-2.9
X5.625Y-3.
X5.625Y-3.1
X5.625Y-3.2
X5.625Y-3.3
X5.625Y-3.4
X5.625Y-3.5
X5.625Y-3.6
X5.625Y-3.7
X5.625Y-3.8
X5.625Y-3.9
X5.625Y-4.
X5.625Y-4.1
X5.625Y-4.2
X5.625Y-4.3
X5.625Y-4.4
X5.625Y-4.5
X5.625Y-4.6
X5.625Y-4.7
X5.625Y-4.8
X5.625Y-4.9
X5.725Y-2.8
X5.725Y-2.9
X5.725Y-3.
X5.725Y-3.1
X5.725Y-3.2
X5.725Y-3.3
X5.725Y-3.4
X5.725Y-3.5
X5.725Y-3.6
X5.725Y-3.7
X5.725Y-3.8
X5.725Y-3.9
X5.725Y-4.
X5.725Y-4.1
X5.725Y-4.2
X5.725Y-4.3
X5.725Y-4.4
X5.725Y-4.5
X5.725Y-4.6
X5.725Y-4.7
X5.725Y-4.8
X5.725Y-4.9
X5.825Y-2.8
X5.825Y-2.9
X5.825Y-3.
X5.825Y-3.1
X5.825Y-3.2
X5.825Y-3.3
X5.825Y-3.4
X5.825Y-3.5
X5.825Y-3.6
X5.825Y-3.7
X5.825Y-3.8
X5.825Y-3.9
X5.825Y-4.
X5.825Y-4.1
X5.825Y-4.2
X5.825Y-4.3
X5.825Y-4.4
X5.825Y-4.5
X5.825Y-4.6
X5.825Y-4.7
X5.825Y-4.8
X5.825Y-4.9
X5.925Y-2.8
X5.925Y-2.9
X5.925Y-3.
X5.925Y-3.1
X5.925Y-3.2
X5.925Y-3.3
X5.925Y-3.4
X5.925Y-3.5
X5.925Y-3.6
X5.925Y-3.7
X5.925Y-3.8
X5.925Y-3.9
X5.925Y-4.
X5.925Y-4.1
X5.925Y-4.2
X5.925Y-4.3
X5.925Y-4.4
X5.925Y-4.5
X5.925Y-4.6
X5.925Y-4.7
X5.925Y-4.8
X5.925Y-4.9
T2
X4.1Y-3.8
X4.1Y-3.9
T0
M30
