%FSLAX46Y46*%
G04 Gerber Fmt 4.6, Leading zero omitted, Abs format (unit mm)*
G04 Created by KiCad (PCBNEW (2014-08-29 BZR 5106)-product) date Tue 04 Nov 2014 10:58:54 AM PST*
%MOMM*%
G01*
G04 APERTURE LIST*
%ADD10C,0.100000*%
%ADD11C,0.200000*%
%ADD12C,0.152400*%
%ADD13C,0.127000*%
%ADD14C,0.125000*%
%ADD15C,0.150000*%
%ADD16C,0.101600*%
%ADD17C,0.070000*%
%ADD18R,2.184400X2.184400*%
%ADD19O,2.184400X2.184400*%
%ADD20C,1.930400*%
%ADD21C,1.803400*%
%ADD22C,0.254000*%
G04 APERTURE END LIST*
D10*
D11*
X102616000Y-98044000D02*
G75*
G03X101854000Y-98044000I-381000J-635000D01*
G74*
G01*
D12*
X107275691Y-96090619D02*
X107904643Y-96090619D01*
X107565977Y-96477667D01*
X107711119Y-96477667D01*
X107807881Y-96526048D01*
X107856262Y-96574429D01*
X107904643Y-96671190D01*
X107904643Y-96913095D01*
X107856262Y-97009857D01*
X107807881Y-97058238D01*
X107711119Y-97106619D01*
X107420834Y-97106619D01*
X107324072Y-97058238D01*
X107275691Y-97009857D01*
X108340072Y-97009857D02*
X108388453Y-97058238D01*
X108340072Y-97106619D01*
X108291691Y-97058238D01*
X108340072Y-97009857D01*
X108340072Y-97106619D01*
X108727120Y-96090619D02*
X109356072Y-96090619D01*
X109017406Y-96477667D01*
X109162548Y-96477667D01*
X109259310Y-96526048D01*
X109307691Y-96574429D01*
X109356072Y-96671190D01*
X109356072Y-96913095D01*
X109307691Y-97009857D01*
X109259310Y-97058238D01*
X109162548Y-97106619D01*
X108872263Y-97106619D01*
X108775501Y-97058238D01*
X108727120Y-97009857D01*
X109646358Y-96090619D02*
X109985025Y-97106619D01*
X110323691Y-96090619D01*
X107937905Y-98679000D02*
X107841143Y-98630619D01*
X107696000Y-98630619D01*
X107550858Y-98679000D01*
X107454096Y-98775762D01*
X107405715Y-98872524D01*
X107357334Y-99066048D01*
X107357334Y-99211190D01*
X107405715Y-99404714D01*
X107454096Y-99501476D01*
X107550858Y-99598238D01*
X107696000Y-99646619D01*
X107792762Y-99646619D01*
X107937905Y-99598238D01*
X107986286Y-99549857D01*
X107986286Y-99211190D01*
X107792762Y-99211190D01*
X108421715Y-99646619D02*
X108421715Y-98630619D01*
X109002286Y-99646619D01*
X109002286Y-98630619D01*
X109486096Y-99646619D02*
X109486096Y-98630619D01*
X109728001Y-98630619D01*
X109873143Y-98679000D01*
X109969905Y-98775762D01*
X110018286Y-98872524D01*
X110066667Y-99066048D01*
X110066667Y-99211190D01*
X110018286Y-99404714D01*
X109969905Y-99501476D01*
X109873143Y-99598238D01*
X109728001Y-99646619D01*
X109486096Y-99646619D01*
D11*
X151130000Y-97790000D02*
X106680000Y-97790000D01*
X151130000Y-95250000D02*
X151130000Y-97790000D01*
X106680000Y-95250000D02*
X151130000Y-95250000D01*
X106680000Y-100330000D02*
X106680000Y-95250000D01*
X151130000Y-100330000D02*
X106680000Y-100330000D01*
X151130000Y-97790000D02*
X151130000Y-100330000D01*
D13*
X108766428Y-125603000D02*
X108693857Y-125566714D01*
X108585000Y-125566714D01*
X108476143Y-125603000D01*
X108403571Y-125675571D01*
X108367286Y-125748143D01*
X108331000Y-125893286D01*
X108331000Y-126002143D01*
X108367286Y-126147286D01*
X108403571Y-126219857D01*
X108476143Y-126292429D01*
X108585000Y-126328714D01*
X108657571Y-126328714D01*
X108766428Y-126292429D01*
X108802714Y-126256143D01*
X108802714Y-126002143D01*
X108657571Y-126002143D01*
X109129286Y-126328714D02*
X109129286Y-125566714D01*
X109564714Y-126328714D01*
X109564714Y-125566714D01*
X109927572Y-126328714D02*
X109927572Y-125566714D01*
X110109000Y-125566714D01*
X110217857Y-125603000D01*
X110290429Y-125675571D01*
X110326714Y-125748143D01*
X110363000Y-125893286D01*
X110363000Y-126002143D01*
X110326714Y-126147286D01*
X110290429Y-126219857D01*
X110217857Y-126292429D01*
X110109000Y-126328714D01*
X109927572Y-126328714D01*
X108222143Y-69178714D02*
X108693857Y-69178714D01*
X108439857Y-69469000D01*
X108548715Y-69469000D01*
X108621286Y-69505286D01*
X108657572Y-69541571D01*
X108693857Y-69614143D01*
X108693857Y-69795571D01*
X108657572Y-69868143D01*
X108621286Y-69904429D01*
X108548715Y-69940714D01*
X108331000Y-69940714D01*
X108258429Y-69904429D01*
X108222143Y-69868143D01*
X109020429Y-69868143D02*
X109056714Y-69904429D01*
X109020429Y-69940714D01*
X108984143Y-69904429D01*
X109020429Y-69868143D01*
X109020429Y-69940714D01*
X109310714Y-69178714D02*
X109782428Y-69178714D01*
X109528428Y-69469000D01*
X109637286Y-69469000D01*
X109709857Y-69505286D01*
X109746143Y-69541571D01*
X109782428Y-69614143D01*
X109782428Y-69795571D01*
X109746143Y-69868143D01*
X109709857Y-69904429D01*
X109637286Y-69940714D01*
X109419571Y-69940714D01*
X109347000Y-69904429D01*
X109310714Y-69868143D01*
X110000142Y-69178714D02*
X110254142Y-69940714D01*
X110508142Y-69178714D01*
D14*
X102298476Y-99222714D02*
X101917524Y-99222714D01*
X102298476Y-96428714D02*
X101917524Y-96428714D01*
X102108000Y-96619190D02*
X102108000Y-96238238D01*
D11*
X102235000Y-98044000D02*
X102235000Y-98679000D01*
X102235000Y-96901000D02*
X102235000Y-97536000D01*
X101854000Y-97599500D02*
X102616000Y-97599500D01*
D15*
X102870000Y-97790000D02*
X105410000Y-97790000D01*
X102870000Y-100330000D02*
X105410000Y-100330000D01*
X105410000Y-100330000D02*
X105410000Y-97790000D01*
X105410000Y-97790000D02*
X105410000Y-95250000D01*
X105410000Y-95250000D02*
X102870000Y-95250000D01*
X102870000Y-95250000D02*
X102870000Y-100330000D01*
X104538705Y-124460000D02*
G75*
G03X104538705Y-124460000I-1033705J0D01*
G74*
G01*
X104538705Y-93980000D02*
G75*
G03X104538705Y-93980000I-1033705J0D01*
G74*
G01*
D16*
X102634143Y-100203000D02*
X102670429Y-100239286D01*
X102706714Y-100348143D01*
X102706714Y-100420714D01*
X102670429Y-100529571D01*
X102597857Y-100602143D01*
X102525286Y-100638428D01*
X102380143Y-100674714D01*
X102271286Y-100674714D01*
X102126143Y-100638428D01*
X102053571Y-100602143D01*
X101981000Y-100529571D01*
X101944714Y-100420714D01*
X101944714Y-100348143D01*
X101981000Y-100239286D01*
X102017286Y-100203000D01*
X102706714Y-99477286D02*
X102706714Y-99912714D01*
X102706714Y-99695000D02*
X101944714Y-99695000D01*
X102053571Y-99767571D01*
X102126143Y-99840143D01*
X102162429Y-99912714D01*
D17*
X102232667Y-113263333D02*
X102732667Y-113263333D01*
X102832667Y-113296667D01*
X102899333Y-113363333D01*
X102932667Y-113463333D01*
X102932667Y-113530000D01*
X102932667Y-112563334D02*
X102932667Y-112963334D01*
X102932667Y-112763334D02*
X102232667Y-112763334D01*
X102332667Y-112830000D01*
X102399333Y-112896667D01*
X102432667Y-112963334D01*
D10*
X104783000Y-101717857D02*
X104735381Y-101770238D01*
X104735381Y-101848810D01*
X104783000Y-101927381D01*
X104878238Y-101979762D01*
X104973476Y-102005953D01*
X105163952Y-102032143D01*
X105306810Y-102032143D01*
X105497286Y-102005953D01*
X105592524Y-101979762D01*
X105687762Y-101927381D01*
X105735381Y-101848810D01*
X105735381Y-101796429D01*
X105687762Y-101717857D01*
X105640143Y-101691667D01*
X105306810Y-101691667D01*
X105306810Y-101796429D01*
X104735381Y-101508334D02*
X104735381Y-101167857D01*
X105116333Y-101351191D01*
X105116333Y-101272619D01*
X105163952Y-101220238D01*
X105211571Y-101194048D01*
X105306810Y-101167857D01*
X105544905Y-101167857D01*
X105640143Y-101194048D01*
X105687762Y-101220238D01*
X105735381Y-101272619D01*
X105735381Y-101429762D01*
X105687762Y-101482143D01*
X105640143Y-101508334D01*
X104783000Y-104911428D02*
X104735381Y-104954285D01*
X104735381Y-105018571D01*
X104783000Y-105082856D01*
X104878238Y-105125714D01*
X104973476Y-105147142D01*
X105163952Y-105168571D01*
X105306810Y-105168571D01*
X105497286Y-105147142D01*
X105592524Y-105125714D01*
X105687762Y-105082856D01*
X105735381Y-105018571D01*
X105735381Y-104975714D01*
X105687762Y-104911428D01*
X105640143Y-104889999D01*
X105306810Y-104889999D01*
X105306810Y-104975714D01*
X104830619Y-104718571D02*
X104783000Y-104697142D01*
X104735381Y-104654285D01*
X104735381Y-104547142D01*
X104783000Y-104504285D01*
X104830619Y-104482856D01*
X104925857Y-104461428D01*
X105021095Y-104461428D01*
X105163952Y-104482856D01*
X105735381Y-104739999D01*
X105735381Y-104461428D01*
X104687762Y-103947143D02*
X105973476Y-104332857D01*
X105735381Y-103539999D02*
X105259190Y-103689999D01*
X105735381Y-103797142D02*
X104735381Y-103797142D01*
X104735381Y-103625714D01*
X104783000Y-103582856D01*
X104830619Y-103561428D01*
X104925857Y-103539999D01*
X105068714Y-103539999D01*
X105163952Y-103561428D01*
X105211571Y-103582856D01*
X105259190Y-103625714D01*
X105259190Y-103797142D01*
X104735381Y-103389999D02*
X105735381Y-103089999D01*
X104735381Y-103089999D02*
X105735381Y-103389999D01*
X104783000Y-107397857D02*
X104735381Y-107440714D01*
X104735381Y-107505000D01*
X104783000Y-107569285D01*
X104878238Y-107612143D01*
X104973476Y-107633571D01*
X105163952Y-107655000D01*
X105306810Y-107655000D01*
X105497286Y-107633571D01*
X105592524Y-107612143D01*
X105687762Y-107569285D01*
X105735381Y-107505000D01*
X105735381Y-107462143D01*
X105687762Y-107397857D01*
X105640143Y-107376428D01*
X105306810Y-107376428D01*
X105306810Y-107462143D01*
X105735381Y-106947857D02*
X105735381Y-107205000D01*
X105735381Y-107076428D02*
X104735381Y-107076428D01*
X104878238Y-107119285D01*
X104973476Y-107162143D01*
X105021095Y-107205000D01*
X104687762Y-106433572D02*
X105973476Y-106819286D01*
X104735381Y-106347857D02*
X104735381Y-106090714D01*
X105735381Y-106219285D02*
X104735381Y-106219285D01*
X104735381Y-105983571D02*
X105735381Y-105683571D01*
X104735381Y-105683571D02*
X105735381Y-105983571D01*
X105735381Y-110084286D02*
X104735381Y-110084286D01*
X105449667Y-109900952D01*
X104735381Y-109717619D01*
X105735381Y-109717619D01*
X104735381Y-109350953D02*
X104735381Y-109246191D01*
X104783000Y-109193810D01*
X104878238Y-109141429D01*
X105068714Y-109115238D01*
X105402048Y-109115238D01*
X105592524Y-109141429D01*
X105687762Y-109193810D01*
X105735381Y-109246191D01*
X105735381Y-109350953D01*
X105687762Y-109403334D01*
X105592524Y-109455715D01*
X105402048Y-109481905D01*
X105068714Y-109481905D01*
X104878238Y-109455715D01*
X104783000Y-109403334D01*
X104735381Y-109350953D01*
X105687762Y-108905715D02*
X105735381Y-108827144D01*
X105735381Y-108696191D01*
X105687762Y-108643810D01*
X105640143Y-108617620D01*
X105544905Y-108591429D01*
X105449667Y-108591429D01*
X105354429Y-108617620D01*
X105306810Y-108643810D01*
X105259190Y-108696191D01*
X105211571Y-108800953D01*
X105163952Y-108853334D01*
X105116333Y-108879525D01*
X105021095Y-108905715D01*
X104925857Y-108905715D01*
X104830619Y-108879525D01*
X104783000Y-108853334D01*
X104735381Y-108800953D01*
X104735381Y-108670001D01*
X104783000Y-108591429D01*
X105735381Y-108355715D02*
X104735381Y-108355715D01*
X105735381Y-112624286D02*
X104735381Y-112624286D01*
X105449667Y-112440952D01*
X104735381Y-112257619D01*
X105735381Y-112257619D01*
X105735381Y-111995715D02*
X104735381Y-111995715D01*
X105687762Y-111760000D02*
X105735381Y-111681429D01*
X105735381Y-111550476D01*
X105687762Y-111498095D01*
X105640143Y-111471905D01*
X105544905Y-111445714D01*
X105449667Y-111445714D01*
X105354429Y-111471905D01*
X105306810Y-111498095D01*
X105259190Y-111550476D01*
X105211571Y-111655238D01*
X105163952Y-111707619D01*
X105116333Y-111733810D01*
X105021095Y-111760000D01*
X104925857Y-111760000D01*
X104830619Y-111733810D01*
X104783000Y-111707619D01*
X104735381Y-111655238D01*
X104735381Y-111524286D01*
X104783000Y-111445714D01*
X104735381Y-111105238D02*
X104735381Y-111000476D01*
X104783000Y-110948095D01*
X104878238Y-110895714D01*
X105068714Y-110869523D01*
X105402048Y-110869523D01*
X105592524Y-110895714D01*
X105687762Y-110948095D01*
X105735381Y-111000476D01*
X105735381Y-111105238D01*
X105687762Y-111157619D01*
X105592524Y-111210000D01*
X105402048Y-111236190D01*
X105068714Y-111236190D01*
X104878238Y-111210000D01*
X104783000Y-111157619D01*
X104735381Y-111105238D01*
X105687762Y-115007143D02*
X105735381Y-114928572D01*
X105735381Y-114797619D01*
X105687762Y-114745238D01*
X105640143Y-114719048D01*
X105544905Y-114692857D01*
X105449667Y-114692857D01*
X105354429Y-114719048D01*
X105306810Y-114745238D01*
X105259190Y-114797619D01*
X105211571Y-114902381D01*
X105163952Y-114954762D01*
X105116333Y-114980953D01*
X105021095Y-115007143D01*
X104925857Y-115007143D01*
X104830619Y-114980953D01*
X104783000Y-114954762D01*
X104735381Y-114902381D01*
X104735381Y-114771429D01*
X104783000Y-114692857D01*
X105640143Y-114142857D02*
X105687762Y-114169047D01*
X105735381Y-114247619D01*
X105735381Y-114300000D01*
X105687762Y-114378571D01*
X105592524Y-114430952D01*
X105497286Y-114457143D01*
X105306810Y-114483333D01*
X105163952Y-114483333D01*
X104973476Y-114457143D01*
X104878238Y-114430952D01*
X104783000Y-114378571D01*
X104735381Y-114300000D01*
X104735381Y-114247619D01*
X104783000Y-114169047D01*
X104830619Y-114142857D01*
X105735381Y-113907143D02*
X104735381Y-113907143D01*
X105735381Y-113592857D02*
X105163952Y-113828571D01*
X104735381Y-113592857D02*
X105306810Y-113907143D01*
X105687762Y-117507857D02*
X105735381Y-117429286D01*
X105735381Y-117298333D01*
X105687762Y-117245952D01*
X105640143Y-117219762D01*
X105544905Y-117193571D01*
X105449667Y-117193571D01*
X105354429Y-117219762D01*
X105306810Y-117245952D01*
X105259190Y-117298333D01*
X105211571Y-117403095D01*
X105163952Y-117455476D01*
X105116333Y-117481667D01*
X105021095Y-117507857D01*
X104925857Y-117507857D01*
X104830619Y-117481667D01*
X104783000Y-117455476D01*
X104735381Y-117403095D01*
X104735381Y-117272143D01*
X104783000Y-117193571D01*
X105735381Y-116957857D02*
X104735381Y-116957857D01*
X104735381Y-116826904D01*
X104783000Y-116748333D01*
X104878238Y-116695952D01*
X104973476Y-116669761D01*
X105163952Y-116643571D01*
X105306810Y-116643571D01*
X105497286Y-116669761D01*
X105592524Y-116695952D01*
X105687762Y-116748333D01*
X105735381Y-116826904D01*
X105735381Y-116957857D01*
X105449667Y-116434047D02*
X105449667Y-116172142D01*
X105735381Y-116486428D02*
X104735381Y-116303095D01*
X105735381Y-116119761D01*
X105687762Y-120034762D02*
X105735381Y-119956191D01*
X105735381Y-119825238D01*
X105687762Y-119772857D01*
X105640143Y-119746667D01*
X105544905Y-119720476D01*
X105449667Y-119720476D01*
X105354429Y-119746667D01*
X105306810Y-119772857D01*
X105259190Y-119825238D01*
X105211571Y-119930000D01*
X105163952Y-119982381D01*
X105116333Y-120008572D01*
X105021095Y-120034762D01*
X104925857Y-120034762D01*
X104830619Y-120008572D01*
X104783000Y-119982381D01*
X104735381Y-119930000D01*
X104735381Y-119799048D01*
X104783000Y-119720476D01*
X105640143Y-119170476D02*
X105687762Y-119196666D01*
X105735381Y-119275238D01*
X105735381Y-119327619D01*
X105687762Y-119406190D01*
X105592524Y-119458571D01*
X105497286Y-119484762D01*
X105306810Y-119510952D01*
X105163952Y-119510952D01*
X104973476Y-119484762D01*
X104878238Y-119458571D01*
X104783000Y-119406190D01*
X104735381Y-119327619D01*
X104735381Y-119275238D01*
X104783000Y-119196666D01*
X104830619Y-119170476D01*
X105735381Y-118672857D02*
X105735381Y-118934762D01*
X104735381Y-118934762D01*
X104735381Y-122600953D02*
X104735381Y-122260476D01*
X105116333Y-122443810D01*
X105116333Y-122365238D01*
X105163952Y-122312857D01*
X105211571Y-122286667D01*
X105306810Y-122260476D01*
X105544905Y-122260476D01*
X105640143Y-122286667D01*
X105687762Y-122312857D01*
X105735381Y-122365238D01*
X105735381Y-122522381D01*
X105687762Y-122574762D01*
X105640143Y-122600953D01*
X104735381Y-122103333D02*
X105735381Y-121920000D01*
X104735381Y-121736666D01*
X104735381Y-121605714D02*
X104735381Y-121265237D01*
X105116333Y-121448571D01*
X105116333Y-121369999D01*
X105163952Y-121317618D01*
X105211571Y-121291428D01*
X105306810Y-121265237D01*
X105544905Y-121265237D01*
X105640143Y-121291428D01*
X105687762Y-121317618D01*
X105735381Y-121369999D01*
X105735381Y-121527142D01*
X105687762Y-121579523D01*
X105640143Y-121605714D01*
X104783000Y-124879047D02*
X104735381Y-124931428D01*
X104735381Y-125010000D01*
X104783000Y-125088571D01*
X104878238Y-125140952D01*
X104973476Y-125167143D01*
X105163952Y-125193333D01*
X105306810Y-125193333D01*
X105497286Y-125167143D01*
X105592524Y-125140952D01*
X105687762Y-125088571D01*
X105735381Y-125010000D01*
X105735381Y-124957619D01*
X105687762Y-124879047D01*
X105640143Y-124852857D01*
X105306810Y-124852857D01*
X105306810Y-124957619D01*
X105735381Y-124617143D02*
X104735381Y-124617143D01*
X105735381Y-124302857D01*
X104735381Y-124302857D01*
X105735381Y-124040953D02*
X104735381Y-124040953D01*
X104735381Y-123910000D01*
X104783000Y-123831429D01*
X104878238Y-123779048D01*
X104973476Y-123752857D01*
X105163952Y-123726667D01*
X105306810Y-123726667D01*
X105497286Y-123752857D01*
X105592524Y-123779048D01*
X105687762Y-123831429D01*
X105735381Y-123910000D01*
X105735381Y-124040953D01*
D17*
X102232667Y-82783333D02*
X102732667Y-82783333D01*
X102832667Y-82816667D01*
X102899333Y-82883333D01*
X102932667Y-82983333D01*
X102932667Y-83050000D01*
X102299333Y-82483334D02*
X102266000Y-82450000D01*
X102232667Y-82383334D01*
X102232667Y-82216667D01*
X102266000Y-82150000D01*
X102299333Y-82116667D01*
X102366000Y-82083334D01*
X102432667Y-82083334D01*
X102532667Y-82116667D01*
X102932667Y-82516667D01*
X102932667Y-82083334D01*
D10*
X104783000Y-71237857D02*
X104735381Y-71290238D01*
X104735381Y-71368810D01*
X104783000Y-71447381D01*
X104878238Y-71499762D01*
X104973476Y-71525953D01*
X105163952Y-71552143D01*
X105306810Y-71552143D01*
X105497286Y-71525953D01*
X105592524Y-71499762D01*
X105687762Y-71447381D01*
X105735381Y-71368810D01*
X105735381Y-71316429D01*
X105687762Y-71237857D01*
X105640143Y-71211667D01*
X105306810Y-71211667D01*
X105306810Y-71316429D01*
X104735381Y-71028334D02*
X104735381Y-70687857D01*
X105116333Y-70871191D01*
X105116333Y-70792619D01*
X105163952Y-70740238D01*
X105211571Y-70714048D01*
X105306810Y-70687857D01*
X105544905Y-70687857D01*
X105640143Y-70714048D01*
X105687762Y-70740238D01*
X105735381Y-70792619D01*
X105735381Y-70949762D01*
X105687762Y-71002143D01*
X105640143Y-71028334D01*
X104783000Y-74431428D02*
X104735381Y-74474285D01*
X104735381Y-74538571D01*
X104783000Y-74602856D01*
X104878238Y-74645714D01*
X104973476Y-74667142D01*
X105163952Y-74688571D01*
X105306810Y-74688571D01*
X105497286Y-74667142D01*
X105592524Y-74645714D01*
X105687762Y-74602856D01*
X105735381Y-74538571D01*
X105735381Y-74495714D01*
X105687762Y-74431428D01*
X105640143Y-74409999D01*
X105306810Y-74409999D01*
X105306810Y-74495714D01*
X104830619Y-74238571D02*
X104783000Y-74217142D01*
X104735381Y-74174285D01*
X104735381Y-74067142D01*
X104783000Y-74024285D01*
X104830619Y-74002856D01*
X104925857Y-73981428D01*
X105021095Y-73981428D01*
X105163952Y-74002856D01*
X105735381Y-74259999D01*
X105735381Y-73981428D01*
X104687762Y-73467143D02*
X105973476Y-73852857D01*
X105735381Y-73059999D02*
X105259190Y-73209999D01*
X105735381Y-73317142D02*
X104735381Y-73317142D01*
X104735381Y-73145714D01*
X104783000Y-73102856D01*
X104830619Y-73081428D01*
X104925857Y-73059999D01*
X105068714Y-73059999D01*
X105163952Y-73081428D01*
X105211571Y-73102856D01*
X105259190Y-73145714D01*
X105259190Y-73317142D01*
X104735381Y-72909999D02*
X105735381Y-72609999D01*
X104735381Y-72609999D02*
X105735381Y-72909999D01*
X104783000Y-76917857D02*
X104735381Y-76960714D01*
X104735381Y-77025000D01*
X104783000Y-77089285D01*
X104878238Y-77132143D01*
X104973476Y-77153571D01*
X105163952Y-77175000D01*
X105306810Y-77175000D01*
X105497286Y-77153571D01*
X105592524Y-77132143D01*
X105687762Y-77089285D01*
X105735381Y-77025000D01*
X105735381Y-76982143D01*
X105687762Y-76917857D01*
X105640143Y-76896428D01*
X105306810Y-76896428D01*
X105306810Y-76982143D01*
X105735381Y-76467857D02*
X105735381Y-76725000D01*
X105735381Y-76596428D02*
X104735381Y-76596428D01*
X104878238Y-76639285D01*
X104973476Y-76682143D01*
X105021095Y-76725000D01*
X104687762Y-75953572D02*
X105973476Y-76339286D01*
X104735381Y-75867857D02*
X104735381Y-75610714D01*
X105735381Y-75739285D02*
X104735381Y-75739285D01*
X104735381Y-75503571D02*
X105735381Y-75203571D01*
X104735381Y-75203571D02*
X105735381Y-75503571D01*
X105735381Y-79604286D02*
X104735381Y-79604286D01*
X105449667Y-79420952D01*
X104735381Y-79237619D01*
X105735381Y-79237619D01*
X104735381Y-78870953D02*
X104735381Y-78766191D01*
X104783000Y-78713810D01*
X104878238Y-78661429D01*
X105068714Y-78635238D01*
X105402048Y-78635238D01*
X105592524Y-78661429D01*
X105687762Y-78713810D01*
X105735381Y-78766191D01*
X105735381Y-78870953D01*
X105687762Y-78923334D01*
X105592524Y-78975715D01*
X105402048Y-79001905D01*
X105068714Y-79001905D01*
X104878238Y-78975715D01*
X104783000Y-78923334D01*
X104735381Y-78870953D01*
X105687762Y-78425715D02*
X105735381Y-78347144D01*
X105735381Y-78216191D01*
X105687762Y-78163810D01*
X105640143Y-78137620D01*
X105544905Y-78111429D01*
X105449667Y-78111429D01*
X105354429Y-78137620D01*
X105306810Y-78163810D01*
X105259190Y-78216191D01*
X105211571Y-78320953D01*
X105163952Y-78373334D01*
X105116333Y-78399525D01*
X105021095Y-78425715D01*
X104925857Y-78425715D01*
X104830619Y-78399525D01*
X104783000Y-78373334D01*
X104735381Y-78320953D01*
X104735381Y-78190001D01*
X104783000Y-78111429D01*
X105735381Y-77875715D02*
X104735381Y-77875715D01*
X105735381Y-82144286D02*
X104735381Y-82144286D01*
X105449667Y-81960952D01*
X104735381Y-81777619D01*
X105735381Y-81777619D01*
X105735381Y-81515715D02*
X104735381Y-81515715D01*
X105687762Y-81280000D02*
X105735381Y-81201429D01*
X105735381Y-81070476D01*
X105687762Y-81018095D01*
X105640143Y-80991905D01*
X105544905Y-80965714D01*
X105449667Y-80965714D01*
X105354429Y-80991905D01*
X105306810Y-81018095D01*
X105259190Y-81070476D01*
X105211571Y-81175238D01*
X105163952Y-81227619D01*
X105116333Y-81253810D01*
X105021095Y-81280000D01*
X104925857Y-81280000D01*
X104830619Y-81253810D01*
X104783000Y-81227619D01*
X104735381Y-81175238D01*
X104735381Y-81044286D01*
X104783000Y-80965714D01*
X104735381Y-80625238D02*
X104735381Y-80520476D01*
X104783000Y-80468095D01*
X104878238Y-80415714D01*
X105068714Y-80389523D01*
X105402048Y-80389523D01*
X105592524Y-80415714D01*
X105687762Y-80468095D01*
X105735381Y-80520476D01*
X105735381Y-80625238D01*
X105687762Y-80677619D01*
X105592524Y-80730000D01*
X105402048Y-80756190D01*
X105068714Y-80756190D01*
X104878238Y-80730000D01*
X104783000Y-80677619D01*
X104735381Y-80625238D01*
X105687762Y-84527143D02*
X105735381Y-84448572D01*
X105735381Y-84317619D01*
X105687762Y-84265238D01*
X105640143Y-84239048D01*
X105544905Y-84212857D01*
X105449667Y-84212857D01*
X105354429Y-84239048D01*
X105306810Y-84265238D01*
X105259190Y-84317619D01*
X105211571Y-84422381D01*
X105163952Y-84474762D01*
X105116333Y-84500953D01*
X105021095Y-84527143D01*
X104925857Y-84527143D01*
X104830619Y-84500953D01*
X104783000Y-84474762D01*
X104735381Y-84422381D01*
X104735381Y-84291429D01*
X104783000Y-84212857D01*
X105640143Y-83662857D02*
X105687762Y-83689047D01*
X105735381Y-83767619D01*
X105735381Y-83820000D01*
X105687762Y-83898571D01*
X105592524Y-83950952D01*
X105497286Y-83977143D01*
X105306810Y-84003333D01*
X105163952Y-84003333D01*
X104973476Y-83977143D01*
X104878238Y-83950952D01*
X104783000Y-83898571D01*
X104735381Y-83820000D01*
X104735381Y-83767619D01*
X104783000Y-83689047D01*
X104830619Y-83662857D01*
X105735381Y-83427143D02*
X104735381Y-83427143D01*
X105735381Y-83112857D02*
X105163952Y-83348571D01*
X104735381Y-83112857D02*
X105306810Y-83427143D01*
X105687762Y-87027857D02*
X105735381Y-86949286D01*
X105735381Y-86818333D01*
X105687762Y-86765952D01*
X105640143Y-86739762D01*
X105544905Y-86713571D01*
X105449667Y-86713571D01*
X105354429Y-86739762D01*
X105306810Y-86765952D01*
X105259190Y-86818333D01*
X105211571Y-86923095D01*
X105163952Y-86975476D01*
X105116333Y-87001667D01*
X105021095Y-87027857D01*
X104925857Y-87027857D01*
X104830619Y-87001667D01*
X104783000Y-86975476D01*
X104735381Y-86923095D01*
X104735381Y-86792143D01*
X104783000Y-86713571D01*
X105735381Y-86477857D02*
X104735381Y-86477857D01*
X104735381Y-86346904D01*
X104783000Y-86268333D01*
X104878238Y-86215952D01*
X104973476Y-86189761D01*
X105163952Y-86163571D01*
X105306810Y-86163571D01*
X105497286Y-86189761D01*
X105592524Y-86215952D01*
X105687762Y-86268333D01*
X105735381Y-86346904D01*
X105735381Y-86477857D01*
X105449667Y-85954047D02*
X105449667Y-85692142D01*
X105735381Y-86006428D02*
X104735381Y-85823095D01*
X105735381Y-85639761D01*
X105687762Y-89554762D02*
X105735381Y-89476191D01*
X105735381Y-89345238D01*
X105687762Y-89292857D01*
X105640143Y-89266667D01*
X105544905Y-89240476D01*
X105449667Y-89240476D01*
X105354429Y-89266667D01*
X105306810Y-89292857D01*
X105259190Y-89345238D01*
X105211571Y-89450000D01*
X105163952Y-89502381D01*
X105116333Y-89528572D01*
X105021095Y-89554762D01*
X104925857Y-89554762D01*
X104830619Y-89528572D01*
X104783000Y-89502381D01*
X104735381Y-89450000D01*
X104735381Y-89319048D01*
X104783000Y-89240476D01*
X105640143Y-88690476D02*
X105687762Y-88716666D01*
X105735381Y-88795238D01*
X105735381Y-88847619D01*
X105687762Y-88926190D01*
X105592524Y-88978571D01*
X105497286Y-89004762D01*
X105306810Y-89030952D01*
X105163952Y-89030952D01*
X104973476Y-89004762D01*
X104878238Y-88978571D01*
X104783000Y-88926190D01*
X104735381Y-88847619D01*
X104735381Y-88795238D01*
X104783000Y-88716666D01*
X104830619Y-88690476D01*
X105735381Y-88192857D02*
X105735381Y-88454762D01*
X104735381Y-88454762D01*
X104735381Y-92120953D02*
X104735381Y-91780476D01*
X105116333Y-91963810D01*
X105116333Y-91885238D01*
X105163952Y-91832857D01*
X105211571Y-91806667D01*
X105306810Y-91780476D01*
X105544905Y-91780476D01*
X105640143Y-91806667D01*
X105687762Y-91832857D01*
X105735381Y-91885238D01*
X105735381Y-92042381D01*
X105687762Y-92094762D01*
X105640143Y-92120953D01*
X104735381Y-91623333D02*
X105735381Y-91440000D01*
X104735381Y-91256666D01*
X104735381Y-91125714D02*
X104735381Y-90785237D01*
X105116333Y-90968571D01*
X105116333Y-90889999D01*
X105163952Y-90837618D01*
X105211571Y-90811428D01*
X105306810Y-90785237D01*
X105544905Y-90785237D01*
X105640143Y-90811428D01*
X105687762Y-90837618D01*
X105735381Y-90889999D01*
X105735381Y-91047142D01*
X105687762Y-91099523D01*
X105640143Y-91125714D01*
X104783000Y-94399047D02*
X104735381Y-94451428D01*
X104735381Y-94530000D01*
X104783000Y-94608571D01*
X104878238Y-94660952D01*
X104973476Y-94687143D01*
X105163952Y-94713333D01*
X105306810Y-94713333D01*
X105497286Y-94687143D01*
X105592524Y-94660952D01*
X105687762Y-94608571D01*
X105735381Y-94530000D01*
X105735381Y-94477619D01*
X105687762Y-94399047D01*
X105640143Y-94372857D01*
X105306810Y-94372857D01*
X105306810Y-94477619D01*
X105735381Y-94137143D02*
X104735381Y-94137143D01*
X105735381Y-93822857D01*
X104735381Y-93822857D01*
X105735381Y-93560953D02*
X104735381Y-93560953D01*
X104735381Y-93430000D01*
X104783000Y-93351429D01*
X104878238Y-93299048D01*
X104973476Y-93272857D01*
X105163952Y-93246667D01*
X105306810Y-93246667D01*
X105497286Y-93272857D01*
X105592524Y-93299048D01*
X105687762Y-93351429D01*
X105735381Y-93430000D01*
X105735381Y-93560953D01*
%LPC*%
D18*
X104140000Y-99060000D03*
D19*
X104140000Y-96520000D03*
D20*
X103505000Y-124460000D03*
X103505000Y-121920000D03*
X103505000Y-119380000D03*
X103505000Y-116840000D03*
X103505000Y-114300000D03*
X103505000Y-111760000D03*
X103505000Y-109220000D03*
X103505000Y-106680000D03*
X103505000Y-104140000D03*
X103505000Y-101600000D03*
X103505000Y-93980000D03*
X103505000Y-91440000D03*
X103505000Y-88900000D03*
X103505000Y-86360000D03*
X103505000Y-83820000D03*
X103505000Y-81280000D03*
X103505000Y-78740000D03*
X103505000Y-76200000D03*
X103505000Y-73660000D03*
X103505000Y-71120000D03*
D21*
X111760000Y-124460000D03*
X111760000Y-121920000D03*
X111760000Y-119380000D03*
X111760000Y-116840000D03*
X111760000Y-114300000D03*
X111760000Y-111760000D03*
X111760000Y-109220000D03*
X111760000Y-106680000D03*
X111760000Y-104140000D03*
X111760000Y-101600000D03*
X111760000Y-99060000D03*
X111760000Y-96520000D03*
X111760000Y-93980000D03*
X111760000Y-91440000D03*
X111760000Y-88900000D03*
X111760000Y-86360000D03*
X111760000Y-83820000D03*
X111760000Y-81280000D03*
X111760000Y-78740000D03*
X111760000Y-76200000D03*
X111760000Y-73660000D03*
X111760000Y-71120000D03*
X114300000Y-124460000D03*
X114300000Y-121920000D03*
X114300000Y-119380000D03*
X114300000Y-116840000D03*
X114300000Y-114300000D03*
X114300000Y-111760000D03*
X114300000Y-109220000D03*
X114300000Y-106680000D03*
X114300000Y-104140000D03*
X114300000Y-101600000D03*
X114300000Y-99060000D03*
X114300000Y-96520000D03*
X114300000Y-93980000D03*
X114300000Y-91440000D03*
X114300000Y-88900000D03*
X114300000Y-86360000D03*
X114300000Y-83820000D03*
X114300000Y-81280000D03*
X114300000Y-78740000D03*
X114300000Y-76200000D03*
X114300000Y-73660000D03*
X114300000Y-71120000D03*
X116840000Y-124460000D03*
X116840000Y-121920000D03*
X116840000Y-119380000D03*
X116840000Y-116840000D03*
X116840000Y-114300000D03*
X116840000Y-111760000D03*
X116840000Y-109220000D03*
X116840000Y-106680000D03*
X116840000Y-104140000D03*
X116840000Y-101600000D03*
X116840000Y-99060000D03*
X116840000Y-96520000D03*
X116840000Y-93980000D03*
X116840000Y-91440000D03*
X116840000Y-88900000D03*
X116840000Y-86360000D03*
X116840000Y-83820000D03*
X116840000Y-81280000D03*
X116840000Y-78740000D03*
X116840000Y-76200000D03*
X116840000Y-73660000D03*
X116840000Y-71120000D03*
X119380000Y-124460000D03*
X119380000Y-121920000D03*
X119380000Y-119380000D03*
X119380000Y-116840000D03*
X119380000Y-114300000D03*
X119380000Y-111760000D03*
X119380000Y-109220000D03*
X119380000Y-106680000D03*
X119380000Y-104140000D03*
X119380000Y-101600000D03*
X119380000Y-99060000D03*
X119380000Y-96520000D03*
X119380000Y-93980000D03*
X119380000Y-91440000D03*
X119380000Y-88900000D03*
X119380000Y-86360000D03*
X119380000Y-83820000D03*
X119380000Y-81280000D03*
X119380000Y-78740000D03*
X119380000Y-76200000D03*
X119380000Y-73660000D03*
X119380000Y-71120000D03*
X121920000Y-124460000D03*
X121920000Y-121920000D03*
X121920000Y-119380000D03*
X121920000Y-116840000D03*
X121920000Y-114300000D03*
X121920000Y-111760000D03*
X121920000Y-109220000D03*
X121920000Y-106680000D03*
X121920000Y-104140000D03*
X121920000Y-101600000D03*
X121920000Y-99060000D03*
X121920000Y-96520000D03*
X121920000Y-93980000D03*
X121920000Y-91440000D03*
X121920000Y-88900000D03*
X121920000Y-86360000D03*
X121920000Y-83820000D03*
X121920000Y-81280000D03*
X121920000Y-78740000D03*
X121920000Y-76200000D03*
X121920000Y-73660000D03*
X121920000Y-71120000D03*
X124460000Y-124460000D03*
X124460000Y-121920000D03*
X124460000Y-119380000D03*
X124460000Y-116840000D03*
X124460000Y-114300000D03*
X124460000Y-111760000D03*
X124460000Y-109220000D03*
X124460000Y-106680000D03*
X124460000Y-104140000D03*
X124460000Y-101600000D03*
X124460000Y-99060000D03*
X124460000Y-96520000D03*
X124460000Y-93980000D03*
X124460000Y-91440000D03*
X124460000Y-88900000D03*
X124460000Y-86360000D03*
X124460000Y-83820000D03*
X124460000Y-81280000D03*
X124460000Y-78740000D03*
X124460000Y-76200000D03*
X124460000Y-73660000D03*
X124460000Y-71120000D03*
X127000000Y-124460000D03*
X127000000Y-121920000D03*
X127000000Y-119380000D03*
X127000000Y-116840000D03*
X127000000Y-114300000D03*
X127000000Y-111760000D03*
X127000000Y-109220000D03*
X127000000Y-106680000D03*
X127000000Y-104140000D03*
X127000000Y-101600000D03*
X127000000Y-99060000D03*
X127000000Y-96520000D03*
X127000000Y-93980000D03*
X127000000Y-91440000D03*
X127000000Y-88900000D03*
X127000000Y-86360000D03*
X127000000Y-83820000D03*
X127000000Y-81280000D03*
X127000000Y-78740000D03*
X127000000Y-76200000D03*
X127000000Y-73660000D03*
X127000000Y-71120000D03*
X129540000Y-124460000D03*
X129540000Y-121920000D03*
X129540000Y-119380000D03*
X129540000Y-116840000D03*
X129540000Y-114300000D03*
X129540000Y-111760000D03*
X129540000Y-109220000D03*
X129540000Y-106680000D03*
X129540000Y-104140000D03*
X129540000Y-101600000D03*
X129540000Y-99060000D03*
X129540000Y-96520000D03*
X129540000Y-93980000D03*
X129540000Y-91440000D03*
X129540000Y-88900000D03*
X129540000Y-86360000D03*
X129540000Y-83820000D03*
X129540000Y-81280000D03*
X129540000Y-78740000D03*
X129540000Y-76200000D03*
X129540000Y-73660000D03*
X129540000Y-71120000D03*
X132080000Y-124460000D03*
X132080000Y-121920000D03*
X132080000Y-119380000D03*
X132080000Y-116840000D03*
X132080000Y-114300000D03*
X132080000Y-111760000D03*
X132080000Y-109220000D03*
X132080000Y-106680000D03*
X132080000Y-104140000D03*
X132080000Y-101600000D03*
X132080000Y-99060000D03*
X132080000Y-96520000D03*
X132080000Y-93980000D03*
X132080000Y-91440000D03*
X132080000Y-88900000D03*
X132080000Y-86360000D03*
X132080000Y-83820000D03*
X132080000Y-81280000D03*
X132080000Y-78740000D03*
X132080000Y-76200000D03*
X132080000Y-73660000D03*
X132080000Y-71120000D03*
X134620000Y-124460000D03*
X134620000Y-121920000D03*
X134620000Y-119380000D03*
X134620000Y-116840000D03*
X134620000Y-114300000D03*
X134620000Y-111760000D03*
X134620000Y-109220000D03*
X134620000Y-106680000D03*
X134620000Y-104140000D03*
X134620000Y-101600000D03*
X134620000Y-99060000D03*
X134620000Y-96520000D03*
X134620000Y-93980000D03*
X134620000Y-91440000D03*
X134620000Y-88900000D03*
X134620000Y-86360000D03*
X134620000Y-83820000D03*
X134620000Y-81280000D03*
X134620000Y-78740000D03*
X134620000Y-76200000D03*
X134620000Y-73660000D03*
X134620000Y-71120000D03*
X137160000Y-124460000D03*
X137160000Y-121920000D03*
X137160000Y-119380000D03*
X137160000Y-116840000D03*
X137160000Y-114300000D03*
X137160000Y-111760000D03*
X137160000Y-109220000D03*
X137160000Y-106680000D03*
X137160000Y-104140000D03*
X137160000Y-101600000D03*
X137160000Y-99060000D03*
X137160000Y-96520000D03*
X137160000Y-93980000D03*
X137160000Y-91440000D03*
X137160000Y-88900000D03*
X137160000Y-86360000D03*
X137160000Y-83820000D03*
X137160000Y-81280000D03*
X137160000Y-78740000D03*
X137160000Y-76200000D03*
X137160000Y-73660000D03*
X137160000Y-71120000D03*
X139700000Y-124460000D03*
X139700000Y-121920000D03*
X139700000Y-119380000D03*
X139700000Y-116840000D03*
X139700000Y-114300000D03*
X139700000Y-111760000D03*
X139700000Y-109220000D03*
X139700000Y-106680000D03*
X139700000Y-104140000D03*
X139700000Y-101600000D03*
X139700000Y-99060000D03*
X139700000Y-96520000D03*
X139700000Y-93980000D03*
X139700000Y-91440000D03*
X139700000Y-88900000D03*
X139700000Y-86360000D03*
X139700000Y-83820000D03*
X139700000Y-81280000D03*
X139700000Y-78740000D03*
X139700000Y-76200000D03*
X139700000Y-73660000D03*
X139700000Y-71120000D03*
X142240000Y-124460000D03*
X142240000Y-121920000D03*
X142240000Y-119380000D03*
X142240000Y-116840000D03*
X142240000Y-114300000D03*
X142240000Y-111760000D03*
X142240000Y-109220000D03*
X142240000Y-106680000D03*
X142240000Y-104140000D03*
X142240000Y-101600000D03*
X142240000Y-99060000D03*
X142240000Y-96520000D03*
X142240000Y-93980000D03*
X142240000Y-91440000D03*
X142240000Y-88900000D03*
X142240000Y-86360000D03*
X142240000Y-83820000D03*
X142240000Y-81280000D03*
X142240000Y-78740000D03*
X142240000Y-76200000D03*
X142240000Y-73660000D03*
X142240000Y-71120000D03*
X144780000Y-124460000D03*
X144780000Y-121920000D03*
X144780000Y-119380000D03*
X144780000Y-116840000D03*
X144780000Y-114300000D03*
X144780000Y-111760000D03*
X144780000Y-109220000D03*
X144780000Y-106680000D03*
X144780000Y-104140000D03*
X144780000Y-101600000D03*
X144780000Y-99060000D03*
X144780000Y-96520000D03*
X144780000Y-93980000D03*
X144780000Y-91440000D03*
X144780000Y-88900000D03*
X144780000Y-86360000D03*
X144780000Y-83820000D03*
X144780000Y-81280000D03*
X144780000Y-78740000D03*
X144780000Y-76200000D03*
X144780000Y-73660000D03*
X144780000Y-71120000D03*
X147320000Y-124460000D03*
X147320000Y-121920000D03*
X147320000Y-119380000D03*
X147320000Y-116840000D03*
X147320000Y-114300000D03*
X147320000Y-111760000D03*
X147320000Y-109220000D03*
X147320000Y-106680000D03*
X147320000Y-104140000D03*
X147320000Y-101600000D03*
X147320000Y-99060000D03*
X147320000Y-96520000D03*
X147320000Y-93980000D03*
X147320000Y-91440000D03*
X147320000Y-88900000D03*
X147320000Y-86360000D03*
X147320000Y-83820000D03*
X147320000Y-81280000D03*
X147320000Y-78740000D03*
X147320000Y-76200000D03*
X147320000Y-73660000D03*
X147320000Y-71120000D03*
X149860000Y-124460000D03*
X149860000Y-121920000D03*
X149860000Y-119380000D03*
X149860000Y-116840000D03*
X149860000Y-114300000D03*
X149860000Y-111760000D03*
X149860000Y-109220000D03*
X149860000Y-106680000D03*
X149860000Y-104140000D03*
X149860000Y-101600000D03*
X149860000Y-99060000D03*
X149860000Y-96520000D03*
X149860000Y-93980000D03*
X149860000Y-91440000D03*
X149860000Y-88900000D03*
X149860000Y-86360000D03*
X149860000Y-83820000D03*
X149860000Y-81280000D03*
X149860000Y-78740000D03*
X149860000Y-76200000D03*
X149860000Y-73660000D03*
X149860000Y-71120000D03*
X109220000Y-124460000D03*
X109220000Y-121920000D03*
X109220000Y-119380000D03*
X109220000Y-116840000D03*
X109220000Y-114300000D03*
X109220000Y-111760000D03*
X109220000Y-109220000D03*
X109220000Y-106680000D03*
X109220000Y-104140000D03*
X109220000Y-101600000D03*
X109220000Y-93980000D03*
X109220000Y-91440000D03*
X109220000Y-88900000D03*
X109220000Y-86360000D03*
X109220000Y-83820000D03*
X109220000Y-81280000D03*
X109220000Y-78740000D03*
X109220000Y-76200000D03*
X109220000Y-73660000D03*
X109220000Y-71120000D03*
X106680000Y-124460000D03*
X106680000Y-121920000D03*
X106680000Y-119380000D03*
X106680000Y-116840000D03*
X106680000Y-114300000D03*
X106680000Y-111760000D03*
X106680000Y-109220000D03*
X106680000Y-106680000D03*
X106680000Y-104140000D03*
X106680000Y-101600000D03*
X106680000Y-93980000D03*
X106680000Y-91440000D03*
X106680000Y-88900000D03*
X106680000Y-86360000D03*
X106680000Y-83820000D03*
X106680000Y-81280000D03*
X106680000Y-78740000D03*
X106680000Y-76200000D03*
X106680000Y-73660000D03*
X106680000Y-71120000D03*
X107950000Y-124460000D03*
X107950000Y-121920000D03*
X107950000Y-119380000D03*
X107950000Y-116840000D03*
X107950000Y-114300000D03*
X107950000Y-111760000D03*
X107950000Y-109220000D03*
X107950000Y-106680000D03*
X107950000Y-104140000D03*
X107950000Y-101600000D03*
X107950000Y-93980000D03*
X107950000Y-91440000D03*
X107950000Y-88900000D03*
X107950000Y-86360000D03*
X107950000Y-83820000D03*
X107950000Y-81280000D03*
X107950000Y-78740000D03*
X107950000Y-76200000D03*
X107950000Y-73660000D03*
X107950000Y-71120000D03*
D22*
G36*
X148209000Y-69723000D02*
X146431000Y-69723000D01*
X146431000Y-69469000D01*
X148209000Y-69469000D01*
X148209000Y-69723000D01*
X148209000Y-69723000D01*
G37*
X148209000Y-69723000D02*
X146431000Y-69723000D01*
X146431000Y-69469000D01*
X148209000Y-69469000D01*
X148209000Y-69723000D01*
G36*
X145669000Y-69723000D02*
X143891000Y-69723000D01*
X143891000Y-69469000D01*
X145669000Y-69469000D01*
X145669000Y-69723000D01*
X145669000Y-69723000D01*
G37*
X145669000Y-69723000D02*
X143891000Y-69723000D01*
X143891000Y-69469000D01*
X145669000Y-69469000D01*
X145669000Y-69723000D01*
G36*
X143129000Y-69723000D02*
X141351000Y-69723000D01*
X141351000Y-69469000D01*
X143129000Y-69469000D01*
X143129000Y-69723000D01*
X143129000Y-69723000D01*
G37*
X143129000Y-69723000D02*
X141351000Y-69723000D01*
X141351000Y-69469000D01*
X143129000Y-69469000D01*
X143129000Y-69723000D01*
G36*
X140589000Y-69723000D02*
X138811000Y-69723000D01*
X138811000Y-69469000D01*
X140589000Y-69469000D01*
X140589000Y-69723000D01*
X140589000Y-69723000D01*
G37*
X140589000Y-69723000D02*
X138811000Y-69723000D01*
X138811000Y-69469000D01*
X140589000Y-69469000D01*
X140589000Y-69723000D01*
G36*
X138049000Y-69723000D02*
X136271000Y-69723000D01*
X136271000Y-69469000D01*
X138049000Y-69469000D01*
X138049000Y-69723000D01*
X138049000Y-69723000D01*
G37*
X138049000Y-69723000D02*
X136271000Y-69723000D01*
X136271000Y-69469000D01*
X138049000Y-69469000D01*
X138049000Y-69723000D01*
G36*
X135509000Y-69723000D02*
X133731000Y-69723000D01*
X133731000Y-69469000D01*
X135509000Y-69469000D01*
X135509000Y-69723000D01*
X135509000Y-69723000D01*
G37*
X135509000Y-69723000D02*
X133731000Y-69723000D01*
X133731000Y-69469000D01*
X135509000Y-69469000D01*
X135509000Y-69723000D01*
G36*
X132969000Y-69723000D02*
X131191000Y-69723000D01*
X131191000Y-69469000D01*
X132969000Y-69469000D01*
X132969000Y-69723000D01*
X132969000Y-69723000D01*
G37*
X132969000Y-69723000D02*
X131191000Y-69723000D01*
X131191000Y-69469000D01*
X132969000Y-69469000D01*
X132969000Y-69723000D01*
G36*
X130429000Y-69723000D02*
X128651000Y-69723000D01*
X128651000Y-69469000D01*
X130429000Y-69469000D01*
X130429000Y-69723000D01*
X130429000Y-69723000D01*
G37*
X130429000Y-69723000D02*
X128651000Y-69723000D01*
X128651000Y-69469000D01*
X130429000Y-69469000D01*
X130429000Y-69723000D01*
G36*
X127889000Y-69723000D02*
X126111000Y-69723000D01*
X126111000Y-69469000D01*
X127889000Y-69469000D01*
X127889000Y-69723000D01*
X127889000Y-69723000D01*
G37*
X127889000Y-69723000D02*
X126111000Y-69723000D01*
X126111000Y-69469000D01*
X127889000Y-69469000D01*
X127889000Y-69723000D01*
G36*
X125349000Y-69723000D02*
X123571000Y-69723000D01*
X123571000Y-69469000D01*
X125349000Y-69469000D01*
X125349000Y-69723000D01*
X125349000Y-69723000D01*
G37*
X125349000Y-69723000D02*
X123571000Y-69723000D01*
X123571000Y-69469000D01*
X125349000Y-69469000D01*
X125349000Y-69723000D01*
G36*
X122809000Y-69723000D02*
X121031000Y-69723000D01*
X121031000Y-69469000D01*
X122809000Y-69469000D01*
X122809000Y-69723000D01*
X122809000Y-69723000D01*
G37*
X122809000Y-69723000D02*
X121031000Y-69723000D01*
X121031000Y-69469000D01*
X122809000Y-69469000D01*
X122809000Y-69723000D01*
G36*
X120269000Y-69723000D02*
X118491000Y-69723000D01*
X118491000Y-69469000D01*
X120269000Y-69469000D01*
X120269000Y-69723000D01*
X120269000Y-69723000D01*
G37*
X120269000Y-69723000D02*
X118491000Y-69723000D01*
X118491000Y-69469000D01*
X120269000Y-69469000D01*
X120269000Y-69723000D01*
G36*
X117729000Y-69723000D02*
X115951000Y-69723000D01*
X115951000Y-69469000D01*
X117729000Y-69469000D01*
X117729000Y-69723000D01*
X117729000Y-69723000D01*
G37*
X117729000Y-69723000D02*
X115951000Y-69723000D01*
X115951000Y-69469000D01*
X117729000Y-69469000D01*
X117729000Y-69723000D01*
G36*
X115189000Y-69723000D02*
X113411000Y-69723000D01*
X113411000Y-69469000D01*
X115189000Y-69469000D01*
X115189000Y-69723000D01*
X115189000Y-69723000D01*
G37*
X115189000Y-69723000D02*
X113411000Y-69723000D01*
X113411000Y-69469000D01*
X115189000Y-69469000D01*
X115189000Y-69723000D01*
G36*
X112649000Y-69723000D02*
X110871000Y-69723000D01*
X110871000Y-69469000D01*
X112649000Y-69469000D01*
X112649000Y-69723000D01*
X112649000Y-69723000D01*
G37*
X112649000Y-69723000D02*
X110871000Y-69723000D01*
X110871000Y-69469000D01*
X112649000Y-69469000D01*
X112649000Y-69723000D01*
G36*
X148209000Y-126111000D02*
X146431000Y-126111000D01*
X146431000Y-125857000D01*
X148209000Y-125857000D01*
X148209000Y-126111000D01*
X148209000Y-126111000D01*
G37*
X148209000Y-126111000D02*
X146431000Y-126111000D01*
X146431000Y-125857000D01*
X148209000Y-125857000D01*
X148209000Y-126111000D01*
G36*
X145669000Y-126111000D02*
X143891000Y-126111000D01*
X143891000Y-125857000D01*
X145669000Y-125857000D01*
X145669000Y-126111000D01*
X145669000Y-126111000D01*
G37*
X145669000Y-126111000D02*
X143891000Y-126111000D01*
X143891000Y-125857000D01*
X145669000Y-125857000D01*
X145669000Y-126111000D01*
G36*
X143129000Y-126111000D02*
X141351000Y-126111000D01*
X141351000Y-125857000D01*
X143129000Y-125857000D01*
X143129000Y-126111000D01*
X143129000Y-126111000D01*
G37*
X143129000Y-126111000D02*
X141351000Y-126111000D01*
X141351000Y-125857000D01*
X143129000Y-125857000D01*
X143129000Y-126111000D01*
G36*
X140589000Y-126111000D02*
X138811000Y-126111000D01*
X138811000Y-125857000D01*
X140589000Y-125857000D01*
X140589000Y-126111000D01*
X140589000Y-126111000D01*
G37*
X140589000Y-126111000D02*
X138811000Y-126111000D01*
X138811000Y-125857000D01*
X140589000Y-125857000D01*
X140589000Y-126111000D01*
G36*
X138049000Y-126111000D02*
X136271000Y-126111000D01*
X136271000Y-125857000D01*
X138049000Y-125857000D01*
X138049000Y-126111000D01*
X138049000Y-126111000D01*
G37*
X138049000Y-126111000D02*
X136271000Y-126111000D01*
X136271000Y-125857000D01*
X138049000Y-125857000D01*
X138049000Y-126111000D01*
G36*
X135509000Y-126111000D02*
X133731000Y-126111000D01*
X133731000Y-125857000D01*
X135509000Y-125857000D01*
X135509000Y-126111000D01*
X135509000Y-126111000D01*
G37*
X135509000Y-126111000D02*
X133731000Y-126111000D01*
X133731000Y-125857000D01*
X135509000Y-125857000D01*
X135509000Y-126111000D01*
G36*
X132969000Y-126111000D02*
X131191000Y-126111000D01*
X131191000Y-125857000D01*
X132969000Y-125857000D01*
X132969000Y-126111000D01*
X132969000Y-126111000D01*
G37*
X132969000Y-126111000D02*
X131191000Y-126111000D01*
X131191000Y-125857000D01*
X132969000Y-125857000D01*
X132969000Y-126111000D01*
G36*
X130429000Y-126111000D02*
X128651000Y-126111000D01*
X128651000Y-125857000D01*
X130429000Y-125857000D01*
X130429000Y-126111000D01*
X130429000Y-126111000D01*
G37*
X130429000Y-126111000D02*
X128651000Y-126111000D01*
X128651000Y-125857000D01*
X130429000Y-125857000D01*
X130429000Y-126111000D01*
G36*
X127889000Y-126111000D02*
X126111000Y-126111000D01*
X126111000Y-125857000D01*
X127889000Y-125857000D01*
X127889000Y-126111000D01*
X127889000Y-126111000D01*
G37*
X127889000Y-126111000D02*
X126111000Y-126111000D01*
X126111000Y-125857000D01*
X127889000Y-125857000D01*
X127889000Y-126111000D01*
G36*
X125349000Y-126111000D02*
X123571000Y-126111000D01*
X123571000Y-125857000D01*
X125349000Y-125857000D01*
X125349000Y-126111000D01*
X125349000Y-126111000D01*
G37*
X125349000Y-126111000D02*
X123571000Y-126111000D01*
X123571000Y-125857000D01*
X125349000Y-125857000D01*
X125349000Y-126111000D01*
G36*
X122809000Y-126111000D02*
X121031000Y-126111000D01*
X121031000Y-125857000D01*
X122809000Y-125857000D01*
X122809000Y-126111000D01*
X122809000Y-126111000D01*
G37*
X122809000Y-126111000D02*
X121031000Y-126111000D01*
X121031000Y-125857000D01*
X122809000Y-125857000D01*
X122809000Y-126111000D01*
G36*
X120269000Y-126111000D02*
X118491000Y-126111000D01*
X118491000Y-125857000D01*
X120269000Y-125857000D01*
X120269000Y-126111000D01*
X120269000Y-126111000D01*
G37*
X120269000Y-126111000D02*
X118491000Y-126111000D01*
X118491000Y-125857000D01*
X120269000Y-125857000D01*
X120269000Y-126111000D01*
G36*
X117729000Y-126111000D02*
X115951000Y-126111000D01*
X115951000Y-125857000D01*
X117729000Y-125857000D01*
X117729000Y-126111000D01*
X117729000Y-126111000D01*
G37*
X117729000Y-126111000D02*
X115951000Y-126111000D01*
X115951000Y-125857000D01*
X117729000Y-125857000D01*
X117729000Y-126111000D01*
G36*
X115189000Y-126111000D02*
X113411000Y-126111000D01*
X113411000Y-125857000D01*
X115189000Y-125857000D01*
X115189000Y-126111000D01*
X115189000Y-126111000D01*
G37*
X115189000Y-126111000D02*
X113411000Y-126111000D01*
X113411000Y-125857000D01*
X115189000Y-125857000D01*
X115189000Y-126111000D01*
G36*
X112649000Y-126111000D02*
X110871000Y-126111000D01*
X110871000Y-125857000D01*
X112649000Y-125857000D01*
X112649000Y-126111000D01*
X112649000Y-126111000D01*
G37*
X112649000Y-126111000D02*
X110871000Y-126111000D01*
X110871000Y-125857000D01*
X112649000Y-125857000D01*
X112649000Y-126111000D01*
M02*
