%FSLAX46Y46*%
G04 Gerber Fmt 4.6, Leading zero omitted, Abs format (unit mm)*
G04 Created by KiCad (PCBNEW (2014-08-29 BZR 5106)-product) date Thu 16 Oct 2014 04:24:20 PM PDT*
%MOMM*%
G01*
G04 APERTURE LIST*
%ADD10C,0.100000*%
%ADD11C,1.524000*%
%ADD12R,2.032000X2.032000*%
%ADD13O,2.032000X2.032000*%
%ADD14C,0.457200*%
G04 APERTURE END LIST*
D10*
D11*
X103505000Y-124460000D03*
X103505000Y-121920000D03*
X103505000Y-119380000D03*
X103505000Y-116840000D03*
X103505000Y-114300000D03*
X103505000Y-111760000D03*
X103505000Y-109220000D03*
X103505000Y-106680000D03*
X103505000Y-104140000D03*
X103505000Y-101600000D03*
X103505000Y-93980000D03*
X103505000Y-91440000D03*
X103505000Y-88900000D03*
X103505000Y-86360000D03*
X103505000Y-83820000D03*
X103505000Y-81280000D03*
X103505000Y-78740000D03*
X103505000Y-76200000D03*
X103505000Y-73660000D03*
X103505000Y-71120000D03*
X112395000Y-124460000D03*
X112395000Y-121920000D03*
X112395000Y-119380000D03*
X112395000Y-116840000D03*
X112395000Y-114300000D03*
X112395000Y-111760000D03*
X112395000Y-109220000D03*
X112395000Y-106680000D03*
X112395000Y-104140000D03*
X112395000Y-101600000D03*
X112395000Y-99060000D03*
X112395000Y-96520000D03*
X112395000Y-93980000D03*
X112395000Y-91440000D03*
X112395000Y-88900000D03*
X112395000Y-86360000D03*
X112395000Y-83820000D03*
X112395000Y-81280000D03*
X112395000Y-78740000D03*
X112395000Y-76200000D03*
X112395000Y-73660000D03*
X112395000Y-71120000D03*
X114935000Y-124460000D03*
X114935000Y-121920000D03*
X114935000Y-119380000D03*
X114935000Y-116840000D03*
X114935000Y-114300000D03*
X114935000Y-111760000D03*
X114935000Y-109220000D03*
X114935000Y-106680000D03*
X114935000Y-104140000D03*
X114935000Y-101600000D03*
X114935000Y-99060000D03*
X114935000Y-96520000D03*
X114935000Y-93980000D03*
X114935000Y-91440000D03*
X114935000Y-88900000D03*
X114935000Y-86360000D03*
X114935000Y-83820000D03*
X114935000Y-81280000D03*
X114935000Y-78740000D03*
X114935000Y-76200000D03*
X114935000Y-73660000D03*
X114935000Y-71120000D03*
X109855000Y-124460000D03*
X109855000Y-121920000D03*
X109855000Y-119380000D03*
X109855000Y-116840000D03*
X109855000Y-114300000D03*
X109855000Y-111760000D03*
X109855000Y-109220000D03*
X109855000Y-106680000D03*
X109855000Y-104140000D03*
X109855000Y-101600000D03*
X109855000Y-99060000D03*
X109855000Y-96520000D03*
X109855000Y-93980000D03*
X109855000Y-91440000D03*
X109855000Y-88900000D03*
X109855000Y-86360000D03*
X109855000Y-83820000D03*
X109855000Y-81280000D03*
X109855000Y-78740000D03*
X109855000Y-76200000D03*
X109855000Y-73660000D03*
X109855000Y-71120000D03*
X117475000Y-124460000D03*
X117475000Y-121920000D03*
X117475000Y-119380000D03*
X117475000Y-116840000D03*
X117475000Y-114300000D03*
X117475000Y-111760000D03*
X117475000Y-109220000D03*
X117475000Y-106680000D03*
X117475000Y-104140000D03*
X117475000Y-101600000D03*
X117475000Y-99060000D03*
X117475000Y-96520000D03*
X117475000Y-93980000D03*
X117475000Y-91440000D03*
X117475000Y-88900000D03*
X117475000Y-86360000D03*
X117475000Y-83820000D03*
X117475000Y-81280000D03*
X117475000Y-78740000D03*
X117475000Y-76200000D03*
X117475000Y-73660000D03*
X117475000Y-71120000D03*
X120015000Y-124460000D03*
X120015000Y-121920000D03*
X120015000Y-119380000D03*
X120015000Y-116840000D03*
X120015000Y-114300000D03*
X120015000Y-111760000D03*
X120015000Y-109220000D03*
X120015000Y-106680000D03*
X120015000Y-104140000D03*
X120015000Y-101600000D03*
X120015000Y-99060000D03*
X120015000Y-96520000D03*
X120015000Y-93980000D03*
X120015000Y-91440000D03*
X120015000Y-88900000D03*
X120015000Y-86360000D03*
X120015000Y-83820000D03*
X120015000Y-81280000D03*
X120015000Y-78740000D03*
X120015000Y-76200000D03*
X120015000Y-73660000D03*
X120015000Y-71120000D03*
X108585000Y-124460000D03*
X108585000Y-121920000D03*
X108585000Y-119380000D03*
X108585000Y-116840000D03*
X108585000Y-114300000D03*
X108585000Y-111760000D03*
X108585000Y-109220000D03*
X108585000Y-106680000D03*
X108585000Y-104140000D03*
X108585000Y-101600000D03*
X108585000Y-99060000D03*
X108585000Y-96520000D03*
X108585000Y-93980000D03*
X108585000Y-91440000D03*
X108585000Y-88900000D03*
X108585000Y-86360000D03*
X108585000Y-83820000D03*
X108585000Y-81280000D03*
X108585000Y-78740000D03*
X108585000Y-76200000D03*
X108585000Y-73660000D03*
X108585000Y-71120000D03*
X122555000Y-124460000D03*
X122555000Y-121920000D03*
X122555000Y-119380000D03*
X122555000Y-116840000D03*
X122555000Y-114300000D03*
X122555000Y-111760000D03*
X122555000Y-109220000D03*
X122555000Y-106680000D03*
X122555000Y-104140000D03*
X122555000Y-101600000D03*
X122555000Y-99060000D03*
X122555000Y-96520000D03*
X122555000Y-93980000D03*
X122555000Y-91440000D03*
X122555000Y-88900000D03*
X122555000Y-86360000D03*
X122555000Y-83820000D03*
X122555000Y-81280000D03*
X122555000Y-78740000D03*
X122555000Y-76200000D03*
X122555000Y-73660000D03*
X122555000Y-71120000D03*
X125095000Y-124460000D03*
X125095000Y-121920000D03*
X125095000Y-119380000D03*
X125095000Y-116840000D03*
X125095000Y-114300000D03*
X125095000Y-111760000D03*
X125095000Y-109220000D03*
X125095000Y-106680000D03*
X125095000Y-104140000D03*
X125095000Y-101600000D03*
X125095000Y-99060000D03*
X125095000Y-96520000D03*
X125095000Y-93980000D03*
X125095000Y-91440000D03*
X125095000Y-88900000D03*
X125095000Y-86360000D03*
X125095000Y-83820000D03*
X125095000Y-81280000D03*
X125095000Y-78740000D03*
X125095000Y-76200000D03*
X125095000Y-73660000D03*
X125095000Y-71120000D03*
X107315000Y-124460000D03*
X107315000Y-121920000D03*
X107315000Y-119380000D03*
X107315000Y-116840000D03*
X107315000Y-114300000D03*
X107315000Y-111760000D03*
X107315000Y-109220000D03*
X107315000Y-106680000D03*
X107315000Y-104140000D03*
X107315000Y-101600000D03*
X107315000Y-99060000D03*
X107315000Y-96520000D03*
X107315000Y-93980000D03*
X107315000Y-91440000D03*
X107315000Y-88900000D03*
X107315000Y-86360000D03*
X107315000Y-83820000D03*
X107315000Y-81280000D03*
X107315000Y-78740000D03*
X107315000Y-76200000D03*
X107315000Y-73660000D03*
X107315000Y-71120000D03*
X127635000Y-124460000D03*
X127635000Y-121920000D03*
X127635000Y-119380000D03*
X127635000Y-116840000D03*
X127635000Y-114300000D03*
X127635000Y-111760000D03*
X127635000Y-109220000D03*
X127635000Y-106680000D03*
X127635000Y-104140000D03*
X127635000Y-101600000D03*
X127635000Y-99060000D03*
X127635000Y-96520000D03*
X127635000Y-93980000D03*
X127635000Y-91440000D03*
X127635000Y-88900000D03*
X127635000Y-86360000D03*
X127635000Y-83820000D03*
X127635000Y-81280000D03*
X127635000Y-78740000D03*
X127635000Y-76200000D03*
X127635000Y-73660000D03*
X127635000Y-71120000D03*
X130175000Y-124460000D03*
X130175000Y-121920000D03*
X130175000Y-119380000D03*
X130175000Y-116840000D03*
X130175000Y-114300000D03*
X130175000Y-111760000D03*
X130175000Y-109220000D03*
X130175000Y-106680000D03*
X130175000Y-104140000D03*
X130175000Y-101600000D03*
X130175000Y-99060000D03*
X130175000Y-96520000D03*
X130175000Y-93980000D03*
X130175000Y-91440000D03*
X130175000Y-88900000D03*
X130175000Y-86360000D03*
X130175000Y-83820000D03*
X130175000Y-81280000D03*
X130175000Y-78740000D03*
X130175000Y-76200000D03*
X130175000Y-73660000D03*
X130175000Y-71120000D03*
X132715000Y-124460000D03*
X132715000Y-121920000D03*
X132715000Y-119380000D03*
X132715000Y-116840000D03*
X132715000Y-114300000D03*
X132715000Y-111760000D03*
X132715000Y-109220000D03*
X132715000Y-106680000D03*
X132715000Y-104140000D03*
X132715000Y-101600000D03*
X132715000Y-99060000D03*
X132715000Y-96520000D03*
X132715000Y-93980000D03*
X132715000Y-91440000D03*
X132715000Y-88900000D03*
X132715000Y-86360000D03*
X132715000Y-83820000D03*
X132715000Y-81280000D03*
X132715000Y-78740000D03*
X132715000Y-76200000D03*
X132715000Y-73660000D03*
X132715000Y-71120000D03*
X135255000Y-124460000D03*
X135255000Y-121920000D03*
X135255000Y-119380000D03*
X135255000Y-116840000D03*
X135255000Y-114300000D03*
X135255000Y-111760000D03*
X135255000Y-109220000D03*
X135255000Y-106680000D03*
X135255000Y-104140000D03*
X135255000Y-101600000D03*
X135255000Y-99060000D03*
X135255000Y-96520000D03*
X135255000Y-93980000D03*
X135255000Y-91440000D03*
X135255000Y-88900000D03*
X135255000Y-86360000D03*
X135255000Y-83820000D03*
X135255000Y-81280000D03*
X135255000Y-78740000D03*
X135255000Y-76200000D03*
X135255000Y-73660000D03*
X135255000Y-71120000D03*
X137795000Y-124460000D03*
X137795000Y-121920000D03*
X137795000Y-119380000D03*
X137795000Y-116840000D03*
X137795000Y-114300000D03*
X137795000Y-111760000D03*
X137795000Y-109220000D03*
X137795000Y-106680000D03*
X137795000Y-104140000D03*
X137795000Y-101600000D03*
X137795000Y-99060000D03*
X137795000Y-96520000D03*
X137795000Y-93980000D03*
X137795000Y-91440000D03*
X137795000Y-88900000D03*
X137795000Y-86360000D03*
X137795000Y-83820000D03*
X137795000Y-81280000D03*
X137795000Y-78740000D03*
X137795000Y-76200000D03*
X137795000Y-73660000D03*
X137795000Y-71120000D03*
X140335000Y-124460000D03*
X140335000Y-121920000D03*
X140335000Y-119380000D03*
X140335000Y-116840000D03*
X140335000Y-114300000D03*
X140335000Y-111760000D03*
X140335000Y-109220000D03*
X140335000Y-106680000D03*
X140335000Y-104140000D03*
X140335000Y-101600000D03*
X140335000Y-99060000D03*
X140335000Y-96520000D03*
X140335000Y-93980000D03*
X140335000Y-91440000D03*
X140335000Y-88900000D03*
X140335000Y-86360000D03*
X140335000Y-83820000D03*
X140335000Y-81280000D03*
X140335000Y-78740000D03*
X140335000Y-76200000D03*
X140335000Y-73660000D03*
X140335000Y-71120000D03*
X142875000Y-124460000D03*
X142875000Y-121920000D03*
X142875000Y-119380000D03*
X142875000Y-116840000D03*
X142875000Y-114300000D03*
X142875000Y-111760000D03*
X142875000Y-109220000D03*
X142875000Y-106680000D03*
X142875000Y-104140000D03*
X142875000Y-101600000D03*
X142875000Y-99060000D03*
X142875000Y-96520000D03*
X142875000Y-93980000D03*
X142875000Y-91440000D03*
X142875000Y-88900000D03*
X142875000Y-86360000D03*
X142875000Y-83820000D03*
X142875000Y-81280000D03*
X142875000Y-78740000D03*
X142875000Y-76200000D03*
X142875000Y-73660000D03*
X142875000Y-71120000D03*
X145415000Y-124460000D03*
X145415000Y-121920000D03*
X145415000Y-119380000D03*
X145415000Y-116840000D03*
X145415000Y-114300000D03*
X145415000Y-111760000D03*
X145415000Y-109220000D03*
X145415000Y-106680000D03*
X145415000Y-104140000D03*
X145415000Y-101600000D03*
X145415000Y-99060000D03*
X145415000Y-96520000D03*
X145415000Y-93980000D03*
X145415000Y-91440000D03*
X145415000Y-88900000D03*
X145415000Y-86360000D03*
X145415000Y-83820000D03*
X145415000Y-81280000D03*
X145415000Y-78740000D03*
X145415000Y-76200000D03*
X145415000Y-73660000D03*
X145415000Y-71120000D03*
X147955000Y-124460000D03*
X147955000Y-121920000D03*
X147955000Y-119380000D03*
X147955000Y-116840000D03*
X147955000Y-114300000D03*
X147955000Y-111760000D03*
X147955000Y-109220000D03*
X147955000Y-106680000D03*
X147955000Y-104140000D03*
X147955000Y-101600000D03*
X147955000Y-99060000D03*
X147955000Y-96520000D03*
X147955000Y-93980000D03*
X147955000Y-91440000D03*
X147955000Y-88900000D03*
X147955000Y-86360000D03*
X147955000Y-83820000D03*
X147955000Y-81280000D03*
X147955000Y-78740000D03*
X147955000Y-76200000D03*
X147955000Y-73660000D03*
X147955000Y-71120000D03*
X150495000Y-124460000D03*
X150495000Y-121920000D03*
X150495000Y-119380000D03*
X150495000Y-116840000D03*
X150495000Y-114300000D03*
X150495000Y-111760000D03*
X150495000Y-109220000D03*
X150495000Y-106680000D03*
X150495000Y-104140000D03*
X150495000Y-101600000D03*
X150495000Y-99060000D03*
X150495000Y-96520000D03*
X150495000Y-93980000D03*
X150495000Y-91440000D03*
X150495000Y-88900000D03*
X150495000Y-86360000D03*
X150495000Y-83820000D03*
X150495000Y-81280000D03*
X150495000Y-78740000D03*
X150495000Y-76200000D03*
X150495000Y-73660000D03*
X150495000Y-71120000D03*
D12*
X104140000Y-99060000D03*
D13*
X104140000Y-96520000D03*
D14*
X109855000Y-124460000D02*
X111379000Y-125984000D01*
X111379000Y-125984000D02*
X150622000Y-125984000D01*
X106680000Y-100330000D02*
X151130000Y-100330000D01*
X104140000Y-102870000D02*
X106680000Y-100330000D01*
X103008174Y-102870000D02*
X104140000Y-102870000D01*
X102311199Y-120726199D02*
X102311199Y-103566975D01*
X102311199Y-103566975D02*
X103008174Y-102870000D01*
X103505000Y-121920000D02*
X102311199Y-120726199D01*
X102743001Y-94741999D02*
X103505000Y-93980000D01*
X102692199Y-94792801D02*
X102743001Y-94741999D01*
X102692199Y-97612199D02*
X102692199Y-94792801D01*
X104140000Y-99060000D02*
X102692199Y-97612199D01*
X109855000Y-93980000D02*
X111125000Y-95250000D01*
X111125000Y-95250000D02*
X151130000Y-95250000D01*
X105155999Y-95504001D02*
X104140000Y-96520000D01*
X105155999Y-93090999D02*
X105155999Y-95504001D01*
X103505000Y-91440000D02*
X105155999Y-93090999D01*
X103505000Y-91440000D02*
X102362000Y-90297000D01*
X102311199Y-70546975D02*
X103262174Y-69596000D01*
X102311199Y-90246199D02*
X102311199Y-70546975D01*
X103262174Y-69596000D02*
X150622000Y-69596000D01*
M02*
